<svg xmlns="http://www.w3.org/2000/svg" width="662" height="302" style="
        width:662px;
        height:302px;
        background: transparent;
        fill: none;
">
        
        <svg xmlns="http://www.w3.org/2000/svg"><g class="shapes-region" style="stroke: black; fill: none;"><g class="composite-shape"><path class="real" d=" M228.38,204.28 C247.49,207.63 262.04,215.97 265.87,226.09 L211.3,230.7 Z" style="stroke-width: 1; stroke: none; fill: rgba(74, 144, 226, 0.22);"/><path class="real" d=" M228.38,204.28 C247.49,207.63 262.04,215.97 265.87,226.09" style="stroke-width: 1; stroke: rgb(74, 144, 226); fill: none;"/></g><g class="composite-shape axis2d" style="stroke-width: 1; stroke: rgb(155, 155, 155);"><path class="real" d=" M181,230.7 L485,230.7 M211.4,30 L211.4,253"/><path d=" M478,225.7 L485,230.7 L478,235.7"/><path d=" M206.4,37 L211.4,30 L216.4,37"/></g><g class="arrow-line"><path class="connection real" stroke-dasharray="" d="  M211.3,230.7 L319.91,64.67" style="stroke: rgb(74, 74, 74); stroke-width: 1; fill: rgb(74, 144, 226);"/><g stroke="none" fill="rgba(74,74,74,1)" transform="matrix(-0.5474171722300964,0.836859868524955,-0.836859868524955,-0.5474171722300964,321,63)" style="stroke: none; fill: rgb(74, 74, 74); stroke-width: 1;"><path d=" M8.93,-4.29 L0,0 L8.93,4.29 Z"/></g></g><g class="arrow-line"><path class="connection real" stroke-dasharray="" d="  M211.3,230.7 L432.01,212.5" style="stroke: rgb(74, 74, 74); stroke-width: 1; fill: rgb(74, 144, 226);"/><g stroke="none" fill="rgba(74,74,74,1)" transform="matrix(-0.996623070670856,0.08211245341964889,-0.08211245341964889,-0.996623070670856,433.99999999999994,212.3333282470703)" style="stroke: none; fill: rgb(74, 74, 74); stroke-width: 1;"><path d=" M8.93,-4.29 L0,0 L8.93,4.29 Z"/></g></g><g class="intersections-group"><g style="stroke: rgb(0, 0, 0); stroke-width: 1; fill: none;"/></g></g><g/><g/><!-- react-empty: 391 --></svg>
        <svg xmlns="http://www.w3.org/2000/svg" width="660" height="300" style="width:660px;height:300px;font-family:Asana-Math, Asana;background:transparent;"><g><g><g style="transform:matrix(1,0,0,1,257.77606201171875,208.66668701171875);"><path d="M237 -16C473 -16 572 316 576 504C578 618 546 702 419 702C159 702 72 412 69 199C67 80 101 -16 237 -16ZM401 676C536 676 506 491 485 381L169 381C194 485 272 676 401 676ZM253 13C102 13 147 261 163 349L479 349C454 237 396 13 253 13Z" stroke="rgb(0, 0, 0)" stroke-width="8" fill="rgb(0, 0, 0)" style="transform:matrix(0.017,0,0,-0.017,0,0);"></path></g></g></g><g><g><g><g><g><g style="transform:matrix(1,0,0,1,304.86981201171875,109.16668701171875);"><path d="M310 96L239 624C237 646 241 661 281 662L323 664L323 692L282 691C245 690 217 689 199 689C181 689 153 690 116 691L75 692L75 664L100 662C144 659 152 651 159 614L247 -8L296 -8L674 611C699 651 707 658 736 662L754 664L754 692L724 691C697 690 674 689 658 689C648 689 621 690 580 691L534 692L534 664L560 662C598 659 617 649 617 630C617 619 613 608 601 588Z" stroke="rgb(0, 0, 0)" stroke-width="8" fill="rgb(0, 0, 0)" style="transform:matrix(0.017,0,0,-0.017,0,0);"></path></g></g></g><svg x="304.86981201171875" style="overflow:visible;" y="89.16668701171875" height="9" width="13.104166984558105"><path d=" M 13.10 3.32 l -3.15 -3.32 l -0.49 0.52 l 1.93 2.33 h -0.15 v 0.90 h 0.15 l -1.93 2.33 l 0.49 0.52 z  M 0.00 3.70 h 11.42 v -0.90 h -11.42 z" style="fill:rgb(0, 0, 0);stroke-width:1px;stroke:none;"></path></svg></g></g></g><g><g><g><g><g><g style="transform:matrix(1,0,0,1,352.984375,207.16668701171875);"><path d="M303 692L264 691C226 689 202 689 182 689C170 689 148 690 110 691L71 692L71 664L89 662C130 656 138 645 142 588L174 158C179 92 181 44 182 -8L232 -8C246 27 264 66 282 102L506 546L618 154C633 102 644 53 657 -8L708 -8L715 18C725 58 733 85 746 124L917 631C923 648 938 660 960 662L980 664L980 692L948 691C919 690 897 689 883 689C870 689 848 690 818 691L785 692L780 664L819 662C848 661 860 653 860 639C860 626 857 608 851 590L704 128L546 700L528 700C516 673 494 624 476 588L252 132L221 616C221 646 234 660 266 662L303 664Z" stroke="rgb(0, 0, 0)" stroke-width="8" fill="rgb(0, 0, 0)" style="transform:matrix(0.017,0,0,-0.017,0,0);"></path></g></g></g><svg x="352.984375" style="overflow:visible;" y="187.16668701171875" height="9" width="16.875"><path d=" M 16.88 3.32 l -3.15 -3.32 l -0.49 0.52 l 1.93 2.33 h -0.15 v 0.90 h 0.15 l -1.93 2.33 l 0.49 0.52 z  M 0.00 3.70 h 15.19 v -0.90 h -15.19 z" style="fill:rgb(0, 0, 0);stroke-width:1px;stroke:none;"></path></svg></g></g></g></svg>
</svg>
