<svg xmlns="http://www.w3.org/2000/svg" width="662" height="302" style="
        width:662px;
        height:302px;
        background: transparent;
        fill: none;
">
        
        <svg xmlns="http://www.w3.org/2000/svg"><g class="shapes-region" style="stroke: black; fill: none;"><g class="composite-shape axis2d" style="stroke-width: 1; stroke: rgb(155, 155, 155);"><path class="real" d=" M52,110.11 L265,110.11 M179,43.45 L179,240.11"/><path d=" M258,105.11 L265,110.11 L258,115.11"/><path d=" M174,50.45 L179,43.45 L184,50.45"/></g><g class="arrow-line"><path class="connection real" stroke-dasharray="" d="  M135.5,45.28 L222.5,174.95" style="stroke: rgb(126, 211, 33); stroke-width: 1; fill: none;"/></g><g class="composite-shape"><path class="real" d=" M353.13,81 L483.33,81 L592.4,126.45 L462.2,126.45 Z" style="stroke-width: 1; stroke: rgb(126, 211, 33); fill: rgba(184, 233, 134, 0.32);"/></g><g class="arrow-line"><path class="connection real" stroke-dasharray="" d="  M457.36,187.81 L472.76,103.72" style="stroke: rgb(0, 0, 0); stroke-width: 1; fill: none;"/><g stroke="none" fill="#000" transform="matrix(0.18017580304778882,-0.9836344239584565,0.9836344239584565,0.18017580304778882,457,189.78125)" style="stroke: none; fill: rgb(0, 0, 0); stroke-width: 1;"><path d=" M8.93,-4.29 L0,0 L8.93,4.29 Z"/></g></g><g class="arrow-line"><path class="connection real" stroke-dasharray="" d="  M518.04,113.36 L472.76,103.72" style="stroke: rgb(0, 0, 0); stroke-width: 1; fill: none;"/><g stroke="none" fill="#000" transform="matrix(-0.9780749662719572,-0.20825311606818694,0.20825311606818694,-0.9780749662719572,520,113.78125)" style="stroke: none; fill: rgb(0, 0, 0); stroke-width: 1;"><path d=" M8.93,-4.29 L0,0 L8.93,4.29 Z"/></g></g><g class="arrow-line"><path class="connection real" stroke-dasharray="" d="  M541.35,150.65 L472.76,103.72" style="stroke: rgb(0, 0, 0); stroke-width: 1; fill: none;"/><g stroke="none" fill="#000" transform="matrix(-0.8253106586929997,-0.5646789500660769,0.5646789500660769,-0.8253106586929997,543,151.78125)" style="stroke: none; fill: rgb(0, 0, 0); stroke-width: 1;"><path d=" M8.93,-4.29 L0,0 L8.93,4.29 Z"/></g></g><g class="arrow-line"><path class="connection real" stroke-dasharray="" d="  M420.99,108.59 L472.76,103.72" style="stroke: rgb(0, 0, 0); stroke-width: 1; fill: none;"/><g stroke="none" fill="#000" transform="matrix(0.9956111031289763,-0.09358702541647015,0.09358702541647015,0.9956111031289763,419,108.78125)" style="stroke: none; fill: rgb(0, 0, 0); stroke-width: 1;"><path d=" M8.93,-4.29 L0,0 L8.93,4.29 Z"/></g></g><g class="arrow-line"><path class="connection real" stroke-dasharray="" d="  M484.57,156.83 L472.76,103.72" style="stroke: rgb(0, 0, 0); stroke-width: 1; fill: none;"/><g stroke="none" fill="#000" transform="matrix(-0.21695077163962007,-0.9761825457797191,0.9761825457797191,-0.21695077163962007,485,158.78124999999994)" style="stroke: none; fill: rgb(0, 0, 0); stroke-width: 1;"><path d=" M8.93,-4.29 L0,0 L8.93,4.29 Z"/></g></g><g class="arrow-line"><path class="connection real" stroke-dasharray="" d="  M457.76,95.72 L472.76,103.72" style="stroke: rgb(0, 0, 0); stroke-width: 1; fill: none;"/><g stroke="none" fill="#000" transform="matrix(0.8822912264349533,0.4707039321653325,-0.4707039321653325,0.8822912264349533,456,94.78125)" style="stroke: none; fill: rgb(0, 0, 0); stroke-width: 1;"><path d=" M8.93,-4.29 L0,0 L8.93,4.29 Z"/></g></g><g class="arrow-line"><path class="connection real" stroke-dasharray="" d="  M412.34,170.3 L472.76,103.72" style="stroke: rgb(0, 0, 0); stroke-width: 1; fill: none;"/><g stroke="none" fill="#000" transform="matrix(0.6719791379805631,-0.7405700764403726,0.7405700764403726,0.6719791379805631,411,171.78125)" style="stroke: none; fill: rgb(0, 0, 0); stroke-width: 1;"><path d=" M8.93,-4.29 L0,0 L8.93,4.29 Z"/></g></g><g class="arrow-line"><path class="connection real" stroke-dasharray="" d="  M179,110.11 L149.61,202.21" style="stroke: rgb(0, 0, 0); stroke-width: 1; fill: none;"/><g stroke="none" fill="#000" transform="matrix(0.30403306092548954,-0.9526614812535865,0.9526614812535865,0.30403306092548954,149,204.11456298828122)" style="stroke: none; fill: rgb(0, 0, 0); stroke-width: 1;"><path d=" M8.93,-4.29 L0,0 L8.93,4.29 Z"/></g></g><g class="arrow-line"><path class="connection real" stroke-dasharray="" d="  M179,110.11 L118.73,145.11" style="stroke: rgb(0, 0, 0); stroke-width: 1; fill: none;"/><g stroke="none" fill="#000" transform="matrix(0.8648010892220974,-0.5021146045279643,0.5021146045279643,0.8648010892220974,117,146.11456298828125)" style="stroke: none; fill: rgb(0, 0, 0); stroke-width: 1;"><path d=" M8.93,-4.29 L0,0 L8.93,4.29 Z"/></g></g><g class="arrow-line"><path class="connection real" stroke-dasharray="" d="  M179,110.11 L189.66,171.14" style="stroke: rgb(0, 0, 0); stroke-width: 1; fill: none;"/><g stroke="none" fill="#000" transform="matrix(-0.17192910027940964,-0.9851093261547739,0.9851093261547739,-0.17192910027940964,190,173.11456298828122)" style="stroke: none; fill: rgb(0, 0, 0); stroke-width: 1;"><path d=" M8.93,-4.29 L0,0 L8.93,4.29 Z"/></g></g><g class="arrow-line"><path class="connection real" stroke-dasharray="" d="  M179,110.11 L139.65,83.24" style="stroke: rgb(0, 0, 0); stroke-width: 1; fill: none;"/><g stroke="none" fill="#000" transform="matrix(0.8258031197202378,0.5639585157263985,-0.5639585157263985,0.8258031197202378,138,82.11456298828125)" style="stroke: none; fill: rgb(0, 0, 0); stroke-width: 1;"><path d=" M8.93,-4.29 L0,0 L8.93,4.29 Z"/></g></g><g class="intersections-group"><g style="stroke: rgb(0, 0, 0); stroke-width: 1; fill: none;"/></g></g><g/><g/><!-- react-empty: 807 --></svg>
        <svg xmlns="http://www.w3.org/2000/svg" width="660" height="300" style="width:660px;height:300px;font-family:Asana-Math, Asana;background:transparent;"></svg>
</svg>
