<svg xmlns="http://www.w3.org/2000/svg" width="662" height="302" style="
        width:662px;
        height:302px;
        background: transparent;
        fill: none;
">
        
        <svg xmlns="http://www.w3.org/2000/svg"><g class="shapes-region" style="stroke: black; fill: none;"><g class="composite-shape axis2d" style="stroke-width: 1; stroke: rgb(155, 155, 155);"><path class="real" d=" M33.73,210.44 L235.32,210.44 M53.89,45 L53.89,228.82"/><path d=" M228.32,205.44 L235.32,210.44 L228.32,215.44"/><path d=" M48.89,52 L53.89,45 L58.89,52"/></g><g class="arrow-line"><path class="connection real" stroke-dasharray="" d="  M53.89,210.44 L53.25,137.96" style="stroke: rgb(74, 74, 74); stroke-width: 1; fill: rgb(74, 144, 226);"/><g stroke="none" fill="rgba(74,74,74,1)" transform="matrix(0.00890106164409533,0.9999603847661206,-0.9999603847661206,0.00890106164409533,53.22906403940888,135.95658866995072)" style="stroke: none; fill: rgb(74, 74, 74); stroke-width: 1;"><path d=" M8.93,-4.29 L0,0 L8.93,4.29 Z"/></g></g><g class="arrow-line"><path class="connection real" stroke-dasharray="" d="  M53.89,210.44 L125.42,210.95" style="stroke: rgb(74, 74, 74); stroke-width: 1; fill: rgb(74, 144, 226);"/><g stroke="none" fill="rgba(74,74,74,1)" transform="matrix(-0.9999743970151198,-0.00715578886269984,0.00715578886269984,-0.9999743970151198,127.41625615763547,210.9680829228242)" style="stroke: none; fill: rgb(74, 74, 74); stroke-width: 1;"><path d=" M8.93,-4.29 L0,0 L8.93,4.29 Z"/></g></g><g class="composite-shape"><path class="real" d=" M306,146.98 L339.9,146.98 L339.9,133 L362.5,160.96 L339.9,188.92 L339.9,174.94 L306,174.94 Z" style="stroke-width: 1; stroke: rgb(0, 0, 0); fill: none;"/></g><g class="composite-shape axis2d" style="stroke-width: 1; stroke: rgb(155, 155, 155);"><path class="real" d=" M379.31,205.44 L580.9,205.44 M560.22,75.02 L381.6,219.93"/><path d=" M580.06,200.44 L580.9,205.44 L567.74,210.44"/><path d=" M546.6,82.02 L560.22,75.02 L556.6,82.02"/></g><g class="arrow-line"><path class="connection real" stroke-dasharray="" d="  M399.47,205.44 L466.94,151.17" style="stroke: rgb(74, 74, 74); stroke-width: 1; fill: rgb(74, 144, 226);"/><g stroke="none" fill="rgba(74,74,74,1)" transform="matrix(-0.7792285900658948,0.6267398219547866,-0.6267398219547866,-0.7792285900658948,468.50000000000006,149.91665649414062)" style="stroke: none; fill: rgb(74, 74, 74); stroke-width: 1;"><path d=" M8.93,-4.29 L0,0 L8.93,4.29 Z"/></g></g><g class="arrow-line"><path class="connection real" stroke-dasharray="" d="  M399.47,205.44 L538.5,204.92" style="stroke: rgb(74, 74, 74); stroke-width: 1; fill: rgb(74, 144, 226);"/><g stroke="none" fill="rgba(74,74,74,1)" transform="matrix(-0.999993283193413,0.0036651832230581334,-0.0036651832230581334,-0.999993283193413,540.5000000000001,204.91665649414062)" style="stroke: none; fill: rgb(74, 74, 74); stroke-width: 1;"><path d=" M8.93,-4.29 L0,0 L8.93,4.29 Z"/></g></g><g class="composite-shape"><path class="real" d=" M462.57,153.92 L595.67,153.92 L532.57,205.44 L399.47,205.44 Z" style="stroke-width: 1; stroke: rgba(0, 0, 0, 0.1); fill: rgba(0, 0, 0, 0.07);"/></g><g class="composite-shape"><path class="real" d=" M55.5,140.58 L125.5,140.58 L123.89,210.44 L53.89,210.44 Z" style="stroke-width: 1; stroke: rgba(0, 0, 0, 0.1); fill: rgba(0, 0, 0, 0.07);"/></g><g class="intersections-group"><g style="stroke: rgb(0, 0, 0); stroke-width: 1; fill: none;"/></g></g><g/><g/><!-- react-empty: 3295 --></svg>
        <svg xmlns="http://www.w3.org/2000/svg" width="660" height="300" style="width:660px;height:300px;font-family:Asana-Math, Asana;background:transparent;"><g><g><g style="transform:matrix(1,0,0,1,77.71354675292969,234.05731201171875);"><path d="M342 330L365 330C373 395 380 432 389 458C365 473 330 482 293 482C248 483 175 463 118 400C64 352 25 241 25 136C25 40 67 -11 147 -11C201 -11 249 9 304 54L354 95L346 115L331 105C259 57 221 40 186 40C130 40 101 80 101 159C101 267 136 371 185 409C206 425 230 433 261 433C306 433 342 414 342 390Z" stroke="rgb(0, 0, 0)" stroke-width="8" fill="rgb(0, 0, 0)" style="transform:matrix(0.017,0,0,-0.017,0,0);"></path></g><g><g><g><g style="transform:matrix(1,0,0,1,84.609375,239.446875);"><path d="M418 -3L418 27L366 30C311 33 301 44 301 96L301 700L60 598L67 548L217 614L217 96C217 44 206 33 152 30L96 27L96 -3C250 0 250 0 261 0C292 0 402 -3 418 -3Z" stroke="rgb(0, 0, 0)" stroke-width="8" fill="rgb(0, 0, 0)" style="transform:matrix(0.0119,0,0,-0.0119,0,0);"></path></g></g></g></g></g></g><g><g><g style="transform:matrix(1,0,0,1,29.078125,169.765625);"><path d="M342 330L365 330C373 395 380 432 389 458C365 473 330 482 293 482C248 483 175 463 118 400C64 352 25 241 25 136C25 40 67 -11 147 -11C201 -11 249 9 304 54L354 95L346 115L331 105C259 57 221 40 186 40C130 40 101 80 101 159C101 267 136 371 185 409C206 425 230 433 261 433C306 433 342 414 342 390Z" stroke="rgb(0, 0, 0)" stroke-width="8" fill="rgb(0, 0, 0)" style="transform:matrix(0.017,0,0,-0.017,0,0);"></path></g><g><g><g><g style="transform:matrix(1,0,0,1,35.973960876464844,175.15521850585938);"><path d="M16 23L16 -3C203 -3 203 0 239 0C275 0 275 -3 468 -3L468 82C353 77 307 81 122 77L304 270C401 373 431 428 431 503C431 618 353 689 226 689C154 689 105 669 56 619L39 483L68 483L81 529C97 587 133 612 200 612C286 612 341 558 341 473C341 398 299 324 186 204Z" stroke="rgb(0, 0, 0)" stroke-width="8" fill="rgb(0, 0, 0)" style="transform:matrix(0.0119,0,0,-0.0119,0,0);"></path></g></g></g></g></g></g><g><g><g style="transform:matrix(1,0,0,1,435.61981201171875,225.05731201171875);"><path d="M342 330L365 330C373 395 380 432 389 458C365 473 330 482 293 482C248 483 175 463 118 400C64 352 25 241 25 136C25 40 67 -11 147 -11C201 -11 249 9 304 54L354 95L346 115L331 105C259 57 221 40 186 40C130 40 101 80 101 159C101 267 136 371 185 409C206 425 230 433 261 433C306 433 342 414 342 390Z" stroke="rgb(0, 0, 0)" stroke-width="8" fill="rgb(0, 0, 0)" style="transform:matrix(0.017,0,0,-0.017,0,0);"></path></g><g><g><g><g style="transform:matrix(1,0,0,1,442.515625,230.446875);"><path d="M418 -3L418 27L366 30C311 33 301 44 301 96L301 700L60 598L67 548L217 614L217 96C217 44 206 33 152 30L96 27L96 -3C250 0 250 0 261 0C292 0 402 -3 418 -3Z" stroke="rgb(0, 0, 0)" stroke-width="8" fill="rgb(0, 0, 0)" style="transform:matrix(0.0119,0,0,-0.0119,0,0);"></path></g></g></g></g></g></g><g><g><g style="transform:matrix(1,0,0,1,420.234375,157.765625);"><path d="M342 330L365 330C373 395 380 432 389 458C365 473 330 482 293 482C248 483 175 463 118 400C64 352 25 241 25 136C25 40 67 -11 147 -11C201 -11 249 9 304 54L354 95L346 115L331 105C259 57 221 40 186 40C130 40 101 80 101 159C101 267 136 371 185 409C206 425 230 433 261 433C306 433 342 414 342 390Z" stroke="rgb(0, 0, 0)" stroke-width="8" fill="rgb(0, 0, 0)" style="transform:matrix(0.017,0,0,-0.017,0,0);"></path></g><g><g><g><g style="transform:matrix(1,0,0,1,427.1302185058594,163.15521850585938);"><path d="M16 23L16 -3C203 -3 203 0 239 0C275 0 275 -3 468 -3L468 82C353 77 307 81 122 77L304 270C401 373 431 428 431 503C431 618 353 689 226 689C154 689 105 669 56 619L39 483L68 483L81 529C97 587 133 612 200 612C286 612 341 558 341 473C341 398 299 324 186 204Z" stroke="rgb(0, 0, 0)" stroke-width="8" fill="rgb(0, 0, 0)" style="transform:matrix(0.0119,0,0,-0.0119,0,0);"></path></g></g></g></g></g></g><g><g><g style="transform:matrix(1,0,0,1,94.22917175292969,270.66668701171875);"><path d="M567 55C567 39 552 30 524 28L480 25L480 -3C582 0 582 0 602 0C622 0 622 0 724 -3L724 25L698 28C651 35 650 35 642 80L555 705L509 705L136 112C100 56 82 40 48 32L28 27L28 -3C120 0 120 0 140 0C159 0 161 0 247 -3L247 25L195 28C179 29 164 38 164 47C164 55 171 69 190 102L292 277L538 277L563 89L563 86C563 84 567 69 567 55ZM496 601L533 313L317 313ZM1119 365C1122 403 1127 435 1135 476C1124 481 1120 482 1115 482C1084 482 1053 458 1017 407C978 351 939 291 923 256L955 408C959 425 961 438 961 450C961 470 953 482 938 482C917 482 879 461 805 408L777 388L784 368L816 389C844 407 855 412 864 412C874 412 881 403 881 390C881 332 838 126 798 -2L808 -9C823 -4 839 -1 862 4L875 6L901 126C919 209 942 262 986 319C1020 363 1047 384 1069 384C1084 384 1094 379 1105 365ZM1467 111L1443 94C1390 56 1342 36 1306 36C1259 36 1230 73 1230 133C1230 158 1233 185 1238 214C1255 218 1364 248 1389 259C1474 296 1513 342 1513 404C1513 451 1479 482 1429 482C1361 496 1251 423 1214 349C1184 299 1154 180 1154 113C1154 35 1198 -11 1270 -11C1327 -11 1383 17 1475 92ZM1252 274C1269 343 1289 386 1318 412C1336 428 1367 440 1391 440C1420 440 1439 420 1439 388C1439 344 1404 297 1352 272C1324 258 1288 247 1243 237ZM1798 204L1769 77C1765 60 1763 42 1763 26C1763 4 1772 -9 1787 -9C1810 -9 1851 17 1933 85L1926 106C1902 86 1873 59 1851 59C1842 59 1836 68 1836 82C1836 87 1836 90 1837 93L1929 472L1919 481L1886 463C1845 478 1828 482 1801 482C1773 482 1753 477 1726 464C1664 433 1631 403 1606 354C1562 265 1531 145 1531 67C1531 23 1546 -11 1565 -11C1602 -11 1682 41 1798 204ZM1846 414C1824 305 1805 253 1771 201C1714 117 1653 59 1621 59C1609 59 1603 72 1603 99C1603 163 1631 280 1666 360C1690 415 1713 433 1761 433C1784 433 1802 429 1846 414Z" stroke="rgb(0, 0, 0)" stroke-width="8" fill="rgb(0, 0, 0)" style="transform:matrix(0.017,0,0,-0.017,0,0);"></path></g><g style="transform:matrix(1,0,0,1,132.2291717529297,270.66668701171875);"><path d="M604 347L604 406L65 406L65 347ZM604 134L604 193L65 193L65 134Z" stroke="rgb(0, 0, 0)" stroke-width="8" fill="rgb(0, 0, 0)" style="transform:matrix(0.017,0,0,-0.017,0,0);"></path></g><g style="transform:matrix(1,0,0,1,148.2291717529297,270.66668701171875);"><path d="M418 -3L418 27L366 30C311 33 301 44 301 96L301 700L60 598L67 548L217 614L217 96C217 44 206 33 152 30L96 27L96 -3C250 0 250 0 261 0C292 0 402 -3 418 -3Z" stroke="rgb(0, 0, 0)" stroke-width="8" fill="rgb(0, 0, 0)" style="transform:matrix(0.017,0,0,-0.017,0,0);"></path></g></g></g><g><g><g style="transform:matrix(1,0,0,1,460.22918701171875,267.66668701171875);"><path d="M567 55C567 39 552 30 524 28L480 25L480 -3C582 0 582 0 602 0C622 0 622 0 724 -3L724 25L698 28C651 35 650 35 642 80L555 705L509 705L136 112C100 56 82 40 48 32L28 27L28 -3C120 0 120 0 140 0C159 0 161 0 247 -3L247 25L195 28C179 29 164 38 164 47C164 55 171 69 190 102L292 277L538 277L563 89L563 86C563 84 567 69 567 55ZM496 601L533 313L317 313ZM1119 365C1122 403 1127 435 1135 476C1124 481 1120 482 1115 482C1084 482 1053 458 1017 407C978 351 939 291 923 256L955 408C959 425 961 438 961 450C961 470 953 482 938 482C917 482 879 461 805 408L777 388L784 368L816 389C844 407 855 412 864 412C874 412 881 403 881 390C881 332 838 126 798 -2L808 -9C823 -4 839 -1 862 4L875 6L901 126C919 209 942 262 986 319C1020 363 1047 384 1069 384C1084 384 1094 379 1105 365ZM1467 111L1443 94C1390 56 1342 36 1306 36C1259 36 1230 73 1230 133C1230 158 1233 185 1238 214C1255 218 1364 248 1389 259C1474 296 1513 342 1513 404C1513 451 1479 482 1429 482C1361 496 1251 423 1214 349C1184 299 1154 180 1154 113C1154 35 1198 -11 1270 -11C1327 -11 1383 17 1475 92ZM1252 274C1269 343 1289 386 1318 412C1336 428 1367 440 1391 440C1420 440 1439 420 1439 388C1439 344 1404 297 1352 272C1324 258 1288 247 1243 237ZM1798 204L1769 77C1765 60 1763 42 1763 26C1763 4 1772 -9 1787 -9C1810 -9 1851 17 1933 85L1926 106C1902 86 1873 59 1851 59C1842 59 1836 68 1836 82C1836 87 1836 90 1837 93L1929 472L1919 481L1886 463C1845 478 1828 482 1801 482C1773 482 1753 477 1726 464C1664 433 1631 403 1606 354C1562 265 1531 145 1531 67C1531 23 1546 -11 1565 -11C1602 -11 1682 41 1798 204ZM1846 414C1824 305 1805 253 1771 201C1714 117 1653 59 1621 59C1609 59 1603 72 1603 99C1603 163 1631 280 1666 360C1690 415 1713 433 1761 433C1784 433 1802 429 1846 414Z" stroke="rgb(0, 0, 0)" stroke-width="8" fill="rgb(0, 0, 0)" style="transform:matrix(0.017,0,0,-0.017,0,0);"></path></g><g style="transform:matrix(1,0,0,1,498.22918701171875,267.66668701171875);"><path d="M604 347L604 406L65 406L65 347ZM604 134L604 193L65 193L65 134Z" stroke="rgb(0, 0, 0)" stroke-width="8" fill="rgb(0, 0, 0)" style="transform:matrix(0.017,0,0,-0.017,0,0);"></path></g><g style="transform:matrix(1,0,0,1,514.2291870117188,267.66668701171875);"><path d="M462 224C462 345 355 366 308 374C388 436 418 482 418 541C418 630 344 689 233 689C165 689 120 670 72 622L43 498L74 498L92 554C103 588 166 622 218 622C283 622 336 569 336 506C336 431 277 368 206 368C198 368 187 369 174 370L159 371L147 318L154 312C192 329 211 334 238 334C321 334 369 281 369 190C369 88 308 21 215 21C169 21 128 36 98 64C74 86 61 109 42 163L15 153C36 92 44 56 50 6C103 -12 147 -20 184 -20C307 -20 462 87 462 224Z" stroke="rgb(0, 0, 0)" stroke-width="8" fill="rgb(0, 0, 0)" style="transform:matrix(0.017,0,0,-0.017,0,0);"></path></g></g></g><g><g><g style="transform:matrix(1,0,0,1,400.0208435058594,76.66668701171875);"><path d="M316 -3C388 -3 437 8 489 34C645 114 741 265 741 431C741 529 711 599 650 642C604 675 519 693 424 692L220 689L210 689C201 689 198 689 97 692L94 664L147 662C171 661 182 653 182 635C182 621 178 589 173 559L86 55C81 31 56 29 33 23L28 -3L121 0L176 0C211 0 282 -3 316 -3ZM384 655C566 655 649 579 649 415C649 225 549 41 329 41C285 41 236 46 168 56C168 68 169 75 172 93L268 650C291 650 349 655 384 655ZM1105 111L1081 94C1028 56 980 36 944 36C897 36 868 73 868 133C868 158 871 185 876 214C893 218 1002 248 1027 259C1112 296 1151 342 1151 404C1151 451 1117 482 1067 482C999 496 889 423 852 349C822 299 792 180 792 113C792 35 836 -11 908 -11C965 -11 1021 17 1113 92ZM890 274C907 343 927 386 956 412C974 428 1005 440 1029 440C1058 440 1077 420 1077 388C1077 344 1042 297 990 272C962 258 926 247 881 237ZM1290 390L1234 107C1233 99 1221 61 1221 31C1221 6 1232 -9 1251 -9C1286 -9 1321 11 1399 74L1430 99L1420 117L1375 86C1346 66 1326 56 1315 56C1306 56 1301 64 1301 76C1301 102 1315 183 1344 328L1357 390L1464 390L1475 440C1437 436 1403 434 1365 434C1381 528 1392 577 1410 631L1399 646C1379 634 1352 622 1321 610L1296 440C1252 419 1226 408 1208 403L1206 390ZM1825 111L1801 94C1748 56 1700 36 1664 36C1617 36 1588 73 1588 133C1588 158 1591 185 1596 214C1613 218 1722 248 1747 259C1832 296 1871 342 1871 404C1871 451 1837 482 1787 482C1719 496 1609 423 1572 349C1542 299 1512 180 1512 113C1512 35 1556 -11 1628 -11C1685 -11 1741 17 1833 92ZM1610 274C1627 343 1647 386 1676 412C1694 428 1725 440 1749 440C1778 440 1797 420 1797 388C1797 344 1762 297 1710 272C1682 258 1646 247 1601 237ZM2253 365C2256 403 2261 435 2269 476C2258 481 2254 482 2249 482C2218 482 2187 458 2151 407C2112 351 2073 291 2057 256L2089 408C2093 425 2095 438 2095 450C2095 470 2087 482 2072 482C2051 482 2013 461 1939 408L1911 388L1918 368L1950 389C1978 407 1989 412 1998 412C2008 412 2015 403 2015 390C2015 332 1972 126 1932 -2L1942 -9C1957 -4 1973 -1 1996 4L2009 6L2035 126C2053 209 2076 262 2120 319C2154 363 2181 384 2203 384C2218 384 2228 379 2239 365ZM2307 388L2314 368L2346 389C2383 412 2386 414 2393 414C2403 414 2411 404 2411 391C2411 384 2407 361 2403 347L2337 107C2329 76 2324 49 2324 30C2324 6 2335 -9 2354 -9C2380 -9 2416 12 2514 85L2504 103L2478 86C2449 67 2426 56 2417 56C2410 56 2404 66 2404 76C2404 86 2406 95 2411 116L2488 420C2492 437 2494 448 2494 456C2494 473 2485 482 2469 482C2447 482 2410 461 2335 408ZM2501 712C2472 712 2443 679 2443 645C2443 620 2458 604 2482 604C2513 604 2537 633 2537 671C2537 695 2522 712 2501 712ZM3280 103L3254 86C3225 67 3203 56 3193 56C3186 56 3180 65 3180 76C3180 86 3182 95 3187 116L3262 413C3266 430 3269 446 3269 454C3269 471 3259 482 3243 482C3214 482 3176 464 3115 421C3052 376 3017 341 2968 272L2998 409C3002 429 3005 444 3005 451C3005 470 2995 482 2979 482C2949 482 2903 460 2848 418C2804 384 2784 363 2719 275L2752 408C2756 424 2758 439 2758 451C2758 470 2749 482 2735 482C2714 482 2676 461 2602 408L2574 388L2581 368C2618 391 2653 414 2660 414C2671 414 2678 404 2678 389C2678 338 2637 145 2596 2L2599 -9L2667 6L2689 108C2713 219 2740 278 2795 338C2837 384 2882 414 2910 414C2917 414 2921 406 2921 393C2921 358 2899 244 2858 69L2842 2L2847 -9L2916 6L2937 113C2953 194 2987 269 3031 318C3086 379 3136 414 3168 414C3176 414 3181 405 3181 389C3181 365 3178 351 3156 264C3116 105 3100 84 3100 31C3100 6 3111 -9 3130 -9C3156 -9 3192 12 3290 85ZM3361 388L3368 368L3400 389C3437 412 3440 414 3447 414C3457 414 3465 404 3465 391C3465 384 3461 361 3457 347L3391 107C3383 76 3378 49 3378 30C3378 6 3389 -9 3408 -9C3434 -9 3470 12 3568 85L3558 103L3532 86C3503 67 3480 56 3471 56C3464 56 3458 66 3458 76C3458 86 3460 95 3465 116L3542 420C3546 437 3548 448 3548 456C3548 473 3539 482 3523 482C3501 482 3464 461 3389 408ZM3555 712C3526 712 3497 679 3497 645C3497 620 3512 604 3536 604C3567 604 3591 633 3591 671C3591 695 3576 712 3555 712ZM3628 388L3635 368L3667 389C3704 412 3707 414 3714 414C3725 414 3732 404 3732 389C3732 338 3691 145 3650 2L3657 -9C3682 -2 3705 4 3727 8C3746 134 3767 199 3813 268C3867 352 3942 414 3987 414C3998 414 4004 405 4004 390C4004 372 4001 351 3993 319L3941 107C3932 70 3928 47 3928 31C3928 6 3939 -9 3958 -9C3984 -9 4020 12 4118 85L4108 103L4082 86C4053 67 4031 56 4021 56C4014 56 4008 65 4008 76C4008 81 4009 92 4010 96L4076 372C4083 401 4087 429 4087 446C4087 469 4076 482 4056 482C4014 482 3945 444 3886 389C3848 354 3820 320 3768 247L3806 408C3810 426 3812 438 3812 449C3812 470 3804 482 3789 482C3768 482 3729 460 3656 408ZM4430 204L4401 77C4397 60 4395 42 4395 26C4395 4 4404 -9 4419 -9C4442 -9 4483 17 4565 85L4558 106C4534 86 4505 59 4483 59C4474 59 4468 68 4468 82C4468 87 4468 90 4469 93L4561 472L4551 481L4518 463C4477 478 4460 482 4433 482C4405 482 4385 477 4358 464C4296 433 4263 403 4238 354C4194 265 4163 145 4163 67C4163 23 4178 -11 4197 -11C4234 -11 4314 41 4430 204ZM4478 414C4456 305 4437 253 4403 201C4346 117 4285 59 4253 59C4241 59 4235 72 4235 99C4235 163 4263 280 4298 360C4322 415 4345 433 4393 433C4416 433 4434 429 4478 414ZM4626 388L4633 368L4665 389C4702 412 4705 414 4712 414C4723 414 4730 404 4730 389C4730 338 4689 145 4648 2L4655 -9C4680 -2 4703 4 4725 8C4744 134 4765 199 4811 268C4865 352 4940 414 4985 414C4996 414 5002 405 5002 390C5002 372 4999 351 4991 319L4939 107C4930 70 4926 47 4926 31C4926 6 4937 -9 4956 -9C4982 -9 5018 12 5116 85L5106 103L5080 86C5051 67 5029 56 5019 56C5012 56 5006 65 5006 76C5006 81 5007 92 5008 96L5074 372C5081 401 5085 429 5085 446C5085 469 5074 482 5054 482C5012 482 4943 444 4884 389C4846 354 4818 320 4766 247L4804 408C4808 426 4810 438 4810 449C4810 470 4802 482 4787 482C4766 482 4727 460 4654 408ZM5282 390L5226 107C5225 99 5213 61 5213 31C5213 6 5224 -9 5243 -9C5278 -9 5313 11 5391 74L5422 99L5412 117L5367 86C5338 66 5318 56 5307 56C5298 56 5293 64 5293 76C5293 102 5307 183 5336 328L5349 390L5456 390L5467 440C5429 436 5395 434 5357 434C5373 528 5384 577 5402 631L5391 646C5371 634 5344 622 5313 610L5288 440C5244 419 5218 408 5200 403L5198 390ZM5817 111L5793 94C5740 56 5692 36 5656 36C5609 36 5580 73 5580 133C5580 158 5583 185 5588 214C5605 218 5714 248 5739 259C5824 296 5863 342 5863 404C5863 451 5829 482 5779 482C5711 496 5601 423 5564 349C5534 299 5504 180 5504 113C5504 35 5548 -11 5620 -11C5677 -11 5733 17 5825 92ZM5602 274C5619 343 5639 386 5668 412C5686 428 5717 440 5741 440C5770 440 5789 420 5789 388C5789 344 5754 297 5702 272C5674 258 5638 247 5593 237Z" stroke="rgb(0, 0, 0)" stroke-width="8" fill="rgb(0, 0, 0)" style="transform:matrix(0.017,0,0,-0.017,0,0);"></path></g><g style="transform:matrix(1,0,0,1,504.6875,76.66668701171875);"><path d="M604 135L604 194L333 194L394 348L604 348L604 407L418 407L493 596L436 596L361 406L65 406L65 347L337 347L276 193L65 193L65 134L252 134L177 -55L234 -55L308 135Z" stroke="rgb(0, 0, 0)" stroke-width="8" fill="rgb(0, 0, 0)" style="transform:matrix(0.017,0,0,-0.017,0,0);"></path></g><g style="transform:matrix(1,0,0,1,520.6875,76.66668701171875);"><path d="M263 689C108 689 29 566 29 324C29 207 50 106 85 57C120 8 176 -20 238 -20C389 -20 465 110 465 366C465 585 400 689 263 689ZM245 654C342 654 381 556 381 316C381 103 343 15 251 15C154 15 113 116 113 360C113 571 150 654 245 654Z" stroke="rgb(0, 0, 0)" stroke-width="8" fill="rgb(0, 0, 0)" style="transform:matrix(0.017,0,0,-0.017,0,0);"></path></g></g></g></svg>
</svg>
