<svg xmlns="http://www.w3.org/2000/svg" width="662" height="302" style="
        width:662px;
        height:302px;
        background: transparent;
        fill: none;
">
        
        <svg xmlns="http://www.w3.org/2000/svg"><g class="shapes-region" style="stroke: black; fill: none;"><g class="composite-shape axis2d" style="stroke-width: 1; stroke: rgb(155, 155, 155);"><path class="real" d=" M60,184.45 L273,184.45 M122,47.45 L122,244.11"/><path d=" M266,179.45 L273,184.45 L266,189.45"/><path d=" M117,54.45 L122,47.45 L127,54.45"/></g><g class="arrow-line"><path class="connection real" stroke-dasharray="" d="  M225.37,111.6 L122,184.45" style="stroke: rgba(208, 2, 27, 0.64); stroke-width: 1; fill: none;"/><g stroke="none" fill="rgba(208,2,27,0.64)" transform="matrix(-0.8174466055638452,0.5760043811049942,-0.5760043811049942,-0.8174466055638452,227,110.44791412353516)" style="stroke: none; fill: rgba(208, 2, 27, 0.64); stroke-width: 1;"><path d=" M8.93,-4.29 L0,0 L8.93,4.29 Z"/></g></g><g class="arrow-line"><path class="connection real" stroke-dasharray="" d="  M75,115.45 L162,245.11" style="stroke: rgb(126, 211, 33); stroke-width: 1; fill: none;"/></g><g class="arrow-line"><path class="connection real" stroke-dasharray="" d="  M226.03,167.44 L122,184.45" style="stroke: rgba(208, 2, 27, 0.64); stroke-width: 1; fill: none;"/><g stroke="none" fill="rgba(208,2,27,0.64)" transform="matrix(-0.9868839065636127,0.16143157982793419,-0.16143157982793419,-0.9868839065636127,228,167.11456298828125)" style="stroke: none; fill: rgba(208, 2, 27, 0.64); stroke-width: 1;"><path d=" M8.93,-4.29 L0,0 L8.93,4.29 Z"/></g></g><g class="arrow-line"><path class="connection real" stroke-dasharray="" d="  M156.71,225.59 L122,184.45" style="stroke: rgb(0, 0, 0); stroke-width: 1; fill: none;"/><g stroke="none" fill="#000" transform="matrix(-0.6449243002526144,-0.764246456938909,0.764246456938909,-0.6449243002526144,158,227.11456298828125)" style="stroke: none; fill: rgb(0, 0, 0); stroke-width: 1;"><path d=" M8.93,-4.29 L0,0 L8.93,4.29 Z"/></g></g><g class="arrow-line"><path class="connection real" stroke-dasharray="" d="  M111.44,138.06 L122,184.45" style="stroke: rgb(0, 0, 0); stroke-width: 1; fill: none;"/><g stroke="none" fill="#000" transform="matrix(0.22188887545367497,0.9750719598829122,-0.9750719598829122,0.22188887545367497,111,136.11456298828125)" style="stroke: none; fill: rgb(0, 0, 0); stroke-width: 1;"><path d=" M8.93,-4.29 L0,0 L8.93,4.29 Z"/></g></g><g class="arrow-line"><path class="connection real" stroke-dasharray="" d="  M139.59,100.07 L122,184.45" style="stroke: rgba(208, 2, 27, 0.64); stroke-width: 1; fill: none;"/><g stroke="none" fill="rgba(208,2,27,0.64)" transform="matrix(-0.20415435021263148,0.9789387117124637,-0.9789387117124637,-0.20415435021263148,139.99999999999997,98.11456298828125)" style="stroke: none; fill: rgba(208, 2, 27, 0.64); stroke-width: 1;"><path d=" M8.93,-4.29 L0,0 L8.93,4.29 Z"/></g></g><g class="composite-shape"><path class="real" d=" M360.13,174 L490.33,174 L599.4,219.45 L469.2,219.45 Z" style="stroke-width: 1; stroke: rgba(126, 211, 33, 0.7); fill: rgba(126, 211, 33, 0.13);"/></g><g class="arrow-line"><path class="connection real" stroke-dasharray="" d="  M474.1,69.45 L480.76,196.72" style="stroke: rgba(208, 2, 27, 0.55); stroke-width: 1; fill: none;"/><g stroke="none" fill="rgba(208,2,27,0.55)" transform="matrix(0.05216166171281518,0.9986386538920661,-0.9986386538920661,0.05216166171281518,474.00000000000006,67.44790649414062)" style="stroke: none; fill: rgba(208, 2, 27, 0.55); stroke-width: 1;"><path d=" M8.93,-4.29 L0,0 L8.93,4.29 Z"/></g></g><g class="arrow-line"><path class="connection real" stroke-dasharray="" d="  M548.64,122.25 L479.76,196.72" style="stroke: rgba(208, 2, 27, 0.55); stroke-width: 1; fill: none;"/><g stroke="none" fill="rgba(208,2,27,0.55)" transform="matrix(-0.6789288986491758,0.7342040251721704,-0.7342040251721704,-0.6789288986491758,550,120.78125)" style="stroke: none; fill: rgba(208, 2, 27, 0.55); stroke-width: 1;"><path d=" M8.93,-4.29 L0,0 L8.93,4.29 Z"/></g></g><g class="arrow-line"><path class="connection real" stroke-dasharray="" d="  M552,194.83 L480.76,196.72" style="stroke: rgba(0, 0, 0, 0.5); stroke-width: 1; fill: none;"/><g stroke="none" fill="rgba(0,0,0,0.5)" transform="matrix(-0.9996481265944145,0.026525892940246234,-0.026525892940246234,-0.9996481265944145,553.9999999999999,194.78125)" style="stroke: none; fill: rgba(0, 0, 0, 0.5); stroke-width: 1;"><path d=" M8.93,-4.29 L0,0 L8.93,4.29 Z"/></g></g><g class="arrow-line"><path class="connection real" stroke-dasharray="" d="  M426.66,160.23 L480.76,196.72" style="stroke: rgba(0, 0, 0, 0.5); stroke-width: 1; fill: none;"/><g stroke="none" fill="rgba(0,0,0,0.5)" transform="matrix(0.8290375725550416,0.5591929034707469,-0.5591929034707469,0.8290375725550416,425,159.11456298828125)" style="stroke: none; fill: rgba(0, 0, 0, 0.5); stroke-width: 1;"><path d=" M8.93,-4.29 L0,0 L8.93,4.29 Z"/></g></g><g class="arrow-line"><path class="connection real" stroke-dasharray="" d="  M452.73,124.98 L480.76,196.72" style="stroke: rgba(208, 2, 27, 0.55); stroke-width: 1; fill: none;"/><g stroke="none" fill="rgba(208,2,27,0.55)" transform="matrix(0.3639015850793563,0.9314374033593089,-0.9314374033593089,0.3639015850793563,452,123.11456298828125)" style="stroke: none; fill: rgba(208, 2, 27, 0.55); stroke-width: 1;"><path d=" M8.93,-4.29 L0,0 L8.93,4.29 Z"/></g></g><g class="arrow-line"><path class="connection real" stroke-dasharray="" d="  M438.91,183.39 L480.76,196.72" style="stroke: rgba(0, 0, 0, 0.5); stroke-width: 1; fill: none;"/><g stroke="none" fill="rgba(0,0,0,0.5)" transform="matrix(0.9528205419959803,0.3035342068869443,-0.3035342068869443,0.9528205419959803,437,182.78125)" style="stroke: none; fill: rgba(0, 0, 0, 0.5); stroke-width: 1;"><path d=" M8.93,-4.29 L0,0 L8.93,4.29 Z"/></g></g><g class="arrow-line"><path class="connection real" stroke-dasharray="" d="  M462.48,180.13 L480.76,196.72" style="stroke: rgba(0, 0, 0, 0.5); stroke-width: 1; fill: none;"/><g stroke="none" fill="rgba(0,0,0,0.5)" transform="matrix(0.740335466357778,0.672237604759516,-0.672237604759516,0.740335466357778,461,178.78125)" style="stroke: none; fill: rgba(0, 0, 0, 0.5); stroke-width: 1;"><path d=" M8.93,-4.29 L0,0 L8.93,4.29 Z"/></g></g><g class="composite-shape"><path class="real" d=" M361.81,142.3 L492.01,142.3 L601.08,187.75 L470.88,187.75 Z" style="stroke-width: 1; stroke: rgb(245, 166, 35); fill: rgba(245, 166, 35, 0.24);"/></g><g class="arrow-line"><path class="connection real" stroke-dasharray="" d="  M101,93.11 L201,232.11" style="stroke: rgb(245, 166, 35); stroke-width: 1; fill: none;"/></g><g class="intersections-group"><g style="stroke: rgb(0, 0, 0); stroke-width: 1; fill: none;"/></g></g><g/><g/><!-- react-empty: 945 --></svg>
        <svg xmlns="http://www.w3.org/2000/svg" width="660" height="300" style="width:660px;height:300px;font-family:Asana-Math, Asana;background:transparent;"><g><g><g style="transform:matrix(1,0,0,1,345.15625,143.66668701171875);"><path d="M45 284C45 90 152 -18 343 -18C439 -18 510 5 600 67L610 103L600 110C506 53 454 35 376 35C219 35 133 131 133 309C133 447 190 653 418 653C489 653 541 639 597 603L597 519L624 519C629 576 637 619 651 665C575 694 518 706 456 706C276 706 45 578 45 284Z" stroke="rgb(0, 0, 0)" stroke-width="8" fill="rgb(0, 0, 0)" style="transform:matrix(0.017,0,0,-0.017,0,0);"></path></g></g></g><g><g><g style="transform:matrix(1,0,0,1,85.15625,93.66668701171875);"><path d="M45 284C45 90 152 -18 343 -18C439 -18 510 5 600 67L610 103L600 110C506 53 454 35 376 35C219 35 133 131 133 309C133 447 190 653 418 653C489 653 541 639 597 603L597 519L624 519C629 576 637 619 651 665C575 694 518 706 456 706C276 706 45 578 45 284Z" stroke="rgb(0, 0, 0)" stroke-width="8" fill="rgb(0, 0, 0)" style="transform:matrix(0.017,0,0,-0.017,0,0);"></path></g></g></g></svg>
</svg>
