<svg xmlns="http://www.w3.org/2000/svg" width="662" height="302" style="
        width:662px;
        height:302px;
        background: transparent;
        fill: none;
">
        
        <svg xmlns="http://www.w3.org/2000/svg"><g class="shapes-region" style="stroke: black; fill: none;"><g class="composite-shape axis2d" style="stroke-width: 1; stroke: rgb(155, 155, 155);"><path class="real" d=" M33.73,210.44 L235.32,210.44 M53.89,45 L53.89,228.82"/><path d=" M228.32,205.44 L235.32,210.44 L228.32,215.44"/><path d=" M48.89,52 L53.89,45 L58.89,52"/></g><g class="arrow-line"><path class="connection real" stroke-dasharray="" d="  M53.89,210.44 L53.25,137.96" style="stroke: rgb(74, 74, 74); stroke-width: 1; fill: rgb(74, 144, 226);"/><g stroke="none" fill="rgba(74,74,74,1)" transform="matrix(0.00890106164409533,0.9999603847661206,-0.9999603847661206,0.00890106164409533,53.22906403940888,135.95658866995072)" style="stroke: none; fill: rgb(74, 74, 74); stroke-width: 1;"><path d=" M8.93,-4.29 L0,0 L8.93,4.29 Z"/></g></g><g class="arrow-line"><path class="connection real" stroke-dasharray="" d="  M53.89,210.44 L125.42,210.95" style="stroke: rgb(74, 74, 74); stroke-width: 1; fill: rgb(74, 144, 226);"/><g stroke="none" fill="rgba(74,74,74,1)" transform="matrix(-0.9999743970151198,-0.00715578886269984,0.00715578886269984,-0.9999743970151198,127.41625615763547,210.9680829228242)" style="stroke: none; fill: rgb(74, 74, 74); stroke-width: 1;"><path d=" M8.93,-4.29 L0,0 L8.93,4.29 Z"/></g></g><g class="composite-shape"><path class="real" d=" M306,146.98 L339.9,146.98 L339.9,133 L362.5,160.96 L339.9,188.92 L339.9,174.94 L306,174.94 Z" style="stroke-width: 1; stroke: rgb(0, 0, 0); fill: none;"/></g><g class="composite-shape axis2d" style="stroke-width: 1; stroke: rgb(155, 155, 155);"><path class="real" d=" M379.31,205.44 L580.9,205.44 M560.22,75.02 L381.6,219.93"/><path d=" M580.06,200.44 L580.9,205.44 L567.74,210.44"/><path d=" M546.6,82.02 L560.22,75.02 L556.6,82.02"/></g><g class="arrow-line"><path class="connection real" stroke-dasharray="" d="  M399.47,205.44 L466.94,151.17" style="stroke: rgb(74, 74, 74); stroke-width: 1; fill: rgb(74, 144, 226);"/><g stroke="none" fill="rgba(74,74,74,1)" transform="matrix(-0.7792285900658948,0.6267398219547866,-0.6267398219547866,-0.7792285900658948,468.50000000000006,149.91665649414062)" style="stroke: none; fill: rgb(74, 74, 74); stroke-width: 1;"><path d=" M8.93,-4.29 L0,0 L8.93,4.29 Z"/></g></g><g class="arrow-line"><path class="connection real" stroke-dasharray="" d="  M399.47,205.44 L538.5,204.92" style="stroke: rgb(74, 74, 74); stroke-width: 1; fill: rgb(74, 144, 226);"/><g stroke="none" fill="rgba(74,74,74,1)" transform="matrix(-0.999993283193413,0.0036651832230581334,-0.0036651832230581334,-0.999993283193413,540.5000000000001,204.91665649414062)" style="stroke: none; fill: rgb(74, 74, 74); stroke-width: 1;"><path d=" M8.93,-4.29 L0,0 L8.93,4.29 Z"/></g></g><g class="composite-shape"><path class="real" d=" M462.57,153.92 L595.67,153.92 L532.57,205.44 L399.47,205.44 Z" style="stroke-width: 1; stroke: rgba(0, 0, 0, 0.1); fill: rgba(0, 0, 0, 0.07);"/></g><g class="composite-shape"><path class="real" d=" M55.5,140.58 L125.5,140.58 L123.89,210.44 L53.89,210.44 Z" style="stroke-width: 1; stroke: rgba(0, 0, 0, 0.1); fill: rgba(0, 0, 0, 0.07);"/></g><g class="intersections-group"><g style="stroke: rgb(0, 0, 0); stroke-width: 1; fill: none;"/></g></g><g/><g/><!-- react-empty: 2570 --></svg>
        <svg xmlns="http://www.w3.org/2000/svg" width="660" height="300" style="width:660px;height:300px;font-family:Asana-Math, Asana;background:transparent;"><g><g><g style="transform:matrix(1,0,0,1,77.71354675292969,234.05731201171875);"><path d="M342 330L365 330C373 395 380 432 389 458C365 473 330 482 293 482C248 483 175 463 118 400C64 352 25 241 25 136C25 40 67 -11 147 -11C201 -11 249 9 304 54L354 95L346 115L331 105C259 57 221 40 186 40C130 40 101 80 101 159C101 267 136 371 185 409C206 425 230 433 261 433C306 433 342 414 342 390Z" stroke="rgb(0, 0, 0)" stroke-width="8" fill="rgb(0, 0, 0)" style="transform:matrix(0.017,0,0,-0.017,0,0);"></path></g><g><g><g><g style="transform:matrix(1,0,0,1,84.609375,239.446875);"><path d="M418 -3L418 27L366 30C311 33 301 44 301 96L301 700L60 598L67 548L217 614L217 96C217 44 206 33 152 30L96 27L96 -3C250 0 250 0 261 0C292 0 402 -3 418 -3Z" stroke="rgb(0, 0, 0)" stroke-width="8" fill="rgb(0, 0, 0)" style="transform:matrix(0.0119,0,0,-0.0119,0,0);"></path></g></g></g></g></g></g><g><g><g style="transform:matrix(1,0,0,1,29.078125,169.765625);"><path d="M342 330L365 330C373 395 380 432 389 458C365 473 330 482 293 482C248 483 175 463 118 400C64 352 25 241 25 136C25 40 67 -11 147 -11C201 -11 249 9 304 54L354 95L346 115L331 105C259 57 221 40 186 40C130 40 101 80 101 159C101 267 136 371 185 409C206 425 230 433 261 433C306 433 342 414 342 390Z" stroke="rgb(0, 0, 0)" stroke-width="8" fill="rgb(0, 0, 0)" style="transform:matrix(0.017,0,0,-0.017,0,0);"></path></g><g><g><g><g style="transform:matrix(1,0,0,1,35.97395896911621,175.15521850585938);"><path d="M16 23L16 -3C203 -3 203 0 239 0C275 0 275 -3 468 -3L468 82C353 77 307 81 122 77L304 270C401 373 431 428 431 503C431 618 353 689 226 689C154 689 105 669 56 619L39 483L68 483L81 529C97 587 133 612 200 612C286 612 341 558 341 473C341 398 299 324 186 204Z" stroke="rgb(0, 0, 0)" stroke-width="8" fill="rgb(0, 0, 0)" style="transform:matrix(0.0119,0,0,-0.0119,0,0);"></path></g></g></g></g></g></g><g><g><g style="transform:matrix(1,0,0,1,435.61981201171875,225.05731201171875);"><path d="M342 330L365 330C373 395 380 432 389 458C365 473 330 482 293 482C248 483 175 463 118 400C64 352 25 241 25 136C25 40 67 -11 147 -11C201 -11 249 9 304 54L354 95L346 115L331 105C259 57 221 40 186 40C130 40 101 80 101 159C101 267 136 371 185 409C206 425 230 433 261 433C306 433 342 414 342 390Z" stroke="rgb(0, 0, 0)" stroke-width="8" fill="rgb(0, 0, 0)" style="transform:matrix(0.017,0,0,-0.017,0,0);"></path></g><g><g><g><g style="transform:matrix(1,0,0,1,442.515625,230.446875);"><path d="M418 -3L418 27L366 30C311 33 301 44 301 96L301 700L60 598L67 548L217 614L217 96C217 44 206 33 152 30L96 27L96 -3C250 0 250 0 261 0C292 0 402 -3 418 -3Z" stroke="rgb(0, 0, 0)" stroke-width="8" fill="rgb(0, 0, 0)" style="transform:matrix(0.0119,0,0,-0.0119,0,0);"></path></g></g></g></g></g></g><g><g><g style="transform:matrix(1,0,0,1,420.234375,157.765625);"><path d="M342 330L365 330C373 395 380 432 389 458C365 473 330 482 293 482C248 483 175 463 118 400C64 352 25 241 25 136C25 40 67 -11 147 -11C201 -11 249 9 304 54L354 95L346 115L331 105C259 57 221 40 186 40C130 40 101 80 101 159C101 267 136 371 185 409C206 425 230 433 261 433C306 433 342 414 342 390Z" stroke="rgb(0, 0, 0)" stroke-width="8" fill="rgb(0, 0, 0)" style="transform:matrix(0.017,0,0,-0.017,0,0);"></path></g><g><g><g><g style="transform:matrix(1,0,0,1,427.1302185058594,163.15521850585938);"><path d="M16 23L16 -3C203 -3 203 0 239 0C275 0 275 -3 468 -3L468 82C353 77 307 81 122 77L304 270C401 373 431 428 431 503C431 618 353 689 226 689C154 689 105 669 56 619L39 483L68 483L81 529C97 587 133 612 200 612C286 612 341 558 341 473C341 398 299 324 186 204Z" stroke="rgb(0, 0, 0)" stroke-width="8" fill="rgb(0, 0, 0)" style="transform:matrix(0.0119,0,0,-0.0119,0,0);"></path></g></g></g></g></g></g><g><g><g style="transform:matrix(1,0,0,1,94.22917175292969,270.66668701171875);"><path d="M567 55C567 39 552 30 524 28L480 25L480 -3C582 0 582 0 602 0C622 0 622 0 724 -3L724 25L698 28C651 35 650 35 642 80L555 705L509 705L136 112C100 56 82 40 48 32L28 27L28 -3C120 0 120 0 140 0C159 0 161 0 247 -3L247 25L195 28C179 29 164 38 164 47C164 55 171 69 190 102L292 277L538 277L563 89L563 86C563 84 567 69 567 55ZM496 601L533 313L317 313ZM1119 365C1122 403 1127 435 1135 476C1124 481 1120 482 1115 482C1084 482 1053 458 1017 407C978 351 939 291 923 256L955 408C959 425 961 438 961 450C961 470 953 482 938 482C917 482 879 461 805 408L777 388L784 368L816 389C844 407 855 412 864 412C874 412 881 403 881 390C881 332 838 126 798 -2L808 -9C823 -4 839 -1 862 4L875 6L901 126C919 209 942 262 986 319C1020 363 1047 384 1069 384C1084 384 1094 379 1105 365ZM1467 111L1443 94C1390 56 1342 36 1306 36C1259 36 1230 73 1230 133C1230 158 1233 185 1238 214C1255 218 1364 248 1389 259C1474 296 1513 342 1513 404C1513 451 1479 482 1429 482C1361 496 1251 423 1214 349C1184 299 1154 180 1154 113C1154 35 1198 -11 1270 -11C1327 -11 1383 17 1475 92ZM1252 274C1269 343 1289 386 1318 412C1336 428 1367 440 1391 440C1420 440 1439 420 1439 388C1439 344 1404 297 1352 272C1324 258 1288 247 1243 237ZM1798 204L1769 77C1765 60 1763 42 1763 26C1763 4 1772 -9 1787 -9C1810 -9 1851 17 1933 85L1926 106C1902 86 1873 59 1851 59C1842 59 1836 68 1836 82C1836 87 1836 90 1837 93L1929 472L1919 481L1886 463C1845 478 1828 482 1801 482C1773 482 1753 477 1726 464C1664 433 1631 403 1606 354C1562 265 1531 145 1531 67C1531 23 1546 -11 1565 -11C1602 -11 1682 41 1798 204ZM1846 414C1824 305 1805 253 1771 201C1714 117 1653 59 1621 59C1609 59 1603 72 1603 99C1603 163 1631 280 1666 360C1690 415 1713 433 1761 433C1784 433 1802 429 1846 414Z" stroke="rgb(0, 0, 0)" stroke-width="8" fill="rgb(0, 0, 0)" style="transform:matrix(0.017,0,0,-0.017,0,0);"></path></g><g style="transform:matrix(1,0,0,1,132.2291717529297,270.66668701171875);"><path d="M604 347L604 406L65 406L65 347ZM604 134L604 193L65 193L65 134Z" stroke="rgb(0, 0, 0)" stroke-width="8" fill="rgb(0, 0, 0)" style="transform:matrix(0.017,0,0,-0.017,0,0);"></path></g><g style="transform:matrix(1,0,0,1,148.2291717529297,270.66668701171875);"><path d="M418 -3L418 27L366 30C311 33 301 44 301 96L301 700L60 598L67 548L217 614L217 96C217 44 206 33 152 30L96 27L96 -3C250 0 250 0 261 0C292 0 402 -3 418 -3Z" stroke="rgb(0, 0, 0)" stroke-width="8" fill="rgb(0, 0, 0)" style="transform:matrix(0.017,0,0,-0.017,0,0);"></path></g></g></g><g><g><g style="transform:matrix(1,0,0,1,460.22918701171875,267.66668701171875);"><path d="M567 55C567 39 552 30 524 28L480 25L480 -3C582 0 582 0 602 0C622 0 622 0 724 -3L724 25L698 28C651 35 650 35 642 80L555 705L509 705L136 112C100 56 82 40 48 32L28 27L28 -3C120 0 120 0 140 0C159 0 161 0 247 -3L247 25L195 28C179 29 164 38 164 47C164 55 171 69 190 102L292 277L538 277L563 89L563 86C563 84 567 69 567 55ZM496 601L533 313L317 313ZM1119 365C1122 403 1127 435 1135 476C1124 481 1120 482 1115 482C1084 482 1053 458 1017 407C978 351 939 291 923 256L955 408C959 425 961 438 961 450C961 470 953 482 938 482C917 482 879 461 805 408L777 388L784 368L816 389C844 407 855 412 864 412C874 412 881 403 881 390C881 332 838 126 798 -2L808 -9C823 -4 839 -1 862 4L875 6L901 126C919 209 942 262 986 319C1020 363 1047 384 1069 384C1084 384 1094 379 1105 365ZM1467 111L1443 94C1390 56 1342 36 1306 36C1259 36 1230 73 1230 133C1230 158 1233 185 1238 214C1255 218 1364 248 1389 259C1474 296 1513 342 1513 404C1513 451 1479 482 1429 482C1361 496 1251 423 1214 349C1184 299 1154 180 1154 113C1154 35 1198 -11 1270 -11C1327 -11 1383 17 1475 92ZM1252 274C1269 343 1289 386 1318 412C1336 428 1367 440 1391 440C1420 440 1439 420 1439 388C1439 344 1404 297 1352 272C1324 258 1288 247 1243 237ZM1798 204L1769 77C1765 60 1763 42 1763 26C1763 4 1772 -9 1787 -9C1810 -9 1851 17 1933 85L1926 106C1902 86 1873 59 1851 59C1842 59 1836 68 1836 82C1836 87 1836 90 1837 93L1929 472L1919 481L1886 463C1845 478 1828 482 1801 482C1773 482 1753 477 1726 464C1664 433 1631 403 1606 354C1562 265 1531 145 1531 67C1531 23 1546 -11 1565 -11C1602 -11 1682 41 1798 204ZM1846 414C1824 305 1805 253 1771 201C1714 117 1653 59 1621 59C1609 59 1603 72 1603 99C1603 163 1631 280 1666 360C1690 415 1713 433 1761 433C1784 433 1802 429 1846 414Z" stroke="rgb(0, 0, 0)" stroke-width="8" fill="rgb(0, 0, 0)" style="transform:matrix(0.017,0,0,-0.017,0,0);"></path></g><g style="transform:matrix(1,0,0,1,498.22918701171875,267.66668701171875);"><path d="M604 347L604 406L65 406L65 347ZM604 134L604 193L65 193L65 134Z" stroke="rgb(0, 0, 0)" stroke-width="8" fill="rgb(0, 0, 0)" style="transform:matrix(0.017,0,0,-0.017,0,0);"></path></g><g style="transform:matrix(1,0,0,1,514.2291870117188,267.66668701171875);"><path d="M462 224C462 345 355 366 308 374C388 436 418 482 418 541C418 630 344 689 233 689C165 689 120 670 72 622L43 498L74 498L92 554C103 588 166 622 218 622C283 622 336 569 336 506C336 431 277 368 206 368C198 368 187 369 174 370L159 371L147 318L154 312C192 329 211 334 238 334C321 334 369 281 369 190C369 88 308 21 215 21C169 21 128 36 98 64C74 86 61 109 42 163L15 153C36 92 44 56 50 6C103 -12 147 -20 184 -20C307 -20 462 87 462 224Z" stroke="rgb(0, 0, 0)" stroke-width="8" fill="rgb(0, 0, 0)" style="transform:matrix(0.017,0,0,-0.017,0,0);"></path></g></g></g></svg>
</svg>
