<svg xmlns="http://www.w3.org/2000/svg" width="662" height="302" style="
        width:662px;
        height:302px;
        background: transparent;
        fill: none;
">
        
        <svg xmlns="http://www.w3.org/2000/svg"><g class="shapes-region" style="stroke: black; fill: none;"><g class="arrow-line"><path class="connection real" stroke-dasharray="" d="  M48,95.78 L150,252.78" style="stroke: rgba(184, 233, 134, 0.51); stroke-width: 1; fill: none;"/></g><g class="composite-shape axis2d" style="stroke-width: 1; stroke: rgb(155, 155, 155);"><path class="real" d=" M17,174.78 L263,174.78 M101,49 L101,267.11"/><path d=" M256,169.78 L263,174.78 L256,179.78"/><path d=" M96,56 L101,49 L106,56"/></g><g class="arrow-line"><path class="connection real" stroke-dasharray="" d="  M203.37,102.6 L100,175.45" style="stroke: rgb(0, 0, 0); stroke-width: 1; fill: none;"/><g stroke="none" fill="#000" transform="matrix(-0.8174466055638452,0.5760043811049942,-0.5760043811049942,-0.8174466055638452,205,101.44791412353516)" style="stroke: none; fill: rgb(0, 0, 0); stroke-width: 1;"><path d=" M8.93,-4.29 L0,0 L8.93,4.29 Z"/></g></g><g class="arrow-line"><path class="connection real" stroke-dasharray="" d="  M61.1,116.45 L100,175.45" style="stroke: rgb(74, 144, 226); stroke-width: 1; fill: none;"/><g stroke="none" fill="rgba(74,144,226,1)" transform="matrix(0.5504807400849956,0.8348478632634065,-0.8348478632634065,0.5504807400849956,60,114.78125)" style="stroke: none; fill: rgb(74, 144, 226); stroke-width: 1;"><path d=" M8.93,-4.29 L0,0 L8.93,4.29 Z"/></g></g><g class="arrow-line"><path class="connection real" stroke-dasharray="" d="  M100,175.45 L138.9,234.44" style="stroke: rgb(74, 144, 226); stroke-width: 1; fill: none;"/><g stroke="none" fill="rgba(74,144,226,1)" transform="matrix(-0.5504807400849958,-0.8348478632634063,0.8348478632634063,-0.5504807400849958,140,236.1145782470703)" style="stroke: none; fill: rgb(74, 144, 226); stroke-width: 1;"><path d=" M8.93,-4.29 L0,0 L8.93,4.29 Z"/></g></g><g class="arrow-line"><path class="connection real" stroke-dasharray="" d="  M100,175.45 L125.9,214.78" style="stroke: rgb(74, 144, 226); stroke-width: 1; fill: none;"/><g stroke="none" fill="rgba(74,144,226,1)" transform="matrix(-0.5500435393272451,-0.835135979852597,0.835135979852597,-0.5500435393272451,127,216.44790649414062)" style="stroke: none; fill: rgb(74, 144, 226); stroke-width: 1;"><path d=" M8.93,-4.29 L0,0 L8.93,4.29 Z"/></g></g><g class="arrow-line"><path class="connection real" stroke-dasharray="" d="  M100,175.45 L107.84,186.48" style="stroke: rgb(74, 144, 226); stroke-width: 1; fill: none;"/><g stroke="none" fill="rgba(74,144,226,1)" transform="matrix(-0.5791388968818444,-0.8152288869504566,0.8152288869504566,-0.5791388968818444,109,188.1145782470703)" style="stroke: none; fill: rgb(74, 144, 226); stroke-width: 1;"><path d=" M8.93,-4.29 L0,0 L8.93,4.29 Z"/></g></g><g class="arrow-line"><path class="connection real" stroke-dasharray="" d="  M75.1,137.78 L100,175.45" style="stroke: rgb(74, 144, 226); stroke-width: 1; fill: none;"/><g stroke="none" fill="rgba(74,144,226,1)" transform="matrix(0.551500288078258,0.8341747012764164,-0.8341747012764164,0.551500288078258,74,136.1145782470703)" style="stroke: none; fill: rgb(74, 144, 226); stroke-width: 1;"><path d=" M8.93,-4.29 L0,0 L8.93,4.29 Z"/></g></g><g class="arrow-line"><path class="connection real" stroke-dasharray="" d="  M88.1,157.45 L100,175.45" style="stroke: rgb(74, 144, 226); stroke-width: 1; fill: none;"/><g stroke="none" fill="rgba(74,144,226,1)" transform="matrix(0.551500288078258,0.8341747012764164,-0.8341747012764164,0.551500288078258,87,155.78124618530273)" style="stroke: none; fill: rgb(74, 144, 226); stroke-width: 1;"><path d=" M8.93,-4.29 L0,0 L8.93,4.29 Z"/></g></g><g class="composite-shape"><path class="real" d=" M386,142 L524.31,142 L607.99,201.78 L469.69,201.78 Z" style="stroke-width: 1; stroke: rgba(184, 233, 134, 0.51); fill: rgba(184, 233, 134, 0.37);"/></g><g class="arrow-line"><path class="connection real" stroke-dasharray="" d="  M511.62,96.74 L497,171.89" style="stroke: rgb(0, 0, 0); stroke-width: 1; fill: none;"/><g stroke="none" fill="#000" transform="matrix(-0.19098031873327018,0.9815938660446787,-0.9815938660446787,-0.19098031873327018,511.99999999999994,94.78125)" style="stroke: none; fill: rgb(0, 0, 0); stroke-width: 1;"><path d=" M8.93,-4.29 L0,0 L8.93,4.29 Z"/></g></g><g class="arrow-line"><path class="connection real" stroke-dasharray="" d="  M463,171.79 L497,171.89" style="stroke: rgb(74, 144, 226); stroke-width: 1; fill: none;"/><g stroke="none" fill="rgba(74,144,226,1)" transform="matrix(0.9999955982815133,0.002967055375001864,-0.002967055375001864,0.9999955982815133,461,171.78125)" style="stroke: none; fill: rgb(74, 144, 226); stroke-width: 1;"><path d=" M8.93,-4.29 L0,0 L8.93,4.29 Z"/></g></g><g class="arrow-line"><path class="connection real" stroke-dasharray="" d="  M497,171.89 L530.99,171.99" style="stroke: rgb(74, 144, 226); stroke-width: 1; fill: none;"/><g stroke="none" fill="rgba(74,144,226,1)" transform="matrix(-0.9999955982815133,-0.0029670553750015564,0.0029670553750015564,-0.9999955982815133,532.9946016868712,172)" style="stroke: none; fill: rgb(74, 144, 226); stroke-width: 1;"><path d=" M8.93,-4.29 L0,0 L8.93,4.29 Z"/></g></g><g class="arrow-line"><path class="connection real" stroke-dasharray="" d="  M497,171.89 L523.45,193.52" style="stroke: rgb(74, 144, 226); stroke-width: 1; fill: none;"/><g stroke="none" fill="rgba(74,144,226,1)" transform="matrix(-0.7742822043762889,-0.6328404759386008,0.6328404759386008,-0.7742822043762889,525,194.78125000000006)" style="stroke: none; fill: rgb(74, 144, 226); stroke-width: 1;"><path d=" M8.93,-4.29 L0,0 L8.93,4.29 Z"/></g></g><g class="arrow-line"><path class="connection real" stroke-dasharray="" d="  M466.82,158.27 L497,171.89" style="stroke: rgb(74, 144, 226); stroke-width: 1; fill: none;"/><g stroke="none" fill="rgba(74,144,226,1)" transform="matrix(0.9114750855583839,0.41135528245828673,-0.41135528245828673,0.9114750855583839,465,157.44790649414062)" style="stroke: none; fill: rgb(74, 144, 226); stroke-width: 1;"><path d=" M8.93,-4.29 L0,0 L8.93,4.29 Z"/></g></g><g class="arrow-line"><path class="connection real" stroke-dasharray="" d="  M497,171.89 L482.43,186.05" style="stroke: rgb(74, 144, 226); stroke-width: 1; fill: none;"/><g stroke="none" fill="rgba(74,144,226,1)" transform="matrix(0.7169106076504826,-0.6971651028545647,0.6971651028545647,0.7169106076504826,481,187.44790649414062)" style="stroke: none; fill: rgb(74, 144, 226); stroke-width: 1;"><path d=" M8.93,-4.29 L0,0 L8.93,4.29 Z"/></g></g><g class="arrow-line"><path class="connection real" stroke-dasharray="" d="  M497,171.89 L493.34,150.42" style="stroke: rgb(74, 144, 226); stroke-width: 1; fill: none;"/><g stroke="none" fill="rgba(74,144,226,1)" transform="matrix(0.16814529388735194,0.9857622229237313,-0.9857622229237313,0.16814529388735194,493.00000000000006,148.44790649414062)" style="stroke: none; fill: rgb(74, 144, 226); stroke-width: 1;"><path d=" M8.93,-4.29 L0,0 L8.93,4.29 Z"/></g></g><g class="intersections-group"><g style="stroke: rgb(0, 0, 0); stroke-width: 1; fill: none;"/></g></g><g/><g/><!-- react-empty: 556 --></svg>
        <svg xmlns="http://www.w3.org/2000/svg" width="660" height="300" style="width:660px;height:300px;font-family:Asana-Math, Asana;background:transparent;"></svg>
</svg>
