<svg xmlns="http://www.w3.org/2000/svg" width="662" height="302" style="
        width:662px;
        height:302px;
        background: transparent;
        fill: none;
">
        
        <svg xmlns="http://www.w3.org/2000/svg"><g class="shapes-region" style="stroke: black; fill: none;"><g class="composite-shape" data-amt="diagram/shapes/plot" style="transform: matrix(1, 0, 0, 1, 2, 2);"><defs><clipPath id="dp06003717281882048"><rect x="21" y="1" width="636" height="273.6979064941406"/></clipPath></defs><g clip-path="url(#dp06003717281882048)"><g><line x1="101.39041232630052" y1="0" x2="101.39041232630052" y2="275.6979064941406" fill="none" stroke="lightgray" stroke-width="0.5"/><line x1="215.38599643274574" y1="0" x2="215.38599643274574" y2="275.6979064941406" fill="none" stroke="lightgray" stroke-width="0.5"/><line x1="329.38158053919096" y1="0" x2="329.38158053919096" y2="275.6979064941406" fill="none" stroke="lightgray" stroke-width="0.5"/><line x1="443.3771646456362" y1="0" x2="443.3771646456362" y2="275.6979064941406" fill="none" stroke="lightgray" stroke-width="0.5"/><line x1="557.3727487520814" y1="0" x2="557.3727487520814" y2="275.6979064941406" fill="none" stroke="lightgray" stroke-width="0.5"/></g><g><line x1="20" y1="232.14692006753558" x2="658" y2="232.14692006753558" fill="none" stroke="lightgray" stroke-width="0.5"/><line x1="20" y1="175.14912801431296" x2="658" y2="175.14912801431296" fill="none" stroke="lightgray" stroke-width="0.5"/><line x1="20" y1="118.15133596109038" x2="658" y2="118.15133596109038" fill="none" stroke="lightgray" stroke-width="0.5"/><line x1="20" y1="61.15354390786774" x2="658" y2="61.15354390786774" fill="none" stroke="lightgray" stroke-width="0.5"/><line x1="20" y1="4.155751854645189" x2="658" y2="4.155751854645189" fill="none" stroke="lightgray" stroke-width="0.5"/></g><g><path d=" M20.00,118.15 L20.50,118.15 L21.00,118.15 L21.50,118.15 L22.00,118.15 L22.50,118.15 L23.00,118.15 L23.50,118.15 L24.00,118.15 L24.50,118.15 L25.00,118.15 L25.50,118.15 L26.00,118.15 L26.51,118.15 L27.01,118.15 L27.51,118.15 L28.01,118.15 L28.51,118.15 L29.01,118.15 L29.51,118.15 L30.01,118.15 L30.51,118.15 L31.01,118.15 L31.51,118.15 L32.01,118.15 L32.51,118.15 L33.01,118.15 L33.51,118.15 L34.01,118.15 L34.51,118.15 L35.01,118.15 L35.51,118.15 L36.01,118.15 L36.51,118.15 L37.01,118.15 L37.51,118.15 L38.01,118.15 L38.51,118.15 L39.01,118.15 L39.52,118.15 L40.02,118.15 L40.52,118.15 L41.02,118.15 L41.52,118.15 L42.02,118.15 L42.52,118.15 L43.02,118.15 L43.52,118.15 L44.02,118.15 L44.52,118.15 L45.02,118.15 L45.52,118.15 L46.02,118.15 L46.52,118.15 L47.02,118.15 L47.52,118.15 L48.02,118.15 L48.52,118.15 L49.02,118.15 L49.52,118.15 L50.02,118.15 L50.52,118.15 L51.02,118.15 L51.52,118.15 L52.03,118.15 L52.53,118.15 L53.03,118.15 L53.53,118.15 L54.03,118.15 L54.53,118.15 L55.03,118.15 L55.53,118.15 L56.03,118.15 L56.53,118.15 L57.03,118.15 L57.53,118.15 L58.03,118.15 L58.53,118.15 L59.03,118.15 L59.53,118.15 L60.03,118.15 L60.53,118.15 L61.03,118.15 L61.53,118.15 L62.03,118.15 L62.53,118.15 L63.03,118.15 L63.53,118.15 L64.03,118.15 L64.53,118.15 L65.04,118.15 L65.54,118.15 L66.04,118.15 L66.54,118.15 L67.04,118.15 L67.54,118.15 L68.04,118.15 L68.54,118.15 L69.04,118.15 L69.54,118.15 L70.04,118.15 L70.54,118.15 L71.04,118.15 L71.54,118.15 L72.04,118.15 L72.54,118.15 L73.04,118.15 L73.54,118.15 L74.04,118.15 L74.54,118.15 L75.04,118.15 L75.54,118.15 L76.04,118.15 L76.54,118.15 L77.04,118.15 L77.55,118.15 L78.05,118.15 L78.55,118.15 L79.05,118.15 L79.55,118.15 L80.05,118.15 L80.55,118.15 L81.05,118.15 L81.55,118.15 L82.05,118.15 L82.55,118.15 L83.05,118.15 L83.55,118.15 L84.05,118.15 L84.55,118.15 L85.05,118.15 L85.55,118.15 L86.05,118.15 L86.55,118.15 L87.05,118.15 L87.55,118.15 L88.05,118.15 L88.55,118.15 L89.05,118.15 L89.55,118.15 L90.05,118.15 L90.56,118.15 L91.06,118.15 L91.56,118.15 L92.06,118.15 L92.56,118.15 L93.06,118.15 L93.56,118.15 L94.06,118.15 L94.56,118.15 L95.06,118.15 L95.56,118.15 L96.06,118.15 L96.56,118.15 L97.06,118.15 L97.56,118.15 L98.06,118.15 L98.56,118.15 L99.06,118.15 L99.56,118.15 L100.06,118.15 L100.56,118.15 L101.06,118.15 L101.56,118.15 L102.06,118.16 L102.56,118.16 L103.07,118.16 L103.57,118.16 L104.07,118.16 L104.57,118.16 L105.07,118.16 L105.57,118.16 L106.07,118.16 L106.57,118.16 L107.07,118.16 L107.57,118.16 L108.07,118.16 L108.57,118.16 L109.07,118.16 L109.57,118.16 L110.07,118.16 L110.57,118.16 L111.07,118.16 L111.57,118.16 L112.07,118.16 L112.57,118.16 L113.07,118.17 L113.57,118.17 L114.07,118.17 L114.57,118.17 L115.07,118.17 L115.57,118.17 L116.08,118.17 L116.58,118.17 L117.08,118.17 L117.58,118.17 L118.08,118.18 L118.58,118.18 L119.08,118.18 L119.58,118.18 L120.08,118.18 L120.58,118.18 L121.08,118.18 L121.58,118.19 L122.08,118.19 L122.58,118.19 L123.08,118.19 L123.58,118.19 L124.08,118.20 L124.58,118.20 L125.08,118.20 L125.58,118.21 L126.08,118.21 L126.58,118.21 L127.08,118.21 L127.58,118.22 L128.08,118.22 L128.59,118.22 L129.09,118.23 L129.59,118.23 L130.09,118.24 L130.59,118.24 L131.09,118.24 L131.59,118.25 L132.09,118.25 L132.59,118.26 L133.09,118.27 L133.59,118.27 L134.09,118.28 L134.59,118.28 L135.09,118.29 L135.59,118.30 L136.09,118.30 L136.59,118.31 L137.09,118.32 L137.59,118.33 L138.09,118.33 L138.59,118.34 L139.09,118.35 L139.59,118.36 L140.09,118.37 L140.59,118.38 L141.09,118.39 L141.60,118.40 L142.10,118.42 L142.60,118.43 L143.10,118.44 L143.60,118.45 L144.10,118.47 L144.60,118.48 L145.10,118.50 L145.60,118.51 L146.10,118.53 L146.60,118.55 L147.10,118.56 L147.60,118.58 L148.10,118.60 L148.60,118.62 L149.10,118.64 L149.60,118.66 L150.10,118.68 L150.60,118.71 L151.10,118.73 L151.60,118.76 L152.10,118.78 L152.60,118.81 L153.10,118.84 L153.60,118.86 L154.11,118.89 L154.61,118.92 L155.11,118.96 L155.61,118.99 L156.11,119.02 L156.61,119.06 L157.11,119.10 L157.61,119.13 L158.11,119.17 L158.61,119.21 L159.11,119.26 L159.61,119.30 L160.11,119.34 L160.61,119.39 L161.11,119.44 L161.61,119.49 L162.11,119.54 L162.61,119.59 L163.11,119.65 L163.61,119.70 L164.11,119.76 L164.61,119.82 L165.11,119.89 L165.61,119.95 L166.11,120.02 L166.61,120.08 L167.12,120.15 L167.62,120.23 L168.12,120.30 L168.62,120.38 L169.12,120.46 L169.62,120.54 L170.12,120.62 L170.62,120.71 L171.12,120.80 L171.62,120.89 L172.12,120.99 L172.62,121.08 L173.12,121.18 L173.62,121.29 L174.12,121.39 L174.62,121.50 L175.12,121.61 L175.62,121.73 L176.12,121.84 L176.62,121.96 L177.12,122.09 L177.62,122.22 L178.12,122.35 L178.62,122.48 L179.12,122.62 L179.63,122.76 L180.13,122.90 L180.63,123.05 L181.13,123.20 L181.63,123.36 L182.13,123.52 L182.63,123.68 L183.13,123.85 L183.63,124.02 L184.13,124.19 L184.63,124.37 L185.13,124.55 L185.63,124.74 L186.13,124.93 L186.63,125.12 L187.13,125.32 L187.63,125.53 L188.13,125.74 L188.63,125.95 L189.13,126.16 L189.63,126.39 L190.13,126.61 L190.63,126.84 L191.13,127.08 L191.63,127.32 L192.13,127.56 L192.64,127.81 L193.14,128.06 L193.64,128.32 L194.14,128.58 L194.64,128.85 L195.14,129.12 L195.64,129.40 L196.14,129.68 L196.64,129.97 L197.14,130.26 L197.64,130.56 L198.14,130.86 L198.64,131.16 L199.14,131.48 L199.64,131.79 L200.14,132.11 L200.64,132.44 L201.14,132.77 L201.64,133.10 L202.14,133.44 L202.64,133.79 L203.14,134.14 L203.64,134.49 L204.14,134.85 L204.64,135.21 L205.15,135.58 L205.65,135.95 L206.15,136.33 L206.65,136.71 L207.15,137.10 L207.65,137.49 L208.15,137.88 L208.65,138.28 L209.15,138.68 L209.65,139.09 L210.15,139.50 L210.65,139.91 L211.15,140.33 L211.65,140.76 L212.15,141.18 L212.65,141.61 L213.15,142.04 L213.65,142.48 L214.15,142.92 L214.65,143.36 L215.15,143.81 L215.65,144.26 L216.15,144.71 L216.65,145.16 L217.15,145.62 L217.65,146.08 L218.16,146.54 L218.66,147.00 L219.16,147.47 L219.66,147.93 L220.16,148.40 L220.66,148.87 L221.16,149.35 L221.66,149.82 L222.16,150.29 L222.66,150.77 L223.16,151.24 L223.66,151.72 L224.16,152.20 L224.66,152.67 L225.16,153.15 L225.66,153.63 L226.16,154.10 L226.66,154.58 L227.16,155.05 L227.66,155.53 L228.16,156.00 L228.66,156.47 L229.16,156.94 L229.66,157.41 L230.16,157.88 L230.67,158.34 L231.17,158.80 L231.67,159.26 L232.17,159.72 L232.67,160.18 L233.17,160.63 L233.67,161.07 L234.17,161.52 L234.67,161.96 L235.17,162.39 L235.67,162.83 L236.17,163.25 L236.67,163.68 L237.17,164.10 L237.67,164.51 L238.17,164.92 L238.67,165.32 L239.17,165.72 L239.67,166.11 L240.17,166.49 L240.67,166.87 L241.17,167.25 L241.67,167.61 L242.17,167.97 L242.67,168.33 L243.17,168.67 L243.68,169.01 L244.18,169.34 L244.68,169.66 L245.18,169.98 L245.68,170.28 L246.18,170.58 L246.68,170.87 L247.18,171.16 L247.68,171.43 L248.18,171.69 L248.68,171.95 L249.18,172.20 L249.68,172.43 L250.18,172.66 L250.68,172.88 L251.18,173.09 L251.68,173.29 L252.18,173.48 L252.68,173.66 L253.18,173.83 L253.68,173.98 L254.18,174.13 L254.68,174.27 L255.18,174.40 L255.68,174.52 L256.19,174.62 L256.69,174.72 L257.19,174.81 L257.69,174.88 L258.19,174.95 L258.69,175.00 L259.19,175.04 L259.69,175.07 L260.19,175.09 L260.69,175.10 L261.19,175.10 L261.69,175.09 L262.19,175.06 L262.69,175.03 L263.19,174.99 L263.69,174.93 L264.19,174.86 L264.69,174.78 L265.19,174.70 L265.69,174.60 L266.19,174.49 L266.69,174.36 L267.19,174.23 L267.69,174.09 L268.19,173.94 L268.69,173.77 L269.20,173.60 L269.70,173.42 L270.20,173.22 L270.70,173.02 L271.20,172.80 L271.70,172.58 L272.20,172.35 L272.70,172.10 L273.20,171.85 L273.70,171.59 L274.20,171.32 L274.70,171.04 L275.20,170.75 L275.70,170.45 L276.20,170.14 L276.70,169.83 L277.20,169.50 L277.70,169.17 L278.20,168.83 L278.70,168.48 L279.20,168.12 L279.70,167.76 L280.20,167.39 L280.70,167.01 L281.20,166.62 L281.71,166.23 L282.21,165.83 L282.71,165.42 L283.21,165.01 L283.71,164.59 L284.21,164.16 L284.71,163.73 L285.21,163.29 L285.71,162.85 L286.21,162.40 L286.71,161.95 L287.21,161.49 L287.71,161.03 L288.21,160.56 L288.71,160.09 L289.21,159.61 L289.71,159.13 L290.21,158.65 L290.71,158.16 L291.21,157.67 L291.71,157.17 L292.21,156.67 L292.71,156.17 L293.21,155.67 L293.71,155.16 L294.21,154.65 L294.72,154.13 L295.22,153.62 L295.72,153.10 L296.22,152.58 L296.72,152.06 L297.22,151.54 L297.72,151.01 L298.22,150.49 L298.72,149.96 L299.22,149.43 L299.72,148.90 L300.22,148.37 L300.72,147.84 L301.22,147.31 L301.72,146.78 L302.22,146.25 L302.72,145.71 L303.22,145.18 L303.72,144.65 L304.22,144.11 L304.72,143.58 L305.22,143.05 L305.72,142.51 L306.22,141.98 L306.72,141.45 L307.23,140.92 L307.73,140.38 L308.23,139.85 L308.73,139.32 L309.23,138.79 L309.73,138.26 L310.23,137.74 L310.73,137.21 L311.23,136.68 L311.73,136.16 L312.23,135.63 L312.73,135.11 L313.23,134.58 L313.73,134.06 L314.23,133.54 L314.73,133.02 L315.23,132.50 L315.73,131.98 L316.23,131.47 L316.73,130.95 L317.23,130.44 L317.73,129.92 L318.23,129.41 L318.73,128.90 L319.23,128.38 L319.73,127.87 L320.24,127.36 L320.74,126.85 L321.24,126.35 L321.74,125.84 L322.24,125.33 L322.74,124.83 L323.24,124.32 L323.74,123.82 L324.24,123.31 L324.74,122.81 L325.24,122.31 L325.74,121.80 L326.24,121.30 L326.74,120.80 L327.24,120.30 L327.74,119.79 L328.24,119.29 L328.74,118.79 L329.24,118.29 L329.74,117.79 L330.24,117.29 L330.74,116.79 L331.24,116.29 L331.74,115.78 L332.24,115.28 L332.75,114.78 L333.25,114.28 L333.75,113.77 L334.25,113.27 L334.75,112.77 L335.25,112.26 L335.75,111.76 L336.25,111.25 L336.75,110.75 L337.25,110.24 L337.75,109.73 L338.25,109.22 L338.75,108.71 L339.25,108.20 L339.75,107.69 L340.25,107.18 L340.75,106.67 L341.25,106.15 L341.75,105.64 L342.25,105.12 L342.75,104.61 L343.25,104.09 L343.75,103.57 L344.25,103.05 L344.75,102.53 L345.25,102.01 L345.76,101.49 L346.26,100.96 L346.76,100.44 L347.26,99.91 L347.76,99.39 L348.26,98.86 L348.76,98.33 L349.26,97.80 L349.76,97.27 L350.26,96.74 L350.76,96.21 L351.26,95.68 L351.76,95.15 L352.26,94.62 L352.76,94.09 L353.26,93.55 L353.76,93.02 L354.26,92.49 L354.76,91.95 L355.26,91.42 L355.76,90.89 L356.26,90.35 L356.76,89.82 L357.26,89.29 L357.76,88.76 L358.27,88.22 L358.77,87.69 L359.27,87.16 L359.77,86.63 L360.27,86.11 L360.77,85.58 L361.27,85.06 L361.77,84.53 L362.27,84.01 L362.77,83.49 L363.27,82.97 L363.77,82.45 L364.27,81.94 L364.77,81.43 L365.27,80.92 L365.77,80.41 L366.27,79.91 L366.77,79.41 L367.27,78.91 L367.77,78.42 L368.27,77.93 L368.77,77.44 L369.27,76.96 L369.77,76.48 L370.27,76.00 L370.77,75.53 L371.28,75.07 L371.78,74.61 L372.28,74.15 L372.78,73.70 L373.28,73.25 L373.78,72.81 L374.28,72.38 L374.78,71.95 L375.28,71.53 L375.78,71.11 L376.28,70.70 L376.78,70.30 L377.28,69.90 L377.78,69.51 L378.28,69.13 L378.78,68.75 L379.28,68.38 L379.78,68.02 L380.28,67.67 L380.78,67.32 L381.28,66.99 L381.78,66.66 L382.28,66.34 L382.78,66.02 L383.28,65.72 L383.79,65.43 L384.29,65.14 L384.79,64.86 L385.29,64.60 L385.79,64.34 L386.29,64.09 L386.79,63.85 L387.29,63.62 L387.79,63.40 L388.29,63.19 L388.79,62.99 L389.29,62.80 L389.79,62.62 L390.29,62.45 L390.79,62.30 L391.29,62.15 L391.79,62.01 L392.29,61.88 L392.79,61.77 L393.29,61.66 L393.79,61.57 L394.29,61.48 L394.79,61.41 L395.29,61.35 L395.79,61.30 L396.29,61.26 L396.80,61.23 L397.30,61.21 L397.80,61.20 L398.30,61.20 L398.80,61.22 L399.30,61.24 L399.80,61.28 L400.30,61.33 L400.80,61.38 L401.30,61.45 L401.80,61.53 L402.30,61.62 L402.80,61.72 L403.30,61.84 L403.80,61.96 L404.30,62.09 L404.80,62.23 L405.30,62.39 L405.80,62.55 L406.30,62.72 L406.80,62.91 L407.30,63.10 L407.80,63.31 L408.30,63.52 L408.80,63.74 L409.31,63.97 L409.81,64.21 L410.31,64.47 L410.81,64.72 L411.31,64.99 L411.81,65.27 L412.31,65.56 L412.81,65.85 L413.31,66.15 L413.81,66.46 L414.31,66.78 L414.81,67.11 L415.31,67.44 L415.81,67.78 L416.31,68.13 L416.81,68.49 L417.31,68.85 L417.81,69.22 L418.31,69.60 L418.81,69.98 L419.31,70.37 L419.81,70.76 L420.31,71.16 L420.81,71.57 L421.31,71.98 L421.81,72.39 L422.32,72.81 L422.82,73.24 L423.32,73.67 L423.82,74.10 L424.32,74.54 L424.82,74.98 L425.32,75.43 L425.82,75.88 L426.32,76.33 L426.82,76.78 L427.32,77.24 L427.82,77.70 L428.32,78.17 L428.82,78.63 L429.32,79.10 L429.82,79.57 L430.32,80.04 L430.82,80.51 L431.32,80.98 L431.82,81.46 L432.32,81.93 L432.82,82.41 L433.32,82.89 L433.82,83.36 L434.32,83.84 L434.83,84.32 L435.33,84.79 L435.83,85.27 L436.33,85.75 L436.83,86.22 L437.33,86.69 L437.83,87.17 L438.33,87.64 L438.83,88.11 L439.33,88.58 L439.83,89.04 L440.33,89.51 L440.83,89.97 L441.33,90.43 L441.83,90.89 L442.33,91.34 L442.83,91.80 L443.33,92.25 L443.83,92.69 L444.33,93.14 L444.83,93.58 L445.33,94.02 L445.83,94.45 L446.33,94.88 L446.83,95.31 L447.33,95.74 L447.84,96.16 L448.34,96.57 L448.84,96.99 L449.34,97.39 L449.84,97.80 L450.34,98.20 L450.84,98.60 L451.34,98.99 L451.84,99.38 L452.34,99.76 L452.84,100.14 L453.34,100.52 L453.84,100.89 L454.34,101.25 L454.84,101.61 L455.34,101.97 L455.84,102.32 L456.34,102.67 L456.84,103.01 L457.34,103.35 L457.84,103.68 L458.34,104.01 L458.84,104.33 L459.34,104.65 L459.84,104.97 L460.35,105.27 L460.85,105.58 L461.35,105.88 L461.85,106.17 L462.35,106.46 L462.85,106.75 L463.35,107.03 L463.85,107.30 L464.35,107.57 L464.85,107.84 L465.35,108.10 L465.85,108.35 L466.35,108.60 L466.85,108.85 L467.35,109.09 L467.85,109.33 L468.35,109.56 L468.85,109.79 L469.35,110.02 L469.85,110.23 L470.35,110.45 L470.85,110.66 L471.35,110.87 L471.85,111.07 L472.35,111.26 L472.85,111.46 L473.36,111.65 L473.86,111.83 L474.36,112.01 L474.86,112.19 L475.36,112.36 L475.86,112.53 L476.36,112.70 L476.86,112.86 L477.36,113.01 L477.86,113.17 L478.36,113.32 L478.86,113.46 L479.36,113.61 L479.86,113.75 L480.36,113.88 L480.86,114.01 L481.36,114.14 L481.86,114.27 L482.36,114.39 L482.86,114.51 L483.36,114.63 L483.86,114.74 L484.36,114.85 L484.86,114.96 L485.36,115.06 L485.87,115.16 L486.37,115.26 L486.87,115.36 L487.37,115.45 L487.87,115.54 L488.37,115.63 L488.87,115.72 L489.37,115.80 L489.87,115.88 L490.37,115.96 L490.87,116.03 L491.37,116.11 L491.87,116.18 L492.37,116.25 L492.87,116.32 L493.37,116.38 L493.87,116.45 L494.37,116.51 L494.87,116.57 L495.37,116.62 L495.87,116.68 L496.37,116.73 L496.87,116.79 L497.37,116.84 L497.87,116.89 L498.37,116.93 L498.88,116.98 L499.38,117.02 L499.88,117.07 L500.38,117.11 L500.88,117.15 L501.38,117.19 L501.88,117.22 L502.38,117.26 L502.88,117.29 L503.38,117.33 L503.88,117.36 L504.38,117.39 L504.88,117.42 L505.38,117.45 L505.88,117.48 L506.38,117.51 L506.88,117.53 L507.38,117.56 L507.88,117.58 L508.38,117.61 L508.88,117.63 L509.38,117.65 L509.88,117.67 L510.38,117.69 L510.88,117.71 L511.39,117.73 L511.89,117.75 L512.39,117.76 L512.89,117.78 L513.39,117.80 L513.89,117.81 L514.39,117.83 L514.89,117.84 L515.39,117.85 L515.89,117.87 L516.39,117.88 L516.89,117.89 L517.39,117.90 L517.89,117.91 L518.39,117.92 L518.89,117.94 L519.39,117.94 L519.89,117.95 L520.39,117.96 L520.89,117.97 L521.39,117.98 L521.89,117.99 L522.39,118.00 L522.89,118.00 L523.39,118.01 L523.89,118.02 L524.40,118.02 L524.90,118.03 L525.40,118.03 L525.90,118.04 L526.40,118.05 L526.90,118.05 L527.40,118.06 L527.90,118.06 L528.40,118.06 L528.90,118.07 L529.40,118.07 L529.90,118.08 L530.40,118.08 L530.90,118.08 L531.40,118.09 L531.90,118.09 L532.40,118.09 L532.90,118.10 L533.40,118.10 L533.90,118.10 L534.40,118.10 L534.90,118.11 L535.40,118.11 L535.90,118.11 L536.40,118.11 L536.91,118.11 L537.41,118.12 L537.91,118.12 L538.41,118.12 L538.91,118.12 L539.41,118.12 L539.91,118.12 L540.41,118.13 L540.91,118.13 L541.41,118.13 L541.91,118.13 L542.41,118.13 L542.91,118.13 L543.41,118.13 L543.91,118.13 L544.41,118.14 L544.91,118.14 L545.41,118.14 L545.91,118.14 L546.41,118.14 L546.91,118.14 L547.41,118.14 L547.91,118.14 L548.41,118.14 L548.91,118.14 L549.41,118.14 L549.92,118.14 L550.42,118.14 L550.92,118.14 L551.42,118.14 L551.92,118.14 L552.42,118.14 L552.92,118.15 L553.42,118.15 L553.92,118.15 L554.42,118.15 L554.92,118.15 L555.42,118.15 L555.92,118.15 L556.42,118.15 L556.92,118.15 L557.42,118.15 L557.92,118.15 L558.42,118.15 L558.92,118.15 L559.42,118.15 L559.92,118.15 L560.42,118.15 L560.92,118.15 L561.42,118.15 L561.92,118.15 L562.43,118.15 L562.93,118.15 L563.43,118.15 L563.93,118.15 L564.43,118.15 L564.93,118.15 L565.43,118.15 L565.93,118.15 L566.43,118.15 L566.93,118.15 L567.43,118.15 L567.93,118.15 L568.43,118.15 L568.93,118.15 L569.43,118.15 L569.93,118.15 L570.43,118.15 L570.93,118.15 L571.43,118.15 L571.93,118.15 L572.43,118.15 L572.93,118.15 L573.43,118.15 L573.93,118.15 L574.43,118.15 L574.93,118.15 L575.44,118.15 L575.94,118.15 L576.44,118.15 L576.94,118.15 L577.44,118.15 L577.94,118.15 L578.44,118.15 L578.94,118.15 L579.44,118.15 L579.94,118.15 L580.44,118.15 L580.94,118.15 L581.44,118.15 L581.94,118.15 L582.44,118.15 L582.94,118.15 L583.44,118.15 L583.94,118.15 L584.44,118.15 L584.94,118.15 L585.44,118.15 L585.94,118.15 L586.44,118.15 L586.94,118.15 L587.44,118.15 L587.95,118.15 L588.45,118.15 L588.95,118.15 L589.45,118.15 L589.95,118.15 L590.45,118.15 L590.95,118.15 L591.45,118.15 L591.95,118.15 L592.45,118.15 L592.95,118.15 L593.45,118.15 L593.95,118.15 L594.45,118.15 L594.95,118.15 L595.45,118.15 L595.95,118.15 L596.45,118.15 L596.95,118.15 L597.45,118.15 L597.95,118.15 L598.45,118.15 L598.95,118.15 L599.45,118.15 L599.95,118.15 L600.45,118.15 L600.96,118.15 L601.46,118.15 L601.96,118.15 L602.46,118.15 L602.96,118.15 L603.46,118.15 L603.96,118.15 L604.46,118.15 L604.96,118.15 L605.46,118.15 L605.96,118.15 L606.46,118.15 L606.96,118.15 L607.46,118.15 L607.96,118.15 L608.46,118.15 L608.96,118.15 L609.46,118.15 L609.96,118.15 L610.46,118.15 L610.96,118.15 L611.46,118.15 L611.96,118.15 L612.46,118.15 L612.96,118.15 L613.47,118.15 L613.97,118.15 L614.47,118.15 L614.97,118.15 L615.47,118.15 L615.97,118.15 L616.47,118.15 L616.97,118.15 L617.47,118.15 L617.97,118.15 L618.47,118.15 L618.97,118.15 L619.47,118.15 L619.97,118.15 L620.47,118.15 L620.97,118.15 L621.47,118.15 L621.97,118.15 L622.47,118.15 L622.97,118.15 L623.47,118.15 L623.97,118.15 L624.47,118.15 L624.97,118.15 L625.47,118.15 L625.97,118.15 L626.48,118.15 L626.98,118.15 L627.48,118.15 L627.98,118.15 L628.48,118.15 L628.98,118.15 L629.48,118.15 L629.98,118.15 L630.48,118.15 L630.98,118.15 L631.48,118.15 L631.98,118.15 L632.48,118.15 L632.98,118.15 L633.48,118.15 L633.98,118.15 L634.48,118.15 L634.98,118.15 L635.48,118.15 L635.98,118.15 L636.48,118.15 L636.98,118.15 L637.48,118.15 L637.98,118.15 L638.48,118.15 L638.99,118.15 L639.49,118.15 L639.99,118.15 L640.49,118.15 L640.99,118.15 L641.49,118.15 L641.99,118.15 L642.49,118.15 L642.99,118.15 L643.49,118.15 L643.99,118.15 L644.49,118.15 L644.99,118.15 L645.49,118.15 L645.99,118.15 L646.49,118.15 L646.99,118.15 L647.49,118.15 L647.99,118.15 L648.49,118.15 L648.99,118.15 L649.49,118.15 L649.99,118.15 L650.49,118.15 L650.99,118.15 L651.49,118.15 L652.00,118.15 L652.50,118.15 L653.00,118.15 L653.50,118.15 L654.00,118.15 L654.50,118.15 L655.00,118.15 L655.50,118.15 L656.00,118.15 L656.50,118.15 L657.00,118.15 L657.50,118.15 L658.00,118.15" style="stroke-width: 2; stroke: rgb(21, 118, 182);"/></g><rect class="real" x="21" y="1" width="636" height="273.6979064941406" style="stroke: gray; fill: transparent;"/></g><g style="font-family: Asana-Math, Asana;"><line x1="20" y1="280.6979064941406" x2="658" y2="280.6979064941406" fill="none" stroke="black" stroke-width="0.5"/><line x1="101.39041232630052" y1="280.6979064941406" x2="101.39041232630052" y2="284.6979064941406" fill="none" stroke="black" stroke-width="0.5"/><line x1="215.38599643274574" y1="280.6979064941406" x2="215.38599643274574" y2="284.6979064941406" fill="none" stroke="black" stroke-width="0.5"/><line x1="329.38158053919096" y1="280.6979064941406" x2="329.38158053919096" y2="284.6979064941406" fill="none" stroke="black" stroke-width="0.5"/><line x1="443.3771646456362" y1="280.6979064941406" x2="443.3771646456362" y2="284.6979064941406" fill="none" stroke="black" stroke-width="0.5"/><line x1="557.3727487520814" y1="280.6979064941406" x2="557.3727487520814" y2="284.6979064941406" fill="none" stroke="black" stroke-width="0.5"/><text text-anchor="middle" font-size="11" stroke="none" fill="gray" x="101.39041232630052" y="296.6979064941406">-4</text><text text-anchor="middle" font-size="11" stroke="none" fill="gray" x="215.38599643274574" y="296.6979064941406">-2</text><text text-anchor="middle" font-size="11" stroke="none" fill="gray" x="329.38158053919096" y="296.6979064941406">0</text><text text-anchor="middle" font-size="11" stroke="none" fill="gray" x="443.3771646456362" y="296.6979064941406">2</text><text text-anchor="middle" font-size="11" stroke="none" fill="gray" x="557.3727487520814" y="296.6979064941406">4</text></g><g style="font-family: Asana-Math, Asana;"><line x1="15" y1="0" x2="15" y2="275.6979064941406" fill="none" stroke="black" stroke-width="0.5"/><line x1="11" y1="232.14692006753558" x2="15" y2="232.14692006753558" fill="none" stroke="black" stroke-width="0.5"/><line x1="11" y1="175.14912801431296" x2="15" y2="175.14912801431296" fill="none" stroke="black" stroke-width="0.5"/><line x1="11" y1="118.15133596109038" x2="15" y2="118.15133596109038" fill="none" stroke="black" stroke-width="0.5"/><line x1="11" y1="61.15354390786774" x2="15" y2="61.15354390786774" fill="none" stroke="black" stroke-width="0.5"/><line x1="11" y1="4.155751854645189" x2="15" y2="4.155751854645189" fill="none" stroke="black" stroke-width="0.5"/><text text-anchor="end" font-size="11" stroke="none" fill="gray" x="5" y="236.14692006753558">-2</text><text text-anchor="end" font-size="11" stroke="none" fill="gray" x="5" y="179.14912801431296">-1</text><text text-anchor="end" font-size="11" stroke="none" fill="gray" x="5" y="122.15133596109038">0</text><text text-anchor="end" font-size="11" stroke="none" fill="gray" x="5" y="65.15354390786774">1</text><text text-anchor="end" font-size="11" stroke="none" fill="gray" x="5" y="8.155751854645189">2</text></g></g><g class="arrow-line"><path class="connection real" stroke-dasharray="" d="  M377,72.7 L284,168.7" style="stroke: rgba(206, 27, 27, 0.61); stroke-width: 3; fill: none;"/></g><g class="intersections-group"><g style="stroke: rgb(0, 0, 0); stroke-width: 1; fill: none;"/></g></g><g/><g/><!-- react-empty: 1508 --></svg>
        <svg xmlns="http://www.w3.org/2000/svg" width="660" height="300" style="width:660px;height:300px;font-family:Asana-Math, Asana;background:transparent;"></svg>
</svg>
