<svg xmlns="http://www.w3.org/2000/svg" width="662" height="302" style="
        width:662px;
        height:302px;
        background: transparent;
        fill: none;
">
        
        <svg xmlns="http://www.w3.org/2000/svg"><g class="shapes-region" style="stroke: black; fill: none;"><g class="composite-shape" data-amt="diagram/shapes/plot" style="transform: matrix(1, 0, 0, 1, 9, 2);"><defs><clipPath id="dp4791319556747984"><rect x="21" y="1" width="626" height="272.0104064941406"/></clipPath></defs><g clip-path="url(#dp4791319556747984)"><g><line x1="41.46110417694507" y1="0" x2="41.46110417694507" y2="274.0104064941406" fill="none" stroke="lightgray" stroke-width="0.5"/><line x1="171.32752729952958" y1="0" x2="171.32752729952958" y2="274.0104064941406" fill="none" stroke="lightgray" stroke-width="0.5"/><line x1="301.1939504221141" y1="0" x2="301.1939504221141" y2="274.0104064941406" fill="none" stroke="lightgray" stroke-width="0.5"/><line x1="431.0603735446986" y1="0" x2="431.0603735446986" y2="274.0104064941406" fill="none" stroke="lightgray" stroke-width="0.5"/><line x1="560.9267966672832" y1="0" x2="560.9267966672832" y2="274.0104064941406" fill="none" stroke="lightgray" stroke-width="0.5"/></g><g><line x1="20" y1="256.1930229867283" x2="648" y2="256.1930229867283" fill="none" stroke="lightgray" stroke-width="0.5"/><line x1="20" y1="204.24645373769448" x2="648" y2="204.24645373769448" fill="none" stroke="lightgray" stroke-width="0.5"/><line x1="20" y1="152.29988448866067" x2="648" y2="152.29988448866067" fill="none" stroke="lightgray" stroke-width="0.5"/><line x1="20" y1="100.35331523962685" x2="648" y2="100.35331523962685" fill="none" stroke="lightgray" stroke-width="0.5"/><line x1="20" y1="48.406745990593066" x2="648" y2="48.406745990593066" fill="none" stroke="lightgray" stroke-width="0.5"/></g><g><path d=" M20.00,152.30 L20.50,152.30 L21.00,152.30 L21.50,152.30 L22.00,152.30 L22.50,152.30 L23.00,152.30 L23.50,152.30 L24.00,152.30 L24.50,152.30 L25.00,152.30 L25.50,152.30 L26.00,152.30 L26.51,152.30 L27.01,152.30 L27.51,152.30 L28.01,152.30 L28.51,152.30 L29.01,152.30 L29.51,152.30 L30.01,152.30 L30.51,152.29 L31.01,152.29 L31.51,152.29 L32.01,152.29 L32.51,152.29 L33.01,152.29 L33.51,152.29 L34.01,152.29 L34.51,152.29 L35.01,152.29 L35.51,152.29 L36.01,152.29 L36.51,152.29 L37.01,152.29 L37.51,152.29 L38.01,152.28 L38.51,152.28 L39.02,152.28 L39.52,152.28 L40.02,152.28 L40.52,152.28 L41.02,152.28 L41.52,152.27 L42.02,152.27 L42.52,152.27 L43.02,152.27 L43.52,152.27 L44.02,152.26 L44.52,152.26 L45.02,152.26 L45.52,152.25 L46.02,152.25 L46.52,152.25 L47.02,152.24 L47.52,152.24 L48.02,152.24 L48.52,152.23 L49.02,152.23 L49.52,152.22 L50.02,152.22 L50.52,152.21 L51.02,152.20 L51.53,152.20 L52.03,152.19 L52.53,152.18 L53.03,152.18 L53.53,152.17 L54.03,152.16 L54.53,152.15 L55.03,152.14 L55.53,152.13 L56.03,152.12 L56.53,152.11 L57.03,152.10 L57.53,152.09 L58.03,152.07 L58.53,152.06 L59.03,152.04 L59.53,152.03 L60.03,152.01 L60.53,152.00 L61.03,151.98 L61.53,151.96 L62.03,151.94 L62.53,151.92 L63.03,151.90 L63.53,151.87 L64.04,151.85 L64.54,151.82 L65.04,151.80 L65.54,151.77 L66.04,151.74 L66.54,151.71 L67.04,151.68 L67.54,151.64 L68.04,151.61 L68.54,151.57 L69.04,151.53 L69.54,151.49 L70.04,151.45 L70.54,151.41 L71.04,151.36 L71.54,151.32 L72.04,151.27 L72.54,151.22 L73.04,151.16 L73.54,151.11 L74.04,151.05 L74.54,150.99 L75.04,150.92 L75.54,150.86 L76.04,150.79 L76.55,150.72 L77.05,150.65 L77.55,150.57 L78.05,150.49 L78.55,150.41 L79.05,150.32 L79.55,150.24 L80.05,150.14 L80.55,150.05 L81.05,149.95 L81.55,149.85 L82.05,149.75 L82.55,149.64 L83.05,149.53 L83.55,149.41 L84.05,149.30 L84.55,149.17 L85.05,149.05 L85.55,148.92 L86.05,148.78 L86.55,148.65 L87.05,148.51 L87.55,148.36 L88.05,148.21 L88.55,148.06 L89.05,147.90 L89.56,147.74 L90.06,147.57 L90.56,147.40 L91.06,147.23 L91.56,147.05 L92.06,146.87 L92.56,146.68 L93.06,146.49 L93.56,146.29 L94.06,146.09 L94.56,145.89 L95.06,145.68 L95.56,145.46 L96.06,145.25 L96.56,145.03 L97.06,144.80 L97.56,144.57 L98.06,144.34 L98.56,144.10 L99.06,143.86 L99.56,143.61 L100.06,143.36 L100.56,143.11 L101.06,142.85 L101.56,142.59 L102.07,142.33 L102.57,142.06 L103.07,141.79 L103.57,141.51 L104.07,141.24 L104.57,140.96 L105.07,140.67 L105.57,140.39 L106.07,140.10 L106.57,139.81 L107.07,139.52 L107.57,139.23 L108.07,138.93 L108.57,138.63 L109.07,138.33 L109.57,138.03 L110.07,137.73 L110.57,137.43 L111.07,137.13 L111.57,136.83 L112.07,136.52 L112.57,136.22 L113.07,135.92 L113.57,135.61 L114.07,135.31 L114.58,135.01 L115.08,134.71 L115.58,134.42 L116.08,134.12 L116.58,133.83 L117.08,133.53 L117.58,133.24 L118.08,132.96 L118.58,132.67 L119.08,132.39 L119.58,132.12 L120.08,131.84 L120.58,131.58 L121.08,131.31 L121.58,131.05 L122.08,130.80 L122.58,130.55 L123.08,130.30 L123.58,130.06 L124.08,129.83 L124.58,129.60 L125.08,129.38 L125.58,129.17 L126.08,128.96 L126.58,128.76 L127.09,128.57 L127.59,128.38 L128.09,128.20 L128.59,128.03 L129.09,127.87 L129.59,127.72 L130.09,127.57 L130.59,127.44 L131.09,127.31 L131.59,127.19 L132.09,127.08 L132.59,126.98 L133.09,126.89 L133.59,126.81 L134.09,126.73 L134.59,126.67 L135.09,126.62 L135.59,126.58 L136.09,126.54 L136.59,126.52 L137.09,126.51 L137.59,126.51 L138.09,126.52 L138.59,126.53 L139.09,126.56 L139.60,126.60 L140.10,126.65 L140.60,126.71 L141.10,126.78 L141.60,126.86 L142.10,126.95 L142.60,127.05 L143.10,127.16 L143.60,127.28 L144.10,127.41 L144.60,127.55 L145.10,127.70 L145.60,127.86 L146.10,128.03 L146.60,128.21 L147.10,128.40 L147.60,128.60 L148.10,128.81 L148.60,129.02 L149.10,129.25 L149.60,129.48 L150.10,129.72 L150.60,129.97 L151.10,130.23 L151.60,130.50 L152.11,130.78 L152.61,131.06 L153.11,131.35 L153.61,131.65 L154.11,131.95 L154.61,132.26 L155.11,132.58 L155.61,132.91 L156.11,133.24 L156.61,133.58 L157.11,133.92 L157.61,134.27 L158.11,134.63 L158.61,134.99 L159.11,135.36 L159.61,135.73 L160.11,136.11 L160.61,136.49 L161.11,136.88 L161.61,137.27 L162.11,137.66 L162.61,138.06 L163.11,138.47 L163.61,138.87 L164.11,139.29 L164.62,139.70 L165.12,140.12 L165.62,140.54 L166.12,140.96 L166.62,141.39 L167.12,141.82 L167.62,142.25 L168.12,142.68 L168.62,143.12 L169.12,143.56 L169.62,144.00 L170.12,144.44 L170.62,144.89 L171.12,145.33 L171.62,145.78 L172.12,146.23 L172.62,146.68 L173.12,147.13 L173.62,147.58 L174.12,148.04 L174.62,148.49 L175.12,148.94 L175.62,149.40 L176.12,149.86 L176.62,150.31 L177.13,150.77 L177.63,151.23 L178.13,151.68 L178.63,152.14 L179.13,152.60 L179.63,153.06 L180.13,153.52 L180.63,153.97 L181.13,154.43 L181.63,154.89 L182.13,155.34 L182.63,155.80 L183.13,156.25 L183.63,156.71 L184.13,157.16 L184.63,157.61 L185.13,158.06 L185.63,158.51 L186.13,158.96 L186.63,159.41 L187.13,159.85 L187.63,160.30 L188.13,160.74 L188.63,161.18 L189.13,161.61 L189.64,162.05 L190.14,162.48 L190.64,162.91 L191.14,163.34 L191.64,163.77 L192.14,164.19 L192.64,164.61 L193.14,165.03 L193.64,165.44 L194.14,165.85 L194.64,166.25 L195.14,166.66 L195.64,167.05 L196.14,167.45 L196.64,167.84 L197.14,168.22 L197.64,168.60 L198.14,168.98 L198.64,169.35 L199.14,169.71 L199.64,170.07 L200.14,170.42 L200.64,170.77 L201.14,171.11 L201.64,171.45 L202.15,171.78 L202.65,172.10 L203.15,172.41 L203.65,172.72 L204.15,173.02 L204.65,173.32 L205.15,173.60 L205.65,173.88 L206.15,174.15 L206.65,174.41 L207.15,174.67 L207.65,174.91 L208.15,175.15 L208.65,175.38 L209.15,175.60 L209.65,175.81 L210.15,176.01 L210.65,176.20 L211.15,176.38 L211.65,176.55 L212.15,176.71 L212.65,176.87 L213.15,177.01 L213.65,177.14 L214.15,177.26 L214.65,177.37 L215.16,177.47 L215.66,177.56 L216.16,177.64 L216.66,177.71 L217.16,177.77 L217.66,177.82 L218.16,177.85 L218.66,177.88 L219.16,177.90 L219.66,177.90 L220.16,177.89 L220.66,177.88 L221.16,177.85 L221.66,177.81 L222.16,177.76 L222.66,177.70 L223.16,177.62 L223.66,177.54 L224.16,177.45 L224.66,177.35 L225.16,177.23 L225.66,177.11 L226.16,176.97 L226.66,176.83 L227.16,176.67 L227.67,176.51 L228.17,176.34 L228.67,176.15 L229.17,175.96 L229.67,175.76 L230.17,175.54 L230.67,175.32 L231.17,175.09 L231.67,174.85 L232.17,174.61 L232.67,174.35 L233.17,174.08 L233.67,173.81 L234.17,173.53 L234.67,173.24 L235.17,172.95 L235.67,172.65 L236.17,172.34 L236.67,172.02 L237.17,171.69 L237.67,171.36 L238.17,171.03 L238.67,170.68 L239.17,170.34 L239.67,169.98 L240.18,169.62 L240.68,169.25 L241.18,168.88 L241.68,168.51 L242.18,168.13 L242.68,167.74 L243.18,167.35 L243.68,166.95 L244.18,166.56 L244.68,166.15 L245.18,165.75 L245.68,165.34 L246.18,164.92 L246.68,164.51 L247.18,164.09 L247.68,163.66 L248.18,163.24 L248.68,162.81 L249.18,162.38 L249.68,161.94 L250.18,161.51 L250.68,161.07 L251.18,160.63 L251.68,160.18 L252.18,159.74 L252.69,159.30 L253.19,158.85 L253.69,158.40 L254.19,157.95 L254.69,157.50 L255.19,157.05 L255.69,156.59 L256.19,156.14 L256.69,155.68 L257.19,155.23 L257.69,154.77 L258.19,154.32 L258.69,153.86 L259.19,153.40 L259.69,152.94 L260.19,152.49 L260.69,152.03 L261.19,151.57 L261.69,151.11 L262.19,150.66 L262.69,150.20 L263.19,149.74 L263.69,149.29 L264.19,148.83 L264.69,148.38 L265.20,147.92 L265.70,147.47 L266.20,147.02 L266.70,146.57 L267.20,146.12 L267.70,145.67 L268.20,145.22 L268.70,144.78 L269.20,144.33 L269.70,143.89 L270.20,143.45 L270.70,143.01 L271.20,142.58 L271.70,142.14 L272.20,141.71 L272.70,141.28 L273.20,140.86 L273.70,140.44 L274.20,140.02 L274.70,139.60 L275.20,139.19 L275.70,138.78 L276.20,138.37 L276.70,137.97 L277.20,137.57 L277.71,137.18 L278.21,136.79 L278.71,136.40 L279.21,136.02 L279.71,135.65 L280.21,135.28 L280.71,134.91 L281.21,134.55 L281.71,134.20 L282.21,133.85 L282.71,133.51 L283.21,133.17 L283.71,132.84 L284.21,132.52 L284.71,132.21 L285.21,131.90 L285.71,131.60 L286.21,131.30 L286.71,131.02 L287.21,130.74 L287.71,130.47 L288.21,130.20 L288.71,129.95 L289.21,129.70 L289.71,129.46 L290.22,129.24 L290.72,129.02 L291.22,128.81 L291.72,128.60 L292.22,128.41 L292.72,128.23 L293.22,128.06 L293.72,127.90 L294.22,127.74 L294.72,127.60 L295.22,127.47 L295.72,127.35 L296.22,127.23 L296.72,127.13 L297.22,127.04 L297.72,126.96 L298.22,126.89 L298.72,126.83 L299.22,126.78 L299.72,126.75 L300.22,126.72 L300.72,126.70 L301.22,126.70 L301.72,126.71 L302.22,126.72 L302.73,126.75 L303.23,126.79 L303.73,126.84 L304.23,126.90 L304.73,126.97 L305.23,127.05 L305.73,127.14 L306.23,127.25 L306.73,127.36 L307.23,127.48 L307.73,127.62 L308.23,127.76 L308.73,127.91 L309.23,128.08 L309.73,128.25 L310.23,128.44 L310.73,128.63 L311.23,128.83 L311.73,129.04 L312.23,129.26 L312.73,129.49 L313.23,129.73 L313.73,129.98 L314.23,130.23 L314.73,130.50 L315.24,130.77 L315.74,131.05 L316.24,131.34 L316.74,131.63 L317.24,131.93 L317.74,132.24 L318.24,132.56 L318.74,132.88 L319.24,133.21 L319.74,133.55 L320.24,133.89 L320.74,134.24 L321.24,134.60 L321.74,134.96 L322.24,135.32 L322.74,135.69 L323.24,136.07 L323.74,136.45 L324.24,136.83 L324.74,137.22 L325.24,137.62 L325.74,138.02 L326.24,138.42 L326.74,138.83 L327.24,139.24 L327.75,139.65 L328.25,140.07 L328.75,140.49 L329.25,140.91 L329.75,141.34 L330.25,141.76 L330.75,142.20 L331.25,142.63 L331.75,143.07 L332.25,143.50 L332.75,143.94 L333.25,144.39 L333.75,144.83 L334.25,145.28 L334.75,145.72 L335.25,146.17 L335.75,146.62 L336.25,147.07 L336.75,147.52 L337.25,147.98 L337.75,148.43 L338.25,148.89 L338.75,149.34 L339.25,149.80 L339.75,150.25 L340.25,150.71 L340.76,151.17 L341.26,151.63 L341.76,152.08 L342.26,152.54 L342.76,153.00 L343.26,153.46 L343.76,153.91 L344.26,154.37 L344.76,154.83 L345.26,155.28 L345.76,155.74 L346.26,156.19 L346.76,156.65 L347.26,157.10 L347.76,157.55 L348.26,158.00 L348.76,158.45 L349.26,158.90 L349.76,159.35 L350.26,159.79 L350.76,160.24 L351.26,160.68 L351.76,161.12 L352.26,161.56 L352.76,161.99 L353.27,162.43 L353.77,162.86 L354.27,163.29 L354.77,163.71 L355.27,164.14 L355.77,164.56 L356.27,164.97 L356.77,165.39 L357.27,165.80 L357.77,166.20 L358.27,166.60 L358.77,167.00 L359.27,167.40 L359.77,167.79 L360.27,168.17 L360.77,168.55 L361.27,168.93 L361.77,169.30 L362.27,169.66 L362.77,170.02 L363.27,170.38 L363.77,170.73 L364.27,171.07 L364.77,171.40 L365.27,171.73 L365.78,172.06 L366.28,172.37 L366.78,172.68 L367.28,172.98 L367.78,173.28 L368.28,173.57 L368.78,173.85 L369.28,174.12 L369.78,174.38 L370.28,174.64 L370.78,174.88 L371.28,175.12 L371.78,175.35 L372.28,175.57 L372.78,175.78 L373.28,175.98 L373.78,176.17 L374.28,176.36 L374.78,176.53 L375.28,176.69 L375.78,176.85 L376.28,176.99 L376.78,177.12 L377.28,177.25 L377.78,177.36 L378.29,177.46 L378.79,177.55 L379.29,177.63 L379.79,177.70 L380.29,177.76 L380.79,177.81 L381.29,177.85 L381.79,177.88 L382.29,177.89 L382.79,177.90 L383.29,177.89 L383.79,177.88 L384.29,177.85 L384.79,177.81 L385.29,177.76 L385.79,177.70 L386.29,177.63 L386.79,177.55 L387.29,177.46 L387.79,177.36 L388.29,177.25 L388.79,177.12 L389.29,176.99 L389.79,176.85 L390.29,176.70 L390.80,176.53 L391.30,176.36 L391.80,176.18 L392.30,175.98 L392.80,175.78 L393.30,175.57 L393.80,175.35 L394.30,175.12 L394.80,174.88 L395.30,174.64 L395.80,174.38 L396.30,174.12 L396.80,173.85 L397.30,173.57 L397.80,173.28 L398.30,172.99 L398.80,172.69 L399.30,172.38 L399.80,172.06 L400.30,171.74 L400.80,171.41 L401.30,171.07 L401.80,170.73 L402.30,170.38 L402.80,170.03 L403.31,169.67 L403.81,169.30 L404.31,168.93 L404.81,168.56 L405.31,168.18 L405.81,167.79 L406.31,167.40 L406.81,167.01 L407.31,166.61 L407.81,166.21 L408.31,165.80 L408.81,165.39 L409.31,164.98 L409.81,164.56 L410.31,164.14 L410.81,163.72 L411.31,163.29 L411.81,162.86 L412.31,162.43 L412.81,162.00 L413.31,161.56 L413.81,161.12 L414.31,160.68 L414.81,160.24 L415.31,159.80 L415.82,159.35 L416.32,158.91 L416.82,158.46 L417.32,158.01 L417.82,157.56 L418.32,157.11 L418.82,156.65 L419.32,156.20 L419.82,155.74 L420.32,155.29 L420.82,154.83 L421.32,154.38 L421.82,153.92 L422.32,153.46 L422.82,153.00 L423.32,152.55 L423.82,152.09 L424.32,151.63 L424.82,151.17 L425.32,150.72 L425.82,150.26 L426.32,149.80 L426.82,149.35 L427.32,148.89 L427.82,148.43 L428.33,147.98 L428.83,147.53 L429.33,147.08 L429.83,146.62 L430.33,146.17 L430.83,145.73 L431.33,145.28 L431.83,144.83 L432.33,144.39 L432.83,143.95 L433.33,143.51 L433.83,143.07 L434.33,142.63 L434.83,142.20 L435.33,141.77 L435.83,141.34 L436.33,140.91 L436.83,140.49 L437.33,140.07 L437.83,139.65 L438.33,139.24 L438.83,138.83 L439.33,138.42 L439.83,138.02 L440.33,137.62 L440.84,137.22 L441.34,136.83 L441.84,136.44 L442.34,136.06 L442.84,135.69 L443.34,135.31 L443.84,134.95 L444.34,134.59 L444.84,134.23 L445.34,133.88 L445.84,133.54 L446.34,133.20 L446.84,132.87 L447.34,132.54 L447.84,132.23 L448.34,131.91 L448.84,131.61 L449.34,131.31 L449.84,131.02 L450.34,130.74 L450.84,130.47 L451.34,130.20 L451.84,129.94 L452.34,129.69 L452.84,129.45 L453.35,129.22 L453.85,129.00 L454.35,128.78 L454.85,128.58 L455.35,128.38 L455.85,128.19 L456.35,128.01 L456.85,127.84 L457.35,127.69 L457.85,127.54 L458.35,127.40 L458.85,127.27 L459.35,127.15 L459.85,127.04 L460.35,126.94 L460.85,126.85 L461.35,126.77 L461.85,126.70 L462.35,126.64 L462.85,126.60 L463.35,126.56 L463.85,126.53 L464.35,126.51 L464.85,126.51 L465.35,126.51 L465.85,126.52 L466.36,126.55 L466.86,126.58 L467.36,126.63 L467.86,126.68 L468.36,126.74 L468.86,126.82 L469.36,126.90 L469.86,126.99 L470.36,127.09 L470.86,127.20 L471.36,127.32 L471.86,127.45 L472.36,127.59 L472.86,127.74 L473.36,127.89 L473.86,128.05 L474.36,128.22 L474.86,128.40 L475.36,128.59 L475.86,128.78 L476.36,128.98 L476.86,129.19 L477.36,129.41 L477.86,129.63 L478.36,129.86 L478.87,130.09 L479.37,130.33 L479.87,130.58 L480.37,130.83 L480.87,131.08 L481.37,131.34 L481.87,131.61 L482.37,131.88 L482.87,132.15 L483.37,132.43 L483.87,132.71 L484.37,132.99 L484.87,133.28 L485.37,133.57 L485.87,133.86 L486.37,134.15 L486.87,134.45 L487.37,134.75 L487.87,135.05 L488.37,135.35 L488.87,135.65 L489.37,135.95 L489.87,136.26 L490.37,136.56 L490.87,136.86 L491.38,137.16 L491.88,137.47 L492.38,137.77 L492.88,138.07 L493.38,138.37 L493.88,138.67 L494.38,138.97 L494.88,139.26 L495.38,139.56 L495.88,139.85 L496.38,140.14 L496.88,140.42 L497.38,140.71 L497.88,140.99 L498.38,141.27 L498.88,141.55 L499.38,141.82 L499.88,142.09 L500.38,142.36 L500.88,142.62 L501.38,142.88 L501.88,143.14 L502.38,143.39 L502.88,143.64 L503.38,143.89 L503.89,144.13 L504.39,144.36 L504.89,144.60 L505.39,144.83 L505.89,145.05 L506.39,145.27 L506.89,145.49 L507.39,145.70 L507.89,145.91 L508.39,146.11 L508.89,146.31 L509.39,146.51 L509.89,146.70 L510.39,146.89 L510.89,147.07 L511.39,147.25 L511.89,147.42 L512.39,147.59 L512.89,147.76 L513.39,147.92 L513.89,148.08 L514.39,148.23 L514.89,148.38 L515.39,148.52 L515.89,148.66 L516.40,148.80 L516.90,148.93 L517.40,149.06 L517.90,149.19 L518.40,149.31 L518.90,149.43 L519.40,149.54 L519.90,149.65 L520.40,149.76 L520.90,149.86 L521.40,149.96 L521.90,150.06 L522.40,150.16 L522.90,150.25 L523.40,150.33 L523.90,150.42 L524.40,150.50 L524.90,150.58 L525.40,150.65 L525.90,150.73 L526.40,150.80 L526.90,150.87 L527.40,150.93 L527.90,150.99 L528.40,151.05 L528.91,151.11 L529.41,151.17 L529.91,151.22 L530.41,151.27 L530.91,151.32 L531.41,151.37 L531.91,151.41 L532.41,151.46 L532.91,151.50 L533.41,151.54 L533.91,151.58 L534.41,151.61 L534.91,151.65 L535.41,151.68 L535.91,151.71 L536.41,151.74 L536.91,151.77 L537.41,151.80 L537.91,151.83 L538.41,151.85 L538.91,151.88 L539.41,151.90 L539.91,151.92 L540.41,151.94 L540.91,151.96 L541.42,151.98 L541.92,152.00 L542.42,152.01 L542.92,152.03 L543.42,152.05 L543.92,152.06 L544.42,152.07 L544.92,152.09 L545.42,152.10 L545.92,152.11 L546.42,152.12 L546.92,152.13 L547.42,152.14 L547.92,152.15 L548.42,152.16 L548.92,152.17 L549.42,152.18 L549.92,152.19 L550.42,152.19 L550.92,152.20 L551.42,152.21 L551.92,152.21 L552.42,152.22 L552.92,152.22 L553.42,152.23 L553.93,152.23 L554.43,152.24 L554.93,152.24 L555.43,152.24 L555.93,152.25 L556.43,152.25 L556.93,152.25 L557.43,152.26 L557.93,152.26 L558.43,152.26 L558.93,152.27 L559.43,152.27 L559.93,152.27 L560.43,152.27 L560.93,152.27 L561.43,152.28 L561.93,152.28 L562.43,152.28 L562.93,152.28 L563.43,152.28 L563.93,152.28 L564.43,152.28 L564.93,152.29 L565.43,152.29 L565.93,152.29 L566.44,152.29 L566.94,152.29 L567.44,152.29 L567.94,152.29 L568.44,152.29 L568.94,152.29 L569.44,152.29 L569.94,152.29 L570.44,152.29 L570.94,152.29 L571.44,152.29 L571.94,152.29 L572.44,152.30 L572.94,152.30 L573.44,152.30 L573.94,152.30 L574.44,152.30 L574.94,152.30 L575.44,152.30 L575.94,152.30 L576.44,152.30 L576.94,152.30 L577.44,152.30 L577.94,152.30 L578.44,152.30 L578.95,152.30 L579.45,152.30 L579.95,152.30 L580.45,152.30 L580.95,152.30 L581.45,152.30 L581.95,152.30 L582.45,152.30 L582.95,152.30 L583.45,152.30 L583.95,152.30 L584.45,152.30 L584.95,152.30 L585.45,152.30 L585.95,152.30 L586.45,152.30 L586.95,152.30 L587.45,152.30 L587.95,152.30 L588.45,152.30 L588.95,152.30 L589.45,152.30 L589.95,152.30 L590.45,152.30 L590.95,152.30 L591.45,152.30 L591.96,152.30 L592.46,152.30 L592.96,152.30 L593.46,152.30 L593.96,152.30 L594.46,152.30 L594.96,152.30 L595.46,152.30 L595.96,152.30 L596.46,152.30 L596.96,152.30 L597.46,152.30 L597.96,152.30 L598.46,152.30 L598.96,152.30 L599.46,152.30 L599.96,152.30 L600.46,152.30 L600.96,152.30 L601.46,152.30 L601.96,152.30 L602.46,152.30 L602.96,152.30 L603.46,152.30 L603.96,152.30 L604.47,152.30 L604.97,152.30 L605.47,152.30 L605.97,152.30 L606.47,152.30 L606.97,152.30 L607.47,152.30 L607.97,152.30 L608.47,152.30 L608.97,152.30 L609.47,152.30 L609.97,152.30 L610.47,152.30 L610.97,152.30 L611.47,152.30 L611.97,152.30 L612.47,152.30 L612.97,152.30 L613.47,152.30 L613.97,152.30 L614.47,152.30 L614.97,152.30 L615.47,152.30 L615.97,152.30 L616.47,152.30 L616.98,152.30 L617.48,152.30 L617.98,152.30 L618.48,152.30 L618.98,152.30 L619.48,152.30 L619.98,152.30 L620.48,152.30 L620.98,152.30 L621.48,152.30 L621.98,152.30 L622.48,152.30 L622.98,152.30 L623.48,152.30 L623.98,152.30 L624.48,152.30 L624.98,152.30 L625.48,152.30 L625.98,152.30 L626.48,152.30 L626.98,152.30 L627.48,152.30 L627.98,152.30 L628.48,152.30 L628.98,152.30 L629.49,152.30 L629.99,152.30 L630.49,152.30 L630.99,152.30 L631.49,152.30 L631.99,152.30 L632.49,152.30 L632.99,152.30 L633.49,152.30 L633.99,152.30 L634.49,152.30 L634.99,152.30 L635.49,152.30 L635.99,152.30 L636.49,152.30 L636.99,152.30 L637.49,152.30 L637.99,152.30 L638.49,152.30 L638.99,152.30 L639.49,152.30 L639.99,152.30 L640.49,152.30 L640.99,152.30 L641.49,152.30 L642.00,152.30 L642.50,152.30 L643.00,152.30 L643.50,152.30 L644.00,152.30 L644.50,152.30 L645.00,152.30 L645.50,152.30 L646.00,152.30 L646.50,152.30 L647.00,152.30 L647.50,152.30 L648.00,152.30" style="stroke-width: 2; stroke: rgb(21, 118, 182);"/><path d=" M20.00,156.68 L20.50,157.17 L21.00,157.66 L21.50,158.15 L22.00,158.63 L22.50,159.12 L23.00,159.60 L23.50,160.08 L24.00,160.55 L24.50,161.03 L25.00,161.50 L25.50,161.96 L26.00,162.43 L26.51,162.88 L27.01,163.34 L27.51,163.79 L28.01,164.24 L28.51,164.68 L29.01,165.12 L29.51,165.55 L30.01,165.98 L30.51,166.40 L31.01,166.82 L31.51,167.23 L32.01,167.64 L32.51,168.04 L33.01,168.43 L33.51,168.82 L34.01,169.21 L34.51,169.58 L35.01,169.95 L35.51,170.32 L36.01,170.67 L36.51,171.02 L37.01,171.37 L37.51,171.70 L38.01,172.03 L38.51,172.35 L39.02,172.67 L39.52,172.97 L40.02,173.27 L40.52,173.57 L41.02,173.85 L41.52,174.12 L42.02,174.39 L42.52,174.65 L43.02,174.90 L43.52,175.14 L44.02,175.38 L44.52,175.60 L45.02,175.82 L45.52,176.03 L46.02,176.23 L46.52,176.42 L47.02,176.60 L47.52,176.77 L48.02,176.93 L48.52,177.09 L49.02,177.23 L49.52,177.37 L50.02,177.49 L50.52,177.61 L51.02,177.72 L51.53,177.82 L52.03,177.91 L52.53,177.98 L53.03,178.05 L53.53,178.11 L54.03,178.16 L54.53,178.21 L55.03,178.24 L55.53,178.26 L56.03,178.27 L56.53,178.27 L57.03,178.27 L57.53,178.25 L58.03,178.22 L58.53,178.19 L59.03,178.14 L59.53,178.08 L60.03,178.02 L60.53,177.95 L61.03,177.86 L61.53,177.77 L62.03,177.66 L62.53,177.55 L63.03,177.43 L63.53,177.30 L64.04,177.16 L64.54,177.01 L65.04,176.85 L65.54,176.68 L66.04,176.51 L66.54,176.32 L67.04,176.13 L67.54,175.92 L68.04,175.71 L68.54,175.49 L69.04,175.26 L69.54,175.02 L70.04,174.77 L70.54,174.52 L71.04,174.26 L71.54,173.98 L72.04,173.70 L72.54,173.42 L73.04,173.12 L73.54,172.82 L74.04,172.51 L74.54,172.19 L75.04,171.87 L75.54,171.53 L76.04,171.19 L76.55,170.85 L77.05,170.49 L77.55,170.13 L78.05,169.76 L78.55,169.39 L79.05,169.01 L79.55,168.62 L80.05,168.23 L80.55,167.83 L81.05,167.43 L81.55,167.02 L82.05,166.61 L82.55,166.19 L83.05,165.76 L83.55,165.33 L84.05,164.89 L84.55,164.45 L85.05,164.01 L85.55,163.56 L86.05,163.11 L86.55,162.65 L87.05,162.19 L87.55,161.73 L88.05,161.26 L88.55,160.79 L89.05,160.31 L89.56,159.83 L90.06,159.35 L90.56,158.87 L91.06,158.39 L91.56,157.90 L92.06,157.41 L92.56,156.92 L93.06,156.42 L93.56,155.93 L94.06,155.43 L94.56,154.94 L95.06,154.44 L95.56,153.94 L96.06,153.44 L96.56,152.94 L97.06,152.44 L97.56,151.94 L98.06,151.44 L98.56,150.94 L99.06,150.44 L99.56,149.94 L100.06,149.44 L100.56,148.95 L101.06,148.45 L101.56,147.96 L102.07,147.46 L102.57,146.97 L103.07,146.48 L103.57,146.00 L104.07,145.51 L104.57,145.03 L105.07,144.55 L105.57,144.08 L106.07,143.60 L106.57,143.13 L107.07,142.67 L107.57,142.20 L108.07,141.74 L108.57,141.29 L109.07,140.84 L109.57,140.39 L110.07,139.95 L110.57,139.51 L111.07,139.08 L111.57,138.65 L112.07,138.23 L112.57,137.81 L113.07,137.40 L113.57,136.99 L114.07,136.59 L114.58,136.19 L115.08,135.80 L115.58,135.42 L116.08,135.04 L116.58,134.67 L117.08,134.31 L117.58,133.95 L118.08,133.60 L118.58,133.26 L119.08,132.92 L119.58,132.59 L120.08,132.27 L120.58,131.95 L121.08,131.64 L121.58,131.35 L122.08,131.05 L122.58,130.77 L123.08,130.49 L123.58,130.23 L124.08,129.97 L124.58,129.71 L125.08,129.47 L125.58,129.24 L126.08,129.01 L126.58,128.79 L127.09,128.59 L127.59,128.39 L128.09,128.20 L128.59,128.01 L129.09,127.84 L129.59,127.68 L130.09,127.52 L130.59,127.38 L131.09,127.24 L131.59,127.11 L132.09,127.00 L132.59,126.89 L133.09,126.79 L133.59,126.70 L134.09,126.62 L134.59,126.55 L135.09,126.49 L135.59,126.44 L136.09,126.40 L136.59,126.36 L137.09,126.34 L137.59,126.33 L138.09,126.33 L138.59,126.33 L139.09,126.35 L139.60,126.38 L140.10,126.41 L140.60,126.46 L141.10,126.51 L141.60,126.58 L142.10,126.65 L142.60,126.73 L143.10,126.83 L143.60,126.93 L144.10,127.04 L144.60,127.16 L145.10,127.29 L145.60,127.43 L146.10,127.58 L146.60,127.74 L147.10,127.91 L147.60,128.08 L148.10,128.27 L148.60,128.46 L149.10,128.66 L149.60,128.88 L150.10,129.10 L150.60,129.33 L151.10,129.56 L151.60,129.81 L152.11,130.06 L152.61,130.33 L153.11,130.60 L153.61,130.88 L154.11,131.16 L154.61,131.46 L155.11,131.76 L155.61,132.07 L156.11,132.39 L156.61,132.71 L157.11,133.05 L157.61,133.38 L158.11,133.73 L158.61,134.08 L159.11,134.44 L159.61,134.81 L160.11,135.18 L160.61,135.56 L161.11,135.95 L161.61,136.34 L162.11,136.74 L162.61,137.14 L163.11,137.55 L163.61,137.97 L164.11,138.39 L164.62,138.81 L165.12,139.24 L165.62,139.68 L166.12,140.12 L166.62,140.56 L167.12,141.01 L167.62,141.46 L168.12,141.92 L168.62,142.38 L169.12,142.84 L169.62,143.31 L170.12,143.78 L170.62,144.26 L171.12,144.73 L171.62,145.21 L172.12,145.70 L172.62,146.18 L173.12,146.67 L173.62,147.16 L174.12,147.65 L174.62,148.14 L175.12,148.64 L175.62,149.13 L176.12,149.63 L176.62,150.13 L177.13,150.63 L177.63,151.13 L178.13,151.63 L178.63,152.13 L179.13,152.63 L179.63,153.13 L180.13,153.63 L180.63,154.13 L181.13,154.63 L181.63,155.13 L182.13,155.62 L182.63,156.12 L183.13,156.61 L183.63,157.10 L184.13,157.60 L184.63,158.08 L185.13,158.57 L185.63,159.06 L186.13,159.54 L186.63,160.02 L187.13,160.49 L187.63,160.97 L188.13,161.44 L188.63,161.90 L189.13,162.37 L189.64,162.83 L190.14,163.28 L190.64,163.73 L191.14,164.18 L191.64,164.62 L192.14,165.06 L192.64,165.49 L193.14,165.92 L193.64,166.35 L194.14,166.76 L194.64,167.18 L195.14,167.58 L195.64,167.99 L196.14,168.38 L196.64,168.77 L197.14,169.16 L197.64,169.53 L198.14,169.90 L198.64,170.27 L199.14,170.63 L199.64,170.98 L200.14,171.32 L200.64,171.66 L201.14,171.99 L201.64,172.31 L202.15,172.63 L202.65,172.94 L203.15,173.24 L203.65,173.53 L204.15,173.81 L204.65,174.09 L205.15,174.36 L205.65,174.62 L206.15,174.87 L206.65,175.11 L207.15,175.35 L207.65,175.57 L208.15,175.79 L208.65,176.00 L209.15,176.20 L209.65,176.39 L210.15,176.57 L210.65,176.75 L211.15,176.91 L211.65,177.07 L212.15,177.21 L212.65,177.35 L213.15,177.48 L213.65,177.60 L214.15,177.71 L214.65,177.80 L215.16,177.89 L215.66,177.97 L216.16,178.05 L216.66,178.11 L217.16,178.16 L217.66,178.20 L218.16,178.23 L218.66,178.26 L219.16,178.27 L219.66,178.27 L220.16,178.27 L220.66,178.25 L221.16,178.23 L221.66,178.19 L222.16,178.15 L222.66,178.09 L223.16,178.03 L223.66,177.96 L224.16,177.87 L224.66,177.78 L225.16,177.68 L225.66,177.57 L226.16,177.45 L226.66,177.32 L227.16,177.18 L227.67,177.03 L228.17,176.87 L228.67,176.71 L229.17,176.53 L229.67,176.35 L230.17,176.15 L230.67,175.95 L231.17,175.74 L231.67,175.52 L232.17,175.29 L232.67,175.05 L233.17,174.81 L233.67,174.55 L234.17,174.29 L234.67,174.02 L235.17,173.74 L235.67,173.46 L236.17,173.16 L236.67,172.86 L237.17,172.55 L237.67,172.23 L238.17,171.91 L238.67,171.58 L239.17,171.24 L239.67,170.89 L240.18,170.54 L240.68,170.18 L241.18,169.81 L241.68,169.44 L242.18,169.06 L242.68,168.68 L243.18,168.28 L243.68,167.89 L244.18,167.48 L244.68,167.07 L245.18,166.66 L245.68,166.24 L246.18,165.82 L246.68,165.39 L247.18,164.95 L247.68,164.51 L248.18,164.07 L248.68,163.62 L249.18,163.17 L249.68,162.71 L250.18,162.25 L250.68,161.79 L251.18,161.32 L251.68,160.85 L252.18,160.37 L252.69,159.90 L253.19,159.42 L253.69,158.93 L254.19,158.45 L254.69,157.96 L255.19,157.47 L255.69,156.98 L256.19,156.49 L256.69,155.99 L257.19,155.50 L257.69,155.00 L258.19,154.50 L258.69,154.00 L259.19,153.50 L259.69,153.00 L260.19,152.50 L260.69,152.00 L261.19,151.50 L261.69,151.00 L262.19,150.50 L262.69,150.00 L263.19,149.51 L263.69,149.01 L264.19,148.51 L264.69,148.02 L265.20,147.53 L265.70,147.04 L266.20,146.55 L266.70,146.06 L267.20,145.58 L267.70,145.09 L268.20,144.61 L268.70,144.14 L269.20,143.66 L269.70,143.19 L270.20,142.73 L270.70,142.26 L271.20,141.80 L271.70,141.35 L272.20,140.90 L272.70,140.45 L273.20,140.01 L273.70,139.57 L274.20,139.13 L274.70,138.70 L275.20,138.28 L275.70,137.86 L276.20,137.45 L276.70,137.04 L277.20,136.64 L277.71,136.24 L278.21,135.85 L278.71,135.47 L279.21,135.09 L279.71,134.72 L280.21,134.35 L280.71,134.00 L281.21,133.64 L281.71,133.30 L282.21,132.96 L282.71,132.63 L283.21,132.31 L283.71,131.99 L284.21,131.68 L284.71,131.38 L285.21,131.09 L285.71,130.81 L286.21,130.53 L286.71,130.26 L287.21,130.00 L287.71,129.75 L288.21,129.50 L288.71,129.27 L289.21,129.04 L289.71,128.82 L290.22,128.61 L290.72,128.41 L291.22,128.22 L291.72,128.04 L292.22,127.86 L292.72,127.70 L293.22,127.54 L293.72,127.40 L294.22,127.26 L294.72,127.13 L295.22,127.01 L295.72,126.90 L296.22,126.80 L296.72,126.71 L297.22,126.63 L297.72,126.56 L298.22,126.50 L298.72,126.44 L299.22,126.40 L299.72,126.37 L300.22,126.34 L300.72,126.33 L301.22,126.33 L301.72,126.33 L302.22,126.35 L302.73,126.37 L303.23,126.41 L303.73,126.45 L304.23,126.50 L304.73,126.57 L305.23,126.64 L305.73,126.72 L306.23,126.81 L306.73,126.91 L307.23,127.02 L307.73,127.14 L308.23,127.27 L308.73,127.41 L309.23,127.56 L309.73,127.72 L310.23,127.88 L310.73,128.06 L311.23,128.24 L311.73,128.44 L312.23,128.64 L312.73,128.85 L313.23,129.07 L313.73,129.30 L314.23,129.53 L314.73,129.78 L315.24,130.03 L315.74,130.29 L316.24,130.56 L316.74,130.84 L317.24,131.13 L317.74,131.42 L318.24,131.72 L318.74,132.03 L319.24,132.35 L319.74,132.67 L320.24,133.00 L320.74,133.34 L321.24,133.69 L321.74,134.04 L322.24,134.40 L322.74,134.76 L323.24,135.14 L323.74,135.51 L324.24,135.90 L324.74,136.29 L325.24,136.69 L325.74,137.09 L326.24,137.50 L326.74,137.91 L327.24,138.33 L327.75,138.76 L328.25,139.19 L328.75,139.62 L329.25,140.06 L329.75,140.50 L330.25,140.95 L330.75,141.40 L331.25,141.86 L331.75,142.32 L332.25,142.78 L332.75,143.25 L333.25,143.72 L333.75,144.19 L334.25,144.67 L334.75,145.15 L335.25,145.63 L335.75,146.12 L336.25,146.61 L336.75,147.09 L337.25,147.59 L337.75,148.08 L338.25,148.57 L338.75,149.07 L339.25,149.57 L339.75,150.06 L340.25,150.56 L340.76,151.06 L341.26,151.56 L341.76,152.06 L342.26,152.56 L342.76,153.06 L343.26,153.56 L343.76,154.06 L344.26,154.56 L344.76,155.06 L345.26,155.56 L345.76,156.05 L346.26,156.55 L346.76,157.04 L347.26,157.53 L347.76,158.02 L348.26,158.51 L348.76,158.99 L349.26,159.47 L349.76,159.95 L350.26,160.43 L350.76,160.90 L351.26,161.38 L351.76,161.84 L352.26,162.31 L352.76,162.77 L353.27,163.22 L353.77,163.67 L354.27,164.12 L354.77,164.56 L355.27,165.00 L355.77,165.44 L356.27,165.87 L356.77,166.29 L357.27,166.71 L357.77,167.12 L358.27,167.53 L358.77,167.93 L359.27,168.33 L359.77,168.72 L360.27,169.11 L360.77,169.48 L361.27,169.86 L361.77,170.22 L362.27,170.58 L362.77,170.93 L363.27,171.28 L363.77,171.62 L364.27,171.95 L364.77,172.27 L365.27,172.59 L365.78,172.90 L366.28,173.20 L366.78,173.49 L367.28,173.78 L367.78,174.05 L368.28,174.32 L368.78,174.58 L369.28,174.84 L369.78,175.08 L370.28,175.32 L370.78,175.54 L371.28,175.76 L371.78,175.97 L372.28,176.18 L372.78,176.37 L373.28,176.55 L373.78,176.73 L374.28,176.89 L374.78,177.05 L375.28,177.20 L375.78,177.33 L376.28,177.46 L376.78,177.58 L377.28,177.69 L377.78,177.79 L378.29,177.88 L378.79,177.96 L379.29,178.04 L379.79,178.10 L380.29,178.15 L380.79,178.20 L381.29,178.23 L381.79,178.25 L382.29,178.27 L382.79,178.27 L383.29,178.27 L383.79,178.25 L384.29,178.23 L384.79,178.20 L385.29,178.15 L385.79,178.10 L386.29,178.04 L386.79,177.97 L387.29,177.88 L387.79,177.79 L388.29,177.69 L388.79,177.58 L389.29,177.46 L389.79,177.33 L390.29,177.20 L390.80,177.05 L391.30,176.89 L391.80,176.73 L392.30,176.55 L392.80,176.37 L393.30,176.18 L393.80,175.98 L394.30,175.77 L394.80,175.55 L395.30,175.32 L395.80,175.08 L396.30,174.84 L396.80,174.59 L397.30,174.33 L397.80,174.06 L398.30,173.78 L398.80,173.49 L399.30,173.20 L399.80,172.90 L400.30,172.59 L400.80,172.27 L401.30,171.95 L401.80,171.62 L402.30,171.28 L402.80,170.94 L403.31,170.58 L403.81,170.23 L404.31,169.86 L404.81,169.49 L405.31,169.11 L405.81,168.73 L406.31,168.34 L406.81,167.94 L407.31,167.54 L407.81,167.13 L408.31,166.71 L408.81,166.30 L409.31,165.87 L409.81,165.44 L410.31,165.01 L410.81,164.57 L411.31,164.13 L411.81,163.68 L412.31,163.23 L412.81,162.77 L413.31,162.31 L413.81,161.85 L414.31,161.38 L414.81,160.91 L415.31,160.44 L415.82,159.96 L416.32,159.48 L416.82,159.00 L417.32,158.51 L417.82,158.03 L418.32,157.54 L418.82,157.05 L419.32,156.55 L419.82,156.06 L420.32,155.56 L420.82,155.07 L421.32,154.57 L421.82,154.07 L422.32,153.57 L422.82,153.07 L423.32,152.57 L423.82,152.07 L424.32,151.57 L424.82,151.07 L425.32,150.57 L425.82,150.07 L426.32,149.57 L426.82,149.07 L427.32,148.58 L427.82,148.08 L428.33,147.59 L428.83,147.10 L429.33,146.61 L429.83,146.12 L430.33,145.64 L430.83,145.16 L431.33,144.68 L431.83,144.20 L432.33,143.73 L432.83,143.25 L433.33,142.79 L433.83,142.32 L434.33,141.86 L434.83,141.41 L435.33,140.96 L435.83,140.51 L436.33,140.06 L436.83,139.62 L437.33,139.19 L437.83,138.76 L438.33,138.34 L438.83,137.92 L439.33,137.50 L439.83,137.09 L440.33,136.69 L440.84,136.29 L441.34,135.90 L441.84,135.52 L442.34,135.14 L442.84,134.77 L443.34,134.40 L443.84,134.04 L444.34,133.69 L444.84,133.34 L445.34,133.01 L445.84,132.67 L446.34,132.35 L446.84,132.03 L447.34,131.72 L447.84,131.42 L448.34,131.13 L448.84,130.84 L449.34,130.56 L449.84,130.29 L450.34,130.03 L450.84,129.78 L451.34,129.53 L451.84,129.30 L452.34,129.07 L452.84,128.85 L453.35,128.64 L453.85,128.44 L454.35,128.24 L454.85,128.06 L455.35,127.88 L455.85,127.72 L456.35,127.56 L456.85,127.41 L457.35,127.28 L457.85,127.15 L458.35,127.03 L458.85,126.92 L459.35,126.81 L459.85,126.72 L460.35,126.64 L460.85,126.57 L461.35,126.50 L461.85,126.45 L462.35,126.41 L462.85,126.37 L463.35,126.35 L463.85,126.33 L464.35,126.33 L464.85,126.33 L465.35,126.34 L465.85,126.37 L466.36,126.40 L466.86,126.44 L467.36,126.50 L467.86,126.56 L468.36,126.63 L468.86,126.71 L469.36,126.80 L469.86,126.90 L470.36,127.01 L470.86,127.13 L471.36,127.26 L471.86,127.39 L472.36,127.54 L472.86,127.70 L473.36,127.86 L473.86,128.03 L474.36,128.22 L474.86,128.41 L475.36,128.61 L475.86,128.82 L476.36,129.04 L476.86,129.27 L477.36,129.50 L477.86,129.74 L478.36,130.00 L478.87,130.26 L479.37,130.53 L479.87,130.80 L480.37,131.09 L480.87,131.38 L481.37,131.68 L481.87,131.99 L482.37,132.30 L482.87,132.63 L483.37,132.96 L483.87,133.30 L484.37,133.64 L484.87,133.99 L485.37,134.35 L485.87,134.72 L486.37,135.09 L486.87,135.46 L487.37,135.85 L487.87,136.24 L488.37,136.64 L488.87,137.04 L489.37,137.45 L489.87,137.86 L490.37,138.28 L490.87,138.70 L491.38,139.13 L491.88,139.56 L492.38,140.00 L492.88,140.44 L493.38,140.89 L493.88,141.34 L494.38,141.80 L494.88,142.26 L495.38,142.72 L495.88,143.19 L496.38,143.66 L496.88,144.13 L497.38,144.61 L497.88,145.09 L498.38,145.57 L498.88,146.06 L499.38,146.54 L499.88,147.03 L500.38,147.52 L500.88,148.01 L501.38,148.51 L501.88,149.00 L502.38,149.50 L502.88,150.00 L503.38,150.50 L503.89,151.00 L504.39,151.50 L504.89,152.00 L505.39,152.50 L505.89,153.00 L506.39,153.50 L506.89,154.00 L507.39,154.50 L507.89,155.00 L508.39,155.49 L508.89,155.99 L509.39,156.48 L509.89,156.98 L510.39,157.47 L510.89,157.96 L511.39,158.44 L511.89,158.93 L512.39,159.41 L512.89,159.89 L513.39,160.37 L513.89,160.84 L514.39,161.31 L514.89,161.78 L515.39,162.25 L515.89,162.71 L516.40,163.16 L516.90,163.62 L517.40,164.06 L517.90,164.51 L518.40,164.95 L518.90,165.38 L519.40,165.81 L519.90,166.24 L520.40,166.66 L520.90,167.07 L521.40,167.48 L521.90,167.88 L522.40,168.28 L522.90,168.67 L523.40,169.06 L523.90,169.44 L524.40,169.81 L524.90,170.18 L525.40,170.53 L525.90,170.89 L526.40,171.23 L526.90,171.57 L527.40,171.90 L527.90,172.23 L528.40,172.55 L528.91,172.86 L529.41,173.16 L529.91,173.45 L530.41,173.74 L530.91,174.02 L531.41,174.29 L531.91,174.55 L532.41,174.80 L532.91,175.05 L533.41,175.29 L533.91,175.52 L534.41,175.74 L534.91,175.95 L535.41,176.15 L535.91,176.34 L536.41,176.53 L536.91,176.70 L537.41,176.87 L537.91,177.03 L538.41,177.18 L538.91,177.32 L539.41,177.45 L539.91,177.57 L540.41,177.68 L540.91,177.78 L541.42,177.87 L541.92,177.95 L542.42,178.03 L542.92,178.09 L543.42,178.15 L543.92,178.19 L544.42,178.23 L544.92,178.25 L545.42,178.27 L545.92,178.27 L546.42,178.27 L546.92,178.26 L547.42,178.23 L547.92,178.20 L548.42,178.16 L548.92,178.11 L549.42,178.05 L549.92,177.98 L550.42,177.90 L550.92,177.81 L551.42,177.71 L551.92,177.60 L552.42,177.48 L552.92,177.35 L553.42,177.22 L553.93,177.07 L554.43,176.91 L554.93,176.75 L555.43,176.58 L555.93,176.39 L556.43,176.20 L556.93,176.00 L557.43,175.79 L557.93,175.58 L558.43,175.35 L558.93,175.11 L559.43,174.87 L559.93,174.62 L560.43,174.36 L560.93,174.09 L561.43,173.81 L561.93,173.53 L562.43,173.24 L562.93,172.94 L563.43,172.63 L563.93,172.32 L564.43,171.99 L564.93,171.66 L565.43,171.33 L565.93,170.98 L566.44,170.63 L566.94,170.27 L567.44,169.91 L567.94,169.54 L568.44,169.16 L568.94,168.78 L569.44,168.39 L569.94,167.99 L570.44,167.59 L570.94,167.18 L571.44,166.77 L571.94,166.35 L572.44,165.93 L572.94,165.50 L573.44,165.06 L573.94,164.63 L574.44,164.18 L574.94,163.74 L575.44,163.29 L575.94,162.83 L576.44,162.37 L576.94,161.91 L577.44,161.44 L577.94,160.97 L578.44,160.50 L578.95,160.02 L579.45,159.54 L579.95,159.06 L580.45,158.58 L580.95,158.09 L581.45,157.60 L581.95,157.11 L582.45,156.62 L582.95,156.12 L583.45,155.63 L583.95,155.13 L584.45,154.63 L584.95,154.13 L585.45,153.63 L585.95,153.13 L586.45,152.63 L586.95,152.13 L587.45,151.63 L587.95,151.13 L588.45,150.63 L588.95,150.13 L589.45,149.64 L589.95,149.14 L590.45,148.64 L590.95,148.15 L591.45,147.66 L591.96,147.16 L592.46,146.67 L592.96,146.19 L593.46,145.70 L593.96,145.22 L594.46,144.74 L594.96,144.26 L595.46,143.79 L595.96,143.32 L596.46,142.85 L596.96,142.38 L597.46,141.92 L597.96,141.47 L598.46,141.01 L598.96,140.57 L599.46,140.12 L599.96,139.68 L600.46,139.25 L600.96,138.82 L601.46,138.39 L601.96,137.97 L602.46,137.56 L602.96,137.15 L603.46,136.74 L603.96,136.35 L604.47,135.95 L604.97,135.57 L605.47,135.19 L605.97,134.82 L606.47,134.45 L606.97,134.09 L607.47,133.73 L607.97,133.39 L608.47,133.05 L608.97,132.72 L609.47,132.39 L609.97,132.07 L610.47,131.76 L610.97,131.46 L611.47,131.17 L611.97,130.88 L612.47,130.60 L612.97,130.33 L613.47,130.07 L613.97,129.81 L614.47,129.57 L614.97,129.33 L615.47,129.10 L615.97,128.88 L616.47,128.67 L616.98,128.46 L617.48,128.27 L617.98,128.08 L618.48,127.91 L618.98,127.74 L619.48,127.58 L619.98,127.43 L620.48,127.29 L620.98,127.16 L621.48,127.04 L621.98,126.93 L622.48,126.83 L622.98,126.73 L623.48,126.65 L623.98,126.58 L624.48,126.51 L624.98,126.46 L625.48,126.41 L625.98,126.38 L626.48,126.35 L626.98,126.33 L627.48,126.33 L627.98,126.33 L628.48,126.34 L628.98,126.36 L629.49,126.40 L629.99,126.44 L630.49,126.49 L630.99,126.55 L631.49,126.62 L631.99,126.70 L632.49,126.79 L632.99,126.89 L633.49,126.99 L633.99,127.11 L634.49,127.24 L634.99,127.38 L635.49,127.52 L635.99,127.68 L636.49,127.84 L636.99,128.01 L637.49,128.19 L637.99,128.38 L638.49,128.58 L638.99,128.79 L639.49,129.01 L639.99,129.24 L640.49,129.47 L640.99,129.71 L641.49,129.96 L642.00,130.22 L642.50,130.49 L643.00,130.77 L643.50,131.05 L644.00,131.34 L644.50,131.64 L645.00,131.95 L645.50,132.26 L646.00,132.59 L646.50,132.91 L647.00,133.25 L647.50,133.60 L648.00,133.95" style="stroke-width: 2; stroke: rgba(255, 121, 121, 0.42);"/></g><rect class="real" x="21" y="1" width="626" height="272.0104064941406" style="stroke: gray; fill: transparent;"/></g><g style="font-family: Asana-Math, Asana;"><line x1="20" y1="279.0104064941406" x2="648" y2="279.0104064941406" fill="none" stroke="black" stroke-width="0.5"/><line x1="41.46110417694507" y1="279.0104064941406" x2="41.46110417694507" y2="283.0104064941406" fill="none" stroke="black" stroke-width="0.5"/><line x1="171.32752729952958" y1="279.0104064941406" x2="171.32752729952958" y2="283.0104064941406" fill="none" stroke="black" stroke-width="0.5"/><line x1="301.1939504221141" y1="279.0104064941406" x2="301.1939504221141" y2="283.0104064941406" fill="none" stroke="black" stroke-width="0.5"/><line x1="431.0603735446986" y1="279.0104064941406" x2="431.0603735446986" y2="283.0104064941406" fill="none" stroke="black" stroke-width="0.5"/><line x1="560.9267966672832" y1="279.0104064941406" x2="560.9267966672832" y2="283.0104064941406" fill="none" stroke="black" stroke-width="0.5"/><text text-anchor="middle" font-size="11" stroke="none" fill="gray" x="41.46110417694507" y="295.0104064941406">-10</text><text text-anchor="middle" font-size="11" stroke="none" fill="gray" x="171.32752729952958" y="295.0104064941406">-5</text><text text-anchor="middle" font-size="11" stroke="none" fill="gray" x="301.1939504221141" y="295.0104064941406">0</text><text text-anchor="middle" font-size="11" stroke="none" fill="gray" x="431.0603735446986" y="295.0104064941406">5</text><text text-anchor="middle" font-size="11" stroke="none" fill="gray" x="560.9267966672832" y="295.0104064941406">10</text></g><g style="font-family: Asana-Math, Asana;"><line x1="15" y1="0" x2="15" y2="274.0104064941406" fill="none" stroke="black" stroke-width="0.5"/><line x1="11" y1="256.1930229867283" x2="15" y2="256.1930229867283" fill="none" stroke="black" stroke-width="0.5"/><line x1="11" y1="204.24645373769448" x2="15" y2="204.24645373769448" fill="none" stroke="black" stroke-width="0.5"/><line x1="11" y1="152.29988448866067" x2="15" y2="152.29988448866067" fill="none" stroke="black" stroke-width="0.5"/><line x1="11" y1="100.35331523962685" x2="15" y2="100.35331523962685" fill="none" stroke="black" stroke-width="0.5"/><line x1="11" y1="48.406745990593066" x2="15" y2="48.406745990593066" fill="none" stroke="black" stroke-width="0.5"/><text text-anchor="end" font-size="11" stroke="none" fill="gray" x="5" y="260.1930229867283">-4</text><text text-anchor="end" font-size="11" stroke="none" fill="gray" x="5" y="208.24645373769448">-2</text><text text-anchor="end" font-size="11" stroke="none" fill="gray" x="5" y="156.29988448866067">0</text><text text-anchor="end" font-size="11" stroke="none" fill="gray" x="5" y="104.35331523962685">2</text><text text-anchor="end" font-size="11" stroke="none" fill="gray" x="5" y="52.406745990593066">4</text></g></g><g class="intersections-group"><g style="stroke: rgb(0, 0, 0); stroke-width: 1; fill: none;"/></g></g><g/><g/><!-- react-empty: 1847 --></svg>
        <svg xmlns="http://www.w3.org/2000/svg" width="660" height="300" style="width:660px;height:300px;font-family:Asana-Math, Asana;background:transparent;"></svg>
</svg>
