<svg xmlns="http://www.w3.org/2000/svg" width="662" height="302" style="
        width:662px;
        height:302px;
        background: transparent;
        fill: none;
">
        
        <svg xmlns="http://www.w3.org/2000/svg"><g class="shapes-region" style="stroke: black; fill: none;"><g class="composite-shape" data-amt="diagram/shapes/plot" style="transform: matrix(1, 0, 0, 1, 9, 4);"><defs><clipPath id="dp9489516298081462"><rect x="21" y="1" width="625" height="271.65625"/></clipPath></defs><g clip-path="url(#dp9489516298081462)"><g><line x1="67.3433986121498" y1="0" x2="67.3433986121498" y2="273.65625" fill="none" stroke="lightgray" stroke-width="0.5"/><line x1="188.646614536055" y1="0" x2="188.646614536055" y2="273.65625" fill="none" stroke="lightgray" stroke-width="0.5"/><line x1="309.94983045996025" y1="0" x2="309.94983045996025" y2="273.65625" fill="none" stroke="lightgray" stroke-width="0.5"/><line x1="431.2530463838654" y1="0" x2="431.2530463838654" y2="273.65625" fill="none" stroke="lightgray" stroke-width="0.5"/><line x1="552.5562623077707" y1="0" x2="552.5562623077707" y2="273.65625" fill="none" stroke="lightgray" stroke-width="0.5"/></g><g><line x1="20" y1="265.34215008745645" x2="647" y2="265.34215008745645" fill="none" stroke="lightgray" stroke-width="0.5"/><line x1="20" y1="204.69054212550387" x2="647" y2="204.69054212550387" fill="none" stroke="lightgray" stroke-width="0.5"/><line x1="20" y1="144.03893416355126" x2="647" y2="144.03893416355126" fill="none" stroke="lightgray" stroke-width="0.5"/><line x1="20" y1="83.38732620159863" x2="647" y2="83.38732620159863" fill="none" stroke="lightgray" stroke-width="0.5"/><line x1="20" y1="22.735718239646047" x2="647" y2="22.735718239646047" fill="none" stroke="lightgray" stroke-width="0.5"/></g><g><path d=" M20.00,144.05 L20.50,144.05 L21.00,144.05 L21.50,144.05 L22.00,144.05 L22.50,144.05 L23.00,144.05 L23.50,144.05 L24.00,144.05 L24.50,144.05 L25.00,144.05 L25.50,144.05 L26.00,144.05 L26.51,144.05 L27.01,144.05 L27.51,144.05 L28.01,144.05 L28.51,144.05 L29.01,144.05 L29.51,144.05 L30.01,144.05 L30.51,144.05 L31.01,144.06 L31.51,144.06 L32.01,144.06 L32.51,144.06 L33.01,144.06 L33.51,144.06 L34.01,144.06 L34.51,144.06 L35.01,144.06 L35.51,144.06 L36.01,144.06 L36.51,144.06 L37.01,144.06 L37.51,144.06 L38.01,144.06 L38.51,144.06 L39.02,144.06 L39.52,144.06 L40.02,144.06 L40.52,144.06 L41.02,144.06 L41.52,144.06 L42.02,144.06 L42.52,144.06 L43.02,144.07 L43.52,144.07 L44.02,144.07 L44.52,144.07 L45.02,144.07 L45.52,144.07 L46.02,144.07 L46.52,144.07 L47.02,144.07 L47.52,144.07 L48.02,144.07 L48.52,144.07 L49.02,144.07 L49.52,144.07 L50.02,144.07 L50.52,144.07 L51.02,144.07 L51.53,144.08 L52.03,144.08 L52.53,144.08 L53.03,144.08 L53.53,144.08 L54.03,144.08 L54.53,144.08 L55.03,144.08 L55.53,144.08 L56.03,144.08 L56.53,144.08 L57.03,144.08 L57.53,144.08 L58.03,144.09 L58.53,144.09 L59.03,144.09 L59.53,144.09 L60.03,144.09 L60.53,144.09 L61.03,144.09 L61.53,144.09 L62.03,144.09 L62.53,144.09 L63.03,144.09 L63.53,144.09 L64.04,144.10 L64.54,144.10 L65.04,144.10 L65.54,144.10 L66.04,144.10 L66.54,144.10 L67.04,144.10 L67.54,144.10 L68.04,144.10 L68.54,144.10 L69.04,144.10 L69.54,144.10 L70.04,144.10 L70.54,144.10 L71.04,144.10 L71.54,144.09 L72.04,144.09 L72.54,144.09 L73.04,144.09 L73.54,144.08 L74.04,144.08 L74.54,144.08 L75.04,144.07 L75.54,144.06 L76.04,144.06 L76.55,144.05 L77.05,144.04 L77.55,144.03 L78.05,144.02 L78.55,144.00 L79.05,143.99 L79.55,143.97 L80.05,143.95 L80.55,143.93 L81.05,143.90 L81.55,143.87 L82.05,143.84 L82.55,143.80 L83.05,143.76 L83.55,143.72 L84.05,143.67 L84.55,143.62 L85.05,143.56 L85.55,143.49 L86.05,143.42 L86.55,143.34 L87.05,143.25 L87.55,143.15 L88.05,143.05 L88.55,142.93 L89.06,142.80 L89.56,142.67 L90.06,142.52 L90.56,142.35 L91.06,142.18 L91.56,141.99 L92.06,141.78 L92.56,141.56 L93.06,141.32 L93.56,141.06 L94.06,140.78 L94.56,140.49 L95.06,140.17 L95.56,139.83 L96.06,139.46 L96.56,139.07 L97.06,138.66 L97.56,138.22 L98.06,137.75 L98.56,137.25 L99.06,136.73 L99.56,136.17 L100.06,135.59 L100.56,134.97 L101.06,134.32 L101.57,133.64 L102.07,132.93 L102.57,132.18 L103.07,131.40 L103.57,130.59 L104.07,129.74 L104.57,128.86 L105.07,127.94 L105.57,127.00 L106.07,126.01 L106.57,125.00 L107.07,123.96 L107.57,122.88 L108.07,121.78 L108.57,120.65 L109.07,119.49 L109.57,118.31 L110.07,117.11 L110.57,115.88 L111.07,114.64 L111.57,113.38 L112.07,112.11 L112.57,110.83 L113.07,109.54 L113.57,108.24 L114.08,106.95 L114.58,105.65 L115.08,104.36 L115.58,103.08 L116.08,101.81 L116.58,100.56 L117.08,99.32 L117.58,98.11 L118.08,96.92 L118.58,95.77 L119.08,94.65 L119.58,93.56 L120.08,92.52 L120.58,91.52 L121.08,90.57 L121.58,89.67 L122.08,88.83 L122.58,88.04 L123.08,87.31 L123.58,86.65 L124.08,86.05 L124.58,85.51 L125.08,85.05 L125.58,84.66 L126.08,84.34 L126.58,84.10 L127.09,83.92 L127.59,83.83 L128.09,83.81 L128.59,83.87 L129.09,84.00 L129.59,84.20 L130.09,84.49 L130.59,84.84 L131.09,85.27 L131.59,85.76 L132.09,86.33 L132.59,86.96 L133.09,87.66 L133.59,88.42 L134.09,89.23 L134.59,90.11 L135.09,91.03 L135.59,92.01 L136.09,93.03 L136.59,94.10 L137.09,95.21 L137.59,96.35 L138.09,97.52 L138.59,98.73 L139.09,99.96 L139.60,101.21 L140.10,102.47 L140.60,103.75 L141.10,105.05 L141.60,106.35 L142.10,107.65 L142.60,108.95 L143.10,110.25 L143.60,111.55 L144.10,112.83 L144.60,114.10 L145.10,115.36 L145.60,116.61 L146.10,117.83 L146.60,119.03 L147.10,120.21 L147.60,121.36 L148.10,122.48 L148.60,123.58 L149.10,124.65 L149.60,125.69 L150.10,126.69 L150.60,127.67 L151.10,128.60 L151.60,129.51 L152.11,130.38 L152.61,131.22 L153.11,132.03 L153.61,132.80 L154.11,133.53 L154.61,134.24 L155.11,134.91 L155.61,135.54 L156.11,136.15 L156.61,136.72 L157.11,137.27 L157.61,137.78 L158.11,138.27 L158.61,138.72 L159.11,139.15 L159.61,139.55 L160.11,139.93 L160.61,140.28 L161.11,140.61 L161.61,140.92 L162.11,141.21 L162.61,141.47 L163.11,141.72 L163.61,141.95 L164.11,142.16 L164.62,142.35 L165.12,142.53 L165.62,142.69 L166.12,142.84 L166.62,142.98 L167.12,143.10 L167.62,143.22 L168.12,143.32 L168.62,143.41 L169.12,143.49 L169.62,143.56 L170.12,143.63 L170.62,143.68 L171.12,143.73 L171.62,143.78 L172.12,143.81 L172.62,143.84 L173.12,143.87 L173.62,143.89 L174.12,143.91 L174.62,143.92 L175.12,143.92 L175.62,143.93 L176.12,143.93 L176.62,143.92 L177.13,143.92 L177.63,143.91 L178.13,143.90 L178.63,143.88 L179.13,143.87 L179.63,143.85 L180.13,143.83 L180.63,143.80 L181.13,143.78 L181.63,143.75 L182.13,143.72 L182.63,143.69 L183.13,143.66 L183.63,143.63 L184.13,143.59 L184.63,143.55 L185.13,143.52 L185.63,143.48 L186.13,143.44 L186.63,143.39 L187.13,143.35 L187.63,143.30 L188.13,143.26 L188.63,143.21 L189.13,143.16 L189.64,143.11 L190.14,143.06 L190.64,143.00 L191.14,142.95 L191.64,142.89 L192.14,142.83 L192.64,142.78 L193.14,142.72 L193.64,142.65 L194.14,142.59 L194.64,142.52 L195.14,142.46 L195.64,142.39 L196.14,142.32 L196.64,142.25 L197.14,142.18 L197.64,142.10 L198.14,142.03 L198.64,141.95 L199.14,141.87 L199.64,141.79 L200.14,141.71 L200.64,141.63 L201.14,141.54 L201.64,141.46 L202.15,141.37 L202.65,141.28 L203.15,141.19 L203.65,141.09 L204.15,141.00 L204.65,140.90 L205.15,140.80 L205.65,140.70 L206.15,140.60 L206.65,140.50 L207.15,140.39 L207.65,140.28 L208.15,140.17 L208.65,140.06 L209.15,139.95 L209.65,139.83 L210.15,139.72 L210.65,139.60 L211.15,139.48 L211.65,139.36 L212.15,139.24 L212.65,139.11 L213.15,138.98 L213.65,138.85 L214.15,138.72 L214.66,138.59 L215.16,138.46 L215.66,138.32 L216.16,138.19 L216.66,138.05 L217.16,137.91 L217.66,137.76 L218.16,137.62 L218.66,137.47 L219.16,137.33 L219.66,137.18 L220.16,137.03 L220.66,136.88 L221.16,136.72 L221.66,136.57 L222.16,136.42 L222.66,136.26 L223.16,136.10 L223.66,135.94 L224.16,135.78 L224.66,135.62 L225.16,135.46 L225.66,135.30 L226.16,135.13 L226.66,134.97 L227.17,134.81 L227.67,134.64 L228.17,134.47 L228.67,134.31 L229.17,134.14 L229.67,133.98 L230.17,133.81 L230.67,133.65 L231.17,133.48 L231.67,133.32 L232.17,133.15 L232.67,132.99 L233.17,132.83 L233.67,132.67 L234.17,132.51 L234.67,132.35 L235.17,132.19 L235.67,132.04 L236.17,131.89 L236.67,131.74 L237.17,131.59 L237.67,131.44 L238.17,131.30 L238.67,131.16 L239.17,131.03 L239.68,130.90 L240.18,130.77 L240.68,130.65 L241.18,130.53 L241.68,130.42 L242.18,130.31 L242.68,130.21 L243.18,130.11 L243.68,130.02 L244.18,129.93 L244.68,129.85 L245.18,129.78 L245.68,129.72 L246.18,129.66 L246.68,129.62 L247.18,129.58 L247.68,129.54 L248.18,129.52 L248.68,129.51 L249.18,129.51 L249.68,129.51 L250.18,129.53 L250.68,129.56 L251.18,129.60 L251.68,129.65 L252.19,129.71 L252.69,129.78 L253.19,129.87 L253.69,129.97 L254.19,130.08 L254.69,130.20 L255.19,130.34 L255.69,130.50 L256.19,130.66 L256.69,130.84 L257.19,131.04 L257.69,131.25 L258.19,131.47 L258.69,131.71 L259.19,131.97 L259.69,132.24 L260.19,132.52 L260.69,132.83 L261.19,133.14 L261.69,133.48 L262.19,133.83 L262.69,134.19 L263.19,134.57 L263.69,134.97 L264.19,135.38 L264.70,135.81 L265.20,136.25 L265.70,136.71 L266.20,137.18 L266.70,137.67 L267.20,138.18 L267.70,138.69 L268.20,139.23 L268.70,139.77 L269.20,140.33 L269.70,140.90 L270.20,141.48 L270.70,142.08 L271.20,142.69 L271.70,143.30 L272.20,143.93 L272.70,144.57 L273.20,145.22 L273.70,145.87 L274.20,146.53 L274.70,147.20 L275.20,147.88 L275.70,148.56 L276.20,149.25 L276.70,149.93 L277.21,150.63 L277.71,151.32 L278.21,152.01 L278.71,152.71 L279.21,153.40 L279.71,154.09 L280.21,154.78 L280.71,155.47 L281.21,156.15 L281.71,156.82 L282.21,157.49 L282.71,158.15 L283.21,158.80 L283.71,159.44 L284.21,160.07 L284.71,160.69 L285.21,161.30 L285.71,161.89 L286.21,162.47 L286.71,163.03 L287.21,163.58 L287.71,164.11 L288.21,164.62 L288.71,165.11 L289.21,165.58 L289.72,166.03 L290.22,166.47 L290.72,166.87 L291.22,167.26 L291.72,167.62 L292.22,167.96 L292.72,168.27 L293.22,168.56 L293.72,168.83 L294.22,169.07 L294.72,169.28 L295.22,169.46 L295.72,169.62 L296.22,169.75 L296.72,169.86 L297.22,169.94 L297.72,169.99 L298.22,170.01 L298.72,170.01 L299.22,169.98 L299.72,169.92 L300.22,169.83 L300.72,169.72 L301.22,169.58 L301.72,169.42 L302.23,169.23 L302.73,169.02 L303.23,168.78 L303.73,168.52 L304.23,168.23 L304.73,167.93 L305.23,167.60 L305.73,167.24 L306.23,166.87 L306.73,166.48 L307.23,166.07 L307.73,165.64 L308.23,165.20 L308.73,164.73 L309.23,164.26 L309.73,163.76 L310.23,163.26 L310.73,162.74 L311.23,162.21 L311.73,161.67 L312.23,161.12 L312.73,160.57 L313.23,160.00 L313.73,159.43 L314.23,158.85 L314.74,158.27 L315.24,157.69 L315.74,157.10 L316.24,156.52 L316.74,155.93 L317.24,155.34 L317.74,154.76 L318.24,154.18 L318.74,153.60 L319.24,153.03 L319.74,152.46 L320.24,151.90 L320.74,151.34 L321.24,150.80 L321.74,150.26 L322.24,149.74 L322.74,149.22 L323.24,148.72 L323.74,148.22 L324.24,147.74 L324.74,147.28 L325.24,146.82 L325.74,146.38 L326.24,145.96 L326.74,145.55 L327.25,145.16 L327.75,144.79 L328.25,144.43 L328.75,144.08 L329.25,143.76 L329.75,143.45 L330.25,143.16 L330.75,142.89 L331.25,142.64 L331.75,142.40 L332.25,142.19 L332.75,141.99 L333.25,141.81 L333.75,141.65 L334.25,141.51 L334.75,141.38 L335.25,141.28 L335.75,141.19 L336.25,141.13 L336.75,141.08 L337.25,141.05 L337.75,141.03 L338.25,141.04 L338.75,141.06 L339.25,141.10 L339.75,141.16 L340.26,141.23 L340.76,141.32 L341.26,141.43 L341.76,141.55 L342.26,141.69 L342.76,141.84 L343.26,142.01 L343.76,142.20 L344.26,142.40 L344.76,142.61 L345.26,142.83 L345.76,143.07 L346.26,143.32 L346.76,143.59 L347.26,143.86 L347.76,144.15 L348.26,144.45 L348.76,144.76 L349.26,145.08 L349.76,145.41 L350.26,145.76 L350.76,146.11 L351.26,146.47 L351.76,146.84 L352.26,147.21 L352.77,147.60 L353.27,147.99 L353.77,148.39 L354.27,148.80 L354.77,149.22 L355.27,149.64 L355.77,150.06 L356.27,150.50 L356.77,150.93 L357.27,151.38 L357.77,151.82 L358.27,152.28 L358.77,152.73 L359.27,153.19 L359.77,153.66 L360.27,154.12 L360.77,154.59 L361.27,155.07 L361.77,155.54 L362.27,156.02 L362.77,156.50 L363.27,156.99 L363.77,157.47 L364.27,157.96 L364.77,158.44 L365.28,158.93 L365.78,159.42 L366.28,159.91 L366.78,160.40 L367.28,160.89 L367.78,161.38 L368.28,161.87 L368.78,162.36 L369.28,162.85 L369.78,163.34 L370.28,163.83 L370.78,164.32 L371.28,164.81 L371.78,165.30 L372.28,165.78 L372.78,166.27 L373.28,166.75 L373.78,167.23 L374.28,167.71 L374.78,168.19 L375.28,168.67 L375.78,169.14 L376.28,169.61 L376.78,170.08 L377.28,170.55 L377.79,171.02 L378.29,171.48 L378.79,171.94 L379.29,172.40 L379.79,172.86 L380.29,173.31 L380.79,173.76 L381.29,174.21 L381.79,174.66 L382.29,175.10 L382.79,175.54 L383.29,175.98 L383.79,176.41 L384.29,176.84 L384.79,177.27 L385.29,177.69 L385.79,178.12 L386.29,178.53 L386.79,178.95 L387.29,179.36 L387.79,179.77 L388.29,180.17 L388.79,180.57 L389.29,180.97 L389.79,181.37 L390.30,181.76 L390.80,182.14 L391.30,182.53 L391.80,182.91 L392.30,183.28 L392.80,183.66 L393.30,184.02 L393.80,184.39 L394.30,184.75 L394.80,185.11 L395.30,185.46 L395.80,185.81 L396.30,186.16 L396.80,186.50 L397.30,186.84 L397.80,187.17 L398.30,187.51 L398.80,187.83 L399.30,188.16 L399.80,188.47 L400.30,188.79 L400.80,189.10 L401.30,189.41 L401.80,189.71 L402.30,190.01 L402.81,190.31 L403.31,190.60 L403.81,190.89 L404.31,191.17 L404.81,191.45 L405.31,191.73 L405.81,192.00 L406.31,192.27 L406.81,192.54 L407.31,192.80 L407.81,193.05 L408.31,193.31 L408.81,193.56 L409.31,193.80 L409.81,194.04 L410.31,194.28 L410.81,194.51 L411.31,194.74 L411.81,194.97 L412.31,195.19 L412.81,195.41 L413.31,195.63 L413.81,195.84 L414.31,196.04 L414.81,196.25 L415.32,196.45 L415.82,196.64 L416.32,196.83 L416.82,197.02 L417.32,197.21 L417.82,197.39 L418.32,197.56 L418.82,197.74 L419.32,197.91 L419.82,198.07 L420.32,198.24 L420.82,198.39 L421.32,198.55 L421.82,198.70 L422.32,198.85 L422.82,198.99 L423.32,199.14 L423.82,199.27 L424.32,199.41 L424.82,199.54 L425.32,199.67 L425.82,199.79 L426.32,199.91 L426.82,200.03 L427.32,200.14 L427.83,200.25 L428.33,200.36 L428.83,200.46 L429.33,200.56 L429.83,200.66 L430.33,200.75 L430.83,200.84 L431.33,200.93 L431.83,201.02 L432.33,201.10 L432.83,201.17 L433.33,201.25 L433.83,201.32 L434.33,201.39 L434.83,201.45 L435.33,201.52 L435.83,201.58 L436.33,201.63 L436.83,201.68 L437.33,201.73 L437.83,201.78 L438.33,201.82 L438.83,201.86 L439.33,201.90 L439.83,201.93 L440.34,201.96 L440.84,201.99 L441.34,202.02 L441.84,202.04 L442.34,202.05 L442.84,202.07 L443.34,202.08 L443.84,202.09 L444.34,202.09 L444.84,202.09 L445.34,202.08 L445.84,202.07 L446.34,202.06 L446.84,202.04 L447.34,202.02 L447.84,201.99 L448.34,201.96 L448.84,201.92 L449.34,201.88 L449.84,201.83 L450.34,201.77 L450.84,201.70 L451.34,201.63 L451.84,201.55 L452.34,201.46 L452.85,201.37 L453.35,201.26 L453.85,201.14 L454.35,201.01 L454.85,200.87 L455.35,200.72 L455.85,200.55 L456.35,200.37 L456.85,200.17 L457.35,199.96 L457.85,199.72 L458.35,199.47 L458.85,199.20 L459.35,198.91 L459.85,198.60 L460.35,198.26 L460.85,197.90 L461.35,197.51 L461.85,197.10 L462.35,196.66 L462.85,196.18 L463.35,195.68 L463.85,195.14 L464.35,194.57 L464.85,193.96 L465.36,193.32 L465.86,192.64 L466.36,191.93 L466.86,191.17 L467.36,190.37 L467.86,189.53 L468.36,188.65 L468.86,187.73 L469.36,186.77 L469.86,185.76 L470.36,184.71 L470.86,183.62 L471.36,182.49 L471.86,181.31 L472.36,180.10 L472.86,178.84 L473.36,177.55 L473.86,176.22 L474.36,174.86 L474.86,173.46 L475.36,172.03 L475.86,170.58 L476.36,169.10 L476.86,167.60 L477.36,166.08 L477.87,164.55 L478.37,163.00 L478.87,161.45 L479.37,159.90 L479.87,158.34 L480.37,156.80 L480.87,155.26 L481.37,153.74 L481.87,152.24 L482.37,150.76 L482.87,149.32 L483.37,147.91 L483.87,146.54 L484.37,145.22 L484.87,143.94 L485.37,142.72 L485.87,141.56 L486.37,140.46 L486.87,139.43 L487.37,138.47 L487.87,137.58 L488.37,136.77 L488.87,136.04 L489.37,135.40 L489.87,134.84 L490.38,134.36 L490.88,133.98 L491.38,133.69 L491.88,133.48 L492.38,133.37 L492.88,133.35 L493.38,133.42 L493.88,133.58 L494.38,133.82 L494.88,134.15 L495.38,134.57 L495.88,135.06 L496.38,135.64 L496.88,136.28 L497.38,137.00 L497.88,137.79 L498.38,138.65 L498.88,139.56 L499.38,140.52 L499.88,141.54 L500.38,142.60 L500.88,143.71 L501.38,144.85 L501.88,146.02 L502.38,147.22 L502.89,148.44 L503.39,149.68 L503.89,150.93 L504.39,152.18 L504.89,153.44 L505.39,154.70 L505.89,155.95 L506.39,157.19 L506.89,158.42 L507.39,159.63 L507.89,160.82 L508.39,161.99 L508.89,163.13 L509.39,164.24 L509.89,165.32 L510.39,166.36 L510.89,167.38 L511.39,168.35 L511.89,169.29 L512.39,170.19 L512.89,171.04 L513.39,171.86 L513.89,172.64 L514.39,173.37 L514.89,174.06 L515.40,174.72 L515.90,175.33 L516.40,175.90 L516.90,176.43 L517.40,176.92 L517.90,177.38 L518.40,177.80 L518.90,178.18 L519.40,178.53 L519.90,178.84 L520.40,179.12 L520.90,179.37 L521.40,179.59 L521.90,179.78 L522.40,179.95 L522.90,180.09 L523.40,180.20 L523.90,180.29 L524.40,180.36 L524.90,180.41 L525.40,180.44 L525.90,180.46 L526.40,180.45 L526.90,180.43 L527.40,180.40 L527.91,180.35 L528.41,180.29 L528.91,180.22 L529.41,180.13 L529.91,180.04 L530.41,179.94 L530.91,179.83 L531.41,179.71 L531.91,179.59 L532.41,179.46 L532.91,179.32 L533.41,179.18 L533.91,179.03 L534.41,178.88 L534.91,178.72 L535.41,178.57 L535.91,178.41 L536.41,178.24 L536.91,178.08 L537.41,177.91 L537.91,177.74 L538.41,177.56 L538.91,177.39 L539.41,177.22 L539.91,177.04 L540.42,176.86 L540.92,176.69 L541.42,176.51 L541.92,176.33 L542.42,176.15 L542.92,175.97 L543.42,175.79 L543.92,175.61 L544.42,175.43 L544.92,175.25 L545.42,175.07 L545.92,174.89 L546.42,174.71 L546.92,174.53 L547.42,174.35 L547.92,174.17 L548.42,173.99 L548.92,173.81 L549.42,173.63 L549.92,173.45 L550.42,173.27 L550.92,173.09 L551.42,172.91 L551.92,172.74 L552.42,172.56 L552.92,172.38 L553.43,172.20 L553.93,172.03 L554.43,171.85 L554.93,171.68 L555.43,171.50 L555.93,171.32 L556.43,171.15 L556.93,170.98 L557.43,170.80 L557.93,170.63 L558.43,170.46 L558.93,170.28 L559.43,170.11 L559.93,169.94 L560.43,169.77 L560.93,169.60 L561.43,169.43 L561.93,169.26 L562.43,169.09 L562.93,168.92 L563.43,168.75 L563.93,168.58 L564.43,168.42 L564.93,168.25 L565.43,168.08 L565.94,167.92 L566.44,167.75 L566.94,167.59 L567.44,167.42 L567.94,167.26 L568.44,167.10 L568.94,166.94 L569.44,166.77 L569.94,166.61 L570.44,166.45 L570.94,166.29 L571.44,166.13 L571.94,165.97 L572.44,165.81 L572.94,165.66 L573.44,165.50 L573.94,165.34 L574.44,165.19 L574.94,165.03 L575.44,164.88 L575.94,164.72 L576.44,164.57 L576.94,164.42 L577.44,164.26 L577.94,164.11 L578.45,163.96 L578.95,163.81 L579.45,163.66 L579.95,163.51 L580.45,163.36 L580.95,163.21 L581.45,163.07 L581.95,162.92 L582.45,162.77 L582.95,162.63 L583.45,162.48 L583.95,162.34 L584.45,162.20 L584.95,162.05 L585.45,161.91 L585.95,161.77 L586.45,161.63 L586.95,161.49 L587.45,161.35 L587.95,161.21 L588.45,161.07 L588.95,160.94 L589.45,160.80 L589.95,160.66 L590.45,160.53 L590.96,160.39 L591.46,160.26 L591.96,160.13 L592.46,159.99 L592.96,159.86 L593.46,159.73 L593.96,159.60 L594.46,159.47 L594.96,159.34 L595.46,159.21 L595.96,159.08 L596.46,158.96 L596.96,158.83 L597.46,158.71 L597.96,158.58 L598.46,158.46 L598.96,158.33 L599.46,158.21 L599.96,158.09 L600.46,157.97 L600.96,157.84 L601.46,157.72 L601.96,157.61 L602.46,157.49 L602.96,157.37 L603.47,157.25 L603.97,157.13 L604.47,157.02 L604.97,156.90 L605.47,156.79 L605.97,156.67 L606.47,156.56 L606.97,156.45 L607.47,156.34 L607.97,156.23 L608.47,156.12 L608.97,156.01 L609.47,155.90 L609.97,155.79 L610.47,155.68 L610.97,155.57 L611.47,155.47 L611.97,155.36 L612.47,155.26 L612.97,155.15 L613.47,155.05 L613.97,154.95 L614.47,154.84 L614.97,154.74 L615.47,154.64 L615.98,154.54 L616.48,154.44 L616.98,154.34 L617.48,154.25 L617.98,154.15 L618.48,154.05 L618.98,153.96 L619.48,153.86 L619.98,153.77 L620.48,153.67 L620.98,153.58 L621.48,153.49 L621.98,153.39 L622.48,153.30 L622.98,153.21 L623.48,153.12 L623.98,153.03 L624.48,152.94 L624.98,152.85 L625.48,152.77 L625.98,152.68 L626.48,152.59 L626.98,152.51 L627.48,152.42 L627.98,152.34 L628.49,152.26 L628.99,152.17 L629.49,152.09 L629.99,152.01 L630.49,151.93 L630.99,151.85 L631.49,151.77 L631.99,151.69 L632.49,151.61 L632.99,151.53 L633.49,151.45 L633.99,151.38 L634.49,151.30 L634.99,151.22 L635.49,151.15 L635.99,151.08 L636.49,151.00 L636.99,150.93 L637.49,150.86 L637.99,150.78 L638.49,150.71 L638.99,150.64 L639.49,150.57 L639.99,150.50 L640.49,150.43 L641.00,150.36 L641.50,150.30 L642.00,150.23 L642.50,150.16 L643.00,150.10 L643.50,150.03 L644.00,149.96 L644.50,149.90 L645.00,149.84 L645.50,149.77 L646.00,149.71 L646.50,149.65 L647.00,149.59" style="stroke-width: 2; stroke: rgb(21, 118, 182);"/></g><rect class="real" x="21" y="1" width="625" height="271.65625" style="stroke: gray; fill: transparent;"/></g><g style="font-family: Asana-Math, Asana;"><line x1="20" y1="278.65625" x2="647" y2="278.65625" fill="none" stroke="black" stroke-width="0.5"/><line x1="67.3433986121498" y1="278.65625" x2="67.3433986121498" y2="282.65625" fill="none" stroke="black" stroke-width="0.5"/><line x1="188.646614536055" y1="278.65625" x2="188.646614536055" y2="282.65625" fill="none" stroke="black" stroke-width="0.5"/><line x1="309.94983045996025" y1="278.65625" x2="309.94983045996025" y2="282.65625" fill="none" stroke="black" stroke-width="0.5"/><line x1="431.2530463838654" y1="278.65625" x2="431.2530463838654" y2="282.65625" fill="none" stroke="black" stroke-width="0.5"/><line x1="552.5562623077707" y1="278.65625" x2="552.5562623077707" y2="282.65625" fill="none" stroke="black" stroke-width="0.5"/><text text-anchor="middle" font-size="11" stroke="none" fill="gray" x="67.3433986121498" y="294.65625">-4</text><text text-anchor="middle" font-size="11" stroke="none" fill="gray" x="188.646614536055" y="294.65625">-2</text><text text-anchor="middle" font-size="11" stroke="none" fill="gray" x="309.94983045996025" y="294.65625">0</text><text text-anchor="middle" font-size="11" stroke="none" fill="gray" x="431.2530463838654" y="294.65625">2</text><text text-anchor="middle" font-size="11" stroke="none" fill="gray" x="552.5562623077707" y="294.65625">4</text></g><g style="font-family: Asana-Math, Asana;"><line x1="15" y1="0" x2="15" y2="273.65625" fill="none" stroke="black" stroke-width="0.5"/><line x1="11" y1="265.34215008745645" x2="15" y2="265.34215008745645" fill="none" stroke="black" stroke-width="0.5"/><line x1="11" y1="204.69054212550387" x2="15" y2="204.69054212550387" fill="none" stroke="black" stroke-width="0.5"/><line x1="11" y1="144.03893416355126" x2="15" y2="144.03893416355126" fill="none" stroke="black" stroke-width="0.5"/><line x1="11" y1="83.38732620159863" x2="15" y2="83.38732620159863" fill="none" stroke="black" stroke-width="0.5"/><line x1="11" y1="22.735718239646047" x2="15" y2="22.735718239646047" fill="none" stroke="black" stroke-width="0.5"/><text text-anchor="end" font-size="11" stroke="none" fill="gray" x="5" y="269.34215008745645">-2</text><text text-anchor="end" font-size="11" stroke="none" fill="gray" x="5" y="208.69054212550387">-1</text><text text-anchor="end" font-size="11" stroke="none" fill="gray" x="5" y="148.03893416355126">0</text><text text-anchor="end" font-size="11" stroke="none" fill="gray" x="5" y="87.38732620159863">1</text><text text-anchor="end" font-size="11" stroke="none" fill="gray" x="5" y="26.735718239646047">2</text></g></g><g class="intersections-group"><g style="stroke: rgb(0, 0, 0); stroke-width: 1; fill: none;"/></g></g><g/><g/><!-- react-empty: 2150 --></svg>
        <svg xmlns="http://www.w3.org/2000/svg" width="660" height="300" style="width:660px;height:300px;font-family:Asana-Math, Asana;background:transparent;"></svg>
</svg>
