<svg xmlns="http://www.w3.org/2000/svg" width="662" height="302" style="
        width:662px;
        height:302px;
        background: transparent;
        fill: none;
">
        
        <svg xmlns="http://www.w3.org/2000/svg"><g class="shapes-region" style="stroke: black; fill: none;"><g class="composite-shape" data-amt="diagram/shapes/plot" style="transform: matrix(1, 0, 0, 1, 116, 33);"><defs><clipPath id="dp06003717281882048"><rect x="21" y="1" width="408" height="178"/></clipPath></defs><g clip-path="url(#dp06003717281882048)"><g><line x1="44.3882043795231" y1="0" x2="44.3882043795231" y2="180" fill="none" stroke="lightgray" stroke-width="0.5"/><line x1="101.38599643274571" y1="0" x2="101.38599643274571" y2="180" fill="none" stroke="lightgray" stroke-width="0.5"/><line x1="158.38378848596832" y1="0" x2="158.38378848596832" y2="180" fill="none" stroke="lightgray" stroke-width="0.5"/><line x1="215.38158053919094" y1="0" x2="215.38158053919094" y2="180" fill="none" stroke="lightgray" stroke-width="0.5"/><line x1="272.3793725924136" y1="0" x2="272.3793725924136" y2="180" fill="none" stroke="lightgray" stroke-width="0.5"/><line x1="329.3771646456362" y1="0" x2="329.3771646456362" y2="180" fill="none" stroke="lightgray" stroke-width="0.5"/><line x1="386.3749566988588" y1="0" x2="386.3749566988588" y2="180" fill="none" stroke="lightgray" stroke-width="0.5"/></g><g><line x1="20" y1="172.95011754678364" x2="430" y2="172.95011754678364" fill="none" stroke="lightgray" stroke-width="0.5"/><line x1="20" y1="144.45122152017234" x2="430" y2="144.45122152017234" fill="none" stroke="lightgray" stroke-width="0.5"/><line x1="20" y1="115.95232549356105" x2="430" y2="115.95232549356105" fill="none" stroke="lightgray" stroke-width="0.5"/><line x1="20" y1="87.45342946694974" x2="430" y2="87.45342946694974" fill="none" stroke="lightgray" stroke-width="0.5"/><line x1="20" y1="58.95453344033842" x2="430" y2="58.95453344033842" fill="none" stroke="lightgray" stroke-width="0.5"/><line x1="20" y1="30.455637413727146" x2="430" y2="30.455637413727146" fill="none" stroke="lightgray" stroke-width="0.5"/><line x1="20" y1="1.9567413871158124" x2="430" y2="1.9567413871158124" fill="none" stroke="lightgray" stroke-width="0.5"/></g><g><path d=" M20.00,87.58 L20.50,87.58 L21.00,87.59 L21.50,87.60 L22.00,87.60 L22.50,87.61 L23.00,87.62 L23.50,87.63 L24.00,87.64 L24.51,87.64 L25.01,87.65 L25.51,87.66 L26.01,87.67 L26.51,87.68 L27.01,87.69 L27.51,87.70 L28.01,87.72 L28.51,87.73 L29.01,87.74 L29.51,87.75 L30.01,87.77 L30.51,87.78 L31.01,87.80 L31.51,87.81 L32.01,87.83 L32.52,87.85 L33.02,87.86 L33.52,87.88 L34.02,87.90 L34.52,87.92 L35.02,87.94 L35.52,87.96 L36.02,87.98 L36.52,88.01 L37.02,88.03 L37.52,88.05 L38.02,88.08 L38.52,88.11 L39.02,88.13 L39.52,88.16 L40.02,88.19 L40.53,88.22 L41.03,88.25 L41.53,88.29 L42.03,88.32 L42.53,88.36 L43.03,88.39 L43.53,88.43 L44.03,88.47 L44.53,88.51 L45.03,88.55 L45.53,88.59 L46.03,88.64 L46.53,88.69 L47.03,88.73 L47.53,88.78 L48.03,88.83 L48.53,88.89 L49.04,88.94 L49.54,89.00 L50.04,89.06 L50.54,89.12 L51.04,89.18 L51.54,89.24 L52.04,89.31 L52.54,89.38 L53.04,89.45 L53.54,89.52 L54.04,89.59 L54.54,89.67 L55.04,89.75 L55.54,89.83 L56.04,89.91 L56.54,90.00 L57.05,90.09 L57.55,90.18 L58.05,90.27 L58.55,90.37 L59.05,90.47 L59.55,90.57 L60.05,90.68 L60.55,90.79 L61.05,90.90 L61.55,91.01 L62.05,91.13 L62.55,91.25 L63.05,91.37 L63.55,91.50 L64.05,91.63 L64.55,91.76 L65.05,91.90 L65.56,92.04 L66.06,92.18 L66.56,92.33 L67.06,92.48 L67.56,92.64 L68.06,92.80 L68.56,92.96 L69.06,93.13 L69.56,93.30 L70.06,93.47 L70.56,93.65 L71.06,93.83 L71.56,94.02 L72.06,94.21 L72.56,94.40 L73.06,94.60 L73.57,94.80 L74.07,95.01 L74.57,95.22 L75.07,95.44 L75.57,95.66 L76.07,95.88 L76.57,96.11 L77.07,96.35 L77.57,96.59 L78.07,96.83 L78.57,97.08 L79.07,97.33 L79.57,97.59 L80.07,97.85 L80.57,98.12 L81.07,98.39 L81.58,98.67 L82.08,98.95 L82.58,99.24 L83.08,99.53 L83.58,99.82 L84.08,100.12 L84.58,100.43 L85.08,100.74 L85.58,101.05 L86.08,101.38 L86.58,101.70 L87.08,102.03 L87.58,102.36 L88.08,102.70 L88.58,103.05 L89.08,103.40 L89.58,103.75 L90.09,104.11 L90.59,104.47 L91.09,104.84 L91.59,105.21 L92.09,105.59 L92.59,105.97 L93.09,106.35 L93.59,106.74 L94.09,107.14 L94.59,107.54 L95.09,107.94 L95.59,108.34 L96.09,108.76 L96.59,109.17 L97.09,109.59 L97.59,110.01 L98.10,110.44 L98.60,110.86 L99.10,111.30 L99.60,111.73 L100.10,112.17 L100.60,112.62 L101.10,113.06 L101.60,113.51 L102.10,113.96 L102.60,114.42 L103.10,114.87 L103.60,115.33 L104.10,115.79 L104.60,116.26 L105.10,116.72 L105.60,117.19 L106.11,117.66 L106.61,118.13 L107.11,118.60 L107.61,119.07 L108.11,119.55 L108.61,120.02 L109.11,120.50 L109.61,120.97 L110.11,121.45 L110.61,121.93 L111.11,122.40 L111.61,122.88 L112.11,123.36 L112.61,123.83 L113.11,124.31 L113.61,124.78 L114.11,125.26 L114.62,125.73 L115.12,126.20 L115.62,126.67 L116.12,127.14 L116.62,127.60 L117.12,128.06 L117.62,128.52 L118.12,128.98 L118.62,129.44 L119.12,129.89 L119.62,130.33 L120.12,130.78 L120.62,131.22 L121.12,131.66 L121.62,132.09 L122.12,132.52 L122.63,132.94 L123.13,133.36 L123.63,133.78 L124.13,134.18 L124.63,134.59 L125.13,134.99 L125.63,135.38 L126.13,135.76 L126.63,136.14 L127.13,136.52 L127.63,136.88 L128.13,137.24 L128.63,137.60 L129.13,137.94 L129.63,138.28 L130.13,138.61 L130.63,138.94 L131.14,139.25 L131.64,139.56 L132.14,139.86 L132.64,140.15 L133.14,140.44 L133.64,140.71 L134.14,140.98 L134.64,141.23 L135.14,141.48 L135.64,141.72 L136.14,141.95 L136.64,142.17 L137.14,142.38 L137.64,142.58 L138.14,142.77 L138.64,142.95 L139.15,143.12 L139.65,143.28 L140.15,143.43 L140.65,143.56 L141.15,143.69 L141.65,143.81 L142.15,143.92 L142.65,144.02 L143.15,144.10 L143.65,144.18 L144.15,144.24 L144.65,144.30 L145.15,144.34 L145.65,144.37 L146.15,144.39 L146.65,144.40 L147.16,144.40 L147.66,144.39 L148.16,144.37 L148.66,144.34 L149.16,144.29 L149.66,144.24 L150.16,144.17 L150.66,144.09 L151.16,144.00 L151.66,143.90 L152.16,143.79 L152.66,143.67 L153.16,143.54 L153.66,143.40 L154.16,143.25 L154.66,143.09 L155.16,142.91 L155.67,142.73 L156.17,142.54 L156.67,142.33 L157.17,142.12 L157.67,141.90 L158.17,141.66 L158.67,141.42 L159.17,141.17 L159.67,140.91 L160.17,140.64 L160.67,140.35 L161.17,140.07 L161.67,139.77 L162.17,139.46 L162.67,139.14 L163.17,138.82 L163.68,138.49 L164.18,138.15 L164.68,137.80 L165.18,137.44 L165.68,137.08 L166.18,136.71 L166.68,136.33 L167.18,135.94 L167.68,135.55 L168.18,135.15 L168.68,134.74 L169.18,134.33 L169.68,133.91 L170.18,133.49 L170.68,133.05 L171.18,132.62 L171.68,132.18 L172.19,131.73 L172.69,131.27 L173.19,130.82 L173.69,130.35 L174.19,129.88 L174.69,129.41 L175.19,128.94 L175.69,128.45 L176.19,127.97 L176.69,127.48 L177.19,126.99 L177.69,126.49 L178.19,125.99 L178.69,125.49 L179.19,124.99 L179.69,124.48 L180.20,123.97 L180.70,123.46 L181.20,122.94 L181.70,122.42 L182.20,121.90 L182.70,121.38 L183.20,120.86 L183.70,120.34 L184.20,119.81 L184.70,119.28 L185.20,118.75 L185.70,118.22 L186.20,117.69 L186.70,117.16 L187.20,116.63 L187.70,116.10 L188.21,115.57 L188.71,115.03 L189.21,114.50 L189.71,113.97 L190.21,113.43 L190.71,112.90 L191.21,112.36 L191.71,111.83 L192.21,111.30 L192.71,110.77 L193.21,110.23 L193.71,109.70 L194.21,109.17 L194.71,108.64 L195.21,108.11 L195.71,107.58 L196.21,107.05 L196.72,106.52 L197.22,106.00 L197.72,105.47 L198.22,104.95 L198.72,104.42 L199.22,103.90 L199.72,103.38 L200.22,102.85 L200.72,102.33 L201.22,101.81 L201.72,101.30 L202.22,100.78 L202.72,100.26 L203.22,99.75 L203.72,99.23 L204.22,98.72 L204.73,98.21 L205.23,97.69 L205.73,97.18 L206.23,96.67 L206.73,96.16 L207.23,95.66 L207.73,95.15 L208.23,94.64 L208.73,94.14 L209.23,93.63 L209.73,93.12 L210.23,92.62 L210.73,92.12 L211.23,91.61 L211.73,91.11 L212.23,90.61 L212.74,90.11 L213.24,89.60 L213.74,89.10 L214.24,88.60 L214.74,88.10 L215.24,87.60 L215.74,87.10 L216.24,86.59 L216.74,86.09 L217.24,85.59 L217.74,85.09 L218.24,84.59 L218.74,84.08 L219.24,83.58 L219.74,83.08 L220.24,82.58 L220.74,82.07 L221.25,81.57 L221.75,81.06 L222.25,80.56 L222.75,80.05 L223.25,79.54 L223.75,79.03 L224.25,78.53 L224.75,78.02 L225.25,77.51 L225.75,76.99 L226.25,76.48 L226.75,75.97 L227.25,75.45 L227.75,74.94 L228.25,74.42 L228.75,73.91 L229.26,73.39 L229.76,72.87 L230.26,72.35 L230.76,71.83 L231.26,71.31 L231.76,70.79 L232.26,70.26 L232.76,69.74 L233.26,69.21 L233.76,68.69 L234.26,68.16 L234.76,67.63 L235.26,67.10 L235.76,66.57 L236.26,66.04 L236.76,65.51 L237.26,64.98 L237.77,64.45 L238.27,63.91 L238.77,63.38 L239.27,62.85 L239.77,62.32 L240.27,61.78 L240.77,61.25 L241.27,60.71 L241.77,60.18 L242.27,59.65 L242.77,59.11 L243.27,58.58 L243.77,58.05 L244.27,57.52 L244.77,56.99 L245.27,56.46 L245.78,55.93 L246.28,55.40 L246.78,54.87 L247.28,54.35 L247.78,53.82 L248.28,53.30 L248.78,52.78 L249.28,52.26 L249.78,51.75 L250.28,51.23 L250.78,50.72 L251.28,50.21 L251.78,49.70 L252.28,49.20 L252.78,48.70 L253.28,48.20 L253.79,47.71 L254.29,47.22 L254.79,46.73 L255.29,46.25 L255.79,45.77 L256.29,45.29 L256.79,44.82 L257.29,44.36 L257.79,43.90 L258.29,43.44 L258.79,42.99 L259.29,42.54 L259.79,42.10 L260.29,41.67 L260.79,41.24 L261.29,40.82 L261.79,40.40 L262.30,39.99 L262.80,39.59 L263.30,39.19 L263.80,38.80 L264.30,38.42 L264.80,38.04 L265.30,37.67 L265.80,37.31 L266.30,36.96 L266.80,36.61 L267.30,36.28 L267.80,35.95 L268.30,35.63 L268.80,35.31 L269.30,35.01 L269.80,34.72 L270.31,34.43 L270.81,34.15 L271.31,33.89 L271.81,33.63 L272.31,33.38 L272.81,33.14 L273.31,32.91 L273.81,32.69 L274.31,32.49 L274.81,32.29 L275.31,32.10 L275.81,31.92 L276.31,31.75 L276.81,31.59 L277.31,31.44 L277.81,31.31 L278.32,31.18 L278.82,31.06 L279.32,30.96 L279.82,30.86 L280.32,30.78 L280.82,30.71 L281.32,30.65 L281.82,30.60 L282.32,30.56 L282.82,30.53 L283.32,30.51 L283.82,30.50 L284.32,30.51 L284.82,30.52 L285.32,30.55 L285.82,30.58 L286.32,30.63 L286.83,30.69 L287.33,30.76 L287.83,30.84 L288.33,30.93 L288.83,31.03 L289.33,31.14 L289.83,31.27 L290.33,31.40 L290.83,31.54 L291.33,31.70 L291.83,31.86 L292.33,32.04 L292.83,32.22 L293.33,32.42 L293.83,32.62 L294.33,32.83 L294.84,33.06 L295.34,33.29 L295.84,33.53 L296.34,33.78 L296.84,34.04 L297.34,34.31 L297.84,34.59 L298.34,34.88 L298.84,35.17 L299.34,35.48 L299.84,35.79 L300.34,36.11 L300.84,36.43 L301.34,36.77 L301.84,37.11 L302.34,37.46 L302.84,37.82 L303.35,38.18 L303.85,38.55 L304.35,38.92 L304.85,39.31 L305.35,39.70 L305.85,40.09 L306.35,40.49 L306.85,40.90 L307.35,41.31 L307.85,41.72 L308.35,42.15 L308.85,42.57 L309.35,43.00 L309.85,43.44 L310.35,43.87 L310.85,44.32 L311.36,44.76 L311.86,45.21 L312.36,45.66 L312.86,46.12 L313.36,46.58 L313.86,47.04 L314.36,47.50 L314.86,47.97 L315.36,48.44 L315.86,48.91 L316.36,49.38 L316.86,49.85 L317.36,50.32 L317.86,50.80 L318.36,51.28 L318.86,51.75 L319.37,52.23 L319.87,52.71 L320.37,53.18 L320.87,53.66 L321.37,54.14 L321.87,54.61 L322.37,55.09 L322.87,55.56 L323.37,56.04 L323.87,56.51 L324.37,56.98 L324.87,57.45 L325.37,57.92 L325.87,58.39 L326.37,58.85 L326.87,59.31 L327.37,59.77 L327.88,60.23 L328.38,60.69 L328.88,61.14 L329.38,61.59 L329.88,62.04 L330.38,62.48 L330.88,62.92 L331.38,63.36 L331.88,63.79 L332.38,64.23 L332.88,64.65 L333.38,65.08 L333.88,65.50 L334.38,65.91 L334.88,66.33 L335.38,66.74 L335.89,67.14 L336.39,67.54 L336.89,67.94 L337.39,68.33 L337.89,68.72 L338.39,69.10 L338.89,69.48 L339.39,69.86 L339.89,70.23 L340.39,70.59 L340.89,70.95 L341.39,71.31 L341.89,71.66 L342.39,72.01 L342.89,72.35 L343.39,72.69 L343.89,73.02 L344.40,73.35 L344.90,73.67 L345.40,73.99 L345.90,74.30 L346.40,74.61 L346.90,74.91 L347.40,75.21 L347.90,75.51 L348.40,75.79 L348.90,76.08 L349.40,76.36 L349.90,76.63 L350.40,76.90 L350.90,77.17 L351.40,77.43 L351.90,77.68 L352.41,77.93 L352.91,78.18 L353.41,78.42 L353.91,78.66 L354.41,78.89 L354.91,79.12 L355.41,79.34 L355.91,79.56 L356.41,79.78 L356.91,79.99 L357.41,80.19 L357.91,80.39 L358.41,80.59 L358.91,80.78 L359.41,80.97 L359.91,81.16 L360.42,81.34 L360.92,81.51 L361.42,81.68 L361.92,81.85 L362.42,82.02 L362.92,82.18 L363.42,82.34 L363.92,82.49 L364.42,82.64 L364.92,82.78 L365.42,82.93 L365.92,83.07 L366.42,83.20 L366.92,83.33 L367.42,83.46 L367.92,83.59 L368.42,83.71 L368.93,83.83 L369.43,83.94 L369.93,84.06 L370.43,84.17 L370.93,84.27 L371.43,84.38 L371.93,84.48 L372.43,84.58 L372.93,84.67 L373.43,84.77 L373.93,84.86 L374.43,84.94 L374.93,85.03 L375.43,85.11 L375.93,85.19 L376.43,85.27 L376.94,85.35 L377.44,85.42 L377.94,85.49 L378.44,85.56 L378.94,85.63 L379.44,85.69 L379.94,85.76 L380.44,85.82 L380.94,85.88 L381.44,85.93 L381.94,85.99 L382.44,86.04 L382.94,86.10 L383.44,86.15 L383.94,86.19 L384.44,86.24 L384.95,86.29 L385.45,86.33 L385.95,86.37 L386.45,86.42 L386.95,86.46 L387.45,86.49 L387.95,86.53 L388.45,86.57 L388.95,86.60 L389.45,86.64 L389.95,86.67 L390.45,86.70 L390.95,86.73 L391.45,86.76 L391.95,86.79 L392.45,86.81 L392.95,86.84 L393.46,86.86 L393.96,86.89 L394.46,86.91 L394.96,86.93 L395.46,86.96 L395.96,86.98 L396.46,87.00 L396.96,87.02 L397.46,87.03 L397.96,87.05 L398.46,87.07 L398.96,87.09 L399.46,87.10 L399.96,87.12 L400.46,87.13 L400.96,87.14 L401.47,87.16 L401.97,87.17 L402.47,87.18 L402.97,87.20 L403.47,87.21 L403.97,87.22 L404.47,87.23 L404.97,87.24 L405.47,87.25 L405.97,87.26 L406.47,87.27 L406.97,87.28 L407.47,87.28 L407.97,87.29 L408.47,87.30 L408.97,87.31 L409.47,87.31 L409.98,87.32 L410.48,87.33 L410.98,87.33 L411.48,87.34 L411.98,87.34 L412.48,87.35 L412.98,87.35 L413.48,87.36 L413.98,87.36 L414.48,87.37 L414.98,87.37 L415.48,87.38 L415.98,87.38 L416.48,87.38 L416.98,87.39 L417.48,87.39 L417.99,87.39 L418.49,87.40 L418.99,87.40 L419.49,87.40 L419.99,87.40 L420.49,87.41 L420.99,87.41 L421.49,87.41 L421.99,87.41 L422.49,87.42 L422.99,87.42 L423.49,87.42 L423.99,87.42 L424.49,87.42 L424.99,87.42 L425.49,87.43 L426.00,87.43 L426.50,87.43 L427.00,87.43 L427.50,87.43 L428.00,87.43 L428.50,87.43 L429.00,87.43 L429.50,87.44 L430.00,87.44" style="stroke-width: 1; stroke: rgb(67, 67, 67);"/></g><rect class="real" x="21" y="1" width="408" height="178" style="stroke: gray; fill: transparent;"/></g><g style="font-family: Asana-Math, Asana;"><line x1="20" y1="185" x2="430" y2="185" fill="none" stroke="black" stroke-width="0.5"/><line x1="44.3882043795231" y1="185" x2="44.3882043795231" y2="189" fill="none" stroke="black" stroke-width="0.5"/><line x1="101.38599643274571" y1="185" x2="101.38599643274571" y2="189" fill="none" stroke="black" stroke-width="0.5"/><line x1="158.38378848596832" y1="185" x2="158.38378848596832" y2="189" fill="none" stroke="black" stroke-width="0.5"/><line x1="215.38158053919094" y1="185" x2="215.38158053919094" y2="189" fill="none" stroke="black" stroke-width="0.5"/><line x1="272.3793725924136" y1="185" x2="272.3793725924136" y2="189" fill="none" stroke="black" stroke-width="0.5"/><line x1="329.3771646456362" y1="185" x2="329.3771646456362" y2="189" fill="none" stroke="black" stroke-width="0.5"/><line x1="386.3749566988588" y1="185" x2="386.3749566988588" y2="189" fill="none" stroke="black" stroke-width="0.5"/><text text-anchor="middle" font-size="11" stroke="none" fill="gray" x="44.3882043795231" y="201">-3</text><text text-anchor="middle" font-size="11" stroke="none" fill="gray" x="101.38599643274571" y="201">-2</text><text text-anchor="middle" font-size="11" stroke="none" fill="gray" x="158.38378848596832" y="201">-1</text><text text-anchor="middle" font-size="11" stroke="none" fill="gray" x="215.38158053919094" y="201">0</text><text text-anchor="middle" font-size="11" stroke="none" fill="gray" x="272.3793725924136" y="201">1</text><text text-anchor="middle" font-size="11" stroke="none" fill="gray" x="329.3771646456362" y="201">2</text><text text-anchor="middle" font-size="11" stroke="none" fill="gray" x="386.3749566988588" y="201">3</text></g><g style="font-family: Asana-Math, Asana;"><line x1="15" y1="0" x2="15" y2="180" fill="none" stroke="black" stroke-width="0.5"/><line x1="11" y1="172.95011754678364" x2="15" y2="172.95011754678364" fill="none" stroke="black" stroke-width="0.5"/><line x1="11" y1="144.45122152017234" x2="15" y2="144.45122152017234" fill="none" stroke="black" stroke-width="0.5"/><line x1="11" y1="115.95232549356105" x2="15" y2="115.95232549356105" fill="none" stroke="black" stroke-width="0.5"/><line x1="11" y1="87.45342946694974" x2="15" y2="87.45342946694974" fill="none" stroke="black" stroke-width="0.5"/><line x1="11" y1="58.95453344033842" x2="15" y2="58.95453344033842" fill="none" stroke="black" stroke-width="0.5"/><line x1="11" y1="30.455637413727146" x2="15" y2="30.455637413727146" fill="none" stroke="black" stroke-width="0.5"/><line x1="11" y1="1.9567413871158124" x2="15" y2="1.9567413871158124" fill="none" stroke="black" stroke-width="0.5"/><text text-anchor="end" font-size="11" stroke="none" fill="gray" x="5" y="176.95011754678364">-1.5</text><text text-anchor="end" font-size="11" stroke="none" fill="gray" x="5" y="148.45122152017234">-1</text><text text-anchor="end" font-size="11" stroke="none" fill="gray" x="5" y="119.95232549356105">-0.5</text><text text-anchor="end" font-size="11" stroke="none" fill="gray" x="5" y="91.45342946694974">0</text><text text-anchor="end" font-size="11" stroke="none" fill="gray" x="5" y="62.95453344033842">0.5</text><text text-anchor="end" font-size="11" stroke="none" fill="gray" x="5" y="34.455637413727146">1</text><text text-anchor="end" font-size="11" stroke="none" fill="gray" x="5" y="5.956741387115812">1.5</text></g></g><g class="arrow-line"><path class="connection real" stroke-dasharray="" d="  M382,69.31 L281,171.31" style="stroke: rgba(206, 27, 27, 0.61); stroke-width: 3; fill: none;"/></g><g class="intersections-group"><g style="stroke: rgb(0, 0, 0); stroke-width: 1; fill: none;"/></g></g><g/><g/><!-- react-empty: 62609 --></svg>
        <svg xmlns="http://www.w3.org/2000/svg" width="660" height="300" style="width:660px;height:300px;font-family:Asana-Math, Asana;background:transparent;"></svg>
</svg>
