<svg xmlns="http://www.w3.org/2000/svg" width="662" height="302" style="
        width:662px;
        height:302px;
        background: transparent;
        fill: none;
">
        
        <svg xmlns="http://www.w3.org/2000/svg"><g class="shapes-region" style="stroke: black; fill: none;"><g class="composite-shape" data-amt="diagram/shapes/plot" style="transform: matrix(1, 0, 0, 1, 116, 34);"><defs><clipPath id="dp9489516298081462"><rect x="21" y="1" width="408" height="178"/></clipPath></defs><g clip-path="url(#dp9489516298081462)"><g><line x1="72.30465206835082" y1="0" x2="72.30465206835082" y2="180" fill="none" stroke="lightgray" stroke-width="0.5"/><line x1="145.5617775413732" y1="0" x2="145.5617775413732" y2="180" fill="none" stroke="lightgray" stroke-width="0.5"/><line x1="218.81890301439557" y1="0" x2="218.81890301439557" y2="180" fill="none" stroke="lightgray" stroke-width="0.5"/><line x1="292.07602848741794" y1="0" x2="292.07602848741794" y2="180" fill="none" stroke="lightgray" stroke-width="0.5"/><line x1="365.33315396044026" y1="0" x2="365.33315396044026" y2="180" fill="none" stroke="lightgray" stroke-width="0.5"/></g><g><line x1="20" y1="161.62061965108367" x2="430" y2="161.62061965108367" fill="none" stroke="lightgray" stroke-width="0.5"/><line x1="20" y1="124.99205691457249" x2="430" y2="124.99205691457249" fill="none" stroke="lightgray" stroke-width="0.5"/><line x1="20" y1="88.3634941780613" x2="430" y2="88.3634941780613" fill="none" stroke="lightgray" stroke-width="0.5"/><line x1="20" y1="51.73493144155012" x2="430" y2="51.73493144155012" fill="none" stroke="lightgray" stroke-width="0.5"/><line x1="20" y1="15.106368705038932" x2="430" y2="15.106368705038932" fill="none" stroke="lightgray" stroke-width="0.5"/></g><g><path d=" M20.00,88.36 L20.50,88.36 L21.00,88.36 L21.50,88.36 L22.00,88.36 L22.50,88.36 L23.00,88.36 L23.50,88.36 L24.00,88.36 L24.51,88.37 L25.01,88.37 L25.51,88.37 L26.01,88.37 L26.51,88.37 L27.01,88.37 L27.51,88.37 L28.01,88.37 L28.51,88.37 L29.01,88.37 L29.51,88.37 L30.01,88.37 L30.51,88.37 L31.01,88.37 L31.51,88.37 L32.01,88.37 L32.52,88.37 L33.02,88.37 L33.52,88.37 L34.02,88.37 L34.52,88.37 L35.02,88.37 L35.52,88.37 L36.02,88.37 L36.52,88.37 L37.02,88.37 L37.52,88.37 L38.02,88.37 L38.52,88.37 L39.02,88.37 L39.52,88.37 L40.02,88.37 L40.53,88.37 L41.03,88.37 L41.53,88.37 L42.03,88.37 L42.53,88.37 L43.03,88.37 L43.53,88.37 L44.03,88.37 L44.53,88.37 L45.03,88.37 L45.53,88.37 L46.03,88.37 L46.53,88.37 L47.03,88.37 L47.53,88.37 L48.03,88.37 L48.53,88.37 L49.04,88.37 L49.54,88.37 L50.04,88.37 L50.54,88.37 L51.04,88.37 L51.54,88.37 L52.04,88.37 L52.54,88.37 L53.04,88.38 L53.54,88.38 L54.04,88.38 L54.54,88.38 L55.04,88.38 L55.54,88.38 L56.04,88.38 L56.54,88.38 L57.05,88.38 L57.55,88.38 L58.05,88.38 L58.55,88.38 L59.05,88.38 L59.55,88.38 L60.05,88.38 L60.55,88.38 L61.05,88.38 L61.55,88.38 L62.05,88.38 L62.55,88.39 L63.05,88.39 L63.55,88.39 L64.05,88.39 L64.55,88.39 L65.05,88.39 L65.56,88.39 L66.06,88.39 L66.56,88.39 L67.06,88.39 L67.56,88.39 L68.06,88.39 L68.56,88.39 L69.06,88.40 L69.56,88.40 L70.06,88.40 L70.56,88.40 L71.06,88.40 L71.56,88.40 L72.06,88.40 L72.56,88.40 L73.06,88.40 L73.57,88.40 L74.07,88.40 L74.57,88.40 L75.07,88.40 L75.57,88.39 L76.07,88.39 L76.57,88.39 L77.07,88.38 L77.57,88.37 L78.07,88.37 L78.57,88.35 L79.07,88.34 L79.57,88.32 L80.07,88.30 L80.57,88.28 L81.07,88.25 L81.58,88.21 L82.08,88.17 L82.58,88.12 L83.08,88.06 L83.58,87.99 L84.08,87.91 L84.58,87.81 L85.08,87.70 L85.58,87.57 L86.08,87.43 L86.58,87.26 L87.08,87.06 L87.58,86.84 L88.08,86.59 L88.58,86.31 L89.08,86.00 L89.58,85.65 L90.09,85.25 L90.59,84.82 L91.09,84.34 L91.59,83.81 L92.09,83.23 L92.59,82.60 L93.09,81.92 L93.59,81.18 L94.09,80.39 L94.59,79.54 L95.09,78.63 L95.59,77.67 L96.09,76.66 L96.59,75.60 L97.09,74.49 L97.59,73.33 L98.10,72.13 L98.60,70.90 L99.10,69.65 L99.60,68.37 L100.10,67.08 L100.60,65.78 L101.10,64.49 L101.60,63.21 L102.10,61.95 L102.60,60.73 L103.10,59.55 L103.60,58.42 L104.10,57.35 L104.60,56.36 L105.10,55.45 L105.60,54.64 L106.11,53.92 L106.61,53.30 L107.11,52.80 L107.61,52.42 L108.11,52.15 L108.61,52.01 L109.11,52.00 L109.61,52.11 L110.11,52.34 L110.61,52.70 L111.11,53.18 L111.61,53.77 L112.11,54.46 L112.61,55.26 L113.11,56.15 L113.61,57.13 L114.11,58.18 L114.62,59.30 L115.12,60.47 L115.62,61.69 L116.12,62.95 L116.62,64.23 L117.12,65.52 L117.62,66.83 L118.12,68.13 L118.62,69.42 L119.12,70.69 L119.62,71.93 L120.12,73.15 L120.62,74.32 L121.12,75.45 L121.62,76.53 L122.12,77.57 L122.63,78.55 L123.13,79.47 L123.63,80.34 L124.13,81.15 L124.63,81.91 L125.13,82.61 L125.63,83.26 L126.13,83.85 L126.63,84.39 L127.13,84.89 L127.63,85.33 L128.13,85.74 L128.63,86.10 L129.13,86.42 L129.63,86.71 L130.13,86.96 L130.63,87.18 L131.14,87.38 L131.64,87.55 L132.14,87.69 L132.64,87.82 L133.14,87.92 L133.64,88.01 L134.14,88.08 L134.64,88.15 L135.14,88.19 L135.64,88.23 L136.14,88.26 L136.64,88.28 L137.14,88.29 L137.64,88.30 L138.14,88.30 L138.64,88.29 L139.15,88.28 L139.65,88.26 L140.15,88.25 L140.65,88.22 L141.15,88.20 L141.65,88.17 L142.15,88.14 L142.65,88.11 L143.15,88.07 L143.65,88.03 L144.15,87.99 L144.65,87.95 L145.15,87.90 L145.65,87.85 L146.15,87.80 L146.65,87.75 L147.16,87.70 L147.66,87.64 L148.16,87.58 L148.66,87.52 L149.16,87.45 L149.66,87.39 L150.16,87.32 L150.66,87.24 L151.16,87.17 L151.66,87.09 L152.16,87.01 L152.66,86.93 L153.16,86.85 L153.66,86.76 L154.16,86.67 L154.66,86.58 L155.16,86.48 L155.67,86.38 L156.17,86.28 L156.67,86.17 L157.17,86.07 L157.67,85.96 L158.17,85.84 L158.67,85.73 L159.17,85.61 L159.67,85.48 L160.17,85.36 L160.67,85.23 L161.17,85.10 L161.67,84.97 L162.17,84.83 L162.67,84.69 L163.17,84.55 L163.68,84.40 L164.18,84.25 L164.68,84.10 L165.18,83.95 L165.68,83.80 L166.18,83.64 L166.68,83.48 L167.18,83.32 L167.68,83.16 L168.18,83.00 L168.68,82.83 L169.18,82.67 L169.68,82.50 L170.18,82.34 L170.68,82.17 L171.18,82.01 L171.68,81.84 L172.19,81.68 L172.69,81.52 L173.19,81.36 L173.69,81.20 L174.19,81.05 L174.69,80.90 L175.19,80.75 L175.69,80.61 L176.19,80.48 L176.69,80.35 L177.19,80.23 L177.69,80.11 L178.19,80.01 L178.69,79.91 L179.19,79.83 L179.69,79.76 L180.20,79.69 L180.70,79.65 L181.20,79.61 L181.70,79.59 L182.20,79.59 L182.70,79.60 L183.20,79.63 L183.70,79.68 L184.20,79.75 L184.70,79.84 L185.20,79.95 L185.70,80.08 L186.20,80.23 L186.70,80.41 L187.20,80.62 L187.70,80.84 L188.21,81.09 L188.71,81.37 L189.21,81.68 L189.71,82.01 L190.21,82.36 L190.71,82.74 L191.21,83.15 L191.71,83.59 L192.21,84.05 L192.71,84.53 L193.21,85.04 L193.71,85.57 L194.21,86.13 L194.71,86.70 L195.21,87.30 L195.71,87.91 L196.21,88.54 L196.72,89.19 L197.22,89.85 L197.72,90.52 L198.22,91.20 L198.72,91.89 L199.22,92.58 L199.72,93.28 L200.22,93.97 L200.72,94.66 L201.22,95.35 L201.72,96.03 L202.22,96.69 L202.72,97.35 L203.22,97.98 L203.72,98.60 L204.22,99.20 L204.73,99.77 L205.23,100.31 L205.73,100.83 L206.23,101.31 L206.73,101.76 L207.23,102.17 L207.73,102.55 L208.23,102.89 L208.73,103.18 L209.23,103.44 L209.73,103.65 L210.23,103.82 L210.73,103.94 L211.23,104.02 L211.73,104.05 L212.23,104.04 L212.74,103.98 L213.24,103.88 L213.74,103.73 L214.24,103.54 L214.74,103.32 L215.24,103.05 L215.74,102.74 L216.24,102.40 L216.74,102.02 L217.24,101.61 L217.74,101.18 L218.24,100.71 L218.74,100.22 L219.24,99.71 L219.74,99.18 L220.24,98.63 L220.74,98.07 L221.25,97.50 L221.75,96.92 L222.25,96.33 L222.75,95.74 L223.25,95.16 L223.75,94.57 L224.25,94.00 L224.75,93.43 L225.25,92.87 L225.75,92.32 L226.25,91.79 L226.75,91.28 L227.25,90.79 L227.75,90.32 L228.25,89.87 L228.75,89.45 L229.26,89.05 L229.76,88.68 L230.26,88.33 L230.76,88.02 L231.26,87.73 L231.76,87.48 L232.26,87.26 L232.76,87.06 L233.26,86.90 L233.76,86.77 L234.26,86.67 L234.76,86.60 L235.26,86.56 L235.76,86.55 L236.26,86.57 L236.76,86.62 L237.26,86.69 L237.77,86.80 L238.27,86.93 L238.77,87.08 L239.27,87.26 L239.77,87.47 L240.27,87.69 L240.77,87.94 L241.27,88.21 L241.77,88.50 L242.27,88.81 L242.77,89.13 L243.27,89.48 L243.77,89.83 L244.27,90.20 L244.77,90.59 L245.27,90.99 L245.78,91.40 L246.28,91.82 L246.78,92.25 L247.28,92.69 L247.78,93.14 L248.28,93.59 L248.78,94.05 L249.28,94.52 L249.78,94.99 L250.28,95.47 L250.78,95.95 L251.28,96.43 L251.78,96.92 L252.28,97.41 L252.78,97.90 L253.28,98.39 L253.79,98.88 L254.29,99.37 L254.79,99.86 L255.29,100.35 L255.79,100.84 L256.29,101.33 L256.79,101.81 L257.29,102.29 L257.79,102.77 L258.29,103.25 L258.79,103.73 L259.29,104.20 L259.79,104.66 L260.29,105.13 L260.79,105.59 L261.29,106.04 L261.79,106.49 L262.30,106.94 L262.80,107.38 L263.30,107.81 L263.80,108.25 L264.30,108.67 L264.80,109.09 L265.30,109.51 L265.80,109.92 L266.30,110.32 L266.80,110.72 L267.30,111.11 L267.80,111.50 L268.30,111.88 L268.80,112.25 L269.30,112.62 L269.80,112.98 L270.31,113.34 L270.81,113.69 L271.31,114.03 L271.81,114.37 L272.31,114.70 L272.81,115.02 L273.31,115.34 L273.81,115.65 L274.31,115.96 L274.81,116.26 L275.31,116.55 L275.81,116.83 L276.31,117.11 L276.81,117.39 L277.31,117.65 L277.81,117.91 L278.32,118.16 L278.82,118.41 L279.32,118.65 L279.82,118.89 L280.32,119.11 L280.82,119.33 L281.32,119.55 L281.82,119.76 L282.32,119.96 L282.82,120.16 L283.32,120.35 L283.82,120.53 L284.32,120.71 L284.82,120.88 L285.32,121.05 L285.82,121.21 L286.32,121.36 L286.83,121.51 L287.33,121.65 L287.83,121.78 L288.33,121.92 L288.83,122.04 L289.33,122.16 L289.83,122.27 L290.33,122.38 L290.83,122.48 L291.33,122.58 L291.83,122.67 L292.33,122.76 L292.83,122.84 L293.33,122.91 L293.83,122.98 L294.33,123.05 L294.84,123.11 L295.34,123.16 L295.84,123.21 L296.34,123.26 L296.84,123.30 L297.34,123.33 L297.84,123.36 L298.34,123.38 L298.84,123.40 L299.34,123.41 L299.84,123.42 L300.34,123.42 L300.84,123.41 L301.34,123.40 L301.84,123.38 L302.34,123.35 L302.84,123.31 L303.35,123.26 L303.85,123.20 L304.35,123.12 L304.85,123.04 L305.35,122.93 L305.85,122.82 L306.35,122.68 L306.85,122.52 L307.35,122.33 L307.85,122.13 L308.35,121.89 L308.85,121.62 L309.35,121.31 L309.85,120.96 L310.35,120.58 L310.85,120.14 L311.36,119.66 L311.86,119.12 L312.36,118.53 L312.86,117.88 L313.36,117.16 L313.86,116.38 L314.36,115.53 L314.86,114.61 L315.36,113.62 L315.86,112.56 L316.36,111.43 L316.86,110.24 L317.36,108.97 L317.86,107.65 L318.36,106.27 L318.86,104.84 L319.37,103.36 L319.87,101.85 L320.37,100.32 L320.87,98.76 L321.37,97.21 L321.87,95.66 L322.37,94.14 L322.87,92.65 L323.37,91.21 L323.87,89.82 L324.37,88.52 L324.87,87.30 L325.37,86.18 L325.87,85.17 L326.37,84.29 L326.87,83.53 L327.37,82.92 L327.88,82.44 L328.38,82.12 L328.88,81.94 L329.38,81.91 L329.88,82.04 L330.38,82.31 L330.88,82.71 L331.38,83.25 L331.88,83.92 L332.38,84.70 L332.88,85.59 L333.38,86.57 L333.88,87.62 L334.38,88.75 L334.88,89.92 L335.38,91.14 L335.89,92.38 L336.39,93.64 L336.89,94.90 L337.39,96.15 L337.89,97.37 L338.39,98.57 L338.89,99.72 L339.39,100.83 L339.89,101.89 L340.39,102.89 L340.89,103.82 L341.39,104.69 L341.89,105.49 L342.39,106.23 L342.89,106.89 L343.39,107.49 L343.89,108.02 L344.40,108.49 L344.90,108.90 L345.40,109.25 L345.90,109.54 L346.40,109.78 L346.90,109.98 L347.40,110.13 L347.90,110.24 L348.40,110.31 L348.90,110.35 L349.40,110.36 L349.90,110.34 L350.40,110.30 L350.90,110.23 L351.40,110.15 L351.90,110.06 L352.41,109.94 L352.91,109.82 L353.41,109.69 L353.91,109.54 L354.41,109.39 L354.91,109.24 L355.41,109.08 L355.91,108.91 L356.41,108.74 L356.91,108.57 L357.41,108.39 L357.91,108.22 L358.41,108.04 L358.91,107.86 L359.41,107.68 L359.91,107.50 L360.42,107.32 L360.92,107.14 L361.42,106.96 L361.92,106.78 L362.42,106.60 L362.92,106.42 L363.42,106.24 L363.92,106.06 L364.42,105.88 L364.92,105.70 L365.42,105.53 L365.92,105.35 L366.42,105.17 L366.92,105.00 L367.42,104.82 L367.92,104.65 L368.42,104.47 L368.93,104.30 L369.43,104.13 L369.93,103.96 L370.43,103.79 L370.93,103.62 L371.43,103.45 L371.93,103.28 L372.43,103.11 L372.93,102.94 L373.43,102.78 L373.93,102.61 L374.43,102.45 L374.93,102.29 L375.43,102.12 L375.93,101.96 L376.43,101.80 L376.94,101.64 L377.44,101.48 L377.94,101.33 L378.44,101.17 L378.94,101.01 L379.44,100.86 L379.94,100.71 L380.44,100.55 L380.94,100.40 L381.44,100.25 L381.94,100.10 L382.44,99.95 L382.94,99.81 L383.44,99.66 L383.94,99.52 L384.44,99.37 L384.95,99.23 L385.45,99.09 L385.95,98.95 L386.45,98.81 L386.95,98.67 L387.45,98.53 L387.95,98.40 L388.45,98.26 L388.95,98.13 L389.45,97.99 L389.95,97.86 L390.45,97.73 L390.95,97.60 L391.45,97.47 L391.95,97.35 L392.45,97.22 L392.95,97.10 L393.46,96.97 L393.96,96.85 L394.46,96.73 L394.96,96.61 L395.46,96.49 L395.96,96.37 L396.46,96.25 L396.96,96.14 L397.46,96.02 L397.96,95.91 L398.46,95.80 L398.96,95.69 L399.46,95.58 L399.96,95.47 L400.46,95.36 L400.96,95.25 L401.47,95.15 L401.97,95.05 L402.47,94.94 L402.97,94.84 L403.47,94.74 L403.97,94.64 L404.47,94.54 L404.97,94.44 L405.47,94.35 L405.97,94.25 L406.47,94.16 L406.97,94.07 L407.47,93.97 L407.97,93.88 L408.47,93.79 L408.97,93.70 L409.47,93.62 L409.98,93.53 L410.48,93.45 L410.98,93.36 L411.48,93.28 L411.98,93.20 L412.48,93.11 L412.98,93.03 L413.48,92.95 L413.98,92.88 L414.48,92.80 L414.98,92.72 L415.48,92.65 L415.98,92.57 L416.48,92.50 L416.98,92.43 L417.48,92.36 L417.99,92.29 L418.49,92.22 L418.99,92.15 L419.49,92.08 L419.99,92.02 L420.49,91.95 L420.99,91.89 L421.49,91.82 L421.99,91.76 L422.49,91.70 L422.99,91.64 L423.49,91.58 L423.99,91.52 L424.49,91.46 L424.99,91.40 L425.49,91.35 L426.00,91.29 L426.50,91.24 L427.00,91.18 L427.50,91.13 L428.00,91.08 L428.50,91.02 L429.00,90.97 L429.50,90.92 L430.00,90.87" style="stroke-width: 1; stroke: rgb(67, 67, 67);"/></g><rect class="real" x="21" y="1" width="408" height="178" style="stroke: gray; fill: transparent;"/></g><g style="font-family: Asana-Math, Asana;"><line x1="20" y1="185" x2="430" y2="185" fill="none" stroke="black" stroke-width="0.5"/><line x1="72.30465206835082" y1="185" x2="72.30465206835082" y2="189" fill="none" stroke="black" stroke-width="0.5"/><line x1="145.5617775413732" y1="185" x2="145.5617775413732" y2="189" fill="none" stroke="black" stroke-width="0.5"/><line x1="218.81890301439557" y1="185" x2="218.81890301439557" y2="189" fill="none" stroke="black" stroke-width="0.5"/><line x1="292.07602848741794" y1="185" x2="292.07602848741794" y2="189" fill="none" stroke="black" stroke-width="0.5"/><line x1="365.33315396044026" y1="185" x2="365.33315396044026" y2="189" fill="none" stroke="black" stroke-width="0.5"/><text text-anchor="middle" font-size="11" stroke="none" fill="gray" x="72.30465206835082" y="201">-4</text><text text-anchor="middle" font-size="11" stroke="none" fill="gray" x="145.5617775413732" y="201">-2</text><text text-anchor="middle" font-size="11" stroke="none" fill="gray" x="218.81890301439557" y="201">0</text><text text-anchor="middle" font-size="11" stroke="none" fill="gray" x="292.07602848741794" y="201">2</text><text text-anchor="middle" font-size="11" stroke="none" fill="gray" x="365.33315396044026" y="201">4</text></g><g style="font-family: Asana-Math, Asana;"><line x1="15" y1="0" x2="15" y2="180" fill="none" stroke="black" stroke-width="0.5"/><line x1="11" y1="161.62061965108367" x2="15" y2="161.62061965108367" fill="none" stroke="black" stroke-width="0.5"/><line x1="11" y1="124.99205691457249" x2="15" y2="124.99205691457249" fill="none" stroke="black" stroke-width="0.5"/><line x1="11" y1="88.3634941780613" x2="15" y2="88.3634941780613" fill="none" stroke="black" stroke-width="0.5"/><line x1="11" y1="51.73493144155012" x2="15" y2="51.73493144155012" fill="none" stroke="black" stroke-width="0.5"/><line x1="11" y1="15.106368705038932" x2="15" y2="15.106368705038932" fill="none" stroke="black" stroke-width="0.5"/><text text-anchor="end" font-size="11" stroke="none" fill="gray" x="5" y="165.62061965108367">-2</text><text text-anchor="end" font-size="11" stroke="none" fill="gray" x="5" y="128.9920569145725">-1</text><text text-anchor="end" font-size="11" stroke="none" fill="gray" x="5" y="92.3634941780613">0</text><text text-anchor="end" font-size="11" stroke="none" fill="gray" x="5" y="55.73493144155012">1</text><text text-anchor="end" font-size="11" stroke="none" fill="gray" x="5" y="19.106368705038932">2</text></g></g><g class="intersections-group"><g style="stroke: rgb(0, 0, 0); stroke-width: 1; fill: none;"/></g></g><g/><g/><!-- react-empty: 58403 --></svg>
        <svg xmlns="http://www.w3.org/2000/svg" width="660" height="300" style="width:660px;height:300px;font-family:Asana-Math, Asana;background:transparent;"></svg>
</svg>
