<svg xmlns="http://www.w3.org/2000/svg" width="662" height="302" style="
        width:662px;
        height:302px;
        background: transparent;
        fill: none;
">
        
        <svg xmlns="http://www.w3.org/2000/svg"><g class="shapes-region" style="stroke: black; fill: none;"><g class="composite-shape" data-amt="diagram/shapes/plot" style="transform: matrix(1, 0, 0, 1, -3, 7);"><defs><clipPath id="dp9489516298081462"><rect x="21" y="1" width="625" height="271.65625"/></clipPath></defs><g clip-path="url(#dp9489516298081462)"><g><path d=" M20.00,234.05 L20.50,234.05 L21.00,234.05 L21.50,234.05 L22.00,234.05 L22.50,234.05 L23.00,234.05 L23.50,234.05 L24.00,234.05 L24.50,234.05 L25.00,234.05 L25.50,234.05 L26.00,234.05 L26.51,234.05 L27.01,234.05 L27.51,234.05 L28.01,234.05 L28.51,234.05 L29.01,234.05 L29.51,234.05 L30.01,234.05 L30.51,234.05 L31.01,234.05 L31.51,234.05 L32.01,234.05 L32.51,234.05 L33.01,234.05 L33.51,234.05 L34.01,234.05 L34.51,234.05 L35.01,234.05 L35.51,234.05 L36.01,234.05 L36.51,234.05 L37.01,234.05 L37.51,234.05 L38.01,234.05 L38.51,234.05 L39.02,234.05 L39.52,234.05 L40.02,234.05 L40.52,234.05 L41.02,234.05 L41.52,234.05 L42.02,234.05 L42.52,234.05 L43.02,234.05 L43.52,234.05 L44.02,234.05 L44.52,234.05 L45.02,234.05 L45.52,234.05 L46.02,234.05 L46.52,234.05 L47.02,234.05 L47.52,234.05 L48.02,234.05 L48.52,234.05 L49.02,234.05 L49.52,234.05 L50.02,234.05 L50.52,234.05 L51.02,234.05 L51.53,234.05 L52.03,234.05 L52.53,234.05 L53.03,234.05 L53.53,234.05 L54.03,234.05 L54.53,234.05 L55.03,234.05 L55.53,234.05 L56.03,234.05 L56.53,234.05 L57.03,234.05 L57.53,234.05 L58.03,234.05 L58.53,234.05 L59.03,234.05 L59.53,234.05 L60.03,234.05 L60.53,234.05 L61.03,234.05 L61.53,234.05 L62.03,234.05 L62.53,234.05 L63.03,234.05 L63.53,234.05 L64.04,234.05 L64.54,234.05 L65.04,234.05 L65.54,234.05 L66.04,234.05 L66.54,234.05 L67.04,234.05 L67.54,234.05 L68.04,234.05 L68.54,234.05 L69.04,234.05 L69.54,234.05 L70.04,234.05 L70.54,234.05 L71.04,234.05 L71.54,234.05 L72.04,234.05 L72.54,234.05 L73.04,234.05 L73.54,234.05 L74.04,234.05 L74.54,234.05 L75.04,234.05 L75.54,234.05 L76.04,234.05 L76.55,234.05 L77.05,234.05 L77.55,234.05 L78.05,234.05 L78.55,234.05 L79.05,234.05 L79.55,234.05 L80.05,234.05 L80.55,234.05 L81.05,234.05 L81.55,234.05 L82.05,234.05 L82.55,234.05 L83.05,234.05 L83.55,234.05 L84.05,234.05 L84.55,234.05 L85.05,234.05 L85.55,234.05 L86.05,234.05 L86.55,234.05 L87.05,234.05 L87.55,234.05 L88.05,234.05 L88.55,234.05 L89.06,234.05 L89.56,234.05 L90.06,234.05 L90.56,234.05 L91.06,234.05 L91.56,234.05 L92.06,234.05 L92.56,234.05 L93.06,234.05 L93.56,234.05 L94.06,234.05 L94.56,234.05 L95.06,234.05 L95.56,234.05 L96.06,234.05 L96.56,234.05 L97.06,234.05 L97.56,234.05 L98.06,234.05 L98.56,234.05 L99.06,234.05 L99.56,234.05 L100.06,234.05 L100.56,234.05 L101.06,234.05 L101.57,234.05 L102.07,234.05 L102.57,234.05 L103.07,234.05 L103.57,234.05 L104.07,234.05 L104.57,234.05 L105.07,234.05 L105.57,234.05 L106.07,234.05 L106.57,234.05 L107.07,234.05 L107.57,234.05 L108.07,234.05 L108.57,234.05 L109.07,234.05 L109.57,234.05 L110.07,234.05 L110.57,234.05 L111.07,234.05 L111.57,234.05 L112.07,234.05 L112.57,234.05 L113.07,234.05 L113.57,234.05 L114.08,234.05 L114.58,234.05 L115.08,234.05 L115.58,234.05 L116.08,234.05 L116.58,234.05 L117.08,234.05 L117.58,234.05 L118.08,234.05 L118.58,234.05 L119.08,234.05 L119.58,234.05 L120.08,234.05 L120.58,234.05 L121.08,234.05 L121.58,234.05 L122.08,234.05 L122.58,234.05 L123.08,234.05 L123.58,234.05 L124.08,234.05 L124.58,234.05 L125.08,234.05 L125.58,234.05 L126.08,234.05 L126.58,234.05 L127.09,234.05 L127.59,234.05 L128.09,234.05 L128.59,234.05 L129.09,234.05 L129.59,234.05 L130.09,234.05 L130.59,234.05 L131.09,234.05 L131.59,234.05 L132.09,234.05 L132.59,234.05 L133.09,234.05 L133.59,234.05 L134.09,234.05 L134.59,234.05 L135.09,234.05 L135.59,234.05 L136.09,234.05 L136.59,234.05 L137.09,234.05 L137.59,234.05 L138.09,234.05 L138.59,234.05 L139.09,234.04 L139.60,234.04 L140.10,234.04 L140.60,234.04 L141.10,234.04 L141.60,234.04 L142.10,234.04 L142.60,234.04 L143.10,234.04 L143.60,234.04 L144.10,234.04 L144.60,234.04 L145.10,234.04 L145.60,234.04 L146.10,234.04 L146.60,234.04 L147.10,234.04 L147.60,234.04 L148.10,234.04 L148.60,234.04 L149.10,234.04 L149.60,234.04 L150.10,234.04 L150.60,234.04 L151.10,234.04 L151.60,234.04 L152.11,234.04 L152.61,234.04 L153.11,234.04 L153.61,234.04 L154.11,234.04 L154.61,234.04 L155.11,234.03 L155.61,234.03 L156.11,234.03 L156.61,234.03 L157.11,234.03 L157.61,234.03 L158.11,234.03 L158.61,234.03 L159.11,234.03 L159.61,234.02 L160.11,234.02 L160.61,234.02 L161.11,234.02 L161.61,234.02 L162.11,234.01 L162.61,234.01 L163.11,234.01 L163.61,234.01 L164.11,234.00 L164.62,234.00 L165.12,234.00 L165.62,233.99 L166.12,233.99 L166.62,233.99 L167.12,233.98 L167.62,233.98 L168.12,233.97 L168.62,233.97 L169.12,233.96 L169.62,233.96 L170.12,233.95 L170.62,233.94 L171.12,233.93 L171.62,233.93 L172.12,233.92 L172.62,233.91 L173.12,233.90 L173.62,233.89 L174.12,233.88 L174.62,233.87 L175.12,233.85 L175.62,233.84 L176.12,233.83 L176.62,233.81 L177.13,233.79 L177.63,233.78 L178.13,233.76 L178.63,233.74 L179.13,233.72 L179.63,233.70 L180.13,233.67 L180.63,233.65 L181.13,233.62 L181.63,233.59 L182.13,233.56 L182.63,233.53 L183.13,233.50 L183.63,233.46 L184.13,233.43 L184.63,233.39 L185.13,233.35 L185.63,233.30 L186.13,233.25 L186.63,233.20 L187.13,233.15 L187.63,233.10 L188.13,233.04 L188.63,232.98 L189.13,232.91 L189.64,232.84 L190.14,232.77 L190.64,232.69 L191.14,232.61 L191.64,232.53 L192.14,232.44 L192.64,232.34 L193.14,232.24 L193.64,232.14 L194.14,232.03 L194.64,231.91 L195.14,231.79 L195.64,231.66 L196.14,231.53 L196.64,231.39 L197.14,231.24 L197.64,231.08 L198.14,230.92 L198.64,230.75 L199.14,230.57 L199.64,230.39 L200.14,230.19 L200.64,229.99 L201.14,229.77 L201.64,229.55 L202.15,229.31 L202.65,229.07 L203.15,228.81 L203.65,228.55 L204.15,228.27 L204.65,227.98 L205.15,227.67 L205.65,227.36 L206.15,227.03 L206.65,226.68 L207.15,226.33 L207.65,225.96 L208.15,225.57 L208.65,225.17 L209.15,224.75 L209.65,224.32 L210.15,223.86 L210.65,223.40 L211.15,222.91 L211.65,222.41 L212.15,221.88 L212.65,221.34 L213.15,220.78 L213.65,220.20 L214.15,219.60 L214.66,218.97 L215.16,218.33 L215.66,217.66 L216.16,216.98 L216.66,216.26 L217.16,215.53 L217.66,214.77 L218.16,213.99 L218.66,213.18 L219.16,212.35 L219.66,211.49 L220.16,210.61 L220.66,209.70 L221.16,208.77 L221.66,207.81 L222.16,206.82 L222.66,205.80 L223.16,204.76 L223.66,203.68 L224.16,202.58 L224.66,201.45 L225.16,200.30 L225.66,199.11 L226.16,197.89 L226.66,196.65 L227.17,195.37 L227.67,194.07 L228.17,192.73 L228.67,191.37 L229.17,189.97 L229.67,188.55 L230.17,187.10 L230.67,185.61 L231.17,184.10 L231.67,182.56 L232.17,180.99 L232.67,179.39 L233.17,177.76 L233.67,176.10 L234.17,174.41 L234.67,172.70 L235.17,170.96 L235.67,169.19 L236.17,167.39 L236.67,165.57 L237.17,163.73 L237.67,161.85 L238.17,159.96 L238.67,158.04 L239.17,156.10 L239.68,154.13 L240.18,152.14 L240.68,150.14 L241.18,148.11 L241.68,146.06 L242.18,144.00 L242.68,141.92 L243.18,139.82 L243.68,137.70 L244.18,135.58 L244.68,133.44 L245.18,131.29 L245.68,129.12 L246.18,126.95 L246.68,124.77 L247.18,122.59 L247.68,120.39 L248.18,118.20 L248.68,116.00 L249.18,113.79 L249.68,111.59 L250.18,109.39 L250.68,107.19 L251.18,105.00 L251.68,102.81 L252.19,100.62 L252.69,98.45 L253.19,96.28 L253.69,94.13 L254.19,91.99 L254.69,89.86 L255.19,87.75 L255.69,85.65 L256.19,83.58 L256.69,81.52 L257.19,79.48 L257.69,77.47 L258.19,75.48 L258.69,73.52 L259.19,71.58 L259.69,69.67 L260.19,67.79 L260.69,65.94 L261.19,64.13 L261.69,62.35 L262.19,60.60 L262.69,58.89 L263.19,57.21 L263.69,55.57 L264.19,53.97 L264.70,52.42 L265.20,50.90 L265.70,49.42 L266.20,47.99 L266.70,46.60 L267.20,45.26 L267.70,43.96 L268.20,42.71 L268.70,41.50 L269.20,40.34 L269.70,39.23 L270.20,38.17 L270.70,37.16 L271.20,36.19 L271.70,35.28 L272.20,34.41 L272.70,33.60 L273.20,32.83 L273.70,32.12 L274.20,31.45 L274.70,30.84 L275.20,30.27 L275.70,29.75 L276.20,29.29 L276.70,28.87 L277.21,28.51 L277.71,28.19 L278.21,27.92 L278.71,27.70 L279.21,27.52 L279.71,27.39 L280.21,27.31 L280.71,27.28 L281.21,27.29 L281.71,27.34 L282.21,27.44 L282.71,27.57 L283.21,27.76 L283.71,27.98 L284.21,28.24 L284.71,28.54 L285.21,28.88 L285.71,29.25 L286.21,29.66 L286.71,30.11 L287.21,30.59 L287.71,31.10 L288.21,31.65 L288.71,32.22 L289.21,32.82 L289.72,33.45 L290.22,34.11 L290.72,34.79 L291.22,35.50 L291.72,36.23 L292.22,36.99 L292.72,37.76 L293.22,38.55 L293.72,39.36 L294.22,40.19 L294.72,41.04 L295.22,41.90 L295.72,42.77 L296.22,43.66 L296.72,44.55 L297.22,45.46 L297.72,46.38 L298.22,47.30 L298.72,48.24 L299.22,49.17 L299.72,50.12 L300.22,51.07 L300.72,52.02 L301.22,52.97 L301.72,53.93 L302.23,54.88 L302.73,55.84 L303.23,56.79 L303.73,57.74 L304.23,58.69 L304.73,59.64 L305.23,60.58 L305.73,61.52 L306.23,62.46 L306.73,63.39 L307.23,64.31 L307.73,65.22 L308.23,66.13 L308.73,67.03 L309.23,67.92 L309.73,68.81 L310.23,69.68 L310.73,70.55 L311.23,71.40 L311.73,72.25 L312.23,73.09 L312.73,73.92 L313.23,74.73 L313.73,75.54 L314.23,76.33 L314.74,77.12 L315.24,77.89 L315.74,78.66 L316.24,79.41 L316.74,80.15 L317.24,80.88 L317.74,81.60 L318.24,82.31 L318.74,83.01 L319.24,83.69 L319.74,84.37 L320.24,85.04 L320.74,85.69 L321.24,86.33 L321.74,86.97 L322.24,87.59 L322.74,88.20 L323.24,88.80 L323.74,89.39 L324.24,89.97 L324.74,90.54 L325.24,91.10 L325.74,91.65 L326.24,92.18 L326.74,92.71 L327.25,93.23 L327.75,93.74 L328.25,94.23 L328.75,94.72 L329.25,95.20 L329.75,95.66 L330.25,96.12 L330.75,96.57 L331.25,97.00 L331.75,97.43 L332.25,97.84 L332.75,98.24 L333.25,98.63 L333.75,99.01 L334.25,99.38 L334.75,99.74 L335.25,100.09 L335.75,100.42 L336.25,100.74 L336.75,101.05 L337.25,101.35 L337.75,101.64 L338.25,101.91 L338.75,102.17 L339.25,102.41 L339.75,102.65 L340.26,102.86 L340.76,103.07 L341.26,103.26 L341.76,103.43 L342.26,103.60 L342.76,103.74 L343.26,103.87 L343.76,103.99 L344.26,104.09 L344.76,104.18 L345.26,104.25 L345.76,104.30 L346.26,104.34 L346.76,104.37 L347.26,104.38 L347.76,104.37 L348.26,104.35 L348.76,104.31 L349.26,104.26 L349.76,104.19 L350.26,104.11 L350.76,104.02 L351.26,103.91 L351.76,103.79 L352.26,103.65 L352.77,103.51 L353.27,103.35 L353.77,103.18 L354.27,103.00 L354.77,102.81 L355.27,102.62 L355.77,102.41 L356.27,102.20 L356.77,101.98 L357.27,101.76 L357.77,101.53 L358.27,101.30 L358.77,101.07 L359.27,100.83 L359.77,100.60 L360.27,100.37 L360.77,100.14 L361.27,99.92 L361.77,99.70 L362.27,99.50 L362.77,99.30 L363.27,99.11 L363.77,98.93 L364.27,98.76 L364.77,98.61 L365.28,98.48 L365.78,98.36 L366.28,98.26 L366.78,98.18 L367.28,98.13 L367.78,98.10 L368.28,98.09 L368.78,98.11 L369.28,98.16 L369.78,98.23 L370.28,98.34 L370.78,98.47 L371.28,98.64 L371.78,98.85 L372.28,99.08 L372.78,99.36 L373.28,99.67 L373.78,100.01 L374.28,100.40 L374.78,100.82 L375.28,101.28 L375.78,101.79 L376.28,102.33 L376.78,102.91 L377.28,103.54 L377.79,104.20 L378.29,104.91 L378.79,105.65 L379.29,106.44 L379.79,107.27 L380.29,108.14 L380.79,109.04 L381.29,109.99 L381.79,110.98 L382.29,112.00 L382.79,113.06 L383.29,114.16 L383.79,115.30 L384.29,116.46 L384.79,117.66 L385.29,118.90 L385.79,120.16 L386.29,121.46 L386.79,122.78 L387.29,124.13 L387.79,125.51 L388.29,126.91 L388.79,128.33 L389.29,129.78 L389.79,131.24 L390.30,132.72 L390.80,134.22 L391.30,135.73 L391.80,137.26 L392.30,138.79 L392.80,140.34 L393.30,141.89 L393.80,143.45 L394.30,145.02 L394.80,146.59 L395.30,148.16 L395.80,149.72 L396.30,151.29 L396.80,152.85 L397.30,154.41 L397.80,155.96 L398.30,157.51 L398.80,159.04 L399.30,160.57 L399.80,162.08 L400.30,163.58 L400.80,165.07 L401.30,166.54 L401.80,167.99 L402.30,169.43 L402.81,170.85 L403.31,172.25 L403.81,173.63 L404.31,174.99 L404.81,176.32 L405.31,177.64 L405.81,178.93 L406.31,180.20 L406.81,181.45 L407.31,182.68 L407.81,183.87 L408.31,185.05 L408.81,186.20 L409.31,187.32 L409.81,188.43 L410.31,189.50 L410.81,190.55 L411.31,191.58 L411.81,192.58 L412.31,193.55 L412.81,194.51 L413.31,195.43 L413.81,196.33 L414.31,197.21 L414.81,198.07 L415.32,198.90 L415.82,199.71 L416.32,200.50 L416.82,201.26 L417.32,202.00 L417.82,202.73 L418.32,203.43 L418.82,204.11 L419.32,204.77 L419.82,205.41 L420.32,206.03 L420.82,206.63 L421.32,207.22 L421.82,207.78 L422.32,208.34 L422.82,208.87 L423.32,209.39 L423.82,209.89 L424.32,210.38 L424.82,210.85 L425.32,211.31 L425.82,211.76 L426.32,212.19 L426.82,212.61 L427.32,213.02 L427.83,213.42 L428.33,213.80 L428.83,214.18 L429.33,214.54 L429.83,214.89 L430.33,215.24 L430.83,215.58 L431.33,215.90 L431.83,216.22 L432.33,216.53 L432.83,216.83 L433.33,217.13 L433.83,217.42 L434.33,217.70 L434.83,217.97 L435.33,218.24 L435.83,218.50 L436.33,218.76 L436.83,219.01 L437.33,219.25 L437.83,219.49 L438.33,219.73 L438.83,219.96 L439.33,220.18 L439.83,220.41 L440.34,220.62 L440.84,220.84 L441.34,221.05 L441.84,221.25 L442.34,221.45 L442.84,221.65 L443.34,221.85 L443.84,222.04 L444.34,222.23 L444.84,222.42 L445.34,222.60 L445.84,222.78 L446.34,222.96 L446.84,223.13 L447.34,223.31 L447.84,223.48 L448.34,223.64 L448.84,223.81 L449.34,223.97 L449.84,224.13 L450.34,224.29 L450.84,224.45 L451.34,224.60 L451.84,224.75 L452.34,224.90 L452.85,225.05 L453.35,225.20 L453.85,225.34 L454.35,225.49 L454.85,225.63 L455.35,225.76 L455.85,225.90 L456.35,226.04 L456.85,226.17 L457.35,226.30 L457.85,226.43 L458.35,226.56 L458.85,226.69 L459.35,226.81 L459.85,226.94 L460.35,227.06 L460.85,227.18 L461.35,227.30 L461.85,227.42 L462.35,227.53 L462.85,227.65 L463.35,227.76 L463.85,227.87 L464.35,227.98 L464.85,228.09 L465.36,228.19 L465.86,228.30 L466.36,228.40 L466.86,228.51 L467.36,228.61 L467.86,228.71 L468.36,228.81 L468.86,228.90 L469.36,229.00 L469.86,229.09 L470.36,229.19 L470.86,229.28 L471.36,229.37 L471.86,229.46 L472.36,229.54 L472.86,229.63 L473.36,229.72 L473.86,229.80 L474.36,229.88 L474.86,229.96 L475.36,230.04 L475.86,230.12 L476.36,230.20 L476.86,230.28 L477.36,230.35 L477.87,230.43 L478.37,230.50 L478.87,230.57 L479.37,230.64 L479.87,230.71 L480.37,230.78 L480.87,230.85 L481.37,230.92 L481.87,230.98 L482.37,231.04 L482.87,231.11 L483.37,231.17 L483.87,231.23 L484.37,231.29 L484.87,231.35 L485.37,231.41 L485.87,231.46 L486.37,231.52 L486.87,231.58 L487.37,231.63 L487.87,231.68 L488.37,231.73 L488.87,231.79 L489.37,231.84 L489.87,231.89 L490.38,231.93 L490.88,231.98 L491.38,232.03 L491.88,232.07 L492.38,232.12 L492.88,232.16 L493.38,232.21 L493.88,232.25 L494.38,232.29 L494.88,232.33 L495.38,232.37 L495.88,232.41 L496.38,232.45 L496.88,232.49 L497.38,232.52 L497.88,232.56 L498.38,232.60 L498.88,232.63 L499.38,232.67 L499.88,232.70 L500.38,232.73 L500.88,232.76 L501.38,232.80 L501.88,232.83 L502.38,232.86 L502.89,232.89 L503.39,232.91 L503.89,232.94 L504.39,232.97 L504.89,233.00 L505.39,233.02 L505.89,233.05 L506.39,233.08 L506.89,233.10 L507.39,233.13 L507.89,233.15 L508.39,233.17 L508.89,233.19 L509.39,233.22 L509.89,233.24 L510.39,233.26 L510.89,233.28 L511.39,233.30 L511.89,233.32 L512.39,233.34 L512.89,233.36 L513.39,233.38 L513.89,233.40 L514.39,233.41 L514.89,233.43 L515.40,233.45 L515.90,233.46 L516.40,233.48 L516.90,233.50 L517.40,233.51 L517.90,233.53 L518.40,233.54 L518.90,233.55 L519.40,233.57 L519.90,233.58 L520.40,233.59 L520.90,233.61 L521.40,233.62 L521.90,233.63 L522.40,233.64 L522.90,233.66 L523.40,233.67 L523.90,233.68 L524.40,233.69 L524.90,233.70 L525.40,233.71 L525.90,233.72 L526.40,233.73 L526.90,233.74 L527.40,233.75 L527.91,233.76 L528.41,233.76 L528.91,233.77 L529.41,233.78 L529.91,233.79 L530.41,233.80 L530.91,233.80 L531.41,233.81 L531.91,233.82 L532.41,233.83 L532.91,233.83 L533.41,233.84 L533.91,233.85 L534.41,233.85 L534.91,233.86 L535.41,233.86 L535.91,233.87 L536.41,233.87 L536.91,233.88 L537.41,233.89 L537.91,233.89 L538.41,233.90 L538.91,233.90 L539.41,233.90 L539.91,233.91 L540.42,233.91 L540.92,233.92 L541.42,233.92 L541.92,233.93 L542.42,233.93 L542.92,233.93 L543.42,233.94 L543.92,233.94 L544.42,233.94 L544.92,233.95 L545.42,233.95 L545.92,233.95 L546.42,233.96 L546.92,233.96 L547.42,233.96 L547.92,233.97 L548.42,233.97 L548.92,233.97 L549.42,233.97 L549.92,233.98 L550.42,233.98 L550.92,233.98 L551.42,233.98 L551.92,233.99 L552.42,233.99 L552.92,233.99 L553.43,233.99 L553.93,233.99 L554.43,234.00 L554.93,234.00 L555.43,234.00 L555.93,234.00 L556.43,234.00 L556.93,234.00 L557.43,234.01 L557.93,234.01 L558.43,234.01 L558.93,234.01 L559.43,234.01 L559.93,234.01 L560.43,234.01 L560.93,234.01 L561.43,234.02 L561.93,234.02 L562.43,234.02 L562.93,234.02 L563.43,234.02 L563.93,234.02 L564.43,234.02 L564.93,234.02 L565.43,234.02 L565.94,234.02 L566.44,234.03 L566.94,234.03 L567.44,234.03 L567.94,234.03 L568.44,234.03 L568.94,234.03 L569.44,234.03 L569.94,234.03 L570.44,234.03 L570.94,234.03 L571.44,234.03 L571.94,234.03 L572.44,234.03 L572.94,234.03 L573.44,234.03 L573.94,234.03 L574.44,234.03 L574.94,234.04 L575.44,234.04 L575.94,234.04 L576.44,234.04 L576.94,234.04 L577.44,234.04 L577.94,234.04 L578.45,234.04 L578.95,234.04 L579.45,234.04 L579.95,234.04 L580.45,234.04 L580.95,234.04 L581.45,234.04 L581.95,234.04 L582.45,234.04 L582.95,234.04 L583.45,234.04 L583.95,234.04 L584.45,234.04 L584.95,234.04 L585.45,234.04 L585.95,234.04 L586.45,234.04 L586.95,234.04 L587.45,234.04 L587.95,234.04 L588.45,234.04 L588.95,234.04 L589.45,234.04 L589.95,234.04 L590.45,234.04 L590.96,234.04 L591.46,234.04 L591.96,234.04 L592.46,234.04 L592.96,234.04 L593.46,234.04 L593.96,234.04 L594.46,234.04 L594.96,234.04 L595.46,234.04 L595.96,234.04 L596.46,234.04 L596.96,234.04 L597.46,234.04 L597.96,234.04 L598.46,234.04 L598.96,234.04 L599.46,234.04 L599.96,234.04 L600.46,234.04 L600.96,234.04 L601.46,234.04 L601.96,234.04 L602.46,234.04 L602.96,234.05 L603.47,234.05 L603.97,234.05 L604.47,234.05 L604.97,234.05 L605.47,234.05 L605.97,234.05 L606.47,234.05 L606.97,234.05 L607.47,234.05 L607.97,234.05 L608.47,234.05 L608.97,234.05 L609.47,234.05 L609.97,234.05 L610.47,234.05 L610.97,234.05 L611.47,234.05 L611.97,234.05 L612.47,234.05 L612.97,234.05 L613.47,234.05 L613.97,234.05 L614.47,234.05 L614.97,234.05 L615.47,234.05 L615.98,234.05 L616.48,234.05 L616.98,234.05 L617.48,234.05 L617.98,234.05 L618.48,234.05 L618.98,234.05 L619.48,234.05 L619.98,234.05 L620.48,234.05 L620.98,234.05 L621.48,234.05 L621.98,234.05 L622.48,234.05 L622.98,234.05 L623.48,234.05 L623.98,234.05 L624.48,234.05 L624.98,234.05 L625.48,234.05 L625.98,234.05 L626.48,234.05 L626.98,234.05 L627.48,234.05 L627.98,234.05 L628.49,234.05 L628.99,234.05 L629.49,234.05 L629.99,234.05 L630.49,234.05 L630.99,234.05 L631.49,234.05 L631.99,234.05 L632.49,234.05 L632.99,234.05 L633.49,234.05 L633.99,234.05 L634.49,234.05 L634.99,234.05 L635.49,234.05 L635.99,234.05 L636.49,234.05 L636.99,234.05 L637.49,234.05 L637.99,234.05 L638.49,234.05 L638.99,234.05 L639.49,234.05 L639.99,234.05 L640.49,234.05 L641.00,234.05 L641.50,234.05 L642.00,234.05 L642.50,234.05 L643.00,234.05 L643.50,234.05 L644.00,234.05 L644.50,234.05 L645.00,234.05 L645.50,234.05 L646.00,234.05 L646.50,234.05 L647.00,234.05" style="stroke-width: 2; stroke: rgb(74, 74, 74);"/><path d=" M20.00,234.05 L20.50,234.05 L21.00,234.05 L21.50,234.05 L22.00,234.05 L22.50,234.05 L23.00,234.05 L23.50,234.05 L24.00,234.05 L24.50,234.05 L25.00,234.05 L25.50,234.05 L26.00,234.05 L26.51,234.05 L27.01,234.05 L27.51,234.05 L28.01,234.05 L28.51,234.05 L29.01,234.05 L29.51,234.05 L30.01,234.05 L30.51,234.05 L31.01,234.05 L31.51,234.05 L32.01,234.05 L32.51,234.05 L33.01,234.05 L33.51,234.05 L34.01,234.05 L34.51,234.05 L35.01,234.05 L35.51,234.05 L36.01,234.05 L36.51,234.05 L37.01,234.05 L37.51,234.05 L38.01,234.05 L38.51,234.05 L39.02,234.05 L39.52,234.05 L40.02,234.05 L40.52,234.05 L41.02,234.05 L41.52,234.05 L42.02,234.05 L42.52,234.05 L43.02,234.05 L43.52,234.05 L44.02,234.05 L44.52,234.05 L45.02,234.05 L45.52,234.05 L46.02,234.05 L46.52,234.05 L47.02,234.05 L47.52,234.05 L48.02,234.05 L48.52,234.05 L49.02,234.05 L49.52,234.05 L50.02,234.05 L50.52,234.05 L51.02,234.05 L51.53,234.05 L52.03,234.05 L52.53,234.05 L53.03,234.05 L53.53,234.05 L54.03,234.05 L54.53,234.05 L55.03,234.05 L55.53,234.05 L56.03,234.05 L56.53,234.05 L57.03,234.05 L57.53,234.05 L58.03,234.05 L58.53,234.05 L59.03,234.05 L59.53,234.05 L60.03,234.05 L60.53,234.05 L61.03,234.05 L61.53,234.05 L62.03,234.05 L62.53,234.05 L63.03,234.05 L63.53,234.05 L64.04,234.05 L64.54,234.05 L65.04,234.05 L65.54,234.05 L66.04,234.05 L66.54,234.05 L67.04,234.05 L67.54,234.05 L68.04,234.05 L68.54,234.05 L69.04,234.05 L69.54,234.05 L70.04,234.05 L70.54,234.05 L71.04,234.05 L71.54,234.05 L72.04,234.05 L72.54,234.05 L73.04,234.05 L73.54,234.05 L74.04,234.05 L74.54,234.05 L75.04,234.05 L75.54,234.05 L76.04,234.05 L76.55,234.05 L77.05,234.05 L77.55,234.05 L78.05,234.05 L78.55,234.05 L79.05,234.05 L79.55,234.05 L80.05,234.05 L80.55,234.05 L81.05,234.05 L81.55,234.05 L82.05,234.05 L82.55,234.05 L83.05,234.05 L83.55,234.05 L84.05,234.05 L84.55,234.05 L85.05,234.05 L85.55,234.05 L86.05,234.05 L86.55,234.05 L87.05,234.05 L87.55,234.05 L88.05,234.05 L88.55,234.05 L89.06,234.05 L89.56,234.05 L90.06,234.05 L90.56,234.05 L91.06,234.05 L91.56,234.05 L92.06,234.05 L92.56,234.05 L93.06,234.05 L93.56,234.05 L94.06,234.05 L94.56,234.05 L95.06,234.05 L95.56,234.05 L96.06,234.05 L96.56,234.05 L97.06,234.05 L97.56,234.05 L98.06,234.05 L98.56,234.05 L99.06,234.05 L99.56,234.05 L100.06,234.05 L100.56,234.05 L101.06,234.05 L101.57,234.05 L102.07,234.05 L102.57,234.05 L103.07,234.05 L103.57,234.05 L104.07,234.05 L104.57,234.05 L105.07,234.05 L105.57,234.05 L106.07,234.05 L106.57,234.05 L107.07,234.05 L107.57,234.05 L108.07,234.05 L108.57,234.05 L109.07,234.05 L109.57,234.05 L110.07,234.05 L110.57,234.05 L111.07,234.05 L111.57,234.05 L112.07,234.05 L112.57,234.05 L113.07,234.05 L113.57,234.05 L114.08,234.05 L114.58,234.05 L115.08,234.05 L115.58,234.05 L116.08,234.05 L116.58,234.05 L117.08,234.05 L117.58,234.05 L118.08,234.05 L118.58,234.05 L119.08,234.05 L119.58,234.05 L120.08,234.05 L120.58,234.05 L121.08,234.05 L121.58,234.05 L122.08,234.05 L122.58,234.05 L123.08,234.05 L123.58,234.05 L124.08,234.05 L124.58,234.05 L125.08,234.05 L125.58,234.05 L126.08,234.05 L126.58,234.05 L127.09,234.05 L127.59,234.05 L128.09,234.05 L128.59,234.05 L129.09,234.05 L129.59,234.05 L130.09,234.05 L130.59,234.05 L131.09,234.05 L131.59,234.05 L132.09,234.05 L132.59,234.05 L133.09,234.05 L133.59,234.05 L134.09,234.05 L134.59,234.05 L135.09,234.05 L135.59,234.05 L136.09,234.05 L136.59,234.05 L137.09,234.05 L137.59,234.05 L138.09,234.05 L138.59,234.05 L139.09,234.05 L139.60,234.05 L140.10,234.05 L140.60,234.05 L141.10,234.05 L141.60,234.05 L142.10,234.05 L142.60,234.05 L143.10,234.05 L143.60,234.05 L144.10,234.05 L144.60,234.05 L145.10,234.05 L145.60,234.05 L146.10,234.05 L146.60,234.05 L147.10,234.05 L147.60,234.05 L148.10,234.05 L148.60,234.05 L149.10,234.05 L149.60,234.05 L150.10,234.05 L150.60,234.05 L151.10,234.05 L151.60,234.05 L152.11,234.05 L152.61,234.05 L153.11,234.05 L153.61,234.05 L154.11,234.05 L154.61,234.05 L155.11,234.05 L155.61,234.05 L156.11,234.05 L156.61,234.05 L157.11,234.05 L157.61,234.05 L158.11,234.05 L158.61,234.05 L159.11,234.05 L159.61,234.05 L160.11,234.05 L160.61,234.05 L161.11,234.05 L161.61,234.05 L162.11,234.05 L162.61,234.05 L163.11,234.05 L163.61,234.05 L164.11,234.05 L164.62,234.05 L165.12,234.05 L165.62,234.05 L166.12,234.05 L166.62,234.05 L167.12,234.05 L167.62,234.05 L168.12,234.05 L168.62,234.05 L169.12,234.05 L169.62,234.05 L170.12,234.05 L170.62,234.05 L171.12,234.05 L171.62,234.05 L172.12,234.05 L172.62,234.05 L173.12,234.05 L173.62,234.05 L174.12,234.05 L174.62,234.05 L175.12,234.05 L175.62,234.05 L176.12,234.05 L176.62,234.05 L177.13,234.05 L177.63,234.05 L178.13,234.05 L178.63,234.05 L179.13,234.05 L179.63,234.05 L180.13,234.05 L180.63,234.05 L181.13,234.05 L181.63,234.05 L182.13,234.05 L182.63,234.05 L183.13,234.05 L183.63,234.05 L184.13,234.05 L184.63,234.05 L185.13,234.05 L185.63,234.05 L186.13,234.05 L186.63,234.05 L187.13,234.05 L187.63,234.05 L188.13,234.05 L188.63,234.05 L189.13,234.05 L189.64,234.05 L190.14,234.05 L190.64,234.05 L191.14,234.05 L191.64,234.05 L192.14,234.05 L192.64,234.05 L193.14,234.05 L193.64,234.05 L194.14,234.05 L194.64,234.05 L195.14,234.05 L195.64,234.05 L196.14,234.05 L196.64,234.05 L197.14,234.05 L197.64,234.05 L198.14,234.05 L198.64,234.05 L199.14,234.05 L199.64,234.05 L200.14,234.05 L200.64,234.05 L201.14,234.05 L201.64,234.05 L202.15,234.05 L202.65,234.05 L203.15,234.05 L203.65,234.05 L204.15,234.05 L204.65,234.05 L205.15,234.05 L205.65,234.05 L206.15,234.05 L206.65,234.05 L207.15,234.05 L207.65,234.05 L208.15,234.05 L208.65,234.05 L209.15,234.05 L209.65,234.05 L210.15,234.05 L210.65,234.05 L211.15,234.05 L211.65,234.05 L212.15,234.05 L212.65,234.05 L213.15,234.05 L213.65,234.05 L214.15,234.05 L214.66,234.05 L215.16,234.05 L215.66,234.05 L216.16,234.05 L216.66,234.05 L217.16,234.05 L217.66,234.05 L218.16,234.05 L218.66,234.05 L219.16,234.05 L219.66,234.05 L220.16,234.05 L220.66,234.05 L221.16,234.05 L221.66,234.05 L222.16,234.05 L222.66,234.05 L223.16,234.05 L223.66,234.05 L224.16,234.05 L224.66,234.05 L225.16,234.05 L225.66,234.05 L226.16,234.05 L226.66,234.05 L227.17,234.05 L227.67,234.05 L228.17,234.05 L228.67,234.05 L229.17,234.05 L229.67,234.05 L230.17,234.05 L230.67,234.05 L231.17,234.05 L231.67,234.05 L232.17,234.05 L232.67,234.05 L233.17,234.05 L233.67,234.05 L234.17,234.05 L234.67,234.05 L235.17,234.05 L235.67,234.05 L236.17,234.05 L236.67,234.05 L237.17,234.05 L237.67,234.05 L238.17,234.05 L238.67,234.05 L239.17,234.05 L239.68,234.05 L240.18,234.05 L240.68,234.05 L241.18,234.05 L241.68,234.05 L242.18,234.05 L242.68,234.05 L243.18,234.05 L243.68,234.05 L244.18,234.05 L244.68,234.05 L245.18,234.05 L245.68,234.05 L246.18,234.05 L246.68,234.05 L247.18,234.05 L247.68,234.05 L248.18,234.05 L248.68,234.05 L249.18,234.05 L249.68,234.05 L250.18,234.05 L250.68,234.05 L251.18,234.05 L251.68,234.05 L252.19,234.05 L252.69,234.05 L253.19,234.05 L253.69,234.05 L254.19,234.05 L254.69,234.05 L255.19,234.05 L255.69,234.05 L256.19,234.05 L256.69,234.05 L257.19,234.05 L257.69,234.05 L258.19,234.05 L258.69,234.05 L259.19,234.05 L259.69,234.05 L260.19,234.05 L260.69,234.05 L261.19,234.05 L261.69,234.05 L262.19,234.05 L262.69,234.05 L263.19,234.05 L263.69,234.05 L264.19,234.05 L264.70,234.05 L265.20,234.05 L265.70,234.05 L266.20,234.05 L266.70,234.05 L267.20,234.05 L267.70,234.05 L268.20,234.05 L268.70,234.05 L269.20,234.05 L269.70,234.05 L270.20,234.05 L270.70,234.05 L271.20,234.05 L271.70,234.05 L272.20,234.05 L272.70,234.05 L273.20,234.05 L273.70,234.05 L274.20,234.05 L274.70,234.05 L275.20,234.05 L275.70,234.05 L276.20,234.05 L276.70,234.05 L277.21,234.05 L277.71,234.05 L278.21,234.05 L278.71,234.05 L279.21,234.05 L279.71,234.05 L280.21,234.05 L280.71,234.05 L281.21,234.05 L281.71,234.05 L282.21,234.05 L282.71,234.05 L283.21,234.05 L283.71,234.05 L284.21,234.05 L284.71,234.05 L285.21,234.05 L285.71,234.05 L286.21,234.05 L286.71,234.05 L287.21,234.05 L287.71,234.05 L288.21,234.05 L288.71,234.05 L289.21,234.05 L289.72,234.05 L290.22,234.05 L290.72,234.04 L291.22,234.04 L291.72,234.04 L292.22,234.04 L292.72,234.04 L293.22,234.04 L293.72,234.04 L294.22,234.04 L294.72,234.04 L295.22,234.04 L295.72,234.04 L296.22,234.04 L296.72,234.04 L297.22,234.04 L297.72,234.04 L298.22,234.04 L298.72,234.04 L299.22,234.04 L299.72,234.04 L300.22,234.04 L300.72,234.03 L301.22,234.03 L301.72,234.03 L302.23,234.03 L302.73,234.03 L303.23,234.03 L303.73,234.02 L304.23,234.02 L304.73,234.02 L305.23,234.02 L305.73,234.01 L306.23,234.01 L306.73,234.01 L307.23,234.00 L307.73,234.00 L308.23,233.99 L308.73,233.99 L309.23,233.98 L309.73,233.97 L310.23,233.96 L310.73,233.96 L311.23,233.95 L311.73,233.94 L312.23,233.93 L312.73,233.91 L313.23,233.90 L313.73,233.89 L314.23,233.87 L314.74,233.85 L315.24,233.84 L315.74,233.82 L316.24,233.80 L316.74,233.77 L317.24,233.75 L317.74,233.72 L318.24,233.69 L318.74,233.66 L319.24,233.62 L319.74,233.59 L320.24,233.55 L320.74,233.50 L321.24,233.46 L321.74,233.41 L322.24,233.35 L322.74,233.29 L323.24,233.23 L323.74,233.17 L324.24,233.09 L324.74,233.02 L325.24,232.94 L325.74,232.85 L326.24,232.76 L326.74,232.66 L327.25,232.55 L327.75,232.44 L328.25,232.32 L328.75,232.19 L329.25,232.05 L329.75,231.91 L330.25,231.75 L330.75,231.59 L331.25,231.42 L331.75,231.24 L332.25,231.04 L332.75,230.84 L333.25,230.63 L333.75,230.40 L334.25,230.16 L334.75,229.91 L335.25,229.64 L335.75,229.36 L336.25,229.07 L336.75,228.76 L337.25,228.44 L337.75,228.10 L338.25,227.74 L338.75,227.37 L339.25,226.99 L339.75,226.58 L340.26,226.16 L340.76,225.72 L341.26,225.26 L341.76,224.79 L342.26,224.29 L342.76,223.77 L343.26,223.24 L343.76,222.69 L344.26,222.11 L344.76,221.52 L345.26,220.91 L345.76,220.27 L346.26,219.62 L346.76,218.94 L347.26,218.25 L347.76,217.53 L348.26,216.80 L348.76,216.04 L349.26,215.27 L349.76,214.47 L350.26,213.66 L350.76,212.83 L351.26,211.98 L351.76,211.11 L352.26,210.23 L352.77,209.33 L353.27,208.41 L353.77,207.48 L354.27,206.54 L354.77,205.58 L355.27,204.61 L355.77,203.63 L356.27,202.63 L356.77,201.63 L357.27,200.62 L357.77,199.61 L358.27,198.59 L358.77,197.56 L359.27,196.53 L359.77,195.50 L360.27,194.47 L360.77,193.44 L361.27,192.42 L361.77,191.40 L362.27,190.38 L362.77,189.38 L363.27,188.38 L363.77,187.39 L364.27,186.42 L364.77,185.46 L365.28,184.52 L365.78,183.60 L366.28,182.69 L366.78,181.81 L367.28,180.95 L367.78,180.11 L368.28,179.30 L368.78,178.52 L369.28,177.76 L369.78,177.04 L370.28,176.35 L370.78,175.69 L371.28,175.07 L371.78,174.48 L372.28,173.93 L372.78,173.42 L373.28,172.95 L373.78,172.52 L374.28,172.13 L374.78,171.78 L375.28,171.47 L375.78,171.21 L376.28,170.99 L376.78,170.82 L377.28,170.69 L377.79,170.61 L378.29,170.57 L378.79,170.58 L379.29,170.63 L379.79,170.73 L380.29,170.87 L380.79,171.06 L381.29,171.29 L381.79,171.57 L382.29,171.89 L382.79,172.25 L383.29,172.65 L383.79,173.10 L384.29,173.58 L384.79,174.11 L385.29,174.67 L385.79,175.27 L386.29,175.90 L386.79,176.57 L387.29,177.28 L387.79,178.01 L388.29,178.77 L388.79,179.56 L389.29,180.38 L389.79,181.23 L390.30,182.10 L390.80,182.99 L391.30,183.90 L391.80,184.83 L392.30,185.78 L392.80,186.74 L393.30,187.72 L393.80,188.71 L394.30,189.71 L394.80,190.72 L395.30,191.73 L395.80,192.76 L396.30,193.78 L396.80,194.81 L397.30,195.84 L397.80,196.87 L398.30,197.90 L398.80,198.92 L399.30,199.94 L399.80,200.96 L400.30,201.97 L400.80,202.96 L401.30,203.95 L401.80,204.93 L402.30,205.90 L402.81,206.85 L403.31,207.79 L403.81,208.72 L404.31,209.63 L404.81,210.52 L405.31,211.40 L405.81,212.26 L406.31,213.11 L406.81,213.93 L407.31,214.74 L407.81,215.53 L408.31,216.29 L408.81,217.04 L409.31,217.77 L409.81,218.48 L410.31,219.17 L410.81,219.84 L411.31,220.48 L411.81,221.11 L412.31,221.72 L412.81,222.30 L413.31,222.87 L413.81,223.42 L414.31,223.95 L414.81,224.46 L415.32,224.94 L415.82,225.42 L416.32,225.87 L416.82,226.30 L417.32,226.72 L417.82,227.12 L418.32,227.50 L418.82,227.86 L419.32,228.21 L419.82,228.55 L420.32,228.86 L420.82,229.17 L421.32,229.46 L421.82,229.73 L422.32,229.99 L422.82,230.24 L423.32,230.47 L423.82,230.70 L424.32,230.91 L424.82,231.11 L425.32,231.30 L425.82,231.48 L426.32,231.65 L426.82,231.81 L427.32,231.96 L427.83,232.10 L428.33,232.23 L428.83,232.36 L429.33,232.48 L429.83,232.59 L430.33,232.69 L430.83,232.79 L431.33,232.88 L431.83,232.96 L432.33,233.04 L432.83,233.12 L433.33,233.19 L433.83,233.25 L434.33,233.31 L434.83,233.37 L435.33,233.42 L435.83,233.47 L436.33,233.52 L436.83,233.56 L437.33,233.60 L437.83,233.64 L438.33,233.67 L438.83,233.70 L439.33,233.73 L439.83,233.76 L440.34,233.78 L440.84,233.80 L441.34,233.82 L441.84,233.84 L442.34,233.86 L442.84,233.88 L443.34,233.89 L443.84,233.91 L444.34,233.92 L444.84,233.93 L445.34,233.94 L445.84,233.95 L446.34,233.96 L446.84,233.97 L447.34,233.97 L447.84,233.98 L448.34,233.99 L448.84,233.99 L449.34,234.00 L449.84,234.00 L450.34,234.01 L450.84,234.01 L451.34,234.01 L451.84,234.02 L452.34,234.02 L452.85,234.02 L453.35,234.03 L453.85,234.03 L454.35,234.03 L454.85,234.03 L455.35,234.03 L455.85,234.03 L456.35,234.04 L456.85,234.04 L457.35,234.04 L457.85,234.04 L458.35,234.04 L458.85,234.04 L459.35,234.04 L459.85,234.04 L460.35,234.04 L460.85,234.04 L461.35,234.04 L461.85,234.04 L462.35,234.04 L462.85,234.04 L463.35,234.04 L463.85,234.04 L464.35,234.04 L464.85,234.04 L465.36,234.04 L465.86,234.04 L466.36,234.05 L466.86,234.05 L467.36,234.05 L467.86,234.05 L468.36,234.05 L468.86,234.05 L469.36,234.05 L469.86,234.05 L470.36,234.05 L470.86,234.05 L471.36,234.05 L471.86,234.05 L472.36,234.05 L472.86,234.05 L473.36,234.05 L473.86,234.05 L474.36,234.05 L474.86,234.05 L475.36,234.05 L475.86,234.05 L476.36,234.05 L476.86,234.05 L477.36,234.05 L477.87,234.05 L478.37,234.05 L478.87,234.05 L479.37,234.05 L479.87,234.05 L480.37,234.05 L480.87,234.05 L481.37,234.05 L481.87,234.05 L482.37,234.05 L482.87,234.05 L483.37,234.05 L483.87,234.05 L484.37,234.05 L484.87,234.05 L485.37,234.05 L485.87,234.05 L486.37,234.05 L486.87,234.05 L487.37,234.05 L487.87,234.05 L488.37,234.05 L488.87,234.05 L489.37,234.05 L489.87,234.05 L490.38,234.05 L490.88,234.05 L491.38,234.05 L491.88,234.05 L492.38,234.05 L492.88,234.05 L493.38,234.05 L493.88,234.05 L494.38,234.05 L494.88,234.05 L495.38,234.05 L495.88,234.05 L496.38,234.05 L496.88,234.05 L497.38,234.05 L497.88,234.05 L498.38,234.05 L498.88,234.05 L499.38,234.05 L499.88,234.05 L500.38,234.05 L500.88,234.05 L501.38,234.05 L501.88,234.05 L502.38,234.05 L502.89,234.05 L503.39,234.05 L503.89,234.05 L504.39,234.05 L504.89,234.05 L505.39,234.05 L505.89,234.05 L506.39,234.05 L506.89,234.05 L507.39,234.05 L507.89,234.05 L508.39,234.05 L508.89,234.05 L509.39,234.05 L509.89,234.05 L510.39,234.05 L510.89,234.05 L511.39,234.05 L511.89,234.05 L512.39,234.05 L512.89,234.05 L513.39,234.05 L513.89,234.05 L514.39,234.05 L514.89,234.05 L515.40,234.05 L515.90,234.05 L516.40,234.05 L516.90,234.05 L517.40,234.05 L517.90,234.05 L518.40,234.05 L518.90,234.05 L519.40,234.05 L519.90,234.05 L520.40,234.05 L520.90,234.05 L521.40,234.05 L521.90,234.05 L522.40,234.05 L522.90,234.05 L523.40,234.05 L523.90,234.05 L524.40,234.05 L524.90,234.05 L525.40,234.05 L525.90,234.05 L526.40,234.05 L526.90,234.05 L527.40,234.05 L527.91,234.05 L528.41,234.05 L528.91,234.05 L529.41,234.05 L529.91,234.05 L530.41,234.05 L530.91,234.05 L531.41,234.05 L531.91,234.05 L532.41,234.05 L532.91,234.05 L533.41,234.05 L533.91,234.05 L534.41,234.05 L534.91,234.05 L535.41,234.05 L535.91,234.05 L536.41,234.05 L536.91,234.05 L537.41,234.05 L537.91,234.05 L538.41,234.05 L538.91,234.05 L539.41,234.05 L539.91,234.05 L540.42,234.05 L540.92,234.05 L541.42,234.05 L541.92,234.05 L542.42,234.05 L542.92,234.05 L543.42,234.05 L543.92,234.05 L544.42,234.05 L544.92,234.05 L545.42,234.05 L545.92,234.05 L546.42,234.05 L546.92,234.05 L547.42,234.05 L547.92,234.05 L548.42,234.05 L548.92,234.05 L549.42,234.05 L549.92,234.05 L550.42,234.05 L550.92,234.05 L551.42,234.05 L551.92,234.05 L552.42,234.05 L552.92,234.05 L553.43,234.05 L553.93,234.05 L554.43,234.05 L554.93,234.05 L555.43,234.05 L555.93,234.05 L556.43,234.05 L556.93,234.05 L557.43,234.05 L557.93,234.05 L558.43,234.05 L558.93,234.05 L559.43,234.05 L559.93,234.05 L560.43,234.05 L560.93,234.05 L561.43,234.05 L561.93,234.05 L562.43,234.05 L562.93,234.05 L563.43,234.05 L563.93,234.05 L564.43,234.05 L564.93,234.05 L565.43,234.05 L565.94,234.05 L566.44,234.05 L566.94,234.05 L567.44,234.05 L567.94,234.05 L568.44,234.05 L568.94,234.05 L569.44,234.05 L569.94,234.05 L570.44,234.05 L570.94,234.05 L571.44,234.05 L571.94,234.05 L572.44,234.05 L572.94,234.05 L573.44,234.05 L573.94,234.05 L574.44,234.05 L574.94,234.05 L575.44,234.05 L575.94,234.05 L576.44,234.05 L576.94,234.05 L577.44,234.05 L577.94,234.05 L578.45,234.05 L578.95,234.05 L579.45,234.05 L579.95,234.05 L580.45,234.05 L580.95,234.05 L581.45,234.05 L581.95,234.05 L582.45,234.05 L582.95,234.05 L583.45,234.05 L583.95,234.05 L584.45,234.05 L584.95,234.05 L585.45,234.05 L585.95,234.05 L586.45,234.05 L586.95,234.05 L587.45,234.05 L587.95,234.05 L588.45,234.05 L588.95,234.05 L589.45,234.05 L589.95,234.05 L590.45,234.05 L590.96,234.05 L591.46,234.05 L591.96,234.05 L592.46,234.05 L592.96,234.05 L593.46,234.05 L593.96,234.05 L594.46,234.05 L594.96,234.05 L595.46,234.05 L595.96,234.05 L596.46,234.05 L596.96,234.05 L597.46,234.05 L597.96,234.05 L598.46,234.05 L598.96,234.05 L599.46,234.05 L599.96,234.05 L600.46,234.05 L600.96,234.05 L601.46,234.05 L601.96,234.05 L602.46,234.05 L602.96,234.05 L603.47,234.05 L603.97,234.05 L604.47,234.05 L604.97,234.05 L605.47,234.05 L605.97,234.05 L606.47,234.05 L606.97,234.05 L607.47,234.05 L607.97,234.05 L608.47,234.05 L608.97,234.05 L609.47,234.05 L609.97,234.05 L610.47,234.05 L610.97,234.05 L611.47,234.05 L611.97,234.05 L612.47,234.05 L612.97,234.05 L613.47,234.05 L613.97,234.05 L614.47,234.05 L614.97,234.05 L615.47,234.05 L615.98,234.05 L616.48,234.05 L616.98,234.05 L617.48,234.05 L617.98,234.05 L618.48,234.05 L618.98,234.05 L619.48,234.05 L619.98,234.05 L620.48,234.05 L620.98,234.05 L621.48,234.05 L621.98,234.05 L622.48,234.05 L622.98,234.05 L623.48,234.05 L623.98,234.05 L624.48,234.05 L624.98,234.05 L625.48,234.05 L625.98,234.05 L626.48,234.05 L626.98,234.05 L627.48,234.05 L627.98,234.05 L628.49,234.05 L628.99,234.05 L629.49,234.05 L629.99,234.05 L630.49,234.05 L630.99,234.05 L631.49,234.05 L631.99,234.05 L632.49,234.05 L632.99,234.05 L633.49,234.05 L633.99,234.05 L634.49,234.05 L634.99,234.05 L635.49,234.05 L635.99,234.05 L636.49,234.05 L636.99,234.05 L637.49,234.05 L637.99,234.05 L638.49,234.05 L638.99,234.05 L639.49,234.05 L639.99,234.05 L640.49,234.05 L641.00,234.05 L641.50,234.05 L642.00,234.05 L642.50,234.05 L643.00,234.05 L643.50,234.05 L644.00,234.05 L644.50,234.05 L645.00,234.05 L645.50,234.05 L646.00,234.05 L646.50,234.05 L647.00,234.05" style="stroke-width: 1; stroke: rgb(16, 224, 211);"/><path d=" M20.00,234.05 L20.50,234.05 L21.00,234.05 L21.50,234.05 L22.00,234.05 L22.50,234.05 L23.00,234.05 L23.50,234.05 L24.00,234.05 L24.50,234.05 L25.00,234.05 L25.50,234.05 L26.00,234.05 L26.51,234.05 L27.01,234.05 L27.51,234.05 L28.01,234.05 L28.51,234.05 L29.01,234.05 L29.51,234.05 L30.01,234.05 L30.51,234.05 L31.01,234.05 L31.51,234.05 L32.01,234.05 L32.51,234.05 L33.01,234.05 L33.51,234.05 L34.01,234.05 L34.51,234.05 L35.01,234.05 L35.51,234.05 L36.01,234.05 L36.51,234.05 L37.01,234.05 L37.51,234.05 L38.01,234.05 L38.51,234.05 L39.02,234.05 L39.52,234.05 L40.02,234.05 L40.52,234.05 L41.02,234.05 L41.52,234.05 L42.02,234.05 L42.52,234.05 L43.02,234.05 L43.52,234.05 L44.02,234.05 L44.52,234.05 L45.02,234.05 L45.52,234.05 L46.02,234.05 L46.52,234.05 L47.02,234.05 L47.52,234.05 L48.02,234.05 L48.52,234.05 L49.02,234.05 L49.52,234.05 L50.02,234.05 L50.52,234.05 L51.02,234.05 L51.53,234.05 L52.03,234.05 L52.53,234.05 L53.03,234.05 L53.53,234.05 L54.03,234.05 L54.53,234.05 L55.03,234.05 L55.53,234.05 L56.03,234.05 L56.53,234.05 L57.03,234.05 L57.53,234.05 L58.03,234.05 L58.53,234.05 L59.03,234.05 L59.53,234.05 L60.03,234.05 L60.53,234.05 L61.03,234.05 L61.53,234.05 L62.03,234.05 L62.53,234.05 L63.03,234.05 L63.53,234.05 L64.04,234.05 L64.54,234.05 L65.04,234.05 L65.54,234.05 L66.04,234.05 L66.54,234.05 L67.04,234.05 L67.54,234.05 L68.04,234.05 L68.54,234.05 L69.04,234.05 L69.54,234.05 L70.04,234.05 L70.54,234.05 L71.04,234.05 L71.54,234.05 L72.04,234.05 L72.54,234.05 L73.04,234.05 L73.54,234.05 L74.04,234.05 L74.54,234.05 L75.04,234.05 L75.54,234.05 L76.04,234.05 L76.55,234.05 L77.05,234.05 L77.55,234.05 L78.05,234.05 L78.55,234.05 L79.05,234.05 L79.55,234.05 L80.05,234.05 L80.55,234.05 L81.05,234.05 L81.55,234.05 L82.05,234.05 L82.55,234.05 L83.05,234.05 L83.55,234.05 L84.05,234.05 L84.55,234.05 L85.05,234.05 L85.55,234.05 L86.05,234.05 L86.55,234.05 L87.05,234.05 L87.55,234.05 L88.05,234.05 L88.55,234.05 L89.06,234.05 L89.56,234.05 L90.06,234.05 L90.56,234.05 L91.06,234.05 L91.56,234.05 L92.06,234.05 L92.56,234.05 L93.06,234.05 L93.56,234.05 L94.06,234.05 L94.56,234.05 L95.06,234.05 L95.56,234.05 L96.06,234.05 L96.56,234.05 L97.06,234.05 L97.56,234.05 L98.06,234.05 L98.56,234.05 L99.06,234.05 L99.56,234.05 L100.06,234.05 L100.56,234.05 L101.06,234.05 L101.57,234.05 L102.07,234.05 L102.57,234.05 L103.07,234.05 L103.57,234.05 L104.07,234.05 L104.57,234.05 L105.07,234.05 L105.57,234.05 L106.07,234.05 L106.57,234.05 L107.07,234.05 L107.57,234.05 L108.07,234.05 L108.57,234.05 L109.07,234.05 L109.57,234.05 L110.07,234.05 L110.57,234.05 L111.07,234.05 L111.57,234.05 L112.07,234.05 L112.57,234.05 L113.07,234.05 L113.57,234.05 L114.08,234.05 L114.58,234.05 L115.08,234.05 L115.58,234.05 L116.08,234.05 L116.58,234.05 L117.08,234.05 L117.58,234.05 L118.08,234.05 L118.58,234.05 L119.08,234.05 L119.58,234.05 L120.08,234.05 L120.58,234.05 L121.08,234.05 L121.58,234.05 L122.08,234.05 L122.58,234.05 L123.08,234.05 L123.58,234.05 L124.08,234.05 L124.58,234.05 L125.08,234.05 L125.58,234.05 L126.08,234.05 L126.58,234.05 L127.09,234.05 L127.59,234.05 L128.09,234.05 L128.59,234.05 L129.09,234.05 L129.59,234.05 L130.09,234.05 L130.59,234.05 L131.09,234.05 L131.59,234.05 L132.09,234.05 L132.59,234.05 L133.09,234.05 L133.59,234.05 L134.09,234.05 L134.59,234.05 L135.09,234.05 L135.59,234.05 L136.09,234.05 L136.59,234.05 L137.09,234.05 L137.59,234.05 L138.09,234.05 L138.59,234.05 L139.09,234.05 L139.60,234.05 L140.10,234.05 L140.60,234.05 L141.10,234.05 L141.60,234.05 L142.10,234.05 L142.60,234.05 L143.10,234.05 L143.60,234.05 L144.10,234.05 L144.60,234.05 L145.10,234.05 L145.60,234.05 L146.10,234.04 L146.60,234.04 L147.10,234.04 L147.60,234.04 L148.10,234.04 L148.60,234.04 L149.10,234.04 L149.60,234.04 L150.10,234.04 L150.60,234.04 L151.10,234.04 L151.60,234.04 L152.11,234.04 L152.61,234.04 L153.11,234.04 L153.61,234.04 L154.11,234.04 L154.61,234.04 L155.11,234.04 L155.61,234.04 L156.11,234.04 L156.61,234.04 L157.11,234.04 L157.61,234.04 L158.11,234.04 L158.61,234.04 L159.11,234.04 L159.61,234.04 L160.11,234.04 L160.61,234.04 L161.11,234.04 L161.61,234.04 L162.11,234.04 L162.61,234.04 L163.11,234.04 L163.61,234.04 L164.11,234.04 L164.62,234.04 L165.12,234.04 L165.62,234.03 L166.12,234.03 L166.62,234.03 L167.12,234.03 L167.62,234.03 L168.12,234.03 L168.62,234.03 L169.12,234.03 L169.62,234.03 L170.12,234.03 L170.62,234.03 L171.12,234.02 L171.62,234.02 L172.12,234.02 L172.62,234.02 L173.12,234.02 L173.62,234.02 L174.12,234.02 L174.62,234.02 L175.12,234.01 L175.62,234.01 L176.12,234.01 L176.62,234.01 L177.13,234.01 L177.63,234.00 L178.13,234.00 L178.63,234.00 L179.13,234.00 L179.63,233.99 L180.13,233.99 L180.63,233.99 L181.13,233.98 L181.63,233.98 L182.13,233.98 L182.63,233.97 L183.13,233.97 L183.63,233.97 L184.13,233.96 L184.63,233.96 L185.13,233.95 L185.63,233.95 L186.13,233.94 L186.63,233.94 L187.13,233.93 L187.63,233.93 L188.13,233.92 L188.63,233.92 L189.13,233.91 L189.64,233.90 L190.14,233.90 L190.64,233.89 L191.14,233.88 L191.64,233.87 L192.14,233.86 L192.64,233.85 L193.14,233.85 L193.64,233.84 L194.14,233.83 L194.64,233.81 L195.14,233.80 L195.64,233.79 L196.14,233.78 L196.64,233.77 L197.14,233.75 L197.64,233.74 L198.14,233.73 L198.64,233.71 L199.14,233.70 L199.64,233.68 L200.14,233.66 L200.64,233.65 L201.14,233.63 L201.64,233.61 L202.15,233.59 L202.65,233.57 L203.15,233.55 L203.65,233.52 L204.15,233.50 L204.65,233.48 L205.15,233.45 L205.65,233.42 L206.15,233.40 L206.65,233.37 L207.15,233.34 L207.65,233.31 L208.15,233.28 L208.65,233.25 L209.15,233.21 L209.65,233.18 L210.15,233.14 L210.65,233.10 L211.15,233.06 L211.65,233.02 L212.15,232.98 L212.65,232.93 L213.15,232.89 L213.65,232.84 L214.15,232.79 L214.66,232.74 L215.16,232.69 L215.66,232.63 L216.16,232.58 L216.66,232.52 L217.16,232.46 L217.66,232.40 L218.16,232.33 L218.66,232.26 L219.16,232.19 L219.66,232.12 L220.16,232.05 L220.66,231.97 L221.16,231.89 L221.66,231.81 L222.16,231.73 L222.66,231.64 L223.16,231.55 L223.66,231.46 L224.16,231.36 L224.66,231.26 L225.16,231.16 L225.66,231.05 L226.16,230.95 L226.66,230.83 L227.17,230.72 L227.67,230.60 L228.17,230.48 L228.67,230.35 L229.17,230.22 L229.67,230.09 L230.17,229.95 L230.67,229.81 L231.17,229.66 L231.67,229.51 L232.17,229.36 L232.67,229.20 L233.17,229.04 L233.67,228.87 L234.17,228.69 L234.67,228.52 L235.17,228.34 L235.67,228.15 L236.17,227.96 L236.67,227.76 L237.17,227.56 L237.67,227.35 L238.17,227.14 L238.67,226.92 L239.17,226.69 L239.68,226.46 L240.18,226.23 L240.68,225.99 L241.18,225.74 L241.68,225.48 L242.18,225.22 L242.68,224.96 L243.18,224.68 L243.68,224.41 L244.18,224.12 L244.68,223.83 L245.18,223.53 L245.68,223.22 L246.18,222.91 L246.68,222.59 L247.18,222.26 L247.68,221.93 L248.18,221.59 L248.68,221.24 L249.18,220.89 L249.68,220.52 L250.18,220.15 L250.68,219.77 L251.18,219.39 L251.68,218.99 L252.19,218.59 L252.69,218.18 L253.19,217.76 L253.69,217.34 L254.19,216.91 L254.69,216.46 L255.19,216.01 L255.69,215.56 L256.19,215.09 L256.69,214.62 L257.19,214.13 L257.69,213.64 L258.19,213.14 L258.69,212.64 L259.19,212.12 L259.69,211.59 L260.19,211.06 L260.69,210.52 L261.19,209.97 L261.69,209.41 L262.19,208.84 L262.69,208.27 L263.19,207.69 L263.69,207.09 L264.19,206.49 L264.70,205.88 L265.20,205.27 L265.70,204.64 L266.20,204.01 L266.70,203.37 L267.20,202.72 L267.70,202.06 L268.20,201.39 L268.70,200.72 L269.20,200.04 L269.70,199.35 L270.20,198.65 L270.70,197.95 L271.20,197.24 L271.70,196.52 L272.20,195.79 L272.70,195.06 L273.20,194.32 L273.70,193.57 L274.20,192.81 L274.70,192.05 L275.20,191.29 L275.70,190.51 L276.20,189.74 L276.70,188.95 L277.21,188.16 L277.71,187.36 L278.21,186.56 L278.71,185.76 L279.21,184.94 L279.71,184.13 L280.21,183.31 L280.71,182.48 L281.21,181.65 L281.71,180.82 L282.21,179.98 L282.71,179.14 L283.21,178.30 L283.71,177.46 L284.21,176.61 L284.71,175.76 L285.21,174.90 L285.71,174.05 L286.21,173.19 L286.71,172.34 L287.21,171.48 L287.71,170.62 L288.21,169.76 L288.71,168.91 L289.21,168.05 L289.72,167.19 L290.22,166.33 L290.72,165.48 L291.22,164.63 L291.72,163.77 L292.22,162.92 L292.72,162.08 L293.22,161.23 L293.72,160.39 L294.22,159.56 L294.72,158.72 L295.22,157.90 L295.72,157.07 L296.22,156.25 L296.72,155.44 L297.22,154.63 L297.72,153.83 L298.22,153.04 L298.72,152.25 L299.22,151.47 L299.72,150.69 L300.22,149.93 L300.72,149.17 L301.22,148.42 L301.72,147.68 L302.23,146.95 L302.73,146.22 L303.23,145.51 L303.73,144.81 L304.23,144.12 L304.73,143.44 L305.23,142.77 L305.73,142.11 L306.23,141.47 L306.73,140.83 L307.23,140.21 L307.73,139.60 L308.23,139.01 L308.73,138.43 L309.23,137.86 L309.73,137.30 L310.23,136.76 L310.73,136.24 L311.23,135.73 L311.73,135.23 L312.23,134.75 L312.73,134.28 L313.23,133.83 L313.73,133.40 L314.23,132.98 L314.74,132.58 L315.24,132.20 L315.74,131.83 L316.24,131.48 L316.74,131.15 L317.24,130.83 L317.74,130.53 L318.24,130.25 L318.74,129.99 L319.24,129.74 L319.74,129.52 L320.24,129.31 L320.74,129.12 L321.24,128.95 L321.74,128.80 L322.24,128.66 L322.74,128.55 L323.24,128.45 L323.74,128.37 L324.24,128.31 L324.74,128.27 L325.24,128.25 L325.74,128.25 L326.24,128.27 L326.74,128.30 L327.25,128.36 L327.75,128.43 L328.25,128.52 L328.75,128.63 L329.25,128.76 L329.75,128.91 L330.25,129.08 L330.75,129.26 L331.25,129.47 L331.75,129.69 L332.25,129.93 L332.75,130.19 L333.25,130.46 L333.75,130.76 L334.25,131.07 L334.75,131.40 L335.25,131.74 L335.75,132.11 L336.25,132.49 L336.75,132.88 L337.25,133.30 L337.75,133.73 L338.25,134.17 L338.75,134.63 L339.25,135.11 L339.75,135.60 L340.26,136.11 L340.76,136.63 L341.26,137.17 L341.76,137.72 L342.26,138.29 L342.76,138.87 L343.26,139.46 L343.76,140.06 L344.26,140.68 L344.76,141.31 L345.26,141.96 L345.76,142.61 L346.26,143.28 L346.76,143.95 L347.26,144.64 L347.76,145.34 L348.26,146.05 L348.76,146.77 L349.26,147.50 L349.76,148.24 L350.26,148.99 L350.76,149.74 L351.26,150.51 L351.76,151.28 L352.26,152.06 L352.77,152.85 L353.27,153.64 L353.77,154.44 L354.27,155.24 L354.77,156.06 L355.27,156.87 L355.77,157.70 L356.27,158.52 L356.77,159.36 L357.27,160.19 L357.77,161.03 L358.27,161.87 L358.77,162.72 L359.27,163.57 L359.77,164.42 L360.27,165.27 L360.77,166.13 L361.27,166.98 L361.77,167.84 L362.27,168.70 L362.77,169.56 L363.27,170.42 L363.77,171.27 L364.27,172.13 L364.77,172.99 L365.28,173.84 L365.78,174.70 L366.28,175.55 L366.78,176.40 L367.28,177.25 L367.78,178.10 L368.28,178.94 L368.78,179.78 L369.28,180.62 L369.78,181.45 L370.28,182.28 L370.78,183.11 L371.28,183.93 L371.78,184.75 L372.28,185.56 L372.78,186.37 L373.28,187.17 L373.78,187.97 L374.28,188.76 L374.78,189.55 L375.28,190.33 L375.78,191.10 L376.28,191.87 L376.78,192.63 L377.28,193.39 L377.79,194.14 L378.29,194.88 L378.79,195.61 L379.29,196.34 L379.79,197.06 L380.29,197.78 L380.79,198.48 L381.29,199.18 L381.79,199.87 L382.29,200.56 L382.79,201.23 L383.29,201.90 L383.79,202.56 L384.29,203.21 L384.79,203.85 L385.29,204.49 L385.79,205.12 L386.29,205.74 L386.79,206.35 L387.29,206.95 L387.79,207.54 L388.29,208.13 L388.79,208.71 L389.29,209.28 L389.79,209.84 L390.30,210.39 L390.80,210.93 L391.30,211.47 L391.80,211.99 L392.30,212.51 L392.80,213.02 L393.30,213.52 L393.80,214.02 L394.30,214.50 L394.80,214.98 L395.30,215.45 L395.80,215.91 L396.30,216.36 L396.80,216.80 L397.30,217.24 L397.80,217.66 L398.30,218.08 L398.80,218.49 L399.30,218.90 L399.80,219.29 L400.30,219.68 L400.80,220.06 L401.30,220.43 L401.80,220.80 L402.30,221.16 L402.81,221.51 L403.31,221.85 L403.81,222.18 L404.31,222.51 L404.81,222.83 L405.31,223.15 L405.81,223.46 L406.31,223.76 L406.81,224.05 L407.31,224.34 L407.81,224.62 L408.31,224.89 L408.81,225.16 L409.31,225.42 L409.81,225.68 L410.31,225.93 L410.81,226.17 L411.31,226.41 L411.81,226.64 L412.31,226.86 L412.81,227.08 L413.31,227.30 L413.81,227.51 L414.31,227.71 L414.81,227.91 L415.32,228.10 L415.82,228.29 L416.32,228.47 L416.82,228.65 L417.32,228.83 L417.82,229.00 L418.32,229.16 L418.82,229.32 L419.32,229.47 L419.82,229.63 L420.32,229.77 L420.82,229.92 L421.32,230.05 L421.82,230.19 L422.32,230.32 L422.82,230.45 L423.32,230.57 L423.82,230.69 L424.32,230.81 L424.82,230.92 L425.32,231.03 L425.82,231.13 L426.32,231.24 L426.82,231.34 L427.32,231.43 L427.83,231.53 L428.33,231.62 L428.83,231.71 L429.33,231.79 L429.83,231.87 L430.33,231.95 L430.83,232.03 L431.33,232.10 L431.83,232.18 L432.33,232.25 L432.83,232.31 L433.33,232.38 L433.83,232.44 L434.33,232.50 L434.83,232.56 L435.33,232.62 L435.83,232.67 L436.33,232.73 L436.83,232.78 L437.33,232.83 L437.83,232.88 L438.33,232.92 L438.83,232.97 L439.33,233.01 L439.83,233.05 L440.34,233.09 L440.84,233.13 L441.34,233.17 L441.84,233.20 L442.34,233.24 L442.84,233.27 L443.34,233.30 L443.84,233.33 L444.34,233.36 L444.84,233.39 L445.34,233.42 L445.84,233.44 L446.34,233.47 L446.84,233.49 L447.34,233.52 L447.84,233.54 L448.34,233.56 L448.84,233.58 L449.34,233.60 L449.84,233.62 L450.34,233.64 L450.84,233.66 L451.34,233.68 L451.84,233.69 L452.34,233.71 L452.85,233.72 L453.35,233.74 L453.85,233.75 L454.35,233.76 L454.85,233.78 L455.35,233.79 L455.85,233.80 L456.35,233.81 L456.85,233.82 L457.35,233.83 L457.85,233.84 L458.35,233.85 L458.85,233.86 L459.35,233.87 L459.85,233.88 L460.35,233.89 L460.85,233.89 L461.35,233.90 L461.85,233.91 L462.35,233.91 L462.85,233.92 L463.35,233.93 L463.85,233.93 L464.35,233.94 L464.85,233.94 L465.36,233.95 L465.86,233.95 L466.36,233.96 L466.86,233.96 L467.36,233.97 L467.86,233.97 L468.36,233.97 L468.86,233.98 L469.36,233.98 L469.86,233.98 L470.36,233.99 L470.86,233.99 L471.36,233.99 L471.86,234.00 L472.36,234.00 L472.86,234.00 L473.36,234.00 L473.86,234.01 L474.36,234.01 L474.86,234.01 L475.36,234.01 L475.86,234.01 L476.36,234.01 L476.86,234.02 L477.36,234.02 L477.87,234.02 L478.37,234.02 L478.87,234.02 L479.37,234.02 L479.87,234.02 L480.37,234.03 L480.87,234.03 L481.37,234.03 L481.87,234.03 L482.37,234.03 L482.87,234.03 L483.37,234.03 L483.87,234.03 L484.37,234.03 L484.87,234.03 L485.37,234.03 L485.87,234.04 L486.37,234.04 L486.87,234.04 L487.37,234.04 L487.87,234.04 L488.37,234.04 L488.87,234.04 L489.37,234.04 L489.87,234.04 L490.38,234.04 L490.88,234.04 L491.38,234.04 L491.88,234.04 L492.38,234.04 L492.88,234.04 L493.38,234.04 L493.88,234.04 L494.38,234.04 L494.88,234.04 L495.38,234.04 L495.88,234.04 L496.38,234.04 L496.88,234.04 L497.38,234.04 L497.88,234.04 L498.38,234.04 L498.88,234.04 L499.38,234.04 L499.88,234.04 L500.38,234.04 L500.88,234.04 L501.38,234.04 L501.88,234.04 L502.38,234.04 L502.89,234.04 L503.39,234.04 L503.89,234.04 L504.39,234.04 L504.89,234.04 L505.39,234.05 L505.89,234.05 L506.39,234.05 L506.89,234.05 L507.39,234.05 L507.89,234.05 L508.39,234.05 L508.89,234.05 L509.39,234.05 L509.89,234.05 L510.39,234.05 L510.89,234.05 L511.39,234.05 L511.89,234.05 L512.39,234.05 L512.89,234.05 L513.39,234.05 L513.89,234.05 L514.39,234.05 L514.89,234.05 L515.40,234.05 L515.90,234.05 L516.40,234.05 L516.90,234.05 L517.40,234.05 L517.90,234.05 L518.40,234.05 L518.90,234.05 L519.40,234.05 L519.90,234.05 L520.40,234.05 L520.90,234.05 L521.40,234.05 L521.90,234.05 L522.40,234.05 L522.90,234.05 L523.40,234.05 L523.90,234.05 L524.40,234.05 L524.90,234.05 L525.40,234.05 L525.90,234.05 L526.40,234.05 L526.90,234.05 L527.40,234.05 L527.91,234.05 L528.41,234.05 L528.91,234.05 L529.41,234.05 L529.91,234.05 L530.41,234.05 L530.91,234.05 L531.41,234.05 L531.91,234.05 L532.41,234.05 L532.91,234.05 L533.41,234.05 L533.91,234.05 L534.41,234.05 L534.91,234.05 L535.41,234.05 L535.91,234.05 L536.41,234.05 L536.91,234.05 L537.41,234.05 L537.91,234.05 L538.41,234.05 L538.91,234.05 L539.41,234.05 L539.91,234.05 L540.42,234.05 L540.92,234.05 L541.42,234.05 L541.92,234.05 L542.42,234.05 L542.92,234.05 L543.42,234.05 L543.92,234.05 L544.42,234.05 L544.92,234.05 L545.42,234.05 L545.92,234.05 L546.42,234.05 L546.92,234.05 L547.42,234.05 L547.92,234.05 L548.42,234.05 L548.92,234.05 L549.42,234.05 L549.92,234.05 L550.42,234.05 L550.92,234.05 L551.42,234.05 L551.92,234.05 L552.42,234.05 L552.92,234.05 L553.43,234.05 L553.93,234.05 L554.43,234.05 L554.93,234.05 L555.43,234.05 L555.93,234.05 L556.43,234.05 L556.93,234.05 L557.43,234.05 L557.93,234.05 L558.43,234.05 L558.93,234.05 L559.43,234.05 L559.93,234.05 L560.43,234.05 L560.93,234.05 L561.43,234.05 L561.93,234.05 L562.43,234.05 L562.93,234.05 L563.43,234.05 L563.93,234.05 L564.43,234.05 L564.93,234.05 L565.43,234.05 L565.94,234.05 L566.44,234.05 L566.94,234.05 L567.44,234.05 L567.94,234.05 L568.44,234.05 L568.94,234.05 L569.44,234.05 L569.94,234.05 L570.44,234.05 L570.94,234.05 L571.44,234.05 L571.94,234.05 L572.44,234.05 L572.94,234.05 L573.44,234.05 L573.94,234.05 L574.44,234.05 L574.94,234.05 L575.44,234.05 L575.94,234.05 L576.44,234.05 L576.94,234.05 L577.44,234.05 L577.94,234.05 L578.45,234.05 L578.95,234.05 L579.45,234.05 L579.95,234.05 L580.45,234.05 L580.95,234.05 L581.45,234.05 L581.95,234.05 L582.45,234.05 L582.95,234.05 L583.45,234.05 L583.95,234.05 L584.45,234.05 L584.95,234.05 L585.45,234.05 L585.95,234.05 L586.45,234.05 L586.95,234.05 L587.45,234.05 L587.95,234.05 L588.45,234.05 L588.95,234.05 L589.45,234.05 L589.95,234.05 L590.45,234.05 L590.96,234.05 L591.46,234.05 L591.96,234.05 L592.46,234.05 L592.96,234.05 L593.46,234.05 L593.96,234.05 L594.46,234.05 L594.96,234.05 L595.46,234.05 L595.96,234.05 L596.46,234.05 L596.96,234.05 L597.46,234.05 L597.96,234.05 L598.46,234.05 L598.96,234.05 L599.46,234.05 L599.96,234.05 L600.46,234.05 L600.96,234.05 L601.46,234.05 L601.96,234.05 L602.46,234.05 L602.96,234.05 L603.47,234.05 L603.97,234.05 L604.47,234.05 L604.97,234.05 L605.47,234.05 L605.97,234.05 L606.47,234.05 L606.97,234.05 L607.47,234.05 L607.97,234.05 L608.47,234.05 L608.97,234.05 L609.47,234.05 L609.97,234.05 L610.47,234.05 L610.97,234.05 L611.47,234.05 L611.97,234.05 L612.47,234.05 L612.97,234.05 L613.47,234.05 L613.97,234.05 L614.47,234.05 L614.97,234.05 L615.47,234.05 L615.98,234.05 L616.48,234.05 L616.98,234.05 L617.48,234.05 L617.98,234.05 L618.48,234.05 L618.98,234.05 L619.48,234.05 L619.98,234.05 L620.48,234.05 L620.98,234.05 L621.48,234.05 L621.98,234.05 L622.48,234.05 L622.98,234.05 L623.48,234.05 L623.98,234.05 L624.48,234.05 L624.98,234.05 L625.48,234.05 L625.98,234.05 L626.48,234.05 L626.98,234.05 L627.48,234.05 L627.98,234.05 L628.49,234.05 L628.99,234.05 L629.49,234.05 L629.99,234.05 L630.49,234.05 L630.99,234.05 L631.49,234.05 L631.99,234.05 L632.49,234.05 L632.99,234.05 L633.49,234.05 L633.99,234.05 L634.49,234.05 L634.99,234.05 L635.49,234.05 L635.99,234.05 L636.49,234.05 L636.99,234.05 L637.49,234.05 L637.99,234.05 L638.49,234.05 L638.99,234.05 L639.49,234.05 L639.99,234.05 L640.49,234.05 L641.00,234.05 L641.50,234.05 L642.00,234.05 L642.50,234.05 L643.00,234.05 L643.50,234.05 L644.00,234.05 L644.50,234.05 L645.00,234.05 L645.50,234.05 L646.00,234.05 L646.50,234.05 L647.00,234.05" style="stroke-width: 1; stroke: rgb(74, 144, 226);"/><path d=" M20.00,234.05 L20.50,234.05 L21.00,234.05 L21.50,234.05 L22.00,234.05 L22.50,234.05 L23.00,234.05 L23.50,234.05 L24.00,234.05 L24.50,234.05 L25.00,234.05 L25.50,234.05 L26.00,234.05 L26.51,234.05 L27.01,234.05 L27.51,234.05 L28.01,234.05 L28.51,234.05 L29.01,234.05 L29.51,234.05 L30.01,234.05 L30.51,234.05 L31.01,234.05 L31.51,234.05 L32.01,234.05 L32.51,234.05 L33.01,234.05 L33.51,234.05 L34.01,234.05 L34.51,234.05 L35.01,234.05 L35.51,234.05 L36.01,234.05 L36.51,234.05 L37.01,234.05 L37.51,234.05 L38.01,234.05 L38.51,234.05 L39.02,234.05 L39.52,234.05 L40.02,234.05 L40.52,234.05 L41.02,234.05 L41.52,234.05 L42.02,234.05 L42.52,234.05 L43.02,234.05 L43.52,234.05 L44.02,234.05 L44.52,234.05 L45.02,234.05 L45.52,234.05 L46.02,234.05 L46.52,234.05 L47.02,234.05 L47.52,234.05 L48.02,234.05 L48.52,234.05 L49.02,234.05 L49.52,234.05 L50.02,234.05 L50.52,234.05 L51.02,234.05 L51.53,234.05 L52.03,234.05 L52.53,234.05 L53.03,234.05 L53.53,234.05 L54.03,234.05 L54.53,234.05 L55.03,234.05 L55.53,234.05 L56.03,234.05 L56.53,234.05 L57.03,234.05 L57.53,234.05 L58.03,234.05 L58.53,234.05 L59.03,234.05 L59.53,234.05 L60.03,234.05 L60.53,234.05 L61.03,234.05 L61.53,234.05 L62.03,234.05 L62.53,234.05 L63.03,234.05 L63.53,234.05 L64.04,234.05 L64.54,234.05 L65.04,234.05 L65.54,234.05 L66.04,234.05 L66.54,234.05 L67.04,234.05 L67.54,234.05 L68.04,234.05 L68.54,234.05 L69.04,234.05 L69.54,234.05 L70.04,234.05 L70.54,234.05 L71.04,234.05 L71.54,234.05 L72.04,234.05 L72.54,234.05 L73.04,234.05 L73.54,234.05 L74.04,234.05 L74.54,234.05 L75.04,234.05 L75.54,234.05 L76.04,234.05 L76.55,234.05 L77.05,234.05 L77.55,234.05 L78.05,234.05 L78.55,234.05 L79.05,234.05 L79.55,234.05 L80.05,234.05 L80.55,234.05 L81.05,234.05 L81.55,234.05 L82.05,234.05 L82.55,234.05 L83.05,234.05 L83.55,234.05 L84.05,234.05 L84.55,234.05 L85.05,234.05 L85.55,234.05 L86.05,234.05 L86.55,234.05 L87.05,234.05 L87.55,234.05 L88.05,234.05 L88.55,234.05 L89.06,234.05 L89.56,234.05 L90.06,234.05 L90.56,234.05 L91.06,234.05 L91.56,234.05 L92.06,234.05 L92.56,234.05 L93.06,234.05 L93.56,234.05 L94.06,234.05 L94.56,234.05 L95.06,234.05 L95.56,234.05 L96.06,234.05 L96.56,234.05 L97.06,234.05 L97.56,234.05 L98.06,234.05 L98.56,234.05 L99.06,234.05 L99.56,234.05 L100.06,234.05 L100.56,234.05 L101.06,234.05 L101.57,234.05 L102.07,234.05 L102.57,234.05 L103.07,234.05 L103.57,234.05 L104.07,234.05 L104.57,234.05 L105.07,234.05 L105.57,234.05 L106.07,234.05 L106.57,234.05 L107.07,234.05 L107.57,234.05 L108.07,234.05 L108.57,234.05 L109.07,234.05 L109.57,234.05 L110.07,234.05 L110.57,234.05 L111.07,234.05 L111.57,234.05 L112.07,234.05 L112.57,234.05 L113.07,234.05 L113.57,234.05 L114.08,234.05 L114.58,234.05 L115.08,234.05 L115.58,234.05 L116.08,234.05 L116.58,234.05 L117.08,234.05 L117.58,234.05 L118.08,234.05 L118.58,234.05 L119.08,234.05 L119.58,234.05 L120.08,234.05 L120.58,234.05 L121.08,234.05 L121.58,234.05 L122.08,234.05 L122.58,234.05 L123.08,234.05 L123.58,234.05 L124.08,234.05 L124.58,234.05 L125.08,234.05 L125.58,234.05 L126.08,234.05 L126.58,234.05 L127.09,234.05 L127.59,234.05 L128.09,234.05 L128.59,234.05 L129.09,234.05 L129.59,234.05 L130.09,234.05 L130.59,234.05 L131.09,234.05 L131.59,234.05 L132.09,234.05 L132.59,234.05 L133.09,234.05 L133.59,234.05 L134.09,234.05 L134.59,234.05 L135.09,234.05 L135.59,234.05 L136.09,234.05 L136.59,234.05 L137.09,234.05 L137.59,234.05 L138.09,234.05 L138.59,234.05 L139.09,234.05 L139.60,234.05 L140.10,234.05 L140.60,234.05 L141.10,234.05 L141.60,234.05 L142.10,234.05 L142.60,234.05 L143.10,234.05 L143.60,234.05 L144.10,234.05 L144.60,234.05 L145.10,234.04 L145.60,234.04 L146.10,234.04 L146.60,234.04 L147.10,234.04 L147.60,234.04 L148.10,234.04 L148.60,234.04 L149.10,234.04 L149.60,234.04 L150.10,234.04 L150.60,234.04 L151.10,234.04 L151.60,234.04 L152.11,234.04 L152.61,234.04 L153.11,234.04 L153.61,234.04 L154.11,234.04 L154.61,234.04 L155.11,234.04 L155.61,234.04 L156.11,234.04 L156.61,234.04 L157.11,234.04 L157.61,234.04 L158.11,234.03 L158.61,234.03 L159.11,234.03 L159.61,234.03 L160.11,234.03 L160.61,234.03 L161.11,234.03 L161.61,234.03 L162.11,234.02 L162.61,234.02 L163.11,234.02 L163.61,234.02 L164.11,234.02 L164.62,234.01 L165.12,234.01 L165.62,234.01 L166.12,234.01 L166.62,234.00 L167.12,234.00 L167.62,234.00 L168.12,233.99 L168.62,233.99 L169.12,233.98 L169.62,233.98 L170.12,233.97 L170.62,233.97 L171.12,233.96 L171.62,233.95 L172.12,233.95 L172.62,233.94 L173.12,233.93 L173.62,233.92 L174.12,233.91 L174.62,233.90 L175.12,233.89 L175.62,233.88 L176.12,233.87 L176.62,233.86 L177.13,233.84 L177.63,233.83 L178.13,233.81 L178.63,233.79 L179.13,233.78 L179.63,233.76 L180.13,233.74 L180.63,233.72 L181.13,233.69 L181.63,233.67 L182.13,233.64 L182.63,233.62 L183.13,233.59 L183.63,233.56 L184.13,233.52 L184.63,233.49 L185.13,233.45 L185.63,233.41 L186.13,233.37 L186.63,233.33 L187.13,233.28 L187.63,233.23 L188.13,233.18 L188.63,233.12 L189.13,233.07 L189.64,233.00 L190.14,232.94 L190.64,232.87 L191.14,232.80 L191.64,232.72 L192.14,232.64 L192.64,232.56 L193.14,232.47 L193.64,232.37 L194.14,232.28 L194.64,232.17 L195.14,232.06 L195.64,231.95 L196.14,231.83 L196.64,231.70 L197.14,231.57 L197.64,231.43 L198.14,231.28 L198.64,231.12 L199.14,230.96 L199.64,230.79 L200.14,230.62 L200.64,230.43 L201.14,230.24 L201.64,230.03 L202.15,229.82 L202.65,229.60 L203.15,229.37 L203.65,229.12 L204.15,228.87 L204.65,228.60 L205.15,228.33 L205.65,228.04 L206.15,227.74 L206.65,227.43 L207.15,227.10 L207.65,226.77 L208.15,226.41 L208.65,226.05 L209.15,225.67 L209.65,225.27 L210.15,224.86 L210.65,224.43 L211.15,223.99 L211.65,223.53 L212.15,223.05 L212.65,222.56 L213.15,222.04 L213.65,221.51 L214.15,220.97 L214.66,220.40 L215.16,219.81 L215.66,219.20 L216.16,218.57 L216.66,217.93 L217.16,217.26 L217.66,216.57 L218.16,215.85 L218.66,215.12 L219.16,214.36 L219.66,213.58 L220.16,212.78 L220.66,211.95 L221.16,211.10 L221.66,210.23 L222.16,209.33 L222.66,208.40 L223.16,207.46 L223.66,206.48 L224.16,205.48 L224.66,204.46 L225.16,203.41 L225.66,202.34 L226.16,201.24 L226.66,200.11 L227.17,198.96 L227.67,197.78 L228.17,196.58 L228.67,195.35 L229.17,194.09 L229.67,192.81 L230.17,191.50 L230.67,190.17 L231.17,188.81 L231.67,187.43 L232.17,186.03 L232.67,184.59 L233.17,183.14 L233.67,181.66 L234.17,180.16 L234.67,178.63 L235.17,177.09 L235.67,175.52 L236.17,173.93 L236.67,172.32 L237.17,170.68 L237.67,169.03 L238.17,167.37 L238.67,165.68 L239.17,163.97 L239.68,162.25 L240.18,160.52 L240.68,158.77 L241.18,157.00 L241.68,155.23 L242.18,153.44 L242.68,151.64 L243.18,149.84 L243.68,148.02 L244.18,146.20 L244.68,144.37 L245.18,142.53 L245.68,140.70 L246.18,138.86 L246.68,137.02 L247.18,135.18 L247.68,133.34 L248.18,131.51 L248.68,129.68 L249.18,127.86 L249.68,126.04 L250.18,124.24 L250.68,122.44 L251.18,120.66 L251.68,118.89 L252.19,117.13 L252.69,115.40 L253.19,113.68 L253.69,111.98 L254.19,110.30 L254.69,108.64 L255.19,107.01 L255.69,105.40 L256.19,103.82 L256.69,102.27 L257.19,100.75 L257.69,99.26 L258.19,97.81 L258.69,96.39 L259.19,95.00 L259.69,93.65 L260.19,92.35 L260.69,91.08 L261.19,89.85 L261.69,88.66 L262.19,87.52 L262.69,86.43 L263.19,85.38 L263.69,84.37 L264.19,83.42 L264.70,82.51 L265.20,81.66 L265.70,80.86 L266.20,80.10 L266.70,79.40 L267.20,78.76 L267.70,78.17 L268.20,77.63 L268.70,77.15 L269.20,76.72 L269.70,76.36 L270.20,76.04 L270.70,75.79 L271.20,75.59 L271.70,75.45 L272.20,75.37 L272.70,75.35 L273.20,75.38 L273.70,75.48 L274.20,75.63 L274.70,75.83 L275.20,76.10 L275.70,76.42 L276.20,76.80 L276.70,77.24 L277.21,77.73 L277.71,78.27 L278.21,78.88 L278.71,79.53 L279.21,80.24 L279.71,81.00 L280.21,81.82 L280.71,82.68 L281.21,83.59 L281.71,84.56 L282.21,85.57 L282.71,86.63 L283.21,87.73 L283.71,88.88 L284.21,90.08 L284.71,91.31 L285.21,92.59 L285.71,93.90 L286.21,95.26 L286.71,96.65 L287.21,98.08 L287.71,99.54 L288.21,101.03 L288.71,102.56 L289.21,104.11 L289.72,105.70 L290.22,107.31 L290.72,108.95 L291.22,110.61 L291.72,112.29 L292.22,114.00 L292.72,115.72 L293.22,117.46 L293.72,119.22 L294.22,120.99 L294.72,122.78 L295.22,124.57 L295.72,126.38 L296.22,128.20 L296.72,130.02 L297.22,131.85 L297.72,133.69 L298.22,135.52 L298.72,137.36 L299.22,139.20 L299.72,141.04 L300.22,142.88 L300.72,144.71 L301.22,146.54 L301.72,148.36 L302.23,150.17 L302.73,151.98 L303.23,153.78 L303.73,155.56 L304.23,157.33 L304.73,159.10 L305.23,160.84 L305.73,162.58 L306.23,164.29 L306.73,165.99 L307.23,167.68 L307.73,169.34 L308.23,170.99 L308.73,172.62 L309.23,174.23 L309.73,175.81 L310.23,177.38 L310.73,178.92 L311.23,180.44 L311.73,181.94 L312.23,183.41 L312.73,184.86 L313.23,186.29 L313.73,187.69 L314.23,189.07 L314.74,190.42 L315.24,191.75 L315.74,193.05 L316.24,194.33 L316.74,195.58 L317.24,196.80 L317.74,198.00 L318.24,199.18 L318.74,200.32 L319.24,201.44 L319.74,202.54 L320.24,203.61 L320.74,204.65 L321.24,205.67 L321.74,206.67 L322.24,207.63 L322.74,208.58 L323.24,209.50 L323.74,210.39 L324.24,211.26 L324.74,212.11 L325.24,212.93 L325.74,213.73 L326.24,214.50 L326.74,215.26 L327.25,215.99 L327.75,216.70 L328.25,217.38 L328.75,218.05 L329.25,218.69 L329.75,219.32 L330.25,219.92 L330.75,220.50 L331.25,221.07 L331.75,221.61 L332.25,222.14 L332.75,222.65 L333.25,223.14 L333.75,223.62 L334.25,224.07 L334.75,224.51 L335.25,224.94 L335.75,225.34 L336.25,225.74 L336.75,226.12 L337.25,226.48 L337.75,226.83 L338.25,227.17 L338.75,227.49 L339.25,227.80 L339.75,228.10 L340.26,228.38 L340.76,228.66 L341.26,228.92 L341.76,229.17 L342.26,229.41 L342.76,229.64 L343.26,229.86 L343.76,230.07 L344.26,230.27 L344.76,230.47 L345.26,230.65 L345.76,230.83 L346.26,230.99 L346.76,231.15 L347.26,231.31 L347.76,231.45 L348.26,231.59 L348.76,231.72 L349.26,231.85 L349.76,231.97 L350.26,232.08 L350.76,232.19 L351.26,232.29 L351.76,232.39 L352.26,232.49 L352.77,232.57 L353.27,232.66 L353.77,232.74 L354.27,232.81 L354.77,232.88 L355.27,232.95 L355.77,233.02 L356.27,233.08 L356.77,233.13 L357.27,233.19 L357.77,233.24 L358.27,233.29 L358.77,233.34 L359.27,233.38 L359.77,233.42 L360.27,233.46 L360.77,233.49 L361.27,233.53 L361.77,233.56 L362.27,233.59 L362.77,233.62 L363.27,233.65 L363.77,233.67 L364.27,233.70 L364.77,233.72 L365.28,233.74 L365.78,233.76 L366.28,233.78 L366.78,233.80 L367.28,233.81 L367.78,233.83 L368.28,233.84 L368.78,233.86 L369.28,233.87 L369.78,233.88 L370.28,233.89 L370.78,233.90 L371.28,233.91 L371.78,233.92 L372.28,233.93 L372.78,233.94 L373.28,233.95 L373.78,233.95 L374.28,233.96 L374.78,233.97 L375.28,233.97 L375.78,233.98 L376.28,233.98 L376.78,233.99 L377.28,233.99 L377.79,234.00 L378.29,234.00 L378.79,234.00 L379.29,234.01 L379.79,234.01 L380.29,234.01 L380.79,234.01 L381.29,234.02 L381.79,234.02 L382.29,234.02 L382.79,234.02 L383.29,234.02 L383.79,234.03 L384.29,234.03 L384.79,234.03 L385.29,234.03 L385.79,234.03 L386.29,234.03 L386.79,234.03 L387.29,234.04 L387.79,234.04 L388.29,234.04 L388.79,234.04 L389.29,234.04 L389.79,234.04 L390.30,234.04 L390.80,234.04 L391.30,234.04 L391.80,234.04 L392.30,234.04 L392.80,234.04 L393.30,234.04 L393.80,234.04 L394.30,234.04 L394.80,234.04 L395.30,234.04 L395.80,234.04 L396.30,234.04 L396.80,234.04 L397.30,234.04 L397.80,234.04 L398.30,234.04 L398.80,234.04 L399.30,234.04 L399.80,234.04 L400.30,234.04 L400.80,234.05 L401.30,234.05 L401.80,234.05 L402.30,234.05 L402.81,234.05 L403.31,234.05 L403.81,234.05 L404.31,234.05 L404.81,234.05 L405.31,234.05 L405.81,234.05 L406.31,234.05 L406.81,234.05 L407.31,234.05 L407.81,234.05 L408.31,234.05 L408.81,234.05 L409.31,234.05 L409.81,234.05 L410.31,234.05 L410.81,234.05 L411.31,234.05 L411.81,234.05 L412.31,234.05 L412.81,234.05 L413.31,234.05 L413.81,234.05 L414.31,234.05 L414.81,234.05 L415.32,234.05 L415.82,234.05 L416.32,234.05 L416.82,234.05 L417.32,234.05 L417.82,234.05 L418.32,234.05 L418.82,234.05 L419.32,234.05 L419.82,234.05 L420.32,234.05 L420.82,234.05 L421.32,234.05 L421.82,234.05 L422.32,234.05 L422.82,234.05 L423.32,234.05 L423.82,234.05 L424.32,234.05 L424.82,234.05 L425.32,234.05 L425.82,234.05 L426.32,234.05 L426.82,234.05 L427.32,234.05 L427.83,234.05 L428.33,234.05 L428.83,234.05 L429.33,234.05 L429.83,234.05 L430.33,234.05 L430.83,234.05 L431.33,234.05 L431.83,234.05 L432.33,234.05 L432.83,234.05 L433.33,234.05 L433.83,234.05 L434.33,234.05 L434.83,234.05 L435.33,234.05 L435.83,234.05 L436.33,234.05 L436.83,234.05 L437.33,234.05 L437.83,234.05 L438.33,234.05 L438.83,234.05 L439.33,234.05 L439.83,234.05 L440.34,234.05 L440.84,234.05 L441.34,234.05 L441.84,234.05 L442.34,234.05 L442.84,234.05 L443.34,234.05 L443.84,234.05 L444.34,234.05 L444.84,234.05 L445.34,234.05 L445.84,234.05 L446.34,234.05 L446.84,234.05 L447.34,234.05 L447.84,234.05 L448.34,234.05 L448.84,234.05 L449.34,234.05 L449.84,234.05 L450.34,234.05 L450.84,234.05 L451.34,234.05 L451.84,234.05 L452.34,234.05 L452.85,234.05 L453.35,234.05 L453.85,234.05 L454.35,234.05 L454.85,234.05 L455.35,234.05 L455.85,234.05 L456.35,234.05 L456.85,234.05 L457.35,234.05 L457.85,234.05 L458.35,234.05 L458.85,234.05 L459.35,234.05 L459.85,234.05 L460.35,234.05 L460.85,234.05 L461.35,234.05 L461.85,234.05 L462.35,234.05 L462.85,234.05 L463.35,234.05 L463.85,234.05 L464.35,234.05 L464.85,234.05 L465.36,234.05 L465.86,234.05 L466.36,234.05 L466.86,234.05 L467.36,234.05 L467.86,234.05 L468.36,234.05 L468.86,234.05 L469.36,234.05 L469.86,234.05 L470.36,234.05 L470.86,234.05 L471.36,234.05 L471.86,234.05 L472.36,234.05 L472.86,234.05 L473.36,234.05 L473.86,234.05 L474.36,234.05 L474.86,234.05 L475.36,234.05 L475.86,234.05 L476.36,234.05 L476.86,234.05 L477.36,234.05 L477.87,234.05 L478.37,234.05 L478.87,234.05 L479.37,234.05 L479.87,234.05 L480.37,234.05 L480.87,234.05 L481.37,234.05 L481.87,234.05 L482.37,234.05 L482.87,234.05 L483.37,234.05 L483.87,234.05 L484.37,234.05 L484.87,234.05 L485.37,234.05 L485.87,234.05 L486.37,234.05 L486.87,234.05 L487.37,234.05 L487.87,234.05 L488.37,234.05 L488.87,234.05 L489.37,234.05 L489.87,234.05 L490.38,234.05 L490.88,234.05 L491.38,234.05 L491.88,234.05 L492.38,234.05 L492.88,234.05 L493.38,234.05 L493.88,234.05 L494.38,234.05 L494.88,234.05 L495.38,234.05 L495.88,234.05 L496.38,234.05 L496.88,234.05 L497.38,234.05 L497.88,234.05 L498.38,234.05 L498.88,234.05 L499.38,234.05 L499.88,234.05 L500.38,234.05 L500.88,234.05 L501.38,234.05 L501.88,234.05 L502.38,234.05 L502.89,234.05 L503.39,234.05 L503.89,234.05 L504.39,234.05 L504.89,234.05 L505.39,234.05 L505.89,234.05 L506.39,234.05 L506.89,234.05 L507.39,234.05 L507.89,234.05 L508.39,234.05 L508.89,234.05 L509.39,234.05 L509.89,234.05 L510.39,234.05 L510.89,234.05 L511.39,234.05 L511.89,234.05 L512.39,234.05 L512.89,234.05 L513.39,234.05 L513.89,234.05 L514.39,234.05 L514.89,234.05 L515.40,234.05 L515.90,234.05 L516.40,234.05 L516.90,234.05 L517.40,234.05 L517.90,234.05 L518.40,234.05 L518.90,234.05 L519.40,234.05 L519.90,234.05 L520.40,234.05 L520.90,234.05 L521.40,234.05 L521.90,234.05 L522.40,234.05 L522.90,234.05 L523.40,234.05 L523.90,234.05 L524.40,234.05 L524.90,234.05 L525.40,234.05 L525.90,234.05 L526.40,234.05 L526.90,234.05 L527.40,234.05 L527.91,234.05 L528.41,234.05 L528.91,234.05 L529.41,234.05 L529.91,234.05 L530.41,234.05 L530.91,234.05 L531.41,234.05 L531.91,234.05 L532.41,234.05 L532.91,234.05 L533.41,234.05 L533.91,234.05 L534.41,234.05 L534.91,234.05 L535.41,234.05 L535.91,234.05 L536.41,234.05 L536.91,234.05 L537.41,234.05 L537.91,234.05 L538.41,234.05 L538.91,234.05 L539.41,234.05 L539.91,234.05 L540.42,234.05 L540.92,234.05 L541.42,234.05 L541.92,234.05 L542.42,234.05 L542.92,234.05 L543.42,234.05 L543.92,234.05 L544.42,234.05 L544.92,234.05 L545.42,234.05 L545.92,234.05 L546.42,234.05 L546.92,234.05 L547.42,234.05 L547.92,234.05 L548.42,234.05 L548.92,234.05 L549.42,234.05 L549.92,234.05 L550.42,234.05 L550.92,234.05 L551.42,234.05 L551.92,234.05 L552.42,234.05 L552.92,234.05 L553.43,234.05 L553.93,234.05 L554.43,234.05 L554.93,234.05 L555.43,234.05 L555.93,234.05 L556.43,234.05 L556.93,234.05 L557.43,234.05 L557.93,234.05 L558.43,234.05 L558.93,234.05 L559.43,234.05 L559.93,234.05 L560.43,234.05 L560.93,234.05 L561.43,234.05 L561.93,234.05 L562.43,234.05 L562.93,234.05 L563.43,234.05 L563.93,234.05 L564.43,234.05 L564.93,234.05 L565.43,234.05 L565.94,234.05 L566.44,234.05 L566.94,234.05 L567.44,234.05 L567.94,234.05 L568.44,234.05 L568.94,234.05 L569.44,234.05 L569.94,234.05 L570.44,234.05 L570.94,234.05 L571.44,234.05 L571.94,234.05 L572.44,234.05 L572.94,234.05 L573.44,234.05 L573.94,234.05 L574.44,234.05 L574.94,234.05 L575.44,234.05 L575.94,234.05 L576.44,234.05 L576.94,234.05 L577.44,234.05 L577.94,234.05 L578.45,234.05 L578.95,234.05 L579.45,234.05 L579.95,234.05 L580.45,234.05 L580.95,234.05 L581.45,234.05 L581.95,234.05 L582.45,234.05 L582.95,234.05 L583.45,234.05 L583.95,234.05 L584.45,234.05 L584.95,234.05 L585.45,234.05 L585.95,234.05 L586.45,234.05 L586.95,234.05 L587.45,234.05 L587.95,234.05 L588.45,234.05 L588.95,234.05 L589.45,234.05 L589.95,234.05 L590.45,234.05 L590.96,234.05 L591.46,234.05 L591.96,234.05 L592.46,234.05 L592.96,234.05 L593.46,234.05 L593.96,234.05 L594.46,234.05 L594.96,234.05 L595.46,234.05 L595.96,234.05 L596.46,234.05 L596.96,234.05 L597.46,234.05 L597.96,234.05 L598.46,234.05 L598.96,234.05 L599.46,234.05 L599.96,234.05 L600.46,234.05 L600.96,234.05 L601.46,234.05 L601.96,234.05 L602.46,234.05 L602.96,234.05 L603.47,234.05 L603.97,234.05 L604.47,234.05 L604.97,234.05 L605.47,234.05 L605.97,234.05 L606.47,234.05 L606.97,234.05 L607.47,234.05 L607.97,234.05 L608.47,234.05 L608.97,234.05 L609.47,234.05 L609.97,234.05 L610.47,234.05 L610.97,234.05 L611.47,234.05 L611.97,234.05 L612.47,234.05 L612.97,234.05 L613.47,234.05 L613.97,234.05 L614.47,234.05 L614.97,234.05 L615.47,234.05 L615.98,234.05 L616.48,234.05 L616.98,234.05 L617.48,234.05 L617.98,234.05 L618.48,234.05 L618.98,234.05 L619.48,234.05 L619.98,234.05 L620.48,234.05 L620.98,234.05 L621.48,234.05 L621.98,234.05 L622.48,234.05 L622.98,234.05 L623.48,234.05 L623.98,234.05 L624.48,234.05 L624.98,234.05 L625.48,234.05 L625.98,234.05 L626.48,234.05 L626.98,234.05 L627.48,234.05 L627.98,234.05 L628.49,234.05 L628.99,234.05 L629.49,234.05 L629.99,234.05 L630.49,234.05 L630.99,234.05 L631.49,234.05 L631.99,234.05 L632.49,234.05 L632.99,234.05 L633.49,234.05 L633.99,234.05 L634.49,234.05 L634.99,234.05 L635.49,234.05 L635.99,234.05 L636.49,234.05 L636.99,234.05 L637.49,234.05 L637.99,234.05 L638.49,234.05 L638.99,234.05 L639.49,234.05 L639.99,234.05 L640.49,234.05 L641.00,234.05 L641.50,234.05 L642.00,234.05 L642.50,234.05 L643.00,234.05 L643.50,234.05 L644.00,234.05 L644.50,234.05 L645.00,234.05 L645.50,234.05 L646.00,234.05 L646.50,234.05 L647.00,234.05" style="stroke-width: 1; stroke: rgb(126, 211, 33);"/><path d=" M20.00,234.05 L20.50,234.05 L21.00,234.05 L21.50,234.05 L22.00,234.05 L22.50,234.05 L23.00,234.05 L23.50,234.05 L24.00,234.05 L24.50,234.05 L25.00,234.05 L25.50,234.05 L26.00,234.05 L26.51,234.05 L27.01,234.05 L27.51,234.05 L28.01,234.05 L28.51,234.05 L29.01,234.05 L29.51,234.05 L30.01,234.05 L30.51,234.05 L31.01,234.05 L31.51,234.05 L32.01,234.05 L32.51,234.05 L33.01,234.05 L33.51,234.05 L34.01,234.05 L34.51,234.05 L35.01,234.05 L35.51,234.05 L36.01,234.05 L36.51,234.05 L37.01,234.05 L37.51,234.05 L38.01,234.05 L38.51,234.05 L39.02,234.05 L39.52,234.05 L40.02,234.05 L40.52,234.05 L41.02,234.05 L41.52,234.05 L42.02,234.05 L42.52,234.05 L43.02,234.05 L43.52,234.05 L44.02,234.05 L44.52,234.05 L45.02,234.05 L45.52,234.05 L46.02,234.05 L46.52,234.05 L47.02,234.05 L47.52,234.05 L48.02,234.05 L48.52,234.05 L49.02,234.05 L49.52,234.05 L50.02,234.05 L50.52,234.05 L51.02,234.05 L51.53,234.05 L52.03,234.05 L52.53,234.05 L53.03,234.05 L53.53,234.05 L54.03,234.05 L54.53,234.05 L55.03,234.05 L55.53,234.05 L56.03,234.05 L56.53,234.05 L57.03,234.05 L57.53,234.05 L58.03,234.05 L58.53,234.05 L59.03,234.05 L59.53,234.05 L60.03,234.05 L60.53,234.05 L61.03,234.05 L61.53,234.05 L62.03,234.05 L62.53,234.05 L63.03,234.05 L63.53,234.05 L64.04,234.05 L64.54,234.05 L65.04,234.05 L65.54,234.05 L66.04,234.05 L66.54,234.05 L67.04,234.05 L67.54,234.05 L68.04,234.05 L68.54,234.05 L69.04,234.05 L69.54,234.05 L70.04,234.05 L70.54,234.05 L71.04,234.05 L71.54,234.05 L72.04,234.05 L72.54,234.05 L73.04,234.05 L73.54,234.05 L74.04,234.05 L74.54,234.05 L75.04,234.05 L75.54,234.05 L76.04,234.05 L76.55,234.05 L77.05,234.05 L77.55,234.05 L78.05,234.05 L78.55,234.05 L79.05,234.05 L79.55,234.05 L80.05,234.05 L80.55,234.05 L81.05,234.05 L81.55,234.05 L82.05,234.05 L82.55,234.05 L83.05,234.05 L83.55,234.05 L84.05,234.05 L84.55,234.05 L85.05,234.05 L85.55,234.05 L86.05,234.05 L86.55,234.05 L87.05,234.05 L87.55,234.05 L88.05,234.05 L88.55,234.05 L89.06,234.05 L89.56,234.05 L90.06,234.05 L90.56,234.05 L91.06,234.05 L91.56,234.05 L92.06,234.05 L92.56,234.05 L93.06,234.05 L93.56,234.05 L94.06,234.05 L94.56,234.05 L95.06,234.05 L95.56,234.05 L96.06,234.05 L96.56,234.05 L97.06,234.05 L97.56,234.05 L98.06,234.05 L98.56,234.05 L99.06,234.05 L99.56,234.05 L100.06,234.05 L100.56,234.05 L101.06,234.05 L101.57,234.05 L102.07,234.05 L102.57,234.05 L103.07,234.05 L103.57,234.05 L104.07,234.05 L104.57,234.05 L105.07,234.05 L105.57,234.05 L106.07,234.05 L106.57,234.05 L107.07,234.05 L107.57,234.05 L108.07,234.05 L108.57,234.05 L109.07,234.05 L109.57,234.05 L110.07,234.05 L110.57,234.05 L111.07,234.05 L111.57,234.05 L112.07,234.05 L112.57,234.05 L113.07,234.05 L113.57,234.05 L114.08,234.05 L114.58,234.05 L115.08,234.05 L115.58,234.05 L116.08,234.05 L116.58,234.05 L117.08,234.05 L117.58,234.05 L118.08,234.05 L118.58,234.05 L119.08,234.05 L119.58,234.05 L120.08,234.05 L120.58,234.05 L121.08,234.05 L121.58,234.05 L122.08,234.05 L122.58,234.05 L123.08,234.05 L123.58,234.05 L124.08,234.05 L124.58,234.05 L125.08,234.05 L125.58,234.05 L126.08,234.05 L126.58,234.05 L127.09,234.05 L127.59,234.05 L128.09,234.05 L128.59,234.05 L129.09,234.05 L129.59,234.05 L130.09,234.05 L130.59,234.05 L131.09,234.05 L131.59,234.05 L132.09,234.05 L132.59,234.05 L133.09,234.05 L133.59,234.05 L134.09,234.05 L134.59,234.05 L135.09,234.05 L135.59,234.05 L136.09,234.05 L136.59,234.05 L137.09,234.05 L137.59,234.05 L138.09,234.05 L138.59,234.05 L139.09,234.05 L139.60,234.05 L140.10,234.05 L140.60,234.05 L141.10,234.05 L141.60,234.05 L142.10,234.05 L142.60,234.05 L143.10,234.05 L143.60,234.05 L144.10,234.05 L144.60,234.05 L145.10,234.05 L145.60,234.05 L146.10,234.05 L146.60,234.05 L147.10,234.05 L147.60,234.05 L148.10,234.05 L148.60,234.05 L149.10,234.05 L149.60,234.05 L150.10,234.05 L150.60,234.05 L151.10,234.05 L151.60,234.05 L152.11,234.05 L152.61,234.05 L153.11,234.05 L153.61,234.05 L154.11,234.05 L154.61,234.04 L155.11,234.04 L155.61,234.04 L156.11,234.04 L156.61,234.04 L157.11,234.04 L157.61,234.04 L158.11,234.04 L158.61,234.04 L159.11,234.04 L159.61,234.04 L160.11,234.04 L160.61,234.04 L161.11,234.04 L161.61,234.04 L162.11,234.04 L162.61,234.04 L163.11,234.04 L163.61,234.04 L164.11,234.04 L164.62,234.04 L165.12,234.04 L165.62,234.04 L166.12,234.04 L166.62,234.04 L167.12,234.04 L167.62,234.04 L168.12,234.04 L168.62,234.04 L169.12,234.04 L169.62,234.04 L170.12,234.04 L170.62,234.04 L171.12,234.04 L171.62,234.04 L172.12,234.04 L172.62,234.04 L173.12,234.04 L173.62,234.04 L174.12,234.04 L174.62,234.04 L175.12,234.04 L175.62,234.04 L176.12,234.04 L176.62,234.04 L177.13,234.04 L177.63,234.04 L178.13,234.04 L178.63,234.04 L179.13,234.04 L179.63,234.04 L180.13,234.04 L180.63,234.04 L181.13,234.04 L181.63,234.04 L182.13,234.04 L182.63,234.03 L183.13,234.03 L183.63,234.03 L184.13,234.03 L184.63,234.03 L185.13,234.03 L185.63,234.03 L186.13,234.03 L186.63,234.03 L187.13,234.03 L187.63,234.03 L188.13,234.03 L188.63,234.03 L189.13,234.03 L189.64,234.03 L190.14,234.03 L190.64,234.02 L191.14,234.02 L191.64,234.02 L192.14,234.02 L192.64,234.02 L193.14,234.02 L193.64,234.02 L194.14,234.02 L194.64,234.02 L195.14,234.02 L195.64,234.02 L196.14,234.01 L196.64,234.01 L197.14,234.01 L197.64,234.01 L198.14,234.01 L198.64,234.01 L199.14,234.01 L199.64,234.00 L200.14,234.00 L200.64,234.00 L201.14,234.00 L201.64,234.00 L202.15,234.00 L202.65,233.99 L203.15,233.99 L203.65,233.99 L204.15,233.99 L204.65,233.99 L205.15,233.98 L205.65,233.98 L206.15,233.98 L206.65,233.98 L207.15,233.98 L207.65,233.97 L208.15,233.97 L208.65,233.97 L209.15,233.97 L209.65,233.96 L210.15,233.96 L210.65,233.96 L211.15,233.95 L211.65,233.95 L212.15,233.95 L212.65,233.94 L213.15,233.94 L213.65,233.94 L214.15,233.93 L214.66,233.93 L215.16,233.93 L215.66,233.92 L216.16,233.92 L216.66,233.91 L217.16,233.91 L217.66,233.90 L218.16,233.90 L218.66,233.89 L219.16,233.89 L219.66,233.88 L220.16,233.88 L220.66,233.87 L221.16,233.87 L221.66,233.86 L222.16,233.86 L222.66,233.85 L223.16,233.84 L223.66,233.84 L224.16,233.83 L224.66,233.82 L225.16,233.82 L225.66,233.81 L226.16,233.80 L226.66,233.79 L227.17,233.79 L227.67,233.78 L228.17,233.77 L228.67,233.76 L229.17,233.75 L229.67,233.74 L230.17,233.73 L230.67,233.73 L231.17,233.72 L231.67,233.71 L232.17,233.70 L232.67,233.68 L233.17,233.67 L233.67,233.66 L234.17,233.65 L234.67,233.64 L235.17,233.63 L235.67,233.62 L236.17,233.60 L236.67,233.59 L237.17,233.58 L237.67,233.56 L238.17,233.55 L238.67,233.54 L239.17,233.52 L239.68,233.51 L240.18,233.49 L240.68,233.47 L241.18,233.46 L241.68,233.44 L242.18,233.43 L242.68,233.41 L243.18,233.39 L243.68,233.37 L244.18,233.35 L244.68,233.33 L245.18,233.31 L245.68,233.29 L246.18,233.27 L246.68,233.25 L247.18,233.23 L247.68,233.21 L248.18,233.19 L248.68,233.17 L249.18,233.14 L249.68,233.12 L250.18,233.09 L250.68,233.07 L251.18,233.04 L251.68,233.02 L252.19,232.99 L252.69,232.96 L253.19,232.94 L253.69,232.91 L254.19,232.88 L254.69,232.85 L255.19,232.82 L255.69,232.79 L256.19,232.76 L256.69,232.72 L257.19,232.69 L257.69,232.66 L258.19,232.62 L258.69,232.59 L259.19,232.55 L259.69,232.52 L260.19,232.48 L260.69,232.44 L261.19,232.40 L261.69,232.36 L262.19,232.32 L262.69,232.28 L263.19,232.24 L263.69,232.20 L264.19,232.15 L264.70,232.11 L265.20,232.06 L265.70,232.02 L266.20,231.97 L266.70,231.92 L267.20,231.88 L267.70,231.83 L268.20,231.78 L268.70,231.73 L269.20,231.67 L269.70,231.62 L270.20,231.57 L270.70,231.51 L271.20,231.46 L271.70,231.40 L272.20,231.34 L272.70,231.28 L273.20,231.22 L273.70,231.16 L274.20,231.10 L274.70,231.04 L275.20,230.98 L275.70,230.91 L276.20,230.85 L276.70,230.78 L277.21,230.71 L277.71,230.64 L278.21,230.57 L278.71,230.50 L279.21,230.43 L279.71,230.36 L280.21,230.28 L280.71,230.21 L281.21,230.13 L281.71,230.05 L282.21,229.97 L282.71,229.90 L283.21,229.81 L283.71,229.73 L284.21,229.65 L284.71,229.56 L285.21,229.48 L285.71,229.39 L286.21,229.30 L286.71,229.22 L287.21,229.13 L287.71,229.03 L288.21,228.94 L288.71,228.85 L289.21,228.75 L289.72,228.66 L290.22,228.56 L290.72,228.46 L291.22,228.36 L291.72,228.26 L292.22,228.16 L292.72,228.06 L293.22,227.95 L293.72,227.84 L294.22,227.74 L294.72,227.63 L295.22,227.52 L295.72,227.41 L296.22,227.30 L296.72,227.19 L297.22,227.07 L297.72,226.96 L298.22,226.84 L298.72,226.72 L299.22,226.60 L299.72,226.48 L300.22,226.36 L300.72,226.24 L301.22,226.12 L301.72,225.99 L302.23,225.87 L302.73,225.74 L303.23,225.61 L303.73,225.49 L304.23,225.36 L304.73,225.22 L305.23,225.09 L305.73,224.96 L306.23,224.83 L306.73,224.69 L307.23,224.55 L307.73,224.42 L308.23,224.28 L308.73,224.14 L309.23,224.00 L309.73,223.86 L310.23,223.72 L310.73,223.57 L311.23,223.43 L311.73,223.29 L312.23,223.14 L312.73,222.99 L313.23,222.85 L313.73,222.70 L314.23,222.55 L314.74,222.40 L315.24,222.25 L315.74,222.10 L316.24,221.95 L316.74,221.79 L317.24,221.64 L317.74,221.49 L318.24,221.33 L318.74,221.18 L319.24,221.02 L319.74,220.86 L320.24,220.71 L320.74,220.55 L321.24,220.39 L321.74,220.23 L322.24,220.08 L322.74,219.92 L323.24,219.76 L323.74,219.60 L324.24,219.44 L324.74,219.28 L325.24,219.12 L325.74,218.96 L326.24,218.80 L326.74,218.64 L327.25,218.47 L327.75,218.31 L328.25,218.15 L328.75,217.99 L329.25,217.83 L329.75,217.67 L330.25,217.51 L330.75,217.34 L331.25,217.18 L331.75,217.02 L332.25,216.86 L332.75,216.70 L333.25,216.54 L333.75,216.38 L334.25,216.22 L334.75,216.06 L335.25,215.90 L335.75,215.75 L336.25,215.59 L336.75,215.43 L337.25,215.27 L337.75,215.12 L338.25,214.96 L338.75,214.81 L339.25,214.65 L339.75,214.50 L340.26,214.35 L340.76,214.20 L341.26,214.05 L341.76,213.90 L342.26,213.75 L342.76,213.60 L343.26,213.45 L343.76,213.31 L344.26,213.16 L344.76,213.02 L345.26,212.87 L345.76,212.73 L346.26,212.59 L346.76,212.45 L347.26,212.32 L347.76,212.18 L348.26,212.04 L348.76,211.91 L349.26,211.78 L349.76,211.65 L350.26,211.52 L350.76,211.39 L351.26,211.27 L351.76,211.14 L352.26,211.02 L352.77,210.90 L353.27,210.78 L353.77,210.66 L354.27,210.54 L354.77,210.43 L355.27,210.32 L355.77,210.21 L356.27,210.10 L356.77,209.99 L357.27,209.89 L357.77,209.79 L358.27,209.69 L358.77,209.59 L359.27,209.49 L359.77,209.40 L360.27,209.31 L360.77,209.22 L361.27,209.13 L361.77,209.04 L362.27,208.96 L362.77,208.88 L363.27,208.80 L363.77,208.72 L364.27,208.65 L364.77,208.58 L365.28,208.51 L365.78,208.44 L366.28,208.38 L366.78,208.32 L367.28,208.26 L367.78,208.20 L368.28,208.14 L368.78,208.09 L369.28,208.04 L369.78,208.00 L370.28,207.95 L370.78,207.91 L371.28,207.87 L371.78,207.83 L372.28,207.80 L372.78,207.77 L373.28,207.74 L373.78,207.71 L374.28,207.69 L374.78,207.67 L375.28,207.65 L375.78,207.63 L376.28,207.62 L376.78,207.61 L377.28,207.60 L377.79,207.60 L378.29,207.60 L378.79,207.60 L379.29,207.60 L379.79,207.61 L380.29,207.61 L380.79,207.63 L381.29,207.64 L381.79,207.66 L382.29,207.67 L382.79,207.70 L383.29,207.72 L383.79,207.75 L384.29,207.78 L384.79,207.81 L385.29,207.85 L385.79,207.88 L386.29,207.92 L386.79,207.97 L387.29,208.01 L387.79,208.06 L388.29,208.11 L388.79,208.16 L389.29,208.22 L389.79,208.27 L390.30,208.34 L390.80,208.40 L391.30,208.46 L391.80,208.53 L392.30,208.60 L392.80,208.67 L393.30,208.75 L393.80,208.83 L394.30,208.90 L394.80,208.99 L395.30,209.07 L395.80,209.16 L396.30,209.24 L396.80,209.34 L397.30,209.43 L397.80,209.52 L398.30,209.62 L398.80,209.72 L399.30,209.82 L399.80,209.92 L400.30,210.03 L400.80,210.14 L401.30,210.24 L401.80,210.36 L402.30,210.47 L402.81,210.58 L403.31,210.70 L403.81,210.82 L404.31,210.94 L404.81,211.06 L405.31,211.18 L405.81,211.31 L406.31,211.43 L406.81,211.56 L407.31,211.69 L407.81,211.82 L408.31,211.96 L408.81,212.09 L409.31,212.22 L409.81,212.36 L410.31,212.50 L410.81,212.64 L411.31,212.78 L411.81,212.92 L412.31,213.06 L412.81,213.21 L413.31,213.35 L413.81,213.50 L414.31,213.65 L414.81,213.80 L415.32,213.95 L415.82,214.10 L416.32,214.25 L416.82,214.40 L417.32,214.55 L417.82,214.71 L418.32,214.86 L418.82,215.01 L419.32,215.17 L419.82,215.33 L420.32,215.48 L420.82,215.64 L421.32,215.80 L421.82,215.96 L422.32,216.12 L422.82,216.28 L423.32,216.43 L423.82,216.59 L424.32,216.75 L424.82,216.92 L425.32,217.08 L425.82,217.24 L426.32,217.40 L426.82,217.56 L427.32,217.72 L427.83,217.88 L428.33,218.04 L428.83,218.20 L429.33,218.37 L429.83,218.53 L430.33,218.69 L430.83,218.85 L431.33,219.01 L431.83,219.17 L432.33,219.33 L432.83,219.49 L433.33,219.65 L433.83,219.81 L434.33,219.97 L434.83,220.13 L435.33,220.29 L435.83,220.45 L436.33,220.60 L436.83,220.76 L437.33,220.92 L437.83,221.07 L438.33,221.23 L438.83,221.38 L439.33,221.54 L439.83,221.69 L440.34,221.84 L440.84,222.00 L441.34,222.15 L441.84,222.30 L442.34,222.45 L442.84,222.60 L443.34,222.75 L443.84,222.89 L444.34,223.04 L444.84,223.19 L445.34,223.33 L445.84,223.48 L446.34,223.62 L446.84,223.76 L447.34,223.91 L447.84,224.05 L448.34,224.19 L448.84,224.32 L449.34,224.46 L449.84,224.60 L450.34,224.74 L450.84,224.87 L451.34,225.00 L451.84,225.14 L452.34,225.27 L452.85,225.40 L453.35,225.53 L453.85,225.66 L454.35,225.78 L454.85,225.91 L455.35,226.04 L455.85,226.16 L456.35,226.28 L456.85,226.40 L457.35,226.52 L457.85,226.64 L458.35,226.76 L458.85,226.88 L459.35,227.00 L459.85,227.11 L460.35,227.22 L460.85,227.34 L461.35,227.45 L461.85,227.56 L462.35,227.67 L462.85,227.77 L463.35,227.88 L463.85,227.99 L464.35,228.09 L464.85,228.19 L465.36,228.29 L465.86,228.39 L466.36,228.49 L466.86,228.59 L467.36,228.69 L467.86,228.78 L468.36,228.88 L468.86,228.97 L469.36,229.06 L469.86,229.16 L470.36,229.25 L470.86,229.33 L471.36,229.42 L471.86,229.51 L472.36,229.59 L472.86,229.68 L473.36,229.76 L473.86,229.84 L474.36,229.92 L474.86,230.00 L475.36,230.08 L475.86,230.16 L476.36,230.23 L476.86,230.31 L477.36,230.38 L477.87,230.45 L478.37,230.53 L478.87,230.60 L479.37,230.67 L479.87,230.73 L480.37,230.80 L480.87,230.87 L481.37,230.93 L481.87,231.00 L482.37,231.06 L482.87,231.12 L483.37,231.18 L483.87,231.24 L484.37,231.30 L484.87,231.36 L485.37,231.42 L485.87,231.48 L486.37,231.53 L486.87,231.59 L487.37,231.64 L487.87,231.69 L488.37,231.74 L488.87,231.79 L489.37,231.84 L489.87,231.89 L490.38,231.94 L490.88,231.99 L491.38,232.03 L491.88,232.08 L492.38,232.12 L492.88,232.17 L493.38,232.21 L493.88,232.25 L494.38,232.29 L494.88,232.34 L495.38,232.38 L495.88,232.41 L496.38,232.45 L496.88,232.49 L497.38,232.53 L497.88,232.56 L498.38,232.60 L498.88,232.63 L499.38,232.67 L499.88,232.70 L500.38,232.73 L500.88,232.77 L501.38,232.80 L501.88,232.83 L502.38,232.86 L502.89,232.89 L503.39,232.92 L503.89,232.94 L504.39,232.97 L504.89,233.00 L505.39,233.03 L505.89,233.05 L506.39,233.08 L506.89,233.10 L507.39,233.13 L507.89,233.15 L508.39,233.17 L508.89,233.20 L509.39,233.22 L509.89,233.24 L510.39,233.26 L510.89,233.28 L511.39,233.30 L511.89,233.32 L512.39,233.34 L512.89,233.36 L513.39,233.38 L513.89,233.40 L514.39,233.41 L514.89,233.43 L515.40,233.45 L515.90,233.46 L516.40,233.48 L516.90,233.50 L517.40,233.51 L517.90,233.53 L518.40,233.54 L518.90,233.55 L519.40,233.57 L519.90,233.58 L520.40,233.59 L520.90,233.61 L521.40,233.62 L521.90,233.63 L522.40,233.64 L522.90,233.66 L523.40,233.67 L523.90,233.68 L524.40,233.69 L524.90,233.70 L525.40,233.71 L525.90,233.72 L526.40,233.73 L526.90,233.74 L527.40,233.75 L527.91,233.76 L528.41,233.76 L528.91,233.77 L529.41,233.78 L529.91,233.79 L530.41,233.80 L530.91,233.80 L531.41,233.81 L531.91,233.82 L532.41,233.83 L532.91,233.83 L533.41,233.84 L533.91,233.85 L534.41,233.85 L534.91,233.86 L535.41,233.86 L535.91,233.87 L536.41,233.87 L536.91,233.88 L537.41,233.89 L537.91,233.89 L538.41,233.90 L538.91,233.90 L539.41,233.90 L539.91,233.91 L540.42,233.91 L540.92,233.92 L541.42,233.92 L541.92,233.93 L542.42,233.93 L542.92,233.93 L543.42,233.94 L543.92,233.94 L544.42,233.94 L544.92,233.95 L545.42,233.95 L545.92,233.95 L546.42,233.96 L546.92,233.96 L547.42,233.96 L547.92,233.97 L548.42,233.97 L548.92,233.97 L549.42,233.97 L549.92,233.98 L550.42,233.98 L550.92,233.98 L551.42,233.98 L551.92,233.99 L552.42,233.99 L552.92,233.99 L553.43,233.99 L553.93,233.99 L554.43,234.00 L554.93,234.00 L555.43,234.00 L555.93,234.00 L556.43,234.00 L556.93,234.00 L557.43,234.01 L557.93,234.01 L558.43,234.01 L558.93,234.01 L559.43,234.01 L559.93,234.01 L560.43,234.01 L560.93,234.01 L561.43,234.02 L561.93,234.02 L562.43,234.02 L562.93,234.02 L563.43,234.02 L563.93,234.02 L564.43,234.02 L564.93,234.02 L565.43,234.02 L565.94,234.02 L566.44,234.03 L566.94,234.03 L567.44,234.03 L567.94,234.03 L568.44,234.03 L568.94,234.03 L569.44,234.03 L569.94,234.03 L570.44,234.03 L570.94,234.03 L571.44,234.03 L571.94,234.03 L572.44,234.03 L572.94,234.03 L573.44,234.03 L573.94,234.03 L574.44,234.03 L574.94,234.04 L575.44,234.04 L575.94,234.04 L576.44,234.04 L576.94,234.04 L577.44,234.04 L577.94,234.04 L578.45,234.04 L578.95,234.04 L579.45,234.04 L579.95,234.04 L580.45,234.04 L580.95,234.04 L581.45,234.04 L581.95,234.04 L582.45,234.04 L582.95,234.04 L583.45,234.04 L583.95,234.04 L584.45,234.04 L584.95,234.04 L585.45,234.04 L585.95,234.04 L586.45,234.04 L586.95,234.04 L587.45,234.04 L587.95,234.04 L588.45,234.04 L588.95,234.04 L589.45,234.04 L589.95,234.04 L590.45,234.04 L590.96,234.04 L591.46,234.04 L591.96,234.04 L592.46,234.04 L592.96,234.04 L593.46,234.04 L593.96,234.04 L594.46,234.04 L594.96,234.04 L595.46,234.04 L595.96,234.04 L596.46,234.04 L596.96,234.04 L597.46,234.04 L597.96,234.04 L598.46,234.04 L598.96,234.04 L599.46,234.04 L599.96,234.04 L600.46,234.04 L600.96,234.04 L601.46,234.04 L601.96,234.04 L602.46,234.04 L602.96,234.05 L603.47,234.05 L603.97,234.05 L604.47,234.05 L604.97,234.05 L605.47,234.05 L605.97,234.05 L606.47,234.05 L606.97,234.05 L607.47,234.05 L607.97,234.05 L608.47,234.05 L608.97,234.05 L609.47,234.05 L609.97,234.05 L610.47,234.05 L610.97,234.05 L611.47,234.05 L611.97,234.05 L612.47,234.05 L612.97,234.05 L613.47,234.05 L613.97,234.05 L614.47,234.05 L614.97,234.05 L615.47,234.05 L615.98,234.05 L616.48,234.05 L616.98,234.05 L617.48,234.05 L617.98,234.05 L618.48,234.05 L618.98,234.05 L619.48,234.05 L619.98,234.05 L620.48,234.05 L620.98,234.05 L621.48,234.05 L621.98,234.05 L622.48,234.05 L622.98,234.05 L623.48,234.05 L623.98,234.05 L624.48,234.05 L624.98,234.05 L625.48,234.05 L625.98,234.05 L626.48,234.05 L626.98,234.05 L627.48,234.05 L627.98,234.05 L628.49,234.05 L628.99,234.05 L629.49,234.05 L629.99,234.05 L630.49,234.05 L630.99,234.05 L631.49,234.05 L631.99,234.05 L632.49,234.05 L632.99,234.05 L633.49,234.05 L633.99,234.05 L634.49,234.05 L634.99,234.05 L635.49,234.05 L635.99,234.05 L636.49,234.05 L636.99,234.05 L637.49,234.05 L637.99,234.05 L638.49,234.05 L638.99,234.05 L639.49,234.05 L639.99,234.05 L640.49,234.05 L641.00,234.05 L641.50,234.05 L642.00,234.05 L642.50,234.05 L643.00,234.05 L643.50,234.05 L644.00,234.05 L644.50,234.05 L645.00,234.05 L645.50,234.05 L646.00,234.05 L646.50,234.05 L647.00,234.05" style="stroke-width: 1; stroke: rgb(245, 166, 35);"/></g><rect class="real" x="21" y="1" width="625" height="271.65625" style="stroke: gray; fill: transparent;"/></g></g><g class="intersections-group"><g style="stroke: rgb(0, 0, 0); stroke-width: 1; fill: none;"/></g></g><g/><g/><!-- react-empty: 2150 --></svg>
        <svg xmlns="http://www.w3.org/2000/svg" width="660" height="300" style="width:660px;height:300px;font-family:Asana-Math, Asana;background:transparent;"></svg>
</svg>
