<svg xmlns="http://www.w3.org/2000/svg" width="662" height="302" style="
        width:662px;
        height:302px;
        background: transparent;
        fill: none;
">
        
        <svg xmlns="http://www.w3.org/2000/svg"><g class="shapes-region" style="stroke: black; fill: none;"><g class="composite-shape" data-amt="diagram/shapes/plot" style="transform: matrix(1, 0, 0, 1, 116, 33);"><defs><clipPath id="dp4791319556747984"><rect x="21" y="1" width="408" height="178"/></clipPath></defs><g clip-path="url(#dp4791319556747984)"><g><line x1="114.36791937123498" y1="0" x2="114.36791937123498" y2="180" fill="none" stroke="lightgray" stroke-width="0.5"/><line x1="209.68894045125185" y1="0" x2="209.68894045125185" y2="180" fill="none" stroke="lightgray" stroke-width="0.5"/><line x1="305.0099615312687" y1="0" x2="305.0099615312687" y2="180" fill="none" stroke="lightgray" stroke-width="0.5"/><line x1="400.3309826112856" y1="0" x2="400.3309826112856" y2="180" fill="none" stroke="lightgray" stroke-width="0.5"/></g><g><line x1="20" y1="176.34002548895862" x2="430" y2="176.34002548895862" fill="none" stroke="lightgray" stroke-width="0.5"/><line x1="20" y1="157.27582127295523" x2="430" y2="157.27582127295523" fill="none" stroke="lightgray" stroke-width="0.5"/><line x1="20" y1="138.21161705695187" x2="430" y2="138.21161705695187" fill="none" stroke="lightgray" stroke-width="0.5"/><line x1="20" y1="119.1474128409485" x2="430" y2="119.1474128409485" fill="none" stroke="lightgray" stroke-width="0.5"/><line x1="20" y1="100.08320862494513" x2="430" y2="100.08320862494513" fill="none" stroke="lightgray" stroke-width="0.5"/><line x1="20" y1="81.01900440894175" x2="430" y2="81.01900440894175" fill="none" stroke="lightgray" stroke-width="0.5"/><line x1="20" y1="61.954800192938364" x2="430" y2="61.954800192938364" fill="none" stroke="lightgray" stroke-width="0.5"/><line x1="20" y1="42.890595976935" x2="430" y2="42.890595976935" fill="none" stroke="lightgray" stroke-width="0.5"/><line x1="20" y1="23.826391760931614" x2="430" y2="23.826391760931614" fill="none" stroke="lightgray" stroke-width="0.5"/><line x1="20" y1="4.762187544928253" x2="430" y2="4.762187544928253" fill="none" stroke="lightgray" stroke-width="0.5"/></g><g><path d=" M20.00,81.00 L20.50,80.99 L21.00,80.99 L21.50,80.99 L22.00,80.99 L22.50,80.98 L23.00,80.98 L23.50,80.97 L24.00,80.97 L24.51,80.97 L25.01,80.96 L25.51,80.96 L26.01,80.95 L26.51,80.94 L27.01,80.94 L27.51,80.93 L28.01,80.92 L28.51,80.91 L29.01,80.90 L29.51,80.89 L30.01,80.88 L30.51,80.87 L31.01,80.86 L31.51,80.84 L32.01,80.83 L32.52,80.81 L33.02,80.80 L33.52,80.78 L34.02,80.76 L34.52,80.74 L35.02,80.72 L35.52,80.69 L36.02,80.67 L36.52,80.64 L37.02,80.61 L37.52,80.58 L38.02,80.55 L38.52,80.51 L39.02,80.48 L39.52,80.44 L40.02,80.40 L40.53,80.35 L41.03,80.31 L41.53,80.26 L42.03,80.21 L42.53,80.15 L43.03,80.09 L43.53,80.03 L44.03,79.97 L44.53,79.90 L45.03,79.82 L45.53,79.75 L46.03,79.67 L46.53,79.59 L47.03,79.50 L47.53,79.41 L48.03,79.31 L48.53,79.21 L49.04,79.10 L49.54,78.99 L50.04,78.88 L50.54,78.76 L51.04,78.63 L51.54,78.50 L52.04,78.37 L52.54,78.23 L53.04,78.08 L53.54,77.93 L54.04,77.77 L54.54,77.61 L55.04,77.44 L55.54,77.26 L56.04,77.08 L56.54,76.90 L57.05,76.70 L57.55,76.50 L58.05,76.30 L58.55,76.09 L59.05,75.88 L59.55,75.65 L60.05,75.43 L60.55,75.19 L61.05,74.96 L61.55,74.71 L62.05,74.46 L62.55,74.21 L63.05,73.95 L63.55,73.69 L64.05,73.42 L64.55,73.14 L65.05,72.87 L65.56,72.59 L66.06,72.30 L66.56,72.01 L67.06,71.72 L67.56,71.43 L68.06,71.13 L68.56,70.84 L69.06,70.54 L69.56,70.23 L70.06,69.93 L70.56,69.63 L71.06,69.33 L71.56,69.02 L72.06,68.72 L72.56,68.42 L73.06,68.12 L73.57,67.82 L74.07,67.53 L74.57,67.23 L75.07,66.95 L75.57,66.66 L76.07,66.38 L76.57,66.10 L77.07,65.83 L77.57,65.57 L78.07,65.31 L78.57,65.06 L79.07,64.82 L79.57,64.58 L80.07,64.35 L80.57,64.13 L81.07,63.92 L81.58,63.72 L82.08,63.53 L82.58,63.35 L83.08,63.18 L83.58,63.02 L84.08,62.87 L84.58,62.74 L85.08,62.62 L85.58,62.50 L86.08,62.41 L86.58,62.32 L87.08,62.25 L87.58,62.19 L88.08,62.14 L88.58,62.11 L89.08,62.09 L89.58,62.09 L90.09,62.10 L90.59,62.12 L91.09,62.16 L91.59,62.21 L92.09,62.27 L92.59,62.35 L93.09,62.45 L93.59,62.55 L94.09,62.68 L94.59,62.81 L95.09,62.96 L95.59,63.12 L96.09,63.29 L96.59,63.48 L97.09,63.68 L97.59,63.89 L98.10,64.12 L98.60,64.35 L99.10,64.60 L99.60,64.86 L100.10,65.13 L100.60,65.41 L101.10,65.70 L101.60,66.00 L102.10,66.32 L102.60,66.64 L103.10,66.97 L103.60,67.30 L104.10,67.65 L104.60,68.00 L105.10,68.37 L105.60,68.74 L106.11,69.11 L106.61,69.49 L107.11,69.88 L107.61,70.28 L108.11,70.68 L108.61,71.08 L109.11,71.50 L109.61,71.91 L110.11,72.33 L110.61,72.75 L111.11,73.18 L111.61,73.61 L112.11,74.05 L112.61,74.49 L113.11,74.93 L113.61,75.37 L114.11,75.81 L114.62,76.26 L115.12,76.71 L115.62,77.16 L116.12,77.61 L116.62,78.07 L117.12,78.52 L117.62,78.98 L118.12,79.44 L118.62,79.89 L119.12,80.35 L119.62,80.81 L120.12,81.27 L120.62,81.72 L121.12,82.18 L121.62,82.64 L122.12,83.10 L122.63,83.55 L123.13,84.01 L123.63,84.46 L124.13,84.91 L124.63,85.36 L125.13,85.81 L125.63,86.26 L126.13,86.70 L126.63,87.15 L127.13,87.59 L127.63,88.02 L128.13,88.46 L128.63,88.89 L129.13,89.32 L129.63,89.74 L130.13,90.16 L130.63,90.57 L131.14,90.98 L131.64,91.39 L132.14,91.79 L132.64,92.18 L133.14,92.57 L133.64,92.95 L134.14,93.33 L134.64,93.69 L135.14,94.05 L135.64,94.41 L136.14,94.75 L136.64,95.09 L137.14,95.42 L137.64,95.73 L138.14,96.04 L138.64,96.34 L139.15,96.63 L139.65,96.91 L140.15,97.17 L140.65,97.43 L141.15,97.67 L141.65,97.91 L142.15,98.13 L142.65,98.34 L143.15,98.53 L143.65,98.71 L144.15,98.88 L144.65,99.04 L145.15,99.18 L145.65,99.31 L146.15,99.42 L146.65,99.52 L147.16,99.60 L147.66,99.67 L148.16,99.73 L148.66,99.77 L149.16,99.80 L149.66,99.81 L150.16,99.81 L150.66,99.79 L151.16,99.75 L151.66,99.71 L152.16,99.64 L152.66,99.57 L153.16,99.48 L153.66,99.37 L154.16,99.25 L154.66,99.12 L155.16,98.97 L155.67,98.81 L156.17,98.63 L156.67,98.44 L157.17,98.24 L157.67,98.03 L158.17,97.80 L158.67,97.57 L159.17,97.32 L159.67,97.06 L160.17,96.78 L160.67,96.50 L161.17,96.21 L161.67,95.91 L162.17,95.59 L162.67,95.27 L163.17,94.94 L163.68,94.60 L164.18,94.25 L164.68,93.89 L165.18,93.53 L165.68,93.16 L166.18,92.78 L166.68,92.40 L167.18,92.01 L167.68,91.61 L168.18,91.21 L168.68,90.80 L169.18,90.39 L169.68,89.97 L170.18,89.55 L170.68,89.13 L171.18,88.70 L171.68,88.27 L172.19,87.83 L172.69,87.39 L173.19,86.95 L173.69,86.51 L174.19,86.06 L174.69,85.61 L175.19,85.16 L175.69,84.71 L176.19,84.26 L176.69,83.80 L177.19,83.35 L177.69,82.89 L178.19,82.44 L178.69,81.98 L179.19,81.52 L179.69,81.06 L180.20,80.61 L180.70,80.15 L181.20,79.69 L181.70,79.23 L182.20,78.78 L182.70,78.32 L183.20,77.87 L183.70,77.41 L184.20,76.96 L184.70,76.51 L185.20,76.06 L185.70,75.62 L186.20,75.17 L186.70,74.73 L187.20,74.29 L187.70,73.86 L188.21,73.42 L188.71,72.99 L189.21,72.57 L189.71,72.15 L190.21,71.73 L190.71,71.32 L191.21,70.91 L191.71,70.50 L192.21,70.11 L192.71,69.71 L193.21,69.33 L193.71,68.95 L194.21,68.58 L194.71,68.21 L195.21,67.86 L195.71,67.51 L196.21,67.16 L196.72,66.83 L197.22,66.51 L197.72,66.19 L198.22,65.89 L198.72,65.59 L199.22,65.31 L199.72,65.03 L200.22,64.77 L200.72,64.52 L201.22,64.28 L201.72,64.05 L202.22,63.83 L202.72,63.63 L203.22,63.44 L203.72,63.26 L204.22,63.10 L204.73,62.95 L205.23,62.81 L205.73,62.69 L206.23,62.58 L206.73,62.49 L207.23,62.41 L207.73,62.34 L208.23,62.29 L208.73,62.26 L209.23,62.24 L209.73,62.23 L210.23,62.24 L210.73,62.26 L211.23,62.30 L211.73,62.35 L212.23,62.42 L212.74,62.50 L213.24,62.60 L213.74,62.71 L214.24,62.83 L214.74,62.97 L215.24,63.13 L215.74,63.29 L216.24,63.47 L216.74,63.66 L217.24,63.87 L217.74,64.09 L218.24,64.32 L218.74,64.56 L219.24,64.81 L219.74,65.08 L220.24,65.35 L220.74,65.64 L221.25,65.94 L221.75,66.24 L222.25,66.56 L222.75,66.89 L223.25,67.22 L223.75,67.56 L224.25,67.92 L224.75,68.27 L225.25,68.64 L225.75,69.01 L226.25,69.39 L226.75,69.78 L227.25,70.17 L227.75,70.57 L228.25,70.98 L228.75,71.39 L229.26,71.80 L229.76,72.22 L230.26,72.64 L230.76,73.07 L231.26,73.50 L231.76,73.93 L232.26,74.37 L232.76,74.81 L233.26,75.25 L233.76,75.69 L234.26,76.14 L234.76,76.59 L235.26,77.04 L235.76,77.49 L236.26,77.94 L236.76,78.40 L237.26,78.85 L237.77,79.31 L238.27,79.77 L238.77,80.23 L239.27,80.68 L239.77,81.14 L240.27,81.60 L240.77,82.06 L241.27,82.51 L241.77,82.97 L242.27,83.43 L242.77,83.88 L243.27,84.34 L243.77,84.79 L244.27,85.24 L244.77,85.69 L245.27,86.14 L245.78,86.58 L246.28,87.03 L246.78,87.47 L247.28,87.90 L247.78,88.34 L248.28,88.77 L248.78,89.20 L249.28,89.62 L249.78,90.04 L250.28,90.46 L250.78,90.87 L251.28,91.28 L251.78,91.68 L252.28,92.07 L252.78,92.46 L253.28,92.85 L253.79,93.22 L254.29,93.59 L254.79,93.96 L255.29,94.31 L255.79,94.66 L256.29,95.00 L256.79,95.33 L257.29,95.65 L257.79,95.96 L258.29,96.26 L258.79,96.55 L259.29,96.83 L259.79,97.10 L260.29,97.36 L260.79,97.61 L261.29,97.84 L261.79,98.07 L262.30,98.28 L262.80,98.48 L263.30,98.66 L263.80,98.84 L264.30,98.99 L264.80,99.14 L265.30,99.27 L265.80,99.39 L266.30,99.49 L266.80,99.58 L267.30,99.66 L267.80,99.72 L268.30,99.76 L268.80,99.79 L269.30,99.81 L269.80,99.81 L270.31,99.79 L270.81,99.76 L271.31,99.72 L271.81,99.66 L272.31,99.59 L272.81,99.50 L273.31,99.40 L273.81,99.28 L274.31,99.15 L274.81,99.01 L275.31,98.85 L275.81,98.68 L276.31,98.50 L276.81,98.30 L277.31,98.09 L277.81,97.87 L278.32,97.63 L278.82,97.39 L279.32,97.13 L279.82,96.86 L280.32,96.58 L280.82,96.29 L281.32,95.99 L281.82,95.68 L282.32,95.36 L282.82,95.03 L283.32,94.69 L283.82,94.35 L284.32,93.99 L284.82,93.63 L285.32,93.26 L285.82,92.89 L286.32,92.50 L286.83,92.12 L287.33,91.72 L287.83,91.32 L288.33,90.91 L288.83,90.50 L289.33,90.09 L289.83,89.67 L290.33,89.24 L290.83,88.82 L291.33,88.39 L291.83,87.95 L292.33,87.51 L292.83,87.07 L293.33,86.63 L293.83,86.18 L294.33,85.74 L294.84,85.29 L295.34,84.84 L295.84,84.38 L296.34,83.93 L296.84,83.47 L297.34,83.02 L297.84,82.56 L298.34,82.10 L298.84,81.65 L299.34,81.19 L299.84,80.73 L300.34,80.27 L300.84,79.82 L301.34,79.36 L301.84,78.90 L302.34,78.45 L302.84,77.99 L303.35,77.54 L303.85,77.09 L304.35,76.63 L304.85,76.19 L305.35,75.74 L305.85,75.29 L306.35,74.85 L306.85,74.41 L307.35,73.97 L307.85,73.54 L308.35,73.11 L308.85,72.68 L309.35,72.26 L309.85,71.84 L310.35,71.43 L310.85,71.02 L311.36,70.61 L311.86,70.21 L312.36,69.82 L312.86,69.43 L313.36,69.05 L313.86,68.67 L314.36,68.30 L314.86,67.94 L315.36,67.59 L315.86,67.25 L316.36,66.91 L316.86,66.58 L317.36,66.26 L317.86,65.95 L318.36,65.65 L318.86,65.36 L319.37,65.08 L319.87,64.82 L320.37,64.56 L320.87,64.31 L321.37,64.08 L321.87,63.86 L322.37,63.65 L322.87,63.45 L323.37,63.26 L323.87,63.09 L324.37,62.93 L324.87,62.79 L325.37,62.65 L325.87,62.54 L326.37,62.43 L326.87,62.34 L327.37,62.26 L327.88,62.20 L328.38,62.15 L328.88,62.12 L329.38,62.09 L329.88,62.09 L330.38,62.09 L330.88,62.12 L331.38,62.15 L331.88,62.20 L332.38,62.26 L332.88,62.33 L333.38,62.42 L333.88,62.52 L334.38,62.64 L334.88,62.76 L335.38,62.90 L335.89,63.05 L336.39,63.21 L336.89,63.38 L337.39,63.56 L337.89,63.76 L338.39,63.96 L338.89,64.17 L339.39,64.39 L339.89,64.62 L340.39,64.86 L340.89,65.10 L341.39,65.36 L341.89,65.61 L342.39,65.88 L342.89,66.15 L343.39,66.43 L343.89,66.71 L344.40,66.99 L344.90,67.28 L345.40,67.58 L345.90,67.87 L346.40,68.17 L346.90,68.47 L347.40,68.77 L347.90,69.07 L348.40,69.38 L348.90,69.68 L349.40,69.98 L349.90,70.29 L350.40,70.59 L350.90,70.89 L351.40,71.18 L351.90,71.48 L352.41,71.77 L352.91,72.06 L353.41,72.35 L353.91,72.64 L354.41,72.92 L354.91,73.19 L355.41,73.46 L355.91,73.73 L356.41,73.99 L356.91,74.25 L357.41,74.51 L357.91,74.75 L358.41,75.00 L358.91,75.23 L359.41,75.47 L359.91,75.69 L360.42,75.91 L360.92,76.13 L361.42,76.34 L361.92,76.54 L362.42,76.74 L362.92,76.93 L363.42,77.11 L363.92,77.29 L364.42,77.47 L364.92,77.63 L365.42,77.80 L365.92,77.95 L366.42,78.10 L366.92,78.25 L367.42,78.39 L367.92,78.53 L368.42,78.65 L368.93,78.78 L369.43,78.90 L369.93,79.01 L370.43,79.12 L370.93,79.23 L371.43,79.33 L371.93,79.42 L372.43,79.51 L372.93,79.60 L373.43,79.68 L373.93,79.76 L374.43,79.84 L374.93,79.91 L375.43,79.98 L375.93,80.04 L376.43,80.10 L376.94,80.16 L377.44,80.21 L377.94,80.27 L378.44,80.31 L378.94,80.36 L379.44,80.40 L379.94,80.45 L380.44,80.48 L380.94,80.52 L381.44,80.55 L381.94,80.59 L382.44,80.62 L382.94,80.65 L383.44,80.67 L383.94,80.70 L384.44,80.72 L384.95,80.74 L385.45,80.76 L385.95,80.78 L386.45,80.80 L386.95,80.82 L387.45,80.83 L387.95,80.85 L388.45,80.86 L388.95,80.87 L389.45,80.88 L389.95,80.89 L390.45,80.90 L390.95,80.91 L391.45,80.92 L391.95,80.93 L392.45,80.94 L392.95,80.94 L393.46,80.95 L393.96,80.96 L394.46,80.96 L394.96,80.97 L395.46,80.97 L395.96,80.98 L396.46,80.98 L396.96,80.98 L397.46,80.99 L397.96,80.99 L398.46,80.99 L398.96,80.99 L399.46,81.00 L399.96,81.00 L400.46,81.00 L400.96,81.00 L401.47,81.00 L401.97,81.01 L402.47,81.01 L402.97,81.01 L403.47,81.01 L403.97,81.01 L404.47,81.01 L404.97,81.01 L405.47,81.01 L405.97,81.01 L406.47,81.01 L406.97,81.01 L407.47,81.01 L407.97,81.02 L408.47,81.02 L408.97,81.02 L409.47,81.02 L409.98,81.02 L410.48,81.02 L410.98,81.02 L411.48,81.02 L411.98,81.02 L412.48,81.02 L412.98,81.02 L413.48,81.02 L413.98,81.02 L414.48,81.02 L414.98,81.02 L415.48,81.02 L415.98,81.02 L416.48,81.02 L416.98,81.02 L417.48,81.02 L417.99,81.02 L418.49,81.02 L418.99,81.02 L419.49,81.02 L419.99,81.02 L420.49,81.02 L420.99,81.02 L421.49,81.02 L421.99,81.02 L422.49,81.02 L422.99,81.02 L423.49,81.02 L423.99,81.02 L424.49,81.02 L424.99,81.02 L425.49,81.02 L426.00,81.02 L426.50,81.02 L427.00,81.02 L427.50,81.02 L428.00,81.02 L428.50,81.02 L429.00,81.02 L429.50,81.02 L430.00,81.02" style="stroke-width: 1; stroke: rgb(67, 67, 67);"/><path d=" M20.00,97.51 L20.50,97.76 L21.00,97.99 L21.50,98.21 L22.00,98.42 L22.50,98.62 L23.00,98.81 L23.50,98.98 L24.00,99.14 L24.51,99.29 L25.01,99.43 L25.51,99.55 L26.01,99.66 L26.51,99.76 L27.01,99.85 L27.51,99.92 L28.01,99.98 L28.51,100.02 L29.01,100.06 L29.51,100.08 L30.01,100.08 L30.51,100.08 L31.01,100.06 L31.51,100.02 L32.01,99.98 L32.52,99.92 L33.02,99.85 L33.52,99.76 L34.02,99.66 L34.52,99.55 L35.02,99.43 L35.52,99.29 L36.02,99.14 L36.52,98.98 L37.02,98.81 L37.52,98.62 L38.02,98.43 L38.52,98.22 L39.02,97.99 L39.52,97.76 L40.02,97.51 L40.53,97.26 L41.03,96.99 L41.53,96.71 L42.03,96.42 L42.53,96.12 L43.03,95.81 L43.53,95.49 L44.03,95.16 L44.53,94.82 L45.03,94.47 L45.53,94.11 L46.03,93.74 L46.53,93.36 L47.03,92.98 L47.53,92.58 L48.03,92.18 L48.53,91.77 L49.04,91.35 L49.54,90.93 L50.04,90.50 L50.54,90.06 L51.04,89.62 L51.54,89.17 L52.04,88.71 L52.54,88.25 L53.04,87.79 L53.54,87.32 L54.04,86.84 L54.54,86.36 L55.04,85.88 L55.54,85.40 L56.04,84.91 L56.54,84.42 L57.05,83.92 L57.55,83.43 L58.05,82.93 L58.55,82.43 L59.05,81.93 L59.55,81.43 L60.05,80.93 L60.55,80.43 L61.05,79.93 L61.55,79.43 L62.05,78.93 L62.55,78.43 L63.05,77.94 L63.55,77.45 L64.05,76.96 L64.55,76.47 L65.05,75.98 L65.56,75.50 L66.06,75.03 L66.56,74.55 L67.06,74.08 L67.56,73.62 L68.06,73.16 L68.56,72.71 L69.06,72.26 L69.56,71.82 L70.06,71.38 L70.56,70.95 L71.06,70.53 L71.56,70.12 L72.06,69.71 L72.56,69.31 L73.06,68.92 L73.57,68.54 L74.07,68.16 L74.57,67.80 L75.07,67.44 L75.57,67.10 L76.07,66.76 L76.57,66.43 L77.07,66.11 L77.57,65.81 L78.07,65.51 L78.57,65.23 L79.07,64.95 L79.57,64.69 L80.07,64.43 L80.57,64.19 L81.07,63.96 L81.58,63.75 L82.08,63.54 L82.58,63.35 L83.08,63.16 L83.58,63.00 L84.08,62.84 L84.58,62.69 L85.08,62.56 L85.58,62.44 L86.08,62.34 L86.58,62.24 L87.08,62.16 L87.58,62.10 L88.08,62.04 L88.58,62.00 L89.08,61.97 L89.58,61.96 L90.09,61.96 L90.59,61.97 L91.09,61.99 L91.59,62.03 L92.09,62.08 L92.59,62.14 L93.09,62.22 L93.59,62.31 L94.09,62.41 L94.59,62.53 L95.09,62.66 L95.59,62.80 L96.09,62.95 L96.59,63.12 L97.09,63.29 L97.59,63.48 L98.10,63.69 L98.60,63.90 L99.10,64.13 L99.60,64.37 L100.10,64.62 L100.60,64.88 L101.10,65.15 L101.60,65.43 L102.10,65.72 L102.60,66.03 L103.10,66.34 L103.60,66.67 L104.10,67.00 L104.60,67.35 L105.10,67.70 L105.60,68.06 L106.11,68.43 L106.61,68.81 L107.11,69.20 L107.61,69.60 L108.11,70.00 L108.61,70.42 L109.11,70.84 L109.61,71.26 L110.11,71.70 L110.61,72.14 L111.11,72.58 L111.61,73.03 L112.11,73.49 L112.61,73.95 L113.11,74.42 L113.61,74.89 L114.11,75.37 L114.62,75.85 L115.12,76.33 L115.62,76.82 L116.12,77.31 L116.62,77.80 L117.12,78.30 L117.62,78.79 L118.12,79.29 L118.62,79.79 L119.12,80.29 L119.62,80.79 L120.12,81.29 L120.62,81.79 L121.12,82.29 L121.62,82.79 L122.12,83.29 L122.63,83.78 L123.13,84.28 L123.63,84.77 L124.13,85.26 L124.63,85.75 L125.13,86.23 L125.63,86.71 L126.13,87.18 L126.63,87.66 L127.13,88.12 L127.63,88.59 L128.13,89.04 L128.63,89.49 L129.13,89.94 L129.63,90.38 L130.13,90.81 L130.63,91.24 L131.14,91.66 L131.64,92.07 L132.14,92.47 L132.64,92.87 L133.14,93.26 L133.64,93.64 L134.14,94.01 L134.64,94.37 L135.14,94.72 L135.64,95.06 L136.14,95.40 L136.64,95.72 L137.14,96.04 L137.64,96.34 L138.14,96.63 L138.64,96.91 L139.15,97.18 L139.65,97.44 L140.15,97.69 L140.65,97.93 L141.15,98.15 L141.65,98.37 L142.15,98.57 L142.65,98.76 L143.15,98.94 L143.65,99.10 L144.15,99.25 L144.65,99.39 L145.15,99.52 L145.65,99.63 L146.15,99.74 L146.65,99.82 L147.16,99.90 L147.66,99.96 L148.16,100.01 L148.66,100.05 L149.16,100.07 L149.66,100.08 L150.16,100.08 L150.66,100.06 L151.16,100.03 L151.66,99.99 L152.16,99.94 L152.66,99.87 L153.16,99.79 L153.66,99.69 L154.16,99.59 L154.66,99.47 L155.16,99.33 L155.67,99.19 L156.17,99.03 L156.67,98.86 L157.17,98.68 L157.67,98.48 L158.17,98.27 L158.67,98.06 L159.17,97.83 L159.67,97.58 L160.17,97.33 L160.67,97.06 L161.17,96.79 L161.67,96.50 L162.17,96.20 L162.67,95.90 L163.17,95.58 L163.68,95.25 L164.18,94.91 L164.68,94.57 L165.18,94.21 L165.68,93.84 L166.18,93.47 L166.68,93.08 L167.18,92.69 L167.68,92.29 L168.18,91.89 L168.68,91.47 L169.18,91.05 L169.68,90.62 L170.18,90.18 L170.68,89.74 L171.18,89.29 L171.68,88.84 L172.19,88.38 L172.69,87.92 L173.19,87.45 L173.69,86.97 L174.19,86.50 L174.69,86.01 L175.19,85.53 L175.69,85.04 L176.19,84.55 L176.69,84.06 L177.19,83.56 L177.69,83.07 L178.19,82.57 L178.69,82.07 L179.19,81.57 L179.69,81.07 L180.20,80.57 L180.70,80.07 L181.20,79.57 L181.70,79.07 L182.20,78.57 L182.70,78.08 L183.20,77.58 L183.70,77.09 L184.20,76.60 L184.70,76.12 L185.20,75.63 L185.70,75.16 L186.20,74.68 L186.70,74.21 L187.20,73.75 L187.70,73.29 L188.21,72.83 L188.71,72.38 L189.21,71.94 L189.71,71.50 L190.21,71.07 L190.71,70.65 L191.21,70.23 L191.71,69.82 L192.21,69.42 L192.71,69.03 L193.21,68.64 L193.71,68.27 L194.21,67.90 L194.71,67.54 L195.21,67.19 L195.71,66.85 L196.21,66.52 L196.72,66.20 L197.22,65.89 L197.72,65.59 L198.22,65.30 L198.72,65.03 L199.22,64.76 L199.72,64.50 L200.22,64.26 L200.72,64.03 L201.22,63.80 L201.72,63.60 L202.22,63.40 L202.72,63.21 L203.22,63.04 L203.72,62.88 L204.22,62.73 L204.73,62.60 L205.23,62.47 L205.73,62.37 L206.23,62.27 L206.73,62.18 L207.23,62.11 L207.73,62.06 L208.23,62.01 L208.73,61.98 L209.23,61.96 L209.73,61.95 L210.23,61.96 L210.73,61.98 L211.23,62.02 L211.73,62.06 L212.23,62.12 L212.74,62.20 L213.24,62.28 L213.74,62.38 L214.24,62.49 L214.74,62.62 L215.24,62.76 L215.74,62.91 L216.24,63.07 L216.74,63.24 L217.24,63.43 L217.74,63.63 L218.24,63.84 L218.74,64.06 L219.24,64.30 L219.74,64.55 L220.24,64.80 L220.74,65.07 L221.25,65.35 L221.75,65.64 L222.25,65.94 L222.75,66.25 L223.25,66.58 L223.75,66.91 L224.25,67.25 L224.75,67.60 L225.25,67.96 L225.75,68.33 L226.25,68.71 L226.75,69.09 L227.25,69.49 L227.75,69.89 L228.25,70.30 L228.75,70.72 L229.26,71.14 L229.76,71.58 L230.26,72.01 L230.76,72.46 L231.26,72.91 L231.76,73.36 L232.26,73.83 L232.76,74.29 L233.26,74.76 L233.76,75.24 L234.26,75.72 L234.76,76.20 L235.26,76.68 L235.76,77.17 L236.26,77.67 L236.76,78.16 L237.26,78.66 L237.77,79.15 L238.27,79.65 L238.77,80.15 L239.27,80.65 L239.77,81.15 L240.27,81.65 L240.77,82.15 L241.27,82.65 L241.77,83.15 L242.27,83.65 L242.77,84.14 L243.27,84.63 L243.77,85.12 L244.27,85.61 L244.77,86.10 L245.27,86.58 L245.78,87.05 L246.28,87.53 L246.78,87.99 L247.28,88.46 L247.78,88.92 L248.28,89.37 L248.78,89.82 L249.28,90.26 L249.78,90.69 L250.28,91.12 L250.78,91.54 L251.28,91.95 L251.78,92.36 L252.28,92.76 L252.78,93.15 L253.28,93.53 L253.79,93.91 L254.29,94.27 L254.79,94.62 L255.29,94.97 L255.79,95.31 L256.29,95.63 L256.79,95.95 L257.29,96.26 L257.79,96.55 L258.29,96.84 L258.79,97.11 L259.29,97.37 L259.79,97.62 L260.29,97.87 L260.79,98.09 L261.29,98.31 L261.79,98.52 L262.30,98.71 L262.80,98.89 L263.30,99.06 L263.80,99.21 L264.30,99.36 L264.80,99.49 L265.30,99.60 L265.80,99.71 L266.30,99.80 L266.80,99.88 L267.30,99.95 L267.80,100.00 L268.30,100.04 L268.80,100.07 L269.30,100.08 L269.80,100.08 L270.31,100.07 L270.81,100.04 L271.31,100.01 L271.81,99.95 L272.31,99.89 L272.81,99.81 L273.31,99.72 L273.81,99.62 L274.31,99.50 L274.81,99.37 L275.31,99.23 L275.81,99.07 L276.31,98.91 L276.81,98.73 L277.31,98.54 L277.81,98.33 L278.32,98.12 L278.82,97.89 L279.32,97.65 L279.82,97.40 L280.32,97.14 L280.82,96.87 L281.32,96.58 L281.82,96.29 L282.32,95.98 L282.82,95.67 L283.32,95.34 L283.82,95.01 L284.32,94.66 L284.82,94.31 L285.32,93.94 L285.82,93.57 L286.32,93.19 L286.83,92.80 L287.33,92.40 L287.83,92.00 L288.33,91.59 L288.83,91.17 L289.33,90.74 L289.83,90.30 L290.33,89.86 L290.83,89.42 L291.33,88.96 L291.83,88.51 L292.33,88.04 L292.83,87.58 L293.33,87.10 L293.83,86.63 L294.33,86.15 L294.84,85.66 L295.34,85.18 L295.84,84.69 L296.34,84.19 L296.84,83.70 L297.34,83.20 L297.84,82.70 L298.34,82.21 L298.84,81.71 L299.34,81.21 L299.84,80.70 L300.34,80.20 L300.84,79.70 L301.34,79.21 L301.84,78.71 L302.34,78.21 L302.84,77.72 L303.35,77.23 L303.85,76.74 L304.35,76.25 L304.85,75.77 L305.35,75.29 L305.85,74.81 L306.35,74.34 L306.85,73.87 L307.35,73.41 L307.85,72.96 L308.35,72.51 L308.85,72.06 L309.35,71.62 L309.85,71.19 L310.35,70.76 L310.85,70.35 L311.36,69.94 L311.86,69.53 L312.36,69.14 L312.86,68.75 L313.36,68.37 L313.86,68.00 L314.36,67.64 L314.86,67.29 L315.36,66.94 L315.86,66.61 L316.36,66.29 L316.86,65.98 L317.36,65.67 L317.86,65.38 L318.36,65.10 L318.86,64.83 L319.37,64.57 L319.87,64.32 L320.37,64.09 L320.87,63.86 L321.37,63.65 L321.87,63.45 L322.37,63.26 L322.87,63.09 L323.37,62.92 L323.87,62.77 L324.37,62.63 L324.87,62.51 L325.37,62.39 L325.87,62.29 L326.37,62.21 L326.87,62.13 L327.37,62.07 L327.88,62.02 L328.38,61.99 L328.88,61.96 L329.38,61.96 L329.88,61.96 L330.38,61.98 L330.88,62.01 L331.38,62.05 L331.88,62.11 L332.38,62.18 L332.88,62.26 L333.38,62.35 L333.88,62.46 L334.38,62.58 L334.88,62.72 L335.38,62.86 L335.89,63.02 L336.39,63.19 L336.89,63.38 L337.39,63.57 L337.89,63.78 L338.39,64.00 L338.89,64.23 L339.39,64.48 L339.89,64.73 L340.39,65.00 L340.89,65.27 L341.39,65.56 L341.89,65.86 L342.39,66.17 L342.89,66.49 L343.39,66.82 L343.89,67.15 L344.40,67.50 L344.90,67.86 L345.40,68.23 L345.90,68.60 L346.40,68.99 L346.90,69.38 L347.40,69.78 L347.90,70.19 L348.40,70.60 L348.90,71.03 L349.40,71.46 L349.90,71.89 L350.40,72.34 L350.90,72.78 L351.40,73.24 L351.90,73.70 L352.41,74.16 L352.91,74.63 L353.41,75.11 L353.91,75.58 L354.41,76.07 L354.91,76.55 L355.41,77.04 L355.91,77.53 L356.41,78.02 L356.91,78.52 L357.41,79.02 L357.91,79.51 L358.41,80.01 L358.91,80.51 L359.41,81.01 L359.91,81.51 L360.42,82.01 L360.92,82.51 L361.42,83.01 L361.92,83.51 L362.42,84.01 L362.92,84.50 L363.42,84.99 L363.92,85.48 L364.42,85.96 L364.92,86.44 L365.42,86.92 L365.92,87.40 L366.42,87.87 L366.92,88.33 L367.42,88.79 L367.92,89.25 L368.42,89.69 L368.93,90.14 L369.43,90.57 L369.93,91.00 L370.43,91.43 L370.93,91.84 L371.43,92.25 L371.93,92.65 L372.43,93.04 L372.93,93.43 L373.43,93.80 L373.93,94.17 L374.43,94.53 L374.93,94.88 L375.43,95.22 L375.93,95.54 L376.43,95.86 L376.94,96.17 L377.44,96.47 L377.94,96.76 L378.44,97.04 L378.94,97.30 L379.44,97.56 L379.94,97.80 L380.44,98.03 L380.94,98.25 L381.44,98.46 L381.94,98.66 L382.44,98.84 L382.94,99.01 L383.44,99.17 L383.94,99.32 L384.44,99.45 L384.95,99.57 L385.45,99.68 L385.95,99.78 L386.45,99.86 L386.95,99.93 L387.45,99.99 L387.95,100.03 L388.45,100.06 L388.95,100.08 L389.45,100.08 L389.95,100.07 L390.45,100.05 L390.95,100.02 L391.45,99.97 L391.95,99.91 L392.45,99.83 L392.95,99.75 L393.46,99.65 L393.96,99.53 L394.46,99.41 L394.96,99.27 L395.46,99.12 L395.96,98.95 L396.46,98.78 L396.96,98.59 L397.46,98.39 L397.96,98.18 L398.46,97.95 L398.96,97.72 L399.46,97.47 L399.96,97.21 L400.46,96.94 L400.96,96.66 L401.47,96.37 L401.97,96.07 L402.47,95.76 L402.97,95.43 L403.47,95.10 L403.97,94.76 L404.47,94.41 L404.97,94.05 L405.47,93.68 L405.97,93.30 L406.47,92.91 L406.97,92.51 L407.47,92.11 L407.97,91.70 L408.47,91.28 L408.97,90.86 L409.47,90.42 L409.98,89.99 L410.48,89.54 L410.98,89.09 L411.48,88.63 L411.98,88.17 L412.48,87.71 L412.98,87.23 L413.48,86.76 L413.98,86.28 L414.48,85.80 L414.98,85.31 L415.48,84.82 L415.98,84.33 L416.48,83.84 L416.98,83.34 L417.48,82.84 L417.99,82.34 L418.49,81.84 L418.99,81.34 L419.49,80.84 L419.99,80.34 L420.49,79.84 L420.99,79.34 L421.49,78.84 L421.99,78.35 L422.49,77.85 L422.99,77.36 L423.49,76.87 L423.99,76.38 L424.49,75.90 L424.99,75.42 L425.49,74.94 L426.00,74.47 L426.50,74.00 L427.00,73.54 L427.50,73.08 L428.00,72.63 L428.50,72.18 L429.00,71.74 L429.50,71.31 L430.00,70.88" style="stroke-width: 1; stroke: rgba(255, 121, 121, 0.74);"/></g><rect class="real" x="21" y="1" width="408" height="178" style="stroke: gray; fill: transparent;"/></g><g style="font-family: Asana-Math, Asana;"><line x1="20" y1="185" x2="430" y2="185" fill="none" stroke="black" stroke-width="0.5"/><line x1="114.36791937123498" y1="185" x2="114.36791937123498" y2="189" fill="none" stroke="black" stroke-width="0.5"/><line x1="209.68894045125185" y1="185" x2="209.68894045125185" y2="189" fill="none" stroke="black" stroke-width="0.5"/><line x1="305.0099615312687" y1="185" x2="305.0099615312687" y2="189" fill="none" stroke="black" stroke-width="0.5"/><line x1="400.3309826112856" y1="185" x2="400.3309826112856" y2="189" fill="none" stroke="black" stroke-width="0.5"/><text text-anchor="middle" font-size="11" stroke="none" fill="gray" x="114.36791937123498" y="201">-5</text><text text-anchor="middle" font-size="11" stroke="none" fill="gray" x="209.68894045125185" y="201">0</text><text text-anchor="middle" font-size="11" stroke="none" fill="gray" x="305.0099615312687" y="201">5</text><text text-anchor="middle" font-size="11" stroke="none" fill="gray" x="400.3309826112856" y="201">10</text></g><g style="font-family: Asana-Math, Asana;"><line x1="15" y1="0" x2="15" y2="180" fill="none" stroke="black" stroke-width="0.5"/><line x1="11" y1="176.34002548895862" x2="15" y2="176.34002548895862" fill="none" stroke="black" stroke-width="0.5"/><line x1="11" y1="157.27582127295523" x2="15" y2="157.27582127295523" fill="none" stroke="black" stroke-width="0.5"/><line x1="11" y1="138.21161705695187" x2="15" y2="138.21161705695187" fill="none" stroke="black" stroke-width="0.5"/><line x1="11" y1="119.1474128409485" x2="15" y2="119.1474128409485" fill="none" stroke="black" stroke-width="0.5"/><line x1="11" y1="100.08320862494513" x2="15" y2="100.08320862494513" fill="none" stroke="black" stroke-width="0.5"/><line x1="11" y1="81.01900440894175" x2="15" y2="81.01900440894175" fill="none" stroke="black" stroke-width="0.5"/><line x1="11" y1="61.954800192938364" x2="15" y2="61.954800192938364" fill="none" stroke="black" stroke-width="0.5"/><line x1="11" y1="42.890595976935" x2="15" y2="42.890595976935" fill="none" stroke="black" stroke-width="0.5"/><line x1="11" y1="23.826391760931614" x2="15" y2="23.826391760931614" fill="none" stroke="black" stroke-width="0.5"/><line x1="11" y1="4.762187544928253" x2="15" y2="4.762187544928253" fill="none" stroke="black" stroke-width="0.5"/><text text-anchor="end" font-size="11" stroke="none" fill="gray" x="5" y="180.34002548895862">-5</text><text text-anchor="end" font-size="11" stroke="none" fill="gray" x="5" y="161.27582127295523">-4</text><text text-anchor="end" font-size="11" stroke="none" fill="gray" x="5" y="142.21161705695187">-3</text><text text-anchor="end" font-size="11" stroke="none" fill="gray" x="5" y="123.1474128409485">-2</text><text text-anchor="end" font-size="11" stroke="none" fill="gray" x="5" y="104.08320862494513">-1</text><text text-anchor="end" font-size="11" stroke="none" fill="gray" x="5" y="85.01900440894175">0</text><text text-anchor="end" font-size="11" stroke="none" fill="gray" x="5" y="65.95480019293836">1</text><text text-anchor="end" font-size="11" stroke="none" fill="gray" x="5" y="46.890595976935">2</text><text text-anchor="end" font-size="11" stroke="none" fill="gray" x="5" y="27.826391760931614">3</text><text text-anchor="end" font-size="11" stroke="none" fill="gray" x="5" y="8.762187544928253">4</text></g></g><g class="intersections-group"><g style="stroke: rgb(0, 0, 0); stroke-width: 1; fill: none;"/></g></g><g/><g/><!-- react-empty: 60412 --></svg>
        <svg xmlns="http://www.w3.org/2000/svg" width="660" height="300" style="width:660px;height:300px;font-family:Asana-Math, Asana;background:transparent;"></svg>
</svg>
