<svg xmlns="http://www.w3.org/2000/svg" width="662" height="302" style="
        width:662px;
        height:302px;
        background: transparent;
        fill: none;
">
        
        <svg xmlns="http://www.w3.org/2000/svg"><g class="shapes-region" style="stroke: black; fill: none;"><g class="composite-shape" data-amt="diagram/shapes/plot" style="transform: matrix(1, 0, 0, 1, 2, 0);"><defs><clipPath id="dp08589861573239133"><rect x="21" y="1" width="631" height="275.0520782470703"/></clipPath></defs><g clip-path="url(#dp08589861573239133)"><g><line x1="67.87510947619654" y1="0" x2="67.87510947619654" y2="277.0520782470703" fill="none" stroke="lightgray" stroke-width="0.5"/><line x1="155.6974191609499" y1="0" x2="155.6974191609499" y2="277.0520782470703" fill="none" stroke="lightgray" stroke-width="0.5"/><line x1="243.51972884570324" y1="0" x2="243.51972884570324" y2="277.0520782470703" fill="none" stroke="lightgray" stroke-width="0.5"/><line x1="331.34203853045653" y1="0" x2="331.34203853045653" y2="277.0520782470703" fill="none" stroke="lightgray" stroke-width="0.5"/><line x1="419.1643482152099" y1="0" x2="419.1643482152099" y2="277.0520782470703" fill="none" stroke="lightgray" stroke-width="0.5"/><line x1="506.98665789996323" y1="0" x2="506.98665789996323" y2="277.0520782470703" fill="none" stroke="lightgray" stroke-width="0.5"/><line x1="594.8089675847165" y1="0" x2="594.8089675847165" y2="277.0520782470703" fill="none" stroke="lightgray" stroke-width="0.5"/></g><g><line x1="20" y1="270.0868401420762" x2="653" y2="270.0868401420762" fill="none" stroke="lightgray" stroke-width="0.5"/><line x1="20" y1="226.17568529969952" x2="653" y2="226.17568529969952" fill="none" stroke="lightgray" stroke-width="0.5"/><line x1="20" y1="182.26453045732288" x2="653" y2="182.26453045732288" fill="none" stroke="lightgray" stroke-width="0.5"/><line x1="20" y1="138.3533756149462" x2="653" y2="138.3533756149462" fill="none" stroke="lightgray" stroke-width="0.5"/><line x1="20" y1="94.44222077256953" x2="653" y2="94.44222077256953" fill="none" stroke="lightgray" stroke-width="0.5"/><line x1="20" y1="50.53106593019288" x2="653" y2="50.53106593019288" fill="none" stroke="lightgray" stroke-width="0.5"/><line x1="20" y1="6.619911087816149" x2="653" y2="6.619911087816149" fill="none" stroke="lightgray" stroke-width="0.5"/></g><g><path d=" M20.00,138.36 L20.50,138.36 L21.00,138.36 L21.50,138.36 L22.00,138.36 L22.50,138.36 L23.00,138.36 L23.50,138.36 L24.00,138.36 L24.50,138.36 L25.00,138.36 L25.50,138.36 L26.00,138.36 L26.51,138.36 L27.01,138.36 L27.51,138.36 L28.01,138.36 L28.51,138.36 L29.01,138.36 L29.51,138.36 L30.01,138.36 L30.51,138.36 L31.01,138.36 L31.51,138.36 L32.01,138.36 L32.51,138.36 L33.01,138.36 L33.51,138.36 L34.01,138.37 L34.51,138.37 L35.01,138.37 L35.51,138.37 L36.01,138.37 L36.51,138.37 L37.01,138.37 L37.51,138.37 L38.01,138.37 L38.51,138.37 L39.02,138.37 L39.52,138.37 L40.02,138.37 L40.52,138.37 L41.02,138.38 L41.52,138.38 L42.02,138.38 L42.52,138.38 L43.02,138.38 L43.52,138.38 L44.02,138.38 L44.52,138.38 L45.02,138.38 L45.52,138.38 L46.02,138.39 L46.52,138.39 L47.02,138.39 L47.52,138.39 L48.02,138.39 L48.52,138.39 L49.02,138.39 L49.52,138.40 L50.02,138.40 L50.52,138.40 L51.02,138.40 L51.52,138.40 L52.03,138.41 L52.53,138.41 L53.03,138.41 L53.53,138.41 L54.03,138.41 L54.53,138.42 L55.03,138.42 L55.53,138.42 L56.03,138.42 L56.53,138.43 L57.03,138.43 L57.53,138.43 L58.03,138.44 L58.53,138.44 L59.03,138.44 L59.53,138.45 L60.03,138.45 L60.53,138.45 L61.03,138.46 L61.53,138.46 L62.03,138.46 L62.53,138.47 L63.03,138.47 L63.53,138.48 L64.03,138.48 L64.54,138.49 L65.04,138.49 L65.54,138.50 L66.04,138.50 L66.54,138.51 L67.04,138.51 L67.54,138.52 L68.04,138.52 L68.54,138.53 L69.04,138.54 L69.54,138.54 L70.04,138.55 L70.54,138.56 L71.04,138.57 L71.54,138.57 L72.04,138.58 L72.54,138.59 L73.04,138.60 L73.54,138.61 L74.04,138.61 L74.54,138.62 L75.04,138.63 L75.54,138.64 L76.04,138.65 L76.54,138.66 L77.05,138.67 L77.55,138.68 L78.05,138.70 L78.55,138.71 L79.05,138.72 L79.55,138.73 L80.05,138.74 L80.55,138.76 L81.05,138.77 L81.55,138.79 L82.05,138.80 L82.55,138.81 L83.05,138.83 L83.55,138.85 L84.05,138.86 L84.55,138.88 L85.05,138.90 L85.55,138.91 L86.05,138.93 L86.55,138.95 L87.05,138.97 L87.55,138.99 L88.05,139.01 L88.55,139.03 L89.05,139.05 L89.55,139.07 L90.06,139.10 L90.56,139.12 L91.06,139.14 L91.56,139.17 L92.06,139.19 L92.56,139.22 L93.06,139.25 L93.56,139.28 L94.06,139.30 L94.56,139.33 L95.06,139.36 L95.56,139.39 L96.06,139.42 L96.56,139.46 L97.06,139.49 L97.56,139.52 L98.06,139.56 L98.56,139.60 L99.06,139.63 L99.56,139.67 L100.06,139.71 L100.56,139.75 L101.06,139.79 L101.56,139.83 L102.06,139.88 L102.57,139.92 L103.07,139.97 L103.57,140.01 L104.07,140.06 L104.57,140.11 L105.07,140.16 L105.57,140.21 L106.07,140.26 L106.57,140.32 L107.07,140.37 L107.57,140.43 L108.07,140.48 L108.57,140.54 L109.07,140.60 L109.57,140.67 L110.07,140.73 L110.57,140.80 L111.07,140.86 L111.57,140.93 L112.07,141.00 L112.57,141.07 L113.07,141.14 L113.57,141.22 L114.07,141.29 L114.57,141.37 L115.08,141.45 L115.58,141.53 L116.08,141.62 L116.58,141.70 L117.08,141.79 L117.58,141.88 L118.08,141.97 L118.58,142.06 L119.08,142.16 L119.58,142.25 L120.08,142.35 L120.58,142.45 L121.08,142.56 L121.58,142.66 L122.08,142.77 L122.58,142.88 L123.08,142.99 L123.58,143.10 L124.08,143.22 L124.58,143.34 L125.08,143.46 L125.58,143.58 L126.08,143.71 L126.58,143.84 L127.08,143.97 L127.58,144.10 L128.09,144.24 L128.59,144.38 L129.09,144.52 L129.59,144.66 L130.09,144.81 L130.59,144.96 L131.09,145.11 L131.59,145.27 L132.09,145.42 L132.59,145.58 L133.09,145.75 L133.59,145.91 L134.09,146.08 L134.59,146.26 L135.09,146.43 L135.59,146.61 L136.09,146.79 L136.59,146.98 L137.09,147.16 L137.59,147.35 L138.09,147.55 L138.59,147.75 L139.09,147.95 L139.59,148.15 L140.09,148.36 L140.60,148.57 L141.10,148.78 L141.60,149.00 L142.10,149.22 L142.60,149.44 L143.10,149.67 L143.60,149.90 L144.10,150.14 L144.60,150.37 L145.10,150.62 L145.60,150.86 L146.10,151.11 L146.60,151.36 L147.10,151.62 L147.60,151.88 L148.10,152.14 L148.60,152.41 L149.10,152.68 L149.60,152.95 L150.10,153.23 L150.60,153.51 L151.10,153.80 L151.60,154.09 L152.10,154.38 L152.60,154.68 L153.11,154.98 L153.61,155.28 L154.11,155.59 L154.61,155.90 L155.11,156.22 L155.61,156.53 L156.11,156.86 L156.61,157.18 L157.11,157.51 L157.61,157.85 L158.11,158.19 L158.61,158.53 L159.11,158.87 L159.61,159.22 L160.11,159.58 L160.61,159.93 L161.11,160.29 L161.61,160.66 L162.11,161.02 L162.61,161.40 L163.11,161.77 L163.61,162.15 L164.11,162.53 L164.61,162.92 L165.11,163.31 L165.62,163.70 L166.12,164.09 L166.62,164.49 L167.12,164.90 L167.62,165.30 L168.12,165.71 L168.62,166.13 L169.12,166.54 L169.62,166.96 L170.12,167.38 L170.62,167.81 L171.12,168.24 L171.62,168.67 L172.12,169.10 L172.62,169.54 L173.12,169.98 L173.62,170.42 L174.12,170.87 L174.62,171.32 L175.12,171.77 L175.62,172.22 L176.12,172.68 L176.62,173.14 L177.12,173.60 L177.62,174.06 L178.12,174.53 L178.63,174.99 L179.13,175.46 L179.63,175.93 L180.13,176.41 L180.63,176.88 L181.13,177.36 L181.63,177.84 L182.13,178.32 L182.63,178.80 L183.13,179.28 L183.63,179.76 L184.13,180.25 L184.63,180.73 L185.13,181.22 L185.63,181.71 L186.13,182.19 L186.63,182.68 L187.13,183.17 L187.63,183.66 L188.13,184.15 L188.63,184.64 L189.13,185.13 L189.63,185.62 L190.13,186.11 L190.63,186.60 L191.14,187.09 L191.64,187.58 L192.14,188.06 L192.64,188.55 L193.14,189.04 L193.64,189.52 L194.14,190.00 L194.64,190.49 L195.14,190.97 L195.64,191.45 L196.14,191.92 L196.64,192.40 L197.14,192.87 L197.64,193.34 L198.14,193.81 L198.64,194.28 L199.14,194.74 L199.64,195.20 L200.14,195.66 L200.64,196.11 L201.14,196.57 L201.64,197.01 L202.14,197.46 L202.64,197.90 L203.14,198.34 L203.65,198.77 L204.15,199.20 L204.65,199.62 L205.15,200.04 L205.65,200.46 L206.15,200.87 L206.65,201.28 L207.15,201.68 L207.65,202.08 L208.15,202.47 L208.65,202.85 L209.15,203.23 L209.65,203.60 L210.15,203.97 L210.65,204.33 L211.15,204.69 L211.65,205.04 L212.15,205.38 L212.65,205.71 L213.15,206.04 L213.65,206.36 L214.15,206.68 L214.65,206.99 L215.15,207.29 L215.65,207.58 L216.15,207.86 L216.66,208.14 L217.16,208.40 L217.66,208.66 L218.16,208.92 L218.66,209.16 L219.16,209.39 L219.66,209.62 L220.16,209.83 L220.66,210.04 L221.16,210.24 L221.66,210.43 L222.16,210.61 L222.66,210.78 L223.16,210.94 L223.66,211.09 L224.16,211.23 L224.66,211.36 L225.16,211.48 L225.66,211.58 L226.16,211.68 L226.66,211.77 L227.16,211.85 L227.66,211.92 L228.16,211.97 L228.66,212.02 L229.17,212.05 L229.67,212.07 L230.17,212.08 L230.67,212.08 L231.17,212.07 L231.67,212.05 L232.17,212.01 L232.67,211.96 L233.17,211.91 L233.67,211.84 L234.17,211.75 L234.67,211.66 L235.17,211.55 L235.67,211.43 L236.17,211.30 L236.67,211.16 L237.17,211.00 L237.67,210.83 L238.17,210.65 L238.67,210.46 L239.17,210.25 L239.67,210.04 L240.17,209.80 L240.67,209.56 L241.17,209.31 L241.68,209.04 L242.18,208.76 L242.68,208.46 L243.18,208.15 L243.68,207.84 L244.18,207.50 L244.68,207.16 L245.18,206.80 L245.68,206.43 L246.18,206.05 L246.68,205.65 L247.18,205.25 L247.68,204.82 L248.18,204.39 L248.68,203.95 L249.18,203.49 L249.68,203.02 L250.18,202.54 L250.68,202.04 L251.18,201.53 L251.68,201.01 L252.18,200.48 L252.68,199.94 L253.18,199.38 L253.68,198.82 L254.18,198.24 L254.69,197.65 L255.19,197.04 L255.69,196.43 L256.19,195.80 L256.69,195.17 L257.19,194.52 L257.69,193.86 L258.19,193.19 L258.69,192.51 L259.19,191.82 L259.69,191.12 L260.19,190.40 L260.69,189.68 L261.19,188.95 L261.69,188.20 L262.19,187.45 L262.69,186.69 L263.19,185.91 L263.69,185.13 L264.19,184.34 L264.69,183.54 L265.19,182.73 L265.69,181.91 L266.19,181.09 L266.69,180.25 L267.20,179.41 L267.70,178.56 L268.20,177.70 L268.70,176.83 L269.20,175.96 L269.70,175.07 L270.20,174.19 L270.70,173.29 L271.20,172.39 L271.70,171.48 L272.20,170.56 L272.70,169.64 L273.20,168.72 L273.70,167.78 L274.20,166.85 L274.70,165.90 L275.20,164.96 L275.70,164.01 L276.20,163.05 L276.70,162.09 L277.20,161.12 L277.70,160.16 L278.20,159.18 L278.70,158.21 L279.20,157.23 L279.71,156.25 L280.21,155.27 L280.71,154.28 L281.21,153.30 L281.71,152.31 L282.21,151.32 L282.71,150.33 L283.21,149.34 L283.71,148.34 L284.21,147.35 L284.71,146.36 L285.21,145.36 L285.71,144.37 L286.21,143.38 L286.71,142.39 L287.21,141.40 L287.71,140.41 L288.21,139.42 L288.71,138.44 L289.21,137.46 L289.71,136.48 L290.21,135.50 L290.71,134.53 L291.21,133.56 L291.71,132.59 L292.22,131.63 L292.72,130.67 L293.22,129.71 L293.72,128.76 L294.22,127.82 L294.72,126.88 L295.22,125.95 L295.72,125.02 L296.22,124.10 L296.72,123.18 L297.22,122.27 L297.72,121.37 L298.22,120.47 L298.72,119.58 L299.22,118.70 L299.72,117.83 L300.22,116.96 L300.72,116.11 L301.22,115.26 L301.72,114.42 L302.22,113.59 L302.72,112.76 L303.22,111.95 L303.72,111.15 L304.22,110.36 L304.72,109.57 L305.23,108.80 L305.73,108.04 L306.23,107.29 L306.73,106.55 L307.23,105.82 L307.73,105.11 L308.23,104.40 L308.73,103.71 L309.23,103.03 L309.73,102.36 L310.23,101.70 L310.73,101.06 L311.23,100.42 L311.73,99.81 L312.23,99.20 L312.73,98.61 L313.23,98.03 L313.73,97.47 L314.23,96.92 L314.73,96.38 L315.23,95.86 L315.73,95.35 L316.23,94.86 L316.73,94.38 L317.23,93.91 L317.74,93.46 L318.24,93.03 L318.74,92.61 L319.24,92.21 L319.74,91.82 L320.24,91.45 L320.74,91.09 L321.24,90.75 L321.74,90.42 L322.24,90.11 L322.74,89.82 L323.24,89.54 L323.74,89.28 L324.24,89.04 L324.74,88.81 L325.24,88.60 L325.74,88.40 L326.24,88.22 L326.74,88.06 L327.24,87.91 L327.74,87.78 L328.24,87.67 L328.74,87.58 L329.24,87.50 L329.74,87.43 L330.25,87.39 L330.75,87.36 L331.25,87.35 L331.75,87.35 L332.25,87.38 L332.75,87.41 L333.25,87.47 L333.75,87.54 L334.25,87.63 L334.75,87.74 L335.25,87.86 L335.75,88.00 L336.25,88.16 L336.75,88.33 L337.25,88.52 L337.75,88.72 L338.25,88.95 L338.75,89.19 L339.25,89.44 L339.75,89.71 L340.25,90.00 L340.75,90.30 L341.25,90.62 L341.75,90.96 L342.25,91.31 L342.75,91.67 L343.26,92.06 L343.76,92.45 L344.26,92.87 L344.76,93.30 L345.26,93.74 L345.76,94.20 L346.26,94.67 L346.76,95.16 L347.26,95.66 L347.76,96.18 L348.26,96.71 L348.76,97.25 L349.26,97.81 L349.76,98.39 L350.26,98.97 L350.76,99.57 L351.26,100.19 L351.76,100.81 L352.26,101.45 L352.76,102.10 L353.26,102.77 L353.76,103.44 L354.26,104.13 L354.76,104.83 L355.26,105.55 L355.77,106.27 L356.27,107.01 L356.77,107.75 L357.27,108.51 L357.77,109.28 L358.27,110.06 L358.77,110.84 L359.27,111.64 L359.77,112.45 L360.27,113.27 L360.77,114.10 L361.27,114.93 L361.77,115.78 L362.27,116.63 L362.77,117.49 L363.27,118.36 L363.77,119.24 L364.27,120.13 L364.77,121.02 L365.27,121.92 L365.77,122.83 L366.27,123.74 L366.77,124.66 L367.27,125.59 L367.77,126.52 L368.28,127.46 L368.78,128.40 L369.28,129.35 L369.78,130.30 L370.28,131.26 L370.78,132.22 L371.28,133.18 L371.78,134.15 L372.28,135.13 L372.78,136.10 L373.28,137.08 L373.78,138.06 L374.28,139.05 L374.78,140.03 L375.28,141.02 L375.78,142.01 L376.28,143.00 L376.78,143.99 L377.28,144.98 L377.78,145.97 L378.28,146.97 L378.78,147.96 L379.28,148.95 L379.78,149.95 L380.28,150.94 L380.78,151.93 L381.29,152.92 L381.79,153.90 L382.29,154.89 L382.79,155.87 L383.29,156.86 L383.79,157.83 L384.29,158.81 L384.79,159.78 L385.29,160.75 L385.79,161.72 L386.29,162.68 L386.79,163.64 L387.29,164.59 L387.79,165.54 L388.29,166.49 L388.79,167.42 L389.29,168.36 L389.79,169.29 L390.29,170.21 L390.79,171.13 L391.29,172.04 L391.79,172.94 L392.29,173.84 L392.79,174.73 L393.29,175.62 L393.80,176.49 L394.30,177.36 L394.80,178.23 L395.30,179.08 L395.80,179.93 L396.30,180.77 L396.80,181.60 L397.30,182.42 L397.80,183.23 L398.30,184.03 L398.80,184.83 L399.30,185.61 L399.80,186.39 L400.30,187.16 L400.80,187.91 L401.30,188.66 L401.80,189.40 L402.30,190.13 L402.80,190.84 L403.30,191.55 L403.80,192.24 L404.30,192.93 L404.80,193.60 L405.30,194.27 L405.80,194.92 L406.31,195.56 L406.81,196.19 L407.31,196.81 L407.81,197.42 L408.31,198.01 L408.81,198.59 L409.31,199.17 L409.81,199.73 L410.31,200.27 L410.81,200.81 L411.31,201.33 L411.81,201.85 L412.31,202.35 L412.81,202.83 L413.31,203.31 L413.81,203.77 L414.31,204.22 L414.81,204.66 L415.31,205.08 L415.81,205.50 L416.31,205.90 L416.81,206.29 L417.31,206.66 L417.81,207.02 L418.31,207.37 L418.82,207.71 L419.32,208.03 L419.82,208.34 L420.32,208.64 L420.82,208.93 L421.32,209.20 L421.82,209.46 L422.32,209.71 L422.82,209.95 L423.32,210.17 L423.82,210.38 L424.32,210.58 L424.82,210.77 L425.32,210.94 L425.82,211.10 L426.32,211.25 L426.82,211.38 L427.32,211.51 L427.82,211.62 L428.32,211.72 L428.82,211.81 L429.32,211.88 L429.82,211.94 L430.32,212.00 L430.82,212.03 L431.32,212.06 L431.83,212.08 L432.33,212.08 L432.83,212.08 L433.33,212.06 L433.83,212.03 L434.33,211.99 L434.83,211.94 L435.33,211.88 L435.83,211.80 L436.33,211.72 L436.83,211.62 L437.33,211.52 L437.83,211.40 L438.33,211.28 L438.83,211.14 L439.33,211.00 L439.83,210.84 L440.33,210.67 L440.83,210.50 L441.33,210.31 L441.83,210.12 L442.33,209.92 L442.83,209.70 L443.33,209.48 L443.83,209.25 L444.34,209.01 L444.84,208.76 L445.34,208.51 L445.84,208.24 L446.34,207.97 L446.84,207.69 L447.34,207.40 L447.84,207.10 L448.34,206.80 L448.84,206.49 L449.34,206.17 L449.84,205.84 L450.34,205.51 L450.84,205.17 L451.34,204.82 L451.84,204.47 L452.34,204.11 L452.84,203.75 L453.34,203.37 L453.84,203.00 L454.34,202.61 L454.84,202.23 L455.34,201.83 L455.84,201.43 L456.34,201.03 L456.85,200.62 L457.35,200.21 L457.85,199.79 L458.35,199.36 L458.85,198.94 L459.35,198.50 L459.85,198.07 L460.35,197.63 L460.85,197.19 L461.35,196.74 L461.85,196.29 L462.35,195.83 L462.85,195.38 L463.35,194.92 L463.85,194.46 L464.35,193.99 L464.85,193.52 L465.35,193.05 L465.85,192.58 L466.35,192.11 L466.85,191.63 L467.35,191.15 L467.85,190.67 L468.35,190.19 L468.85,189.71 L469.35,189.22 L469.86,188.74 L470.36,188.25 L470.86,187.76 L471.36,187.28 L471.86,186.79 L472.36,186.30 L472.86,185.81 L473.36,185.32 L473.86,184.83 L474.36,184.34 L474.86,183.85 L475.36,183.36 L475.86,182.87 L476.36,182.38 L476.86,181.89 L477.36,181.41 L477.86,180.92 L478.36,180.43 L478.86,179.95 L479.36,179.46 L479.86,178.98 L480.36,178.50 L480.86,178.02 L481.36,177.54 L481.86,177.06 L482.37,176.59 L482.87,176.12 L483.37,175.64 L483.87,175.17 L484.37,174.71 L484.87,174.24 L485.37,173.78 L485.87,173.31 L486.37,172.86 L486.87,172.40 L487.37,171.94 L487.87,171.49 L488.37,171.04 L488.87,170.60 L489.37,170.15 L489.87,169.71 L490.37,169.27 L490.87,168.84 L491.37,168.40 L491.87,167.97 L492.37,167.55 L492.87,167.12 L493.37,166.70 L493.87,166.29 L494.37,165.87 L494.88,165.46 L495.38,165.05 L495.88,164.65 L496.38,164.25 L496.88,163.85 L497.38,163.46 L497.88,163.07 L498.38,162.68 L498.88,162.30 L499.38,161.92 L499.88,161.54 L500.38,161.17 L500.88,160.80 L501.38,160.43 L501.88,160.07 L502.38,159.71 L502.88,159.36 L503.38,159.01 L503.88,158.66 L504.38,158.32 L504.88,157.98 L505.38,157.64 L505.88,157.31 L506.38,156.98 L506.88,156.66 L507.38,156.34 L507.89,156.02 L508.39,155.71 L508.89,155.40 L509.39,155.09 L509.89,154.79 L510.39,154.49 L510.89,154.20 L511.39,153.91 L511.89,153.62 L512.39,153.34 L512.89,153.06 L513.39,152.78 L513.89,152.51 L514.39,152.24 L514.89,151.98 L515.39,151.72 L515.89,151.46 L516.39,151.21 L516.89,150.96 L517.39,150.71 L517.89,150.47 L518.39,150.23 L518.89,149.99 L519.39,149.76 L519.89,149.53 L520.40,149.31 L520.90,149.08 L521.40,148.87 L521.90,148.65 L522.40,148.44 L522.90,148.23 L523.40,148.02 L523.90,147.82 L524.40,147.62 L524.90,147.43 L525.40,147.24 L525.90,147.05 L526.40,146.86 L526.90,146.68 L527.40,146.50 L527.90,146.32 L528.40,146.15 L528.90,145.98 L529.40,145.81 L529.90,145.65 L530.40,145.48 L530.90,145.33 L531.40,145.17 L531.90,145.02 L532.40,144.87 L532.91,144.72 L533.41,144.57 L533.91,144.43 L534.41,144.29 L534.91,144.15 L535.41,144.02 L535.91,143.89 L536.41,143.76 L536.91,143.63 L537.41,143.51 L537.91,143.38 L538.41,143.27 L538.91,143.15 L539.41,143.03 L539.91,142.92 L540.41,142.81 L540.91,142.70 L541.41,142.60 L541.91,142.49 L542.41,142.39 L542.91,142.29 L543.41,142.19 L543.91,142.10 L544.41,142.00 L544.91,141.91 L545.42,141.82 L545.92,141.73 L546.42,141.65 L546.92,141.56 L547.42,141.48 L547.92,141.40 L548.42,141.32 L548.92,141.25 L549.42,141.17 L549.92,141.10 L550.42,141.03 L550.92,140.96 L551.42,140.89 L551.92,140.82 L552.42,140.75 L552.92,140.69 L553.42,140.63 L553.92,140.57 L554.42,140.51 L554.92,140.45 L555.42,140.39 L555.92,140.34 L556.42,140.28 L556.92,140.23 L557.42,140.18 L557.92,140.13 L558.43,140.08 L558.93,140.03 L559.43,139.98 L559.93,139.94 L560.43,139.89 L560.93,139.85 L561.43,139.81 L561.93,139.77 L562.43,139.73 L562.93,139.69 L563.43,139.65 L563.93,139.61 L564.43,139.57 L564.93,139.54 L565.43,139.50 L565.93,139.47 L566.43,139.44 L566.93,139.41 L567.43,139.37 L567.93,139.34 L568.43,139.31 L568.93,139.29 L569.43,139.26 L569.93,139.23 L570.43,139.20 L570.94,139.18 L571.44,139.15 L571.94,139.13 L572.44,139.11 L572.94,139.08 L573.44,139.06 L573.94,139.04 L574.44,139.02 L574.94,139.00 L575.44,138.98 L575.94,138.96 L576.44,138.94 L576.94,138.92 L577.44,138.90 L577.94,138.88 L578.44,138.87 L578.94,138.85 L579.44,138.84 L579.94,138.82 L580.44,138.81 L580.94,138.79 L581.44,138.78 L581.94,138.76 L582.44,138.75 L582.94,138.74 L583.45,138.72 L583.95,138.71 L584.45,138.70 L584.95,138.69 L585.45,138.68 L585.95,138.67 L586.45,138.66 L586.95,138.65 L587.45,138.64 L587.95,138.63 L588.45,138.62 L588.95,138.61 L589.45,138.60 L589.95,138.59 L590.45,138.58 L590.95,138.58 L591.45,138.57 L591.95,138.56 L592.45,138.55 L592.95,138.55 L593.45,138.54 L593.95,138.53 L594.45,138.53 L594.95,138.52 L595.45,138.52 L595.95,138.51 L596.46,138.50 L596.96,138.50 L597.46,138.49 L597.96,138.49 L598.46,138.48 L598.96,138.48 L599.46,138.47 L599.96,138.47 L600.46,138.47 L600.96,138.46 L601.46,138.46 L601.96,138.45 L602.46,138.45 L602.96,138.45 L603.46,138.44 L603.96,138.44 L604.46,138.44 L604.96,138.43 L605.46,138.43 L605.96,138.43 L606.46,138.43 L606.96,138.42 L607.46,138.42 L607.96,138.42 L608.46,138.42 L608.97,138.41 L609.47,138.41 L609.97,138.41 L610.47,138.41 L610.97,138.40 L611.47,138.40 L611.97,138.40 L612.47,138.40 L612.97,138.40 L613.47,138.40 L613.97,138.39 L614.47,138.39 L614.97,138.39 L615.47,138.39 L615.97,138.39 L616.47,138.39 L616.97,138.39 L617.47,138.38 L617.97,138.38 L618.47,138.38 L618.97,138.38 L619.47,138.38 L619.97,138.38 L620.47,138.38 L620.97,138.38 L621.48,138.38 L621.98,138.37 L622.48,138.37 L622.98,138.37 L623.48,138.37 L623.98,138.37 L624.48,138.37 L624.98,138.37 L625.48,138.37 L625.98,138.37 L626.48,138.37 L626.98,138.37 L627.48,138.37 L627.98,138.37 L628.48,138.37 L628.98,138.37 L629.48,138.36 L629.98,138.36 L630.48,138.36 L630.98,138.36 L631.48,138.36 L631.98,138.36 L632.48,138.36 L632.98,138.36 L633.48,138.36 L633.98,138.36 L634.49,138.36 L634.99,138.36 L635.49,138.36 L635.99,138.36 L636.49,138.36 L636.99,138.36 L637.49,138.36 L637.99,138.36 L638.49,138.36 L638.99,138.36 L639.49,138.36 L639.99,138.36 L640.49,138.36 L640.99,138.36 L641.49,138.36 L641.99,138.36 L642.49,138.36 L642.99,138.36 L643.49,138.36 L643.99,138.36 L644.49,138.36 L644.99,138.36 L645.49,138.36 L645.99,138.36 L646.49,138.36 L647.00,138.36 L647.50,138.36 L648.00,138.36 L648.50,138.36 L649.00,138.36 L649.50,138.36 L650.00,138.36 L650.50,138.36 L651.00,138.36 L651.50,138.35 L652.00,138.35 L652.50,138.35 L653.00,138.35" style="stroke-width: 2; stroke: rgb(74, 144, 226);"/></g><rect class="real" x="21" y="1" width="631" height="275.0520782470703" style="stroke: gray; fill: transparent;"/></g><g style="font-family: Asana-Math, Asana;"><line x1="20" y1="282.0520782470703" x2="653" y2="282.0520782470703" fill="none" stroke="black" stroke-width="0.5"/><line x1="67.87510947619654" y1="282.0520782470703" x2="67.87510947619654" y2="286.0520782470703" fill="none" stroke="black" stroke-width="0.5"/><line x1="155.6974191609499" y1="282.0520782470703" x2="155.6974191609499" y2="286.0520782470703" fill="none" stroke="black" stroke-width="0.5"/><line x1="243.51972884570324" y1="282.0520782470703" x2="243.51972884570324" y2="286.0520782470703" fill="none" stroke="black" stroke-width="0.5"/><line x1="331.34203853045653" y1="282.0520782470703" x2="331.34203853045653" y2="286.0520782470703" fill="none" stroke="black" stroke-width="0.5"/><line x1="419.1643482152099" y1="282.0520782470703" x2="419.1643482152099" y2="286.0520782470703" fill="none" stroke="black" stroke-width="0.5"/><line x1="506.98665789996323" y1="282.0520782470703" x2="506.98665789996323" y2="286.0520782470703" fill="none" stroke="black" stroke-width="0.5"/><line x1="594.8089675847165" y1="282.0520782470703" x2="594.8089675847165" y2="286.0520782470703" fill="none" stroke="black" stroke-width="0.5"/><text text-anchor="middle" font-size="11" stroke="none" fill="gray" x="67.87510947619654" y="298.0520782470703">-3</text><text text-anchor="middle" font-size="11" stroke="none" fill="gray" x="155.6974191609499" y="298.0520782470703">-2</text><text text-anchor="middle" font-size="11" stroke="none" fill="gray" x="243.51972884570324" y="298.0520782470703">-1</text><text text-anchor="middle" font-size="11" stroke="none" fill="gray" x="331.34203853045653" y="298.0520782470703">0</text><text text-anchor="middle" font-size="11" stroke="none" fill="gray" x="419.1643482152099" y="298.0520782470703">1</text><text text-anchor="middle" font-size="11" stroke="none" fill="gray" x="506.98665789996323" y="298.0520782470703">2</text><text text-anchor="middle" font-size="11" stroke="none" fill="gray" x="594.8089675847165" y="298.0520782470703">3</text></g><g style="font-family: Asana-Math, Asana;"><line x1="15" y1="0" x2="15" y2="277.0520782470703" fill="none" stroke="black" stroke-width="0.5"/><line x1="11" y1="270.0868401420762" x2="15" y2="270.0868401420762" fill="none" stroke="black" stroke-width="0.5"/><line x1="11" y1="226.17568529969952" x2="15" y2="226.17568529969952" fill="none" stroke="black" stroke-width="0.5"/><line x1="11" y1="182.26453045732288" x2="15" y2="182.26453045732288" fill="none" stroke="black" stroke-width="0.5"/><line x1="11" y1="138.3533756149462" x2="15" y2="138.3533756149462" fill="none" stroke="black" stroke-width="0.5"/><line x1="11" y1="94.44222077256953" x2="15" y2="94.44222077256953" fill="none" stroke="black" stroke-width="0.5"/><line x1="11" y1="50.53106593019288" x2="15" y2="50.53106593019288" fill="none" stroke="black" stroke-width="0.5"/><line x1="11" y1="6.619911087816149" x2="15" y2="6.619911087816149" fill="none" stroke="black" stroke-width="0.5"/><text text-anchor="end" font-size="11" stroke="none" fill="gray" x="5" y="274.0868401420762">-1.5</text><text text-anchor="end" font-size="11" stroke="none" fill="gray" x="5" y="230.17568529969952">-1</text><text text-anchor="end" font-size="11" stroke="none" fill="gray" x="5" y="186.26453045732288">-0.5</text><text text-anchor="end" font-size="11" stroke="none" fill="gray" x="5" y="142.3533756149462">0</text><text text-anchor="end" font-size="11" stroke="none" fill="gray" x="5" y="98.44222077256953">0.5</text><text text-anchor="end" font-size="11" stroke="none" fill="gray" x="5" y="54.53106593019288">1</text><text text-anchor="end" font-size="11" stroke="none" fill="gray" x="5" y="10.61991108781615">1.5</text></g></g><g class="intersections-group"><g style="stroke: rgb(0, 0, 0); stroke-width: 1; fill: none;"/></g></g><g/><g/><!-- react-empty: 1290 --></svg>
        <svg xmlns="http://www.w3.org/2000/svg" width="660" height="300" style="width:660px;height:300px;font-family:Asana-Math, Asana;background:transparent;"><g><g><g style="transform:matrix(1,0,0,1,326.71356201171875,151.56665649414063);"><path d="M604 241L604 300L364 300L364 538L305 538L305 300L65 300L65 241L305 241L305 0L364 0L364 241Z" stroke="rgb(0, 0, 0)" stroke-width="8" fill="rgb(0, 0, 0)" style="transform:matrix(0.0119,0,0,-0.0119,0,0);"></path></g><g style="transform:matrix(1,0,0,1,334.71356201171875,151.56665649414063);"><path d="M328 111L304 94C251 56 203 36 167 36C120 36 91 73 91 133C91 158 94 185 99 214C116 218 225 248 250 259C335 296 374 342 374 404C374 451 340 482 290 482C222 496 112 423 75 349C45 299 15 180 15 113C15 35 59 -11 131 -11C188 -11 244 17 336 92ZM113 274C130 343 150 386 179 412C197 428 228 440 252 440C281 440 300 420 300 388C300 344 265 297 213 272C185 258 149 247 104 237Z" stroke="rgb(0, 0, 0)" stroke-width="8" fill="rgb(0, 0, 0)" style="transform:matrix(0.0119,0,0,-0.0119,0,0);"></path></g></g></g><g><g><g style="transform:matrix(1,0,0,1,428.08856201171875,153.56665649414063);"><path d="M555 243L555 299L51 299L51 243Z" stroke="rgb(0, 0, 0)" stroke-width="8" fill="rgb(0, 0, 0)" style="transform:matrix(0.0119,0,0,-0.0119,0,0);"></path></g><g style="transform:matrix(1,0,0,1,435.421875,153.56665649414063);"><path d="M328 111L304 94C251 56 203 36 167 36C120 36 91 73 91 133C91 158 94 185 99 214C116 218 225 248 250 259C335 296 374 342 374 404C374 451 340 482 290 482C222 496 112 423 75 349C45 299 15 180 15 113C15 35 59 -11 131 -11C188 -11 244 17 336 92ZM113 274C130 343 150 386 179 412C197 428 228 440 252 440C281 440 300 420 300 388C300 344 265 297 213 272C185 258 149 247 104 237Z" stroke="rgb(0, 0, 0)" stroke-width="8" fill="rgb(0, 0, 0)" style="transform:matrix(0.0119,0,0,-0.0119,0,0);"></path></g></g></g><g><g><g style="transform:matrix(1,0,0,1,222.08856201171875,154.56665649414063);"><path d="M555 243L555 299L51 299L51 243Z" stroke="rgb(0, 0, 0)" stroke-width="8" fill="rgb(0, 0, 0)" style="transform:matrix(0.0119,0,0,-0.0119,0,0);"></path></g><g style="transform:matrix(1,0,0,1,229.421875,154.56665649414063);"><path d="M328 111L304 94C251 56 203 36 167 36C120 36 91 73 91 133C91 158 94 185 99 214C116 218 225 248 250 259C335 296 374 342 374 404C374 451 340 482 290 482C222 496 112 423 75 349C45 299 15 180 15 113C15 35 59 -11 131 -11C188 -11 244 17 336 92ZM113 274C130 343 150 386 179 412C197 428 228 440 252 440C281 440 300 420 300 388C300 344 265 297 213 272C185 258 149 247 104 237Z" stroke="rgb(0, 0, 0)" stroke-width="8" fill="rgb(0, 0, 0)" style="transform:matrix(0.0119,0,0,-0.0119,0,0);"></path></g></g></g></svg>
</svg>
