<svg xmlns="http://www.w3.org/2000/svg" width="662" height="302" style="
        width:662px;
        height:302px;
        background: transparent;
        fill: none;
">
        
        <svg xmlns="http://www.w3.org/2000/svg"><g class="shapes-region" style="stroke: black; fill: none;"><g class="composite-shape" data-amt="diagram/shapes/plot" style="transform: matrix(1, 0, 0, 1, 116, 33);"><defs><clipPath id="dp08589861573239133"><rect x="21" y="1" width="408" height="178"/></clipPath></defs><g clip-path="url(#dp08589861573239133)"><g><line x1="21.007632282017752" y1="0" x2="21.007632282017752" y2="180" fill="none" stroke="lightgray" stroke-width="0.5"/><line x1="69.94132502341174" y1="0" x2="69.94132502341174" y2="180" fill="none" stroke="lightgray" stroke-width="0.5"/><line x1="118.87501776480573" y1="0" x2="118.87501776480573" y2="180" fill="none" stroke="lightgray" stroke-width="0.5"/><line x1="167.80871050619973" y1="0" x2="167.80871050619973" y2="180" fill="none" stroke="lightgray" stroke-width="0.5"/><line x1="216.74240324759373" y1="0" x2="216.74240324759373" y2="180" fill="none" stroke="lightgray" stroke-width="0.5"/><line x1="265.67609598898775" y1="0" x2="265.67609598898775" y2="180" fill="none" stroke="lightgray" stroke-width="0.5"/><line x1="314.6097887303817" y1="0" x2="314.6097887303817" y2="180" fill="none" stroke="lightgray" stroke-width="0.5"/><line x1="363.5434814717757" y1="0" x2="363.5434814717757" y2="180" fill="none" stroke="lightgray" stroke-width="0.5"/><line x1="412.47717421316975" y1="0" x2="412.47717421316975" y2="180" fill="none" stroke="lightgray" stroke-width="0.5"/></g><g><line x1="20" y1="136.74741331688273" x2="430" y2="136.74741331688273" fill="none" stroke="lightgray" stroke-width="0.5"/><line x1="20" y1="87.81372057548874" x2="430" y2="87.81372057548874" fill="none" stroke="lightgray" stroke-width="0.5"/><line x1="20" y1="38.88002783409473" x2="430" y2="38.88002783409473" fill="none" stroke="lightgray" stroke-width="0.5"/></g><g><path d=" M20.00,87.81 L20.50,87.81 L21.00,87.81 L21.50,87.81 L22.00,87.81 L22.50,87.81 L23.00,87.81 L23.50,87.81 L24.00,87.81 L24.51,87.81 L25.01,87.81 L25.51,87.81 L26.01,87.81 L26.51,87.81 L27.01,87.81 L27.51,87.81 L28.01,87.81 L28.51,87.81 L29.01,87.81 L29.51,87.81 L30.01,87.81 L30.51,87.81 L31.01,87.81 L31.51,87.81 L32.01,87.81 L32.52,87.81 L33.02,87.81 L33.52,87.81 L34.02,87.81 L34.52,87.81 L35.02,87.81 L35.52,87.81 L36.02,87.81 L36.52,87.81 L37.02,87.81 L37.52,87.81 L38.02,87.81 L38.52,87.81 L39.02,87.81 L39.52,87.81 L40.02,87.81 L40.53,87.81 L41.03,87.82 L41.53,87.82 L42.03,87.82 L42.53,87.82 L43.03,87.82 L43.53,87.82 L44.03,87.82 L44.53,87.82 L45.03,87.82 L45.53,87.82 L46.03,87.82 L46.53,87.82 L47.03,87.82 L47.53,87.82 L48.03,87.82 L48.53,87.82 L49.04,87.82 L49.54,87.82 L50.04,87.82 L50.54,87.82 L51.04,87.82 L51.54,87.82 L52.04,87.82 L52.54,87.82 L53.04,87.82 L53.54,87.82 L54.04,87.82 L54.54,87.83 L55.04,87.83 L55.54,87.83 L56.04,87.83 L56.54,87.83 L57.05,87.83 L57.55,87.83 L58.05,87.83 L58.55,87.83 L59.05,87.84 L59.55,87.84 L60.05,87.84 L60.55,87.84 L61.05,87.84 L61.55,87.84 L62.05,87.85 L62.55,87.85 L63.05,87.85 L63.55,87.85 L64.05,87.86 L64.55,87.86 L65.05,87.86 L65.56,87.87 L66.06,87.87 L66.56,87.87 L67.06,87.88 L67.56,87.88 L68.06,87.89 L68.56,87.89 L69.06,87.90 L69.56,87.90 L70.06,87.91 L70.56,87.92 L71.06,87.92 L71.56,87.93 L72.06,87.94 L72.56,87.95 L73.06,87.95 L73.57,87.96 L74.07,87.97 L74.57,87.98 L75.07,87.99 L75.57,88.00 L76.07,88.02 L76.57,88.03 L77.07,88.04 L77.57,88.05 L78.07,88.07 L78.57,88.08 L79.07,88.10 L79.57,88.12 L80.07,88.14 L80.57,88.15 L81.07,88.17 L81.58,88.20 L82.08,88.22 L82.58,88.24 L83.08,88.27 L83.58,88.29 L84.08,88.32 L84.58,88.35 L85.08,88.38 L85.58,88.41 L86.08,88.44 L86.58,88.47 L87.08,88.51 L87.58,88.55 L88.08,88.59 L88.58,88.63 L89.08,88.67 L89.58,88.72 L90.09,88.76 L90.59,88.81 L91.09,88.86 L91.59,88.92 L92.09,88.97 L92.59,89.03 L93.09,89.09 L93.59,89.16 L94.09,89.22 L94.59,89.29 L95.09,89.36 L95.59,89.44 L96.09,89.52 L96.59,89.60 L97.09,89.68 L97.59,89.77 L98.10,89.86 L98.60,89.96 L99.10,90.05 L99.60,90.16 L100.10,90.26 L100.60,90.37 L101.10,90.49 L101.60,90.61 L102.10,90.73 L102.60,90.86 L103.10,90.99 L103.60,91.12 L104.10,91.26 L104.60,91.41 L105.10,91.56 L105.60,91.72 L106.11,91.88 L106.61,92.04 L107.11,92.21 L107.61,92.39 L108.11,92.57 L108.61,92.76 L109.11,92.95 L109.61,93.15 L110.11,93.36 L110.61,93.57 L111.11,93.79 L111.61,94.01 L112.11,94.24 L112.61,94.47 L113.11,94.72 L113.61,94.97 L114.11,95.22 L114.62,95.48 L115.12,95.75 L115.62,96.02 L116.12,96.31 L116.62,96.59 L117.12,96.89 L117.62,97.19 L118.12,97.50 L118.62,97.81 L119.12,98.14 L119.62,98.46 L120.12,98.80 L120.62,99.14 L121.12,99.49 L121.62,99.85 L122.12,100.21 L122.63,100.58 L123.13,100.95 L123.63,101.33 L124.13,101.72 L124.63,102.12 L125.13,102.52 L125.63,102.92 L126.13,103.33 L126.63,103.75 L127.13,104.18 L127.63,104.61 L128.13,105.04 L128.63,105.48 L129.13,105.92 L129.63,106.37 L130.13,106.83 L130.63,107.29 L131.14,107.75 L131.64,108.22 L132.14,108.69 L132.64,109.16 L133.14,109.64 L133.64,110.12 L134.14,110.60 L134.64,111.08 L135.14,111.57 L135.64,112.05 L136.14,112.54 L136.64,113.03 L137.14,113.52 L137.64,114.01 L138.14,114.50 L138.64,114.99 L139.15,115.48 L139.65,115.97 L140.15,116.45 L140.65,116.93 L141.15,117.41 L141.65,117.89 L142.15,118.36 L142.65,118.83 L143.15,119.30 L143.65,119.75 L144.15,120.21 L144.65,120.66 L145.15,121.10 L145.65,121.53 L146.15,121.96 L146.65,122.38 L147.16,122.79 L147.66,123.19 L148.16,123.58 L148.66,123.96 L149.16,124.33 L149.66,124.69 L150.16,125.04 L150.66,125.38 L151.16,125.70 L151.66,126.02 L152.16,126.31 L152.66,126.60 L153.16,126.87 L153.66,127.12 L154.16,127.36 L154.66,127.59 L155.16,127.80 L155.67,127.99 L156.17,128.16 L156.67,128.32 L157.17,128.46 L157.67,128.58 L158.17,128.68 L158.67,128.76 L159.17,128.82 L159.67,128.87 L160.17,128.89 L160.67,128.89 L161.17,128.88 L161.67,128.84 L162.17,128.78 L162.67,128.70 L163.17,128.59 L163.68,128.47 L164.18,128.32 L164.68,128.15 L165.18,127.96 L165.68,127.75 L166.18,127.51 L166.68,127.25 L167.18,126.97 L167.68,126.67 L168.18,126.34 L168.68,125.99 L169.18,125.62 L169.68,125.22 L170.18,124.80 L170.68,124.36 L171.18,123.90 L171.68,123.41 L172.19,122.91 L172.69,122.38 L173.19,121.83 L173.69,121.25 L174.19,120.66 L174.69,120.05 L175.19,119.41 L175.69,118.76 L176.19,118.08 L176.69,117.39 L177.19,116.68 L177.69,115.95 L178.19,115.20 L178.69,114.43 L179.19,113.65 L179.69,112.85 L180.20,112.03 L180.70,111.20 L181.20,110.36 L181.70,109.49 L182.20,108.62 L182.70,107.73 L183.20,106.83 L183.70,105.92 L184.20,105.00 L184.70,104.07 L185.20,103.13 L185.70,102.18 L186.20,101.22 L186.70,100.26 L187.20,99.29 L187.70,98.31 L188.21,97.33 L188.71,96.34 L189.21,95.35 L189.71,94.36 L190.21,93.37 L190.71,92.37 L191.21,91.38 L191.71,90.39 L192.21,89.40 L192.71,88.41 L193.21,87.43 L193.71,86.45 L194.21,85.47 L194.71,84.50 L195.21,83.54 L195.71,82.59 L196.21,81.65 L196.72,80.71 L197.22,79.79 L197.72,78.87 L198.22,77.97 L198.72,77.09 L199.22,76.21 L199.72,75.35 L200.22,74.51 L200.72,73.68 L201.22,72.87 L201.72,72.08 L202.22,71.30 L202.72,70.54 L203.22,69.81 L203.72,69.09 L204.22,68.40 L204.73,67.72 L205.23,67.07 L205.73,66.44 L206.23,65.84 L206.73,65.26 L207.23,64.70 L207.73,64.17 L208.23,63.67 L208.73,63.19 L209.23,62.74 L209.73,62.32 L210.23,61.92 L210.73,61.55 L211.23,61.21 L211.73,60.90 L212.23,60.61 L212.74,60.36 L213.24,60.13 L213.74,59.94 L214.24,59.77 L214.74,59.64 L215.24,59.53 L215.74,59.45 L216.24,59.41 L216.74,59.39 L217.24,59.41 L217.74,59.45 L218.24,59.53 L218.74,59.64 L219.24,59.77 L219.74,59.94 L220.24,60.13 L220.74,60.36 L221.25,60.61 L221.75,60.89 L222.25,61.21 L222.75,61.55 L223.25,61.92 L223.75,62.31 L224.25,62.74 L224.75,63.19 L225.25,63.67 L225.75,64.17 L226.25,64.70 L226.75,65.25 L227.25,65.83 L227.75,66.44 L228.25,67.07 L228.75,67.72 L229.26,68.39 L229.76,69.08 L230.26,69.80 L230.76,70.54 L231.26,71.29 L231.76,72.07 L232.26,72.86 L232.76,73.67 L233.26,74.50 L233.76,75.34 L234.26,76.20 L234.76,77.08 L235.26,77.97 L235.76,78.87 L236.26,79.78 L236.76,80.70 L237.26,81.64 L237.77,82.58 L238.27,83.53 L238.77,84.50 L239.27,85.46 L239.77,86.44 L240.27,87.42 L240.77,88.40 L241.27,89.39 L241.77,90.38 L242.27,91.37 L242.77,92.36 L243.27,93.36 L243.77,94.35 L244.27,95.34 L244.77,96.33 L245.27,97.32 L245.78,98.30 L246.28,99.28 L246.78,100.25 L247.28,101.21 L247.78,102.17 L248.28,103.12 L248.78,104.06 L249.28,104.99 L249.78,105.92 L250.28,106.83 L250.78,107.73 L251.28,108.61 L251.78,109.49 L252.28,110.35 L252.78,111.19 L253.28,112.02 L253.79,112.84 L254.29,113.64 L254.79,114.42 L255.29,115.19 L255.79,115.94 L256.29,116.67 L256.79,117.38 L257.29,118.08 L257.79,118.75 L258.29,119.41 L258.79,120.04 L259.29,120.66 L259.79,121.25 L260.29,121.82 L260.79,122.37 L261.29,122.90 L261.79,123.41 L262.30,123.89 L262.80,124.36 L263.30,124.80 L263.80,125.22 L264.30,125.61 L264.80,125.99 L265.30,126.34 L265.80,126.66 L266.30,126.97 L266.80,127.25 L267.30,127.51 L267.80,127.75 L268.30,127.96 L268.80,128.15 L269.30,128.32 L269.80,128.47 L270.31,128.59 L270.81,128.70 L271.31,128.78 L271.81,128.84 L272.31,128.88 L272.81,128.89 L273.31,128.89 L273.81,128.87 L274.31,128.82 L274.81,128.76 L275.31,128.68 L275.81,128.58 L276.31,128.46 L276.81,128.32 L277.31,128.16 L277.81,127.99 L278.32,127.80 L278.82,127.59 L279.32,127.37 L279.82,127.13 L280.32,126.87 L280.82,126.60 L281.32,126.32 L281.82,126.02 L282.32,125.71 L282.82,125.38 L283.32,125.05 L283.82,124.70 L284.32,124.34 L284.82,123.97 L285.32,123.58 L285.82,123.19 L286.32,122.79 L286.83,122.38 L287.33,121.96 L287.83,121.54 L288.33,121.10 L288.83,120.66 L289.33,120.21 L289.83,119.76 L290.33,119.30 L290.83,118.84 L291.33,118.37 L291.83,117.89 L292.33,117.42 L292.83,116.94 L293.33,116.46 L293.83,115.97 L294.33,115.48 L294.84,115.00 L295.34,114.51 L295.84,114.02 L296.34,113.53 L296.84,113.04 L297.34,112.55 L297.84,112.06 L298.34,111.57 L298.84,111.09 L299.34,110.60 L299.84,110.12 L300.34,109.64 L300.84,109.16 L301.34,108.69 L301.84,108.22 L302.34,107.75 L302.84,107.29 L303.35,106.83 L303.85,106.38 L304.35,105.93 L304.85,105.48 L305.35,105.04 L305.85,104.61 L306.35,104.18 L306.85,103.76 L307.35,103.34 L307.85,102.93 L308.35,102.52 L308.85,102.12 L309.35,101.72 L309.85,101.34 L310.35,100.96 L310.85,100.58 L311.36,100.21 L311.86,99.85 L312.36,99.49 L312.86,99.14 L313.36,98.80 L313.86,98.47 L314.36,98.14 L314.86,97.82 L315.36,97.50 L315.86,97.19 L316.36,96.89 L316.86,96.60 L317.36,96.31 L317.86,96.03 L318.36,95.75 L318.86,95.48 L319.37,95.22 L319.87,94.97 L320.37,94.72 L320.87,94.48 L321.37,94.24 L321.87,94.01 L322.37,93.79 L322.87,93.57 L323.37,93.36 L323.87,93.16 L324.37,92.96 L324.87,92.76 L325.37,92.57 L325.87,92.39 L326.37,92.22 L326.87,92.04 L327.37,91.88 L327.88,91.72 L328.38,91.56 L328.88,91.41 L329.38,91.27 L329.88,91.12 L330.38,90.99 L330.88,90.86 L331.38,90.73 L331.88,90.61 L332.38,90.49 L332.88,90.37 L333.38,90.26 L333.88,90.16 L334.38,90.06 L334.88,89.96 L335.38,89.86 L335.89,89.77 L336.39,89.68 L336.89,89.60 L337.39,89.52 L337.89,89.44 L338.39,89.36 L338.89,89.29 L339.39,89.22 L339.89,89.16 L340.39,89.09 L340.89,89.03 L341.39,88.97 L341.89,88.92 L342.39,88.86 L342.89,88.81 L343.39,88.76 L343.89,88.72 L344.40,88.67 L344.90,88.63 L345.40,88.59 L345.90,88.55 L346.40,88.51 L346.90,88.47 L347.40,88.44 L347.90,88.41 L348.40,88.38 L348.90,88.35 L349.40,88.32 L349.90,88.29 L350.40,88.27 L350.90,88.24 L351.40,88.22 L351.90,88.20 L352.41,88.17 L352.91,88.15 L353.41,88.14 L353.91,88.12 L354.41,88.10 L354.91,88.08 L355.41,88.07 L355.91,88.05 L356.41,88.04 L356.91,88.03 L357.41,88.02 L357.91,88.00 L358.41,87.99 L358.91,87.98 L359.41,87.97 L359.91,87.96 L360.42,87.95 L360.92,87.95 L361.42,87.94 L361.92,87.93 L362.42,87.92 L362.92,87.92 L363.42,87.91 L363.92,87.90 L364.42,87.90 L364.92,87.89 L365.42,87.89 L365.92,87.88 L366.42,87.88 L366.92,87.87 L367.42,87.87 L367.92,87.87 L368.42,87.86 L368.93,87.86 L369.43,87.86 L369.93,87.85 L370.43,87.85 L370.93,87.85 L371.43,87.85 L371.93,87.84 L372.43,87.84 L372.93,87.84 L373.43,87.84 L373.93,87.84 L374.43,87.84 L374.93,87.83 L375.43,87.83 L375.93,87.83 L376.43,87.83 L376.94,87.83 L377.44,87.83 L377.94,87.83 L378.44,87.83 L378.94,87.83 L379.44,87.82 L379.94,87.82 L380.44,87.82 L380.94,87.82 L381.44,87.82 L381.94,87.82 L382.44,87.82 L382.94,87.82 L383.44,87.82 L383.94,87.82 L384.44,87.82 L384.95,87.82 L385.45,87.82 L385.95,87.82 L386.45,87.82 L386.95,87.82 L387.45,87.82 L387.95,87.82 L388.45,87.82 L388.95,87.82 L389.45,87.82 L389.95,87.82 L390.45,87.82 L390.95,87.82 L391.45,87.82 L391.95,87.82 L392.45,87.82 L392.95,87.81 L393.46,87.81 L393.96,87.81 L394.46,87.81 L394.96,87.81 L395.46,87.81 L395.96,87.81 L396.46,87.81 L396.96,87.81 L397.46,87.81 L397.96,87.81 L398.46,87.81 L398.96,87.81 L399.46,87.81 L399.96,87.81 L400.46,87.81 L400.96,87.81 L401.47,87.81 L401.97,87.81 L402.47,87.81 L402.97,87.81 L403.47,87.81 L403.97,87.81 L404.47,87.81 L404.97,87.81 L405.47,87.81 L405.97,87.81 L406.47,87.81 L406.97,87.81 L407.47,87.81 L407.97,87.81 L408.47,87.81 L408.97,87.81 L409.47,87.81 L409.98,87.81 L410.48,87.81 L410.98,87.81 L411.48,87.81 L411.98,87.81 L412.48,87.81 L412.98,87.81 L413.48,87.81 L413.98,87.81 L414.48,87.81 L414.98,87.81 L415.48,87.81 L415.98,87.81 L416.48,87.81 L416.98,87.81 L417.48,87.81 L417.99,87.81 L418.49,87.81 L418.99,87.81 L419.49,87.81 L419.99,87.81 L420.49,87.81 L420.99,87.81 L421.49,87.81 L421.99,87.81 L422.49,87.81 L422.99,87.81 L423.49,87.81 L423.99,87.81 L424.49,87.81 L424.99,87.81 L425.49,87.81 L426.00,87.81 L426.50,87.81 L427.00,87.81 L427.50,87.81 L428.00,87.81 L428.50,87.81 L429.00,87.81 L429.50,87.81 L430.00,87.81" style="stroke-width: 1; stroke: rgb(67, 67, 67);"/></g><rect class="real" x="21" y="1" width="408" height="178" style="stroke: gray; fill: transparent;"/></g><g style="font-family: Asana-Math, Asana;"><line x1="20" y1="185" x2="430" y2="185" fill="none" stroke="black" stroke-width="0.5"/><line x1="21.007632282017752" y1="185" x2="21.007632282017752" y2="189" fill="none" stroke="black" stroke-width="0.5"/><line x1="69.94132502341174" y1="185" x2="69.94132502341174" y2="189" fill="none" stroke="black" stroke-width="0.5"/><line x1="118.87501776480573" y1="185" x2="118.87501776480573" y2="189" fill="none" stroke="black" stroke-width="0.5"/><line x1="167.80871050619973" y1="185" x2="167.80871050619973" y2="189" fill="none" stroke="black" stroke-width="0.5"/><line x1="216.74240324759373" y1="185" x2="216.74240324759373" y2="189" fill="none" stroke="black" stroke-width="0.5"/><line x1="265.67609598898775" y1="185" x2="265.67609598898775" y2="189" fill="none" stroke="black" stroke-width="0.5"/><line x1="314.6097887303817" y1="185" x2="314.6097887303817" y2="189" fill="none" stroke="black" stroke-width="0.5"/><line x1="363.5434814717757" y1="185" x2="363.5434814717757" y2="189" fill="none" stroke="black" stroke-width="0.5"/><line x1="412.47717421316975" y1="185" x2="412.47717421316975" y2="189" fill="none" stroke="black" stroke-width="0.5"/><text text-anchor="middle" font-size="11" stroke="none" fill="gray" x="21.007632282017752" y="201">-4</text><text text-anchor="middle" font-size="11" stroke="none" fill="gray" x="69.94132502341174" y="201">-3</text><text text-anchor="middle" font-size="11" stroke="none" fill="gray" x="118.87501776480573" y="201">-2</text><text text-anchor="middle" font-size="11" stroke="none" fill="gray" x="167.80871050619973" y="201">-1</text><text text-anchor="middle" font-size="11" stroke="none" fill="gray" x="216.74240324759373" y="201">0</text><text text-anchor="middle" font-size="11" stroke="none" fill="gray" x="265.67609598898775" y="201">1</text><text text-anchor="middle" font-size="11" stroke="none" fill="gray" x="314.6097887303817" y="201">2</text><text text-anchor="middle" font-size="11" stroke="none" fill="gray" x="363.5434814717757" y="201">3</text><text text-anchor="middle" font-size="11" stroke="none" fill="gray" x="412.47717421316975" y="201">4</text></g><g style="font-family: Asana-Math, Asana;"><line x1="15" y1="0" x2="15" y2="180" fill="none" stroke="black" stroke-width="0.5"/><line x1="11" y1="136.74741331688273" x2="15" y2="136.74741331688273" fill="none" stroke="black" stroke-width="0.5"/><line x1="11" y1="87.81372057548874" x2="15" y2="87.81372057548874" fill="none" stroke="black" stroke-width="0.5"/><line x1="11" y1="38.88002783409473" x2="15" y2="38.88002783409473" fill="none" stroke="black" stroke-width="0.5"/><text text-anchor="end" font-size="11" stroke="none" fill="gray" x="5" y="140.74741331688273">-1</text><text text-anchor="end" font-size="11" stroke="none" fill="gray" x="5" y="91.81372057548874">0</text><text text-anchor="end" font-size="11" stroke="none" fill="gray" x="5" y="42.88002783409473">1</text></g></g><g class="intersections-group"><g style="stroke: rgb(0, 0, 0); stroke-width: 1; fill: none;"/></g></g><g/><g/><!-- react-empty: 62347 --></svg>
        <svg xmlns="http://www.w3.org/2000/svg" width="660" height="300" style="width:660px;height:300px;font-family:Asana-Math, Asana;background:transparent;"><g><g><g style="transform:matrix(1,0,0,1,326.71356201171875,132.56668701171876);"><path d="M604 241L604 300L364 300L364 538L305 538L305 300L65 300L65 241L305 241L305 0L364 0L364 241Z" stroke="rgb(26, 43, 152)" stroke-width="8" fill="rgb(26, 43, 152)" style="transform:matrix(0.0119,0,0,-0.0119,0,0);"></path></g><g style="transform:matrix(1,0,0,1,334.71356201171875,132.56668701171876);"><path d="M328 111L304 94C251 56 203 36 167 36C120 36 91 73 91 133C91 158 94 185 99 214C116 218 225 248 250 259C335 296 374 342 374 404C374 451 340 482 290 482C222 496 112 423 75 349C45 299 15 180 15 113C15 35 59 -11 131 -11C188 -11 244 17 336 92ZM113 274C130 343 150 386 179 412C197 428 228 440 252 440C281 440 300 420 300 388C300 344 265 297 213 272C185 258 149 247 104 237Z" stroke="rgb(26, 43, 152)" stroke-width="8" fill="rgb(26, 43, 152)" style="transform:matrix(0.0119,0,0,-0.0119,0,0);"></path></g></g></g><g><g><g style="transform:matrix(1,0,0,1,380.08856201171875,135.56668701171876);"><path d="M555 243L555 299L51 299L51 243Z" stroke="rgb(26, 43, 152)" stroke-width="8" fill="rgb(26, 43, 152)" style="transform:matrix(0.0119,0,0,-0.0119,0,0);"></path></g><g style="transform:matrix(1,0,0,1,387.421875,135.56668701171876);"><path d="M328 111L304 94C251 56 203 36 167 36C120 36 91 73 91 133C91 158 94 185 99 214C116 218 225 248 250 259C335 296 374 342 374 404C374 451 340 482 290 482C222 496 112 423 75 349C45 299 15 180 15 113C15 35 59 -11 131 -11C188 -11 244 17 336 92ZM113 274C130 343 150 386 179 412C197 428 228 440 252 440C281 440 300 420 300 388C300 344 265 297 213 272C185 258 149 247 104 237Z" stroke="rgb(26, 43, 152)" stroke-width="8" fill="rgb(26, 43, 152)" style="transform:matrix(0.0119,0,0,-0.0119,0,0);"></path></g></g></g><g><g><g style="transform:matrix(1,0,0,1,264.08856201171875,135.56668701171876);"><path d="M555 243L555 299L51 299L51 243Z" stroke="rgb(26, 43, 152)" stroke-width="8" fill="rgb(26, 43, 152)" style="transform:matrix(0.0119,0,0,-0.0119,0,0);"></path></g><g style="transform:matrix(1,0,0,1,271.421875,135.56668701171876);"><path d="M328 111L304 94C251 56 203 36 167 36C120 36 91 73 91 133C91 158 94 185 99 214C116 218 225 248 250 259C335 296 374 342 374 404C374 451 340 482 290 482C222 496 112 423 75 349C45 299 15 180 15 113C15 35 59 -11 131 -11C188 -11 244 17 336 92ZM113 274C130 343 150 386 179 412C197 428 228 440 252 440C281 440 300 420 300 388C300 344 265 297 213 272C185 258 149 247 104 237Z" stroke="rgb(26, 43, 152)" stroke-width="8" fill="rgb(26, 43, 152)" style="transform:matrix(0.0119,0,0,-0.0119,0,0);"></path></g></g></g></svg>
</svg>
